<svg id="Layer_1" xmlns="http://www.w3.org/2000/svg" viewBox="0 0 447.7 399.9"><style>.st1{fill:none;stroke:#1d006a;stroke-width:6;stroke-linecap:round;stroke-linejoin:round;stroke-miterlimit:10}</style><path d="M119.5 86h208.8v231.8H140.8c-11.8 0-21.3-9.5-21.3-21.3V86z" fill="#fff"/><path class="st1" d="M119.7 217.7V86.2h66.8M206.7 86.2h121.7V318H141c-11.8 0-21.3-9.5-21.3-21.3v-54.6"/><path d="M282.6 296.8h67.1c0 11.8-9.5 21.3-21.3 21.3H141c11.8 0 21.3-9.5 21.3-21.3h94.1" fill="#3b2e7d" stroke="#1d006a" stroke-width="6" stroke-linecap="round" stroke-linejoin="round" stroke-miterlimit="10"/><path class="st1" d="M159.3 137h135.5M253.8 167.7h41M159.3 167.7h70.3M276.4 198.4h18.4M159.3 198.4h97"/><path d="M272.7 260.5v-13c0-5.6-4.6-10.2-10.2-10.2s-10.2 4.6-10.2 10.2v13V238c0-5.6-4.6-10.2-10.2-10.2s-10.2 4.6-10.2 10.2v22.6-61.5c0-5.6-4.6-10.2-10.2-10.2s-10.2 4.6-10.2 10.2v76.7l-8.5-9.3c-4.2-4.6-9.4-8.2-15.2-10.6h-.1c-7.2-2.9-15.5-.7-20.3 5.4-2.5 3.2-1.1 8 2.6 9.5l14.6 5.9 11.8 12.9 18.3 38.5c0 13.5 69.5 13.5 69.5 0l7.1-41.6c1.2-7.1 1.8-14.3 1.8-21.6v-9.5c0-5.6-4.6-10.2-10.2-10.2s-10.2 4.6-10.2 10.2v5.1z" fill="#ec672c" stroke="#1d006a" stroke-width="6" stroke-linecap="round" stroke-linejoin="round" stroke-miterlimit="10"/></svg>