<svg id="Layer_1" xmlns="http://www.w3.org/2000/svg" xmlns:xlink="http://www.w3.org/1999/xlink" viewBox="0 0 1072 1072"><style>.st0{fill:#f4f4f4}.st1{fill:#1d016a}.st2{fill:none;stroke:#ff5c00;stroke-width:1.0101;stroke-miterlimit:10}.st5{fill:#303537}.st6{fill:#ff5c00}.st7{fill:none;stroke:#1d016a;stroke-width:1.0101;stroke-miterlimit:10}.st9{fill:#fa7c4e}.st12{fill:#fff}.st13{fill:#dddfe3}.st14{fill:#a5b6d0}.st15{fill:#4f5459}.st17{fill:#313537}.st18{fill:#e78059}</style><path class="st0" d="M0 0h1072v1072H0z"/><path class="st1" d="M1678.2 387l-85.5 6.2c-2 .1-3.6-1.4-3.6-3.4v-85.5c0-1.8 1.4-3.2 3.1-3.4l85.5-6.2c2-.1 3.6 1.4 3.6 3.4v85.5c0 1.8-1.4 3.3-3.1 3.4z"/><path class="st2" d="M1682.9 382.6l-85.5 6.2c-2 .1-3.6-1.4-3.6-3.4V300c0-1.8 1.4-3.2 3.1-3.4l85.5-6.2c2-.1 3.6 1.4 3.6 3.4v85.5c0 1.7-1.3 3.2-3.1 3.3z"/><path d="M1565.9 395.2l-47.5 3.5c-1.1.1-2-.8-2-1.9v-47.4c0-1 .8-1.8 1.7-1.9l47.5-3.5c1.1-.1 2 .8 2 1.9v47.4c.1 1.1-.7 1.9-1.7 1.9z" fill="#605396"/><path class="st2" d="M1569.2 392.1l-47.5 3.5c-1.1.1-2-.8-2-1.9v-47.4c0-1 .8-1.8 1.7-1.9l47.5-3.5c1.1-.1 2 .8 2 1.9v47.4c.1 1.1-.7 1.9-1.7 1.9z"/><path d="M1753.5 381.3l-47.5 3.5c-1.1.1-2-.8-2-1.9v-47.4c0-1 .8-1.8 1.7-1.9l47.5-3.5c1.1-.1 2 .8 2 1.9v47.4c0 1-.7 1.8-1.7 1.9z" fill="#55468f"/><path class="st2" d="M1756.8 378.2l-47.5 3.5c-1.1.1-2-.8-2-1.9v-47.4c0-1 .8-1.8 1.7-1.9l47.5-3.5c1.1-.1 2 .8 2 1.9v47.4c0 1-.7 1.8-1.7 1.9z"/><path class="st5" d="M2019.6 519.7l-85.5 6.2c-2 .1-3.6-1.4-3.6-3.4V437c0-1.8 1.4-3.2 3.1-3.4l85.5-6.2c2-.1 3.6 1.4 3.6 3.4v85.5c0 1.8-1.4 3.3-3.1 3.4z"/><path class="st2" d="M2024.3 515.4l-85.5 6.2c-2 .1-3.6-1.4-3.6-3.4v-85.5c0-1.8 1.4-3.2 3.1-3.4l85.5-6.2c2-.1 3.6 1.4 3.6 3.4V512c0 1.8-1.3 3.2-3.1 3.4z"/><path class="st0" d="M1946.4 410.7l-85.5 6.2c-2 .1-3.6-1.4-3.6-3.4V328c0-1.8 1.4-3.2 3.1-3.4l85.5-6.2c2-.1 3.6 1.4 3.6 3.4v85.5c0 1.8-1.4 3.3-3.1 3.4z"/><path class="st2" d="M1951.1 406.3l-85.5 6.2c-2 .1-3.6-1.4-3.6-3.4v-85.5c0-1.8 1.4-3.2 3.1-3.4l85.5-6.2c2-.1 3.6 1.4 3.6 3.4V403c0 1.7-1.4 3.2-3.1 3.3z"/><path class="st6" d="M1677.8 523.7l-85.5 6.2c-2 .1-3.6-1.4-3.6-3.4V441c0-1.8 1.4-3.2 3.1-3.4l85.5-6.2c2-.1 3.6 1.4 3.6 3.4v85.5c0 1.8-1.3 3.2-3.1 3.4z"/><path class="st7" d="M1682.5 519.3l-85.5 6.2c-2 .1-3.6-1.4-3.6-3.4v-85.5c0-1.8 1.4-3.2 3.1-3.4l85.5-6.2c2-.1 3.6 1.4 3.6 3.4v85.5c0 1.8-1.3 3.3-3.1 3.4z"/><path d="M1565.6 531.9l-47.5 3.5c-1.1.1-2-.8-2-1.9v-47.4c0-1 .8-1.8 1.7-1.9l47.5-3.5c1.1-.1 2 .8 2 1.9V530c0 1-.8 1.8-1.7 1.9z" fill="#f98158"/><path class="st7" d="M1568.8 528.8l-47.5 3.5c-1.1.1-2-.8-2-1.9V483c0-1 .8-1.8 1.7-1.9l47.5-3.5c1.1-.1 2 .8 2 1.9v47.4c.1 1-.7 1.8-1.7 1.9z"/><path class="st9" d="M1753.1 518l-47.5 3.5c-1.1.1-2-.8-2-1.9v-47.4c0-1 .8-1.8 1.7-1.9l47.5-3.5c1.1-.1 2 .8 2 1.9v47.4c0 1-.7 1.8-1.7 1.9z"/><path class="st7" d="M1756.4 514.9l-47.5 3.5c-1.1.1-2-.8-2-1.9V469c0-1 .8-1.8 1.7-1.9l47.5-3.5c1.1-.1 2 .8 2 1.9V513c0 1-.7 1.8-1.7 1.9z"/><path class="st6" d="M1040.6 839.6L18.2 873.3C8 873.7 0 882 0 892.1v160.5c0 10.6 8.8 19.1 19.4 18.8l1022.4-33.7c10.1-.3 18.2-8.6 18.2-18.8V858.4c0-10.6-8.8-19.1-19.4-18.8z"/><path d="M1054.6 828.2L26.4 862c-8.6.3-15.4 7.3-15.4 15.9v166.2c0 9 7.5 16.2 16.4 15.9l1028.1-33.9c8.6-.3 15.4-7.3 15.4-15.9V844.1c.1-9-7.4-16.2-16.3-15.9z" fill="none" stroke="#1d016a" stroke-width="2.169" stroke-miterlimit="10"/><path class="st12" d="M182.3 987l-.2-4.8 5.8-1.1-1.3-42.1-5.6-.9-.1-4.7 11.2-.4c1.1 0 2.1-.1 3-.2.9-.1 1.8-.2 2.8-.2.9-.1 2-.2 3.1-.2 1.1-.1 2.4-.1 3.9-.2 3.6-.1 6.7.2 9.2.7 2.5.6 4.5 1.5 6.1 2.8 1.6 1.3 2.7 2.9 3.5 4.8.7 1.9 1.1 4.2 1.2 6.9.1 3.1-.3 5.8-1.3 8.2-.9 2.4-2.3 4.4-4.1 6-1.8 1.6-4.1 2.9-6.7 3.8-2.7.9-5.6 1.4-9 1.5h-3.2c-.5 0-.9 0-1.2-.1-.3 0-.6 0-.7-.1l.4 14 9.9.6.2 4.8-26.9.9zm16.1-25.2c.6.1 1.3.2 2 .2h3c1.3 0 2.6-.3 3.8-.8 1.2-.5 2.2-1.3 3.1-2.4.9-1.1 1.6-2.5 2.1-4.3.5-1.8.7-4 .6-6.6-.2-7.5-3.7-11.1-10.3-10.9-1.3 0-2.3.1-3 .3l-2.1.3.8 24.2zM229.5 985.5l-.1-4.7 5.1-.9-1.5-47.1-5.3-.7-.1-4.1 13.7-2.2h.1l2.3 1.6 1.7 52.1 5.3.5.1 4.7-21.3.8zM254.3 974c-.1-1.7.2-3.3.8-4.6s1.4-2.6 2.5-3.6 2.3-1.9 3.8-2.7c1.5-.8 3-1.4 4.7-1.9 1.7-.5 3.5-.9 5.3-1.2s3.7-.5 5.6-.6l-.1-1.7c-.1-2.7-.7-4.6-1.8-5.7-1.1-1.1-2.9-1.6-5.4-1.5-1.3 0-2.5.2-3.8.4-1.3.2-2.5.5-3.7.9-1.2.3-2.2.7-3.2 1.1-1 .4-1.8.8-2.5 1.1l-2.2-4.7c.5-.4 1.3-1 2.5-1.6 1.2-.7 2.5-1.4 4.2-2 1.6-.7 3.4-1.3 5.4-1.8 2-.5 4-.8 6.1-.9 2.6-.1 4.8.1 6.7.6 1.8.5 3.3 1.3 4.5 2.5 1.2 1.1 2.1 2.6 2.6 4.4.6 1.8.9 3.9 1 6.3l.7 22 4.4-.1.1 4.3c-.4.1-1 .2-1.6.4-.7.2-1.4.3-2.2.5-.8.2-1.6.3-2.6.4-.9.1-1.9.2-2.8.2h-2.2c-.6-.1-1.1-.2-1.5-.4-.4-.2-.6-.6-.8-1.1-.2-.5-.3-1.1-.3-1.9l-.1-2c-.4.6-.9 1.2-1.6 1.9s-1.5 1.3-2.5 1.9c-1 .6-2.1 1.1-3.4 1.6-1.3.4-2.6.7-4.2.7-1.7.1-3.2-.1-4.7-.5s-2.8-1.1-3.9-2c-1.1-.9-2-2.1-2.7-3.5-.7-1.5-1-3.2-1.1-5.2zm16.9 4.2c.4 0 .9-.1 1.4-.2s1.1-.3 1.7-.5c.6-.2 1.1-.5 1.7-.8.6-.3 1-.7 1.4-1.1l-.4-11.7c-2.3.1-4.2.3-5.7.8s-2.7 1.1-3.6 1.8-1.5 1.6-1.9 2.5c-.4.9-.5 1.9-.5 2.9.1 2.1.6 3.7 1.6 4.7s2.5 1.6 4.3 1.6zM296.9 983.4l-.1-4.7 4.5-.8-.9-27.1-4.8-1.3-.2-5.3 12.6-2.1h.2l1.9 1.5.1 4.2c.8-.7 1.6-1.5 2.7-2.2 1-.7 2.2-1.3 3.4-1.9 1.2-.6 2.5-1 3.9-1.4 1.4-.4 2.7-.6 4.1-.6 2.3-.1 4.2.2 5.7.7 1.5.5 2.8 1.4 3.7 2.7.9 1.3 1.6 2.9 2.1 4.9.4 2 .7 4.5.8 7.3l.6 19.5 5 .5.1 4.7-19.8.6-.1-4.7 3.8-.8-.6-19.7c-.1-1.6-.2-3-.4-4.2-.2-1.2-.5-2.1-1-2.9-.5-.7-1.1-1.3-1.9-1.6-.8-.3-1.8-.5-3-.5-.8 0-1.6.1-2.4.3-.8.2-1.5.5-2.2.8-.7.3-1.3.6-1.9 1-.6.4-1.1.7-1.5 1.1l.8 26.1 4.7.6.1 4.7-20 .6zM345.2 961.9c-.1-3.6.3-6.7 1.4-9.4s2.4-4.9 4.2-6.8c1.8-1.8 3.9-3.2 6.2-4.1 2.4-.9 4.9-1.5 7.5-1.5 3.1-.1 5.8.3 8.2 1.2 2.4.9 4.4 2.2 6.1 3.9 1.7 1.7 2.9 3.9 3.8 6.4.9 2.5 1.4 5.4 1.5 8.7.1 3.7-.3 6.9-1.4 9.6-1 2.7-2.4 5-4.2 6.7-1.8 1.8-3.9 3.1-6.2 4-2.4.9-4.9 1.4-7.5 1.5-3.1.1-5.8-.3-8.2-1.2-2.4-.9-4.4-2.2-6.1-3.9-1.7-1.7-3-3.9-3.9-6.4-.8-2.6-1.3-5.5-1.4-8.7zm20 15.3c1.3 0 2.4-.4 3.3-1 .9-.6 1.7-1.5 2.3-2.8.6-1.3 1-2.8 1.2-4.8.2-1.9.3-4.2.2-6.9-.1-2.8-.3-5.2-.6-7.3-.3-2.1-.8-3.9-1.5-5.3-.6-1.4-1.5-2.5-2.5-3.2-1-.7-2.2-1-3.6-1-1.3 0-2.4.4-3.3 1-.9.6-1.7 1.5-2.3 2.8-.6 1.3-1 2.8-1.3 4.8-.2 1.9-.3 4.2-.2 6.9.1 2.7.3 5.2.7 7.3.3 2.1.9 3.9 1.5 5.3.7 1.4 1.5 2.5 2.5 3.2 1 .7 2.2 1 3.6 1zM427.8 980c-2.2.1-4.2-.3-6.2-1-1.9-.7-3.6-1.9-5.1-3.5-1.5-1.6-2.6-3.6-3.5-6.1-.9-2.5-1.4-5.4-1.5-8.8-.1-3.2.3-6.2 1.1-8.9.9-2.7 2.2-5.1 3.9-7.1 1.7-2 3.9-3.6 6.4-4.8 2.6-1.2 5.5-1.8 8.7-1.9h2.9l2.7.3-.4-12-6.5-.9-.1-4 14.9-2h.2l2.2 1.6 1.7 52.7 3.9-.1.1 4.4c-1.2.3-2.5.6-4 1-1.5.3-3.1.5-4.9.6-1.4 0-2.6-.2-3.4-.8-.8-.6-1.3-1.7-1.3-3.4v-1.4c-.6.8-1.2 1.5-2 2.2-.8.7-1.7 1.4-2.7 1.9-1 .6-2.1 1-3.3 1.4-1.2.4-2.5.6-3.8.6zm4.2-6.5c1.4 0 2.7-.4 3.8-.9 1.1-.6 1.9-1.2 2.5-1.9l-.8-26.6c-.4-.4-1.1-.8-2-1.1-.9-.3-2-.4-3.3-.4-1.3 0-2.5.3-3.6.9-1.1.6-2.1 1.5-2.9 2.8-.8 1.3-1.4 2.9-1.9 5-.4 2.1-.6 4.6-.6 7.6 0 2.6.3 4.9.7 6.7s1 3.4 1.8 4.5c.8 1.2 1.7 2 2.7 2.5 1.2.7 2.3.9 3.6.9zM477 978.5c-3.3.1-6.2-.3-8.6-1.3-2.4-1-4.4-2.3-6-4.1-1.6-1.8-2.8-4-3.6-6.5-.8-2.5-1.3-5.3-1.4-8.4-.1-3.3.3-6.2 1.1-8.9.8-2.6 2.1-4.9 3.7-6.8 1.6-1.9 3.6-3.3 6-4.4 2.3-1 5-1.6 7.9-1.7 9.8-.3 15 4.3 15.7 13.8.1 1.6.1 3.1.1 4.4 0 1.3-.1 2.4-.3 3.3l-23 .7c.2 2.3.6 4.3 1.2 5.9.6 1.6 1.4 2.9 2.3 3.9s2.1 1.7 3.3 2.2c1.3.4 2.7.6 4.2.6 1.2 0 2.3-.2 3.3-.4s2-.5 2.9-.8c.9-.3 1.7-.7 2.4-1s1.3-.7 1.8-1.1l2 4.2c-.6.6-1.4 1.3-2.4 2s-2.2 1.4-3.5 2c-1.3.6-2.8 1.1-4.3 1.5-1.6.6-3.2.8-4.8.9zm-2.2-37.2c-.9 0-1.8.2-2.5.6-.8.4-1.5 1-2 1.9-.6.9-1 2.2-1.4 3.9-.3 1.6-.5 3.8-.5 6.4l12.7-.4v-.5-.7-.7-.5c0-1.2-.2-2.4-.4-3.6-.2-1.2-.5-2.3-1-3.3s-1.1-1.7-1.9-2.3c-.8-.6-1.8-.8-3-.8zM519.7 965.6c-.1-1.7.2-3.3.8-4.6.6-1.4 1.4-2.6 2.5-3.6s2.3-1.9 3.8-2.7c1.5-.8 3-1.4 4.7-1.9 1.7-.5 3.5-.9 5.3-1.2 1.8-.3 3.7-.5 5.6-.6l-.1-1.7c-.1-2.7-.7-4.6-1.8-5.7s-2.9-1.6-5.4-1.5c-1.3 0-2.5.2-3.8.4-1.3.2-2.5.5-3.7.9-1.2.3-2.2.7-3.2 1.1-1 .4-1.8.8-2.5 1.1l-2.2-4.7c.5-.4 1.3-1 2.5-1.6 1.2-.7 2.5-1.4 4.2-2 1.6-.7 3.4-1.2 5.4-1.8s4-.8 6.1-.9c2.6-.1 4.8.1 6.7.6 1.8.5 3.3 1.3 4.5 2.5 1.2 1.1 2.1 2.6 2.6 4.4.6 1.8.9 3.9 1 6.3l.7 22 4.4-.1.1 4.3c-.4.1-1 .2-1.6.4-.7.2-1.4.3-2.2.5-.8.2-1.6.3-2.6.4-.9.1-1.9.2-2.8.2h-2.2c-.6-.1-1.1-.2-1.5-.4-.4-.2-.6-.6-.8-1.1-.2-.5-.3-1.1-.3-1.9l-.1-2c-.4.6-.9 1.2-1.6 1.9-.7.7-1.5 1.3-2.5 1.9-1 .6-2.1 1.1-3.4 1.6-1.3.4-2.6.7-4.2.7-1.7.1-3.2-.1-4.7-.5s-2.8-1.1-3.9-2c-1.1-.9-2-2.1-2.7-3.5-.6-1.5-1-3.2-1.1-5.2zm16.9 4.2c.4 0 .9-.1 1.4-.2.5-.1 1.1-.3 1.7-.5.6-.2 1.1-.5 1.7-.8.6-.3 1-.7 1.4-1.1l-.4-11.7c-2.3.1-4.2.3-5.7.8s-2.7 1.1-3.6 1.8c-.9.7-1.5 1.6-1.9 2.5s-.5 1.9-.5 2.9c.1 2.1.6 3.7 1.6 4.7s2.5 1.6 4.3 1.6zM565.7 966.4l-.8-25.9-5 .2-.1-4c.2-.1.5-.2.9-.3s.8-.3 1.3-.5c.4-.2.8-.3 1.2-.5.3-.2.6-.3.7-.4.8-.7 1.6-1.8 2.4-3.5.2-.5.5-1 .7-1.7.3-.6.5-1.3.8-2 .2-.7.5-1.4.7-2.1s.4-1.3.5-1.8l6.3-.2.4 10.4 10.4-.3.2 6-10.4.3.6 19.5c.1 1.9.1 3.4.2 4.5s.3 1.9.5 2.5.6.9 1.1 1.1c.5.2 1.1.2 1.9.2.6 0 1.2-.1 1.8-.2.6-.1 1.2-.2 1.8-.4.6-.1 1.1-.3 1.6-.5s.9-.3 1.2-.4l1.8 4.1c-.7.6-1.5 1.1-2.5 1.7-1 .6-2.1 1.1-3.3 1.6-1.2.5-2.5.9-3.9 1.2-1.4.3-2.7.5-4.1.5h-.1c-1.6 0-2.9-.1-4-.5s-2-.9-2.7-1.7c-.7-.8-1.2-1.7-1.6-2.9-.2-1.2-.4-2.5-.5-4zM591.9 974l-.1-4.7 5.1-.8-.9-27.1-4.8-1.4-.2-5.3 12.9-2.1h.2l2.6 1.4 1.1 34.1 5.1.5.1 4.7-21.1.7zm7.9-47.3c-.8 0-1.6-.1-2.2-.4-.7-.3-1.2-.7-1.7-1.2s-.8-1.1-1-1.8c-.2-.7-.4-1.4-.4-2.2 0-.9.1-1.8.3-2.6.2-.8.6-1.5 1.1-2.2.5-.6 1.1-1.1 1.9-1.5.8-.4 1.6-.6 2.6-.6s1.8.1 2.5.4c.7.3 1.3.7 1.8 1.2s.9 1.1 1.1 1.8.4 1.4.4 2.1c0 .9-.1 1.8-.3 2.6-.2.8-.6 1.5-1.1 2.2-.5.6-1.2 1.1-2 1.5-.8.5-1.8.7-3 .7zM632 973.3l-15.3-35-3.4-.9-.1-4.5 20.6-.7.1 4.5-5.2 1.2L636 958l2.6 8 1.7-7.9 5.7-20.7-5.2-.8-.1-4.5 16-.5.1 4.5-3.6 1.1-12 35.9-9.2.2zM660.4 971.9l-.1-4.7 5.1-.8-.9-27.1-4.8-1.4-.2-5.3 12.9-2.1h.2l2.6 1.4 1.1 34.1 5.1.5.1 4.7-21.1.7zm7.9-47.4c-.8 0-1.6-.1-2.2-.4-.7-.3-1.2-.7-1.7-1.2s-.8-1.1-1-1.8c-.2-.7-.4-1.4-.4-2.2 0-.9.1-1.8.3-2.6.2-.8.6-1.5 1.1-2.2.5-.6 1.1-1.1 1.9-1.5.8-.4 1.6-.6 2.6-.6s1.8.1 2.5.4c.7.3 1.3.7 1.8 1.2s.9 1.1 1.1 1.8.4 1.4.4 2.1c0 .9-.1 1.8-.3 2.6-.2.8-.6 1.5-1.1 2.2s-1.2 1.1-2 1.5c-.9.5-1.9.7-3 .7zM701.5 971.3c-2.2.1-4.2-.3-6.2-1-1.9-.7-3.6-1.9-5.1-3.5-1.5-1.6-2.6-3.6-3.5-6.1-.9-2.5-1.4-5.4-1.5-8.8-.1-3.2.3-6.2 1.1-8.9.9-2.7 2.2-5.1 3.9-7.1 1.7-2 3.9-3.6 6.4-4.8 2.6-1.2 5.5-1.8 8.7-1.9h2.9l2.7.3-.4-12-6.5-.9-.1-4 14.9-2h.2l2.2 1.6L723 965l3.9-.1.1 4.4c-1.2.3-2.5.6-4 1s-3.1.5-4.9.6c-1.4 0-2.6-.2-3.4-.8-.8-.6-1.3-1.7-1.3-3.4v-1.4c-.6.8-1.2 1.5-2 2.2-.8.7-1.7 1.4-2.7 1.9-1 .6-2.1 1-3.3 1.4a16 16 0 0 1-3.9.5zm4.3-6.5c1.4 0 2.7-.4 3.8-.9 1.1-.6 1.9-1.2 2.5-1.9l-.8-26.6c-.4-.4-1.1-.8-2-1.1-.9-.3-2-.4-3.3-.4s-2.5.3-3.6.9c-1.1.6-2.1 1.5-2.9 2.8-.8 1.3-1.4 2.9-1.9 5-.4 2.1-.6 4.6-.6 7.6 0 2.6.3 4.9.7 6.7.4 1.9 1 3.4 1.8 4.5.8 1.2 1.7 2 2.7 2.5 1.1.7 2.3 1 3.6.9zM731.1 958.9c-.1-1.7.2-3.3.8-4.6s1.4-2.6 2.5-3.6 2.3-1.9 3.8-2.7c1.5-.8 3-1.4 4.7-1.9 1.7-.5 3.5-.9 5.3-1.2 1.9-.3 3.7-.5 5.6-.6l-.1-1.7c-.1-2.7-.7-4.6-1.8-5.7-1.1-1.1-2.9-1.6-5.4-1.5-1.3 0-2.5.2-3.8.4-1.3.2-2.5.5-3.7.9s-2.2.7-3.2 1.1c-1 .4-1.8.8-2.5 1.1l-2.2-4.7c.5-.4 1.3-1 2.5-1.6 1.2-.7 2.5-1.4 4.2-2 1.6-.7 3.4-1.3 5.4-1.8 2-.5 4-.8 6.1-.9 2.6-.1 4.8.1 6.7.6 1.8.5 3.3 1.3 4.5 2.5 1.2 1.1 2.1 2.6 2.6 4.4.6 1.8.9 3.9 1 6.3l.7 22 4.4-.1.1 4.3c-.4.1-1 .2-1.6.4-.7.2-1.4.3-2.2.5-.8.2-1.7.3-2.6.4-.9.1-1.9.2-2.8.2h-2.2c-.6-.1-1.1-.2-1.5-.4-.4-.2-.6-.6-.8-1.1-.2-.5-.3-1.1-.3-1.9l-.1-2c-.4.6-.9 1.2-1.6 1.9s-1.5 1.3-2.5 1.9-2.1 1.1-3.4 1.6c-1.3.4-2.6.7-4.2.7-1.7.1-3.2-.1-4.7-.5s-2.8-1.1-3.9-2c-1.1-.9-2-2.1-2.7-3.5-.6-1.5-1-3.2-1.1-5.2zm16.9 4.2c.4 0 .9-.1 1.4-.2.5-.1 1.1-.3 1.7-.5.6-.2 1.1-.5 1.7-.8.6-.3 1-.7 1.4-1.1l-.4-11.7c-2.3.1-4.2.3-5.7.8s-2.7 1.1-3.6 1.8c-.9.7-1.5 1.6-1.9 2.5-.4.9-.5 1.9-.5 2.9.1 2.1.6 3.7 1.6 4.7s2.5 1.6 4.3 1.6zM788.5 968.6c-2.2.1-4.2-.3-6.2-1-1.9-.7-3.6-1.9-5.1-3.5-1.5-1.6-2.6-3.6-3.5-6.1-.9-2.5-1.4-5.4-1.5-8.8-.1-3.2.3-6.2 1.1-8.9.9-2.7 2.2-5.1 3.9-7.1 1.7-2 3.9-3.6 6.4-4.8 2.5-1.2 5.5-1.8 8.7-1.9h2.9l2.7.3-.4-12-6.5-.9-.1-4 14.9-2h.2l2.2 1.6 1.7 52.7 3.9-.1.1 4.4c-1.2.3-2.5.6-4 1-1.5.3-3.1.5-4.9.6-1.4 0-2.6-.2-3.4-.8-.8-.6-1.3-1.7-1.3-3.4v-1.4c-.6.8-1.2 1.5-2 2.2-.8.7-1.7 1.4-2.7 1.9-1 .6-2.1 1-3.3 1.4-1.1.3-2.4.5-3.8.6zm4.3-6.5c1.4 0 2.7-.4 3.8-.9 1.1-.6 1.9-1.2 2.5-1.9l-.8-26.6c-.4-.4-1.1-.8-2-1.1-.9-.3-2-.4-3.3-.4-1.3 0-2.5.3-3.6.9-1.1.6-2.1 1.5-2.9 2.8-.8 1.3-1.4 2.9-1.9 5-.4 2.1-.6 4.6-.6 7.6 0 2.6.3 4.9.7 6.7.4 1.9 1 3.4 1.8 4.5.8 1.2 1.7 2 2.7 2.5 1.1.7 2.3.9 3.6.9zM837.8 967.1c-3.3.1-6.2-.3-8.6-1.3-2.4-1-4.4-2.3-6-4.1-1.6-1.8-2.8-4-3.6-6.5-.8-2.5-1.3-5.3-1.4-8.4-.1-3.3.3-6.2 1.1-8.9.8-2.6 2.1-4.9 3.7-6.8 1.6-1.9 3.6-3.3 6-4.4 2.3-1 5-1.6 7.9-1.7 9.8-.3 15 4.3 15.7 13.8.1 1.6.1 3.1.1 4.4 0 1.3-.1 2.4-.3 3.3l-23 .7c.2 2.3.6 4.3 1.2 5.9.6 1.6 1.4 2.9 2.3 3.9 1 1 2.1 1.7 3.3 2.2 1.3.4 2.7.6 4.2.6 1.2 0 2.3-.2 3.3-.4s2-.5 2.8-.8c.9-.3 1.7-.7 2.4-1 .7-.4 1.3-.7 1.8-1.1l2 4.2c-.6.6-1.4 1.3-2.4 2s-2.2 1.4-3.5 2c-1.3.6-2.8 1.1-4.3 1.5-1.5.6-3.1.8-4.7.9zm-2.2-37.2c-.9 0-1.8.2-2.5.6-.8.4-1.5 1-2 1.9-.6.9-1 2.2-1.4 3.9s-.5 3.8-.5 6.3l12.7-.4v-.5-.7-.7-.5c0-1.2-.2-2.4-.4-3.6-.2-1.2-.5-2.3-1-3.3s-1.1-1.7-1.9-2.3c-.8-.5-1.8-.8-3-.7zM859.9 963.3l-.3-9.9 6.5-.2 2 5.4c.2.3.6.6 1 .9.4.3 1 .5 1.6.8.6.2 1.3.4 2 .5.8.1 1.5.2 2.4.2 1.2 0 2.1-.2 2.9-.5.7-.3 1.3-.7 1.7-1.1.4-.4.7-1 .9-1.5.1-.6.2-1.1.2-1.6 0-1-.3-1.8-.8-2.5s-1.3-1.3-2.2-1.9c-.9-.6-2.1-1.1-3.4-1.6-1.3-.5-2.8-1.1-4.4-1.7-1.6-.6-3.1-1.3-4.4-2.1-1.3-.8-2.4-1.6-3.4-2.6-.9-1-1.7-2.1-2.2-3.3-.5-1.2-.8-2.6-.9-4.2-.1-1.7.2-3.2.9-4.7.6-1.4 1.6-2.7 3-3.8 1.3-1.1 3-2 5-2.6 2-.7 4.3-1 7-1.1 1.6 0 2.9 0 4.2.2 1.2.2 2.3.3 3.3.5s1.9.4 2.7.7c.8.2 1.6.4 2.4.5l.3 9.7-6.1.1-1.8-4.6c-.3-.5-1-1-1.9-1.5-.9-.5-2.1-.7-3.5-.7-1.1 0-1.9.2-2.6.4-.7.3-1.3.6-1.7 1-.4.4-.7.9-.9 1.4-.2.5-.3 1-.2 1.5 0 1.2.4 2.2 1 3 .7.8 1.5 1.4 2.5 1.9s2.1 1 3.2 1.3c1.2.4 2.3.8 3.3 1.2 1.6.6 3.1 1.3 4.5 2s2.7 1.6 3.8 2.5c1.1 1 2 2.1 2.7 3.4.7 1.3 1.1 2.9 1.1 4.7.1 1.7-.2 3.3-.9 4.8-.6 1.5-1.6 2.8-2.9 3.9-1.3 1.1-3 2-5 2.7-2 .7-4.4 1.1-7.1 1.1-1.9.1-3.6 0-5.1-.2-1.5-.2-3-.5-4.2-.8-1.3-.3-2.4-.6-3.4-.9-1.2-.3-2.1-.6-2.8-.7z"/><g><path class="st13" d="M739.9 74H286.6l-99.2 99.2v618.3h552.5z"/><path class="st1" d="M276.1 194.1l-88.7-20.9L286.6 74z"/><path class="st14" d="M286.6 173.2h-99.2L286.6 74z"/><path class="st1" d="M613.3 525.3H314c-5.4 0-9.8-4.4-9.8-9.8v-23.2c0-5.4 4.4-9.8 9.8-9.8h299.3c5.4 0 9.8 4.4 9.8 9.8v23.2c0 5.4-4.4 9.8-9.8 9.8z"/><path class="st15" d="M615.6 581.7H381.7c-4.2 0-7.5-3.4-7.5-7.5v-.6c0-4.2 3.4-7.5 7.5-7.5h233.9c4.2 0 7.5 3.4 7.5 7.5v.6c0 4.1-3.4 7.5-7.5 7.5zM615.6 628.9H311.7c-4.2 0-7.5-3.4-7.5-7.5v-.6c0-4.2 3.4-7.5 7.5-7.5h303.8c4.2 0 7.5 3.4 7.5 7.5v.6c.1 4.1-3.3 7.5-7.4 7.5zM615.6 676.1H311.7c-4.2 0-7.5-3.4-7.5-7.5v-.6c0-4.2 3.4-7.5 7.5-7.5h303.8c4.2 0 7.5 3.4 7.5 7.5v.6c.1 4.1-3.3 7.5-7.4 7.5zM499.9 723.3H311.7c-4.2 0-7.5-3.4-7.5-7.5v-.6c0-4.2 3.4-7.5 7.5-7.5h188.1c4.2 0 7.5 3.4 7.5 7.5v.6c.1 4.2-3.3 7.5-7.4 7.5z"/><g><path class="st12" d="M555.6 160.6H371.7c-15.3 0-27.8 12.4-27.8 27.8v193.1c0 15.3 12.4 27.8 27.8 27.8h183.9c15.3 0 27.8-12.4 27.8-27.8V188.3c0-15.3-12.4-27.7-27.8-27.7z"/><defs><path id="SVGID_1_" d="M556.6 160.6H370.8c-14.8 0-26.8 12-26.8 26.8v195c0 14.8 12 26.8 26.8 26.8h185.8c14.8 0 26.8-12 26.8-26.8v-195c0-14.8-12-26.8-26.8-26.8z"/></defs><clipPath id="SVGID_00000163064004967096569750000004171488084874869129_"><use xlink:href="#SVGID_1_" overflow="visible"/></clipPath><g clip-path="url(#SVGID_00000163064004967096569750000004171488084874869129_)"><path class="st14" d="M540.5 341.7L488 328.3s-11.7 7.3-25.8 5.5c-14.1-1.8-29.8-19-29.8-19s-21.7 8-35.5 17.8-9.7 8.3-9.7 8.3l6.6 7.9-10.5 84.4s47.3 21.1 61.9 21.1 70.1-4.5 70.1-4.5l24.1-56.6 1.5-40.8-.4-10.7"/><path class="st14" d="M498.9 314.8l-22.3 19-11.8 14.6 40.8 15.6s36.1-17.7 38.5-23.1c.3-.8-4.7-5-9.7-8.3-13.9-9.5-35.5-17.8-35.5-17.8"/><path class="st17" d="M483.3 193c-.7.3-1.5.1-1.9-.6-2.7-4.5-13.7-20.4-35.4-19.1-25.2 1.4-33 15.8-34.4 21.7-.8 3.3-.9 9.1-3.1 10.7-2.2 1.6-9.5-2-17.6 6.9-4.8 5.3-3.9 15.5-2.7 18.7.9 2.4-4.9 3.6-8.5 10.5-2.8 5.2-4.5 13.2-1.4 21.6 3.6 10 18.8 15.8 24.6 15.2 5.8-.5 8.5 2.2 9.4 4s7.2 16.8 25.5 15.4 19.9-3.8 36.4-3.8 26.3-2.4 32.6-7.8c5.3-4.5 6.2-12 7.5-13.4 1-1.1 16.6-2.9 22.7-13.6 4-6.9 4.7-18.9 1.4-24.4s-8.7-9.1-13.4-10.8c-2.4-.8-4.1-1.3-5.2-1.6-.7-.2-1.1-1-.8-1.6 1.3-2.5 3-8.3 2-13.7-1.3-7.2-6.7-13.6-12.1-16.5s-15.6-2.4-18.3-1.1c-1.8.8-5.4 2.5-7.3 3.3z"/><path class="st18" d="M485.8 308.8l-3.2-25-37.7 2.9-.4 21.6-7.5 4.2s3.3 12.8 14.1 17.6c11.4 5.1 25.1 4 30.7.8 3.1-1.8 10.1-8.5 11.6-12.8s1.4-5.4 1.4-5.4l-9-3.9z"/><path d="M464.5 337.8c-17 0-31.1-9-34.5-23.3-.2-.7.2-1.5.9-1.7l5.6-2.3c.8-.3 1.8.1 2 1 2.8 9.9 13.7 17.5 26 17.5 12.9 0 23.9-7.7 26.3-18.2.2-.8 1-1.3 1.8-1.1l5.8 1.3c.8.2 1.3 1 1.2 1.8-2.9 14.6-17.7 25-35.1 25z" fill="#95a4bb"/><path class="st1" d="M483.7 291.9l-38.7 2.5-.3-10.6 37.9-.6z"/><path class="st18" d="M470.8 289.5l-10.5 1.1c-20.2 2.1-38.4-12.7-40.4-32.9l-3.6-38.2c-.1-1.1.7-2.1 1.8-2.2l79.9-8.2c1.1-.1 2.1.7 2.2 1.8l3.6 38.2c1.9 20.2-12.9 38.4-33 40.4z"/><path class="st18" d="M419.2 243l-11.5.6c-6 .7-10.3 6.3-9.6 12.3.7 6 6.3 10.3 12.3 9.6l11.5-.6M502.1 237.3l11.5-1.4c6-.3 11.3 4.3 11.6 10.3.3 6-4.3 11.3-10.3 11.6l-11.5 1.4"/><path class="st17" d="M431.9 220.8c-.9 0-1.6.9-1.2 1.8 1.5 3.7-.7 16.5-5.4 21.8-6.2 6.9-18.2 0-19.3-4-1.1-4-2.3-26.4 3.9-29.3 6.2-2.9 26.1-8.7 33-9.4s37.7-1.8 46 0 18.5 7.2 18.8 12.3c.3 3.8 1.2 16.2 0 22.7-.4 2-4 6.2-7.4 6.3-4.9.3-11.2-4.8-13.6-7.1-3.6-3.5-5.1-11.6-10.1-13.4s-9.8.4-13.8 2.6-12.4 2.2-16.7-.7c-4.4-3-10.9-3.6-14.2-3.6z"/><circle class="st1" cx="445" cy="250.4" r="2.8"/><circle class="st1" cx="479.6" cy="247.1" r="2.8"/><path fill="none" stroke="#1d016a" stroke-width="2" stroke-linecap="round" stroke-linejoin="round" stroke-miterlimit="10" d="M462.3 241.4l2.7 17.9"/><path class="st12" d="M449 267.1l30.7-4.3c.6-.1 1 .5.8 1-.5 1.5-1.6 4.1-3.6 6.9-4.6 6.6-13.9 7.5-20.8 4-2.9-1.5-6-4.7-7.5-6.4-.5-.4-.2-1.1.4-1.2z"/><path class="st17" d="M414.9 242.3l5.1 13.9 1.9-16.9zM496.6 235.6l5.5 16.3 1.7-16.3z"/><path class="st14" d="M580.3 420.8c1.9 6.3 4.2 16.7 3 17.3l-11.5-1.1-51.4-6.9s1.2-9.2 1.8-11.1c.5-1.6 5.4-3.1 7.1-3.5.2-.1.3-.4.1-.5l-1.5-1.6c-.2-.2 0-.5.2-.5l25.3 2-23.9-2s-4.7-14.8-5.8-18.4c-1.1-3.5-9.1-23.3-9.1-23.3l19.8-22.9 4-3.6 3-2.2s2.4-1.5 3.2-1.1c.7.4 14.4 18.7 19.1 31.4 4.7 12.6 14.7 41.7 16.6 48z" id="XMLID_00000023968369030913912150000002111537332282199444_"/><path class="st14" d="M388.9 342.4l26.4 28.8s-7.9 19.4-9 22.9-6.1 18.6-6.1 18.6l-3.6 5.4-1 2.2s-35.7 12.5-40.5 14.1-8.8 5.3-8.8 5.3c-1.2-.6 1.5-12.7 3.4-19s12-35.4 16.7-48.1 18.4-31 19.1-31.4c.6-.2 3.4 1.2 3.4 1.2z" id="XMLID_00000129169526300607012620000003251052210181848210_"/></g></g><g><path transform="rotate(-45.001 779.88 644.64)" class="st5" d="M749.5 570.6h60.8v148.1h-60.8z"/><path class="st6" d="M919 768.8l-15 15c-11.2 11.2-29.4 11.2-40.6 0L745.5 666c-11.2-11.2-11.2-29.4 0-40.6l15.1-15.1c11.2-11.2 29.4-11.2 40.6 0L919 728.1c11.2 11.3 11.2 29.4 0 40.7z"/><path class="st9" d="M495.1 359.8c-65.9 65.9-65.9 172.8 0 238.7s172.8 65.9 238.7 0 65.9-172.8 0-238.7-172.8-65.9-238.7 0z"/><circle class="st13" cx="614.4" cy="479.2" r="113.4"/><g><path class="st1" d="M569.2 534l-48.6-48.6c-3.8-3.8-3.8-10 0-13.9l14.3-14.3c3.8-3.8 10-3.8 13.9 0l61.4 61.4c3.8 3.8 3.8 10 0 13.9l-1.5 1.5c-11 10.9-28.6 10.9-39.5 0z"/><path class="st1" d="M567.7 518.6l107-107c3.8-3.8 10-3.8 13.9 0l14.3 14.3c3.8 3.8 3.8 10 0 13.9L608.6 534c-10.9 10.9-28.5 10.9-39.4 0l-1.5-1.5c-3.8-3.8-3.8-10 0-13.9z"/></g></g></g></svg>