<svg id="Layer_1" xmlns="http://www.w3.org/2000/svg" viewBox="0 0 447.7 175.9"><style>.st0,.st2{fill:#fff;stroke:#1d006a;stroke-width:5;stroke-linecap:round;stroke-linejoin:round;stroke-miterlimit:10}.st2{stroke:#3b2e7d}.st3{opacity:.2;fill:#3b2e7d;enable-background:new}.st5{fill:#1d016a}</style><path class="st0" d="M134.8 52.9h154.3v98.7H134.8z"/><path d="M289 52.9H134.8V32.3c0-6.8 5.5-12.4 12.4-12.4h129.6c6.8 0 12.4 5.5 12.4 12.4v20.6z" fill="#ec672c" stroke="#1d006a" stroke-width="5" stroke-linecap="round" stroke-linejoin="round" stroke-miterlimit="10"/><path class="st0" d="M174.8 8.5c0-2.7-14.3-2.7-14.3 0v23.1c0 3.7 14.3 3.7 14.3 0V8.5zM263.4 8.5c0-2.7-14.3-2.7-14.3 0v23.1c0 3.7 14.3 3.7 14.3 0V8.5z"/><path class="st2" d="M183.3 69.7H210v16.2h-26.7zM210 69.7h26.7v16.2H210zM236.7 69.7h26.7v16.2h-26.7zM156.6 85.9h26.7v16.2h-26.7zM183.3 85.9H210v16.2h-26.7zM210 85.9h26.7v16.2H210zM236.7 85.9h26.7v16.2h-26.7z"/><path class="st2" d="M156.6 102h26.7v16.2h-26.7zM183.3 102H210v16.2h-26.7zM210 102h26.7v16.2H210zM236.7 102h26.7v16.2h-26.7zM156.6 118.2h26.7v16.2h-26.7zM183.3 118.2H210v16.2h-26.7z"/><path class="st3" d="M183.3 69.7H210v16.2h-26.7zM210 69.7h26.7v16.2H210zM236.7 69.7h26.7v16.2h-26.7zM156.6 85.9h26.7v16.2h-26.7zM183.3 85.9H210v16.2h-26.7zM210 85.9h26.7v16.2H210zM236.7 85.9h26.7v16.2h-26.7z"/><path class="st3" d="M156.6 102h26.7v16.2h-26.7zM183.3 102H210v16.2h-26.7zM210 102h26.7v16.2H210zM236.7 102h26.7v16.2h-26.7zM156.6 118.2h26.7v16.2h-26.7zM183.3 118.2H210v16.2h-26.7z"/><g><path d="M269.8 83.2c-23.8 0-43.1 19.3-43.1 43.1s19.3 43.1 43.1 43.1 43.1-19.3 43.1-43.1-19.3-43.1-43.1-43.1z" fill="#3b2e7d" stroke="#1d006a" stroke-width="5" stroke-linecap="round" stroke-linejoin="round" stroke-miterlimit="10"/><circle class="st0" cx="269.8" cy="126.3" r="35.7"/><path class="st5" d="M258.3 140.3l-12.4-12.4c-1-1-1-2.5 0-3.5l3.7-3.7c1-1 2.5-1 3.5 0l15.7 15.7c1 1 1 2.5 0 3.5l-.4.4c-2.9 2.8-7.4 2.8-10.1 0z"/><path class="st5" d="M257.9 136.4l27.3-27.3c1-1 2.5-1 3.5 0l3.7 3.7c1 1 1 2.5 0 3.5l-24.1 24.1c-2.8 2.8-7.3 2.8-10.1 0l-.4-.4c-.9-1.1-.9-2.6.1-3.6z"/></g></svg>