<svg id="Layer_1" xmlns="http://www.w3.org/2000/svg" xmlns:xlink="http://www.w3.org/1999/xlink" viewBox="0 0 1072 1072"><style>.st0{fill:#f4f4f4}.st1{fill:#1d016a}.st2{fill:none;stroke:#ff5c00;stroke-width:1.0101;stroke-miterlimit:10}.st3{fill:#605396}.st6{fill:#ff5c00}.st7{fill:none;stroke:#1d016a;stroke-width:1.0101;stroke-miterlimit:10}.st8{fill:#f98158}.st9{fill:#fa7c4e}.st12{fill:#95a4bb}.st17{fill:#fff}.st19{fill:#a5b6d0}.st20{fill:#313537}.st21{fill:#e78059}</style><path class="st0" d="M0 0h1072v1072H0V0z"/><path class="st1" d="M1678.2 387l-85.5 6.2c-2 .1-3.6-1.4-3.6-3.4v-85.5c0-1.8 1.4-3.2 3.1-3.4l85.5-6.2c2-.1 3.6 1.4 3.6 3.4v85.5c0 1.8-1.4 3.3-3.1 3.4z"/><path class="st2" d="M1682.9 382.6l-85.5 6.2c-2 .1-3.6-1.4-3.6-3.4V300c0-1.8 1.4-3.2 3.1-3.4l85.5-6.2c2-.1 3.6 1.4 3.6 3.4v85.5c0 1.7-1.3 3.2-3.1 3.3z"/><path class="st3" d="M1565.9 395.2l-47.5 3.5c-1.1.1-2-.8-2-1.9v-47.4c0-1 .8-1.8 1.7-1.9l47.5-3.5c1.1-.1 2 .8 2 1.9v47.4c.1 1.1-.7 1.9-1.7 1.9z"/><path class="st2" d="M1569.2 392.1l-47.5 3.5c-1.1.1-2-.8-2-1.9v-47.4c0-1 .8-1.8 1.7-1.9l47.5-3.5c1.1-.1 2 .8 2 1.9v47.4c.1 1.1-.7 1.9-1.7 1.9z"/><path d="M1753.5 381.3l-47.5 3.5c-1.1.1-2-.8-2-1.9v-47.4c0-1 .8-1.8 1.7-1.9l47.5-3.5c1.1-.1 2 .8 2 1.9v47.4c0 1-.7 1.8-1.7 1.9z" fill="#55468f"/><path class="st2" d="M1756.8 378.2l-47.5 3.5c-1.1.1-2-.8-2-1.9v-47.4c0-1 .8-1.8 1.7-1.9l47.5-3.5c1.1-.1 2 .8 2 1.9v47.4c0 1-.7 1.8-1.7 1.9z"/><path d="M2019.6 519.7l-85.5 6.2c-2 .1-3.6-1.4-3.6-3.4V437c0-1.8 1.4-3.2 3.1-3.4l85.5-6.2c2-.1 3.6 1.4 3.6 3.4v85.5c0 1.8-1.4 3.3-3.1 3.4z" fill="#303537"/><path class="st2" d="M2024.3 515.4l-85.5 6.2c-2 .1-3.6-1.4-3.6-3.4v-85.5c0-1.8 1.4-3.2 3.1-3.4l85.5-6.2c2-.1 3.6 1.4 3.6 3.4V512c0 1.8-1.3 3.2-3.1 3.4z"/><path class="st0" d="M1946.4 410.7l-85.5 6.2c-2 .1-3.6-1.4-3.6-3.4V328c0-1.8 1.4-3.2 3.1-3.4l85.5-6.2c2-.1 3.6 1.4 3.6 3.4v85.5c0 1.8-1.4 3.3-3.1 3.4z"/><path class="st2" d="M1951.1 406.3l-85.5 6.2c-2 .1-3.6-1.4-3.6-3.4v-85.5c0-1.8 1.4-3.2 3.1-3.4l85.5-6.2c2-.1 3.6 1.4 3.6 3.4V403c0 1.7-1.4 3.2-3.1 3.3z"/><path class="st6" d="M1677.8 523.7l-85.5 6.2c-2 .1-3.6-1.4-3.6-3.4V441c0-1.8 1.4-3.2 3.1-3.4l85.5-6.2c2-.1 3.6 1.4 3.6 3.4v85.5c0 1.8-1.3 3.2-3.1 3.4z"/><path class="st7" d="M1682.5 519.3l-85.5 6.2c-2 .1-3.6-1.4-3.6-3.4v-85.5c0-1.8 1.4-3.2 3.1-3.4l85.5-6.2c2-.1 3.6 1.4 3.6 3.4v85.5c0 1.8-1.3 3.3-3.1 3.4z"/><path class="st8" d="M1565.6 531.9l-47.5 3.5c-1.1.1-2-.8-2-1.9v-47.4c0-1 .8-1.8 1.7-1.9l47.5-3.5c1.1-.1 2 .8 2 1.9V530c0 1-.8 1.8-1.7 1.9z"/><path class="st7" d="M1568.8 528.8l-47.5 3.5c-1.1.1-2-.8-2-1.9V483c0-1 .8-1.8 1.7-1.9l47.5-3.5c1.1-.1 2 .8 2 1.9v47.4c.1 1-.7 1.8-1.7 1.9z"/><path class="st9" d="M1753.1 518l-47.5 3.5c-1.1.1-2-.8-2-1.9v-47.4c0-1 .8-1.8 1.7-1.9l47.5-3.5c1.1-.1 2 .8 2 1.9v47.4c0 1-.7 1.8-1.7 1.9z"/><path class="st7" d="M1756.4 514.9l-47.5 3.5c-1.1.1-2-.8-2-1.9V469c0-1 .8-1.8 1.7-1.9l47.5-3.5c1.1-.1 2 .8 2 1.9V513c0 1-.7 1.8-1.7 1.9z"/><path class="st6" d="M1040.6 839.6L18.2 873.3C8 873.7 0 882 0 892.1v160.5c0 10.6 8.8 19.1 19.4 18.8l1022.4-33.7c10.1-.3 18.2-8.6 18.2-18.8V858.4c0-10.6-8.8-19.1-19.4-18.8z"/><path d="M1054.6 828.2L26.4 862c-8.6.3-15.4 7.3-15.4 15.9v166.2c0 9 7.5 16.2 16.4 15.9l1028.1-33.9c8.6-.3 15.4-7.3 15.4-15.9V844.1c.1-9-7.4-16.2-16.3-15.9z" fill="none" stroke="#1d016a" stroke-width="2.169" stroke-miterlimit="10"/><path d="M1249 344v-30" fill="none"/><path class="st1" d="M268.1 411.8c-96.8 0-175.2 26.1-175.2 58.4v104.4c0 32.3 78.4 58.4 175.2 58.4s175.2-26.1 175.2-58.4V470.2c0-32.3-78.4-58.4-175.2-58.4z"/><ellipse class="st3" cx="268.1" cy="470.2" rx="175.2" ry="58.4"/><path class="st1" d="M268.1 290.9c-96.8 0-175.2 26.1-175.2 58.4v114.6c0 32.3 78.4 58.4 175.2 58.4s175.2-26.1 175.2-58.4V349.3c0-32.3-78.4-58.4-175.2-58.4z"/><ellipse class="st3" cx="268.1" cy="349.3" rx="175.2" ry="58.4"/><path class="st1" d="M268.1 170c-96.8 0-175.2 26.1-175.2 58.4V343c0 32.3 78.4 58.4 175.2 58.4s175.2-26.1 175.2-58.4V228.4c0-32.3-78.4-58.4-175.2-58.4z"/><ellipse class="st3" cx="268.1" cy="228.4" rx="175.2" ry="58.4"/><path class="st9" d="M323.5 335.1v24.6c9.8-.8 19.2-1.8 28.3-3.2V332c-9.1 1.3-18.5 2.4-28.3 3.1zm-41.3 1.7h-5.1v24.6h5.1c7.9 0 15.6-.2 23.2-.5v-24.6c-7.6.3-15.3.5-23.2.5zm-51.4-2.6v24.6c9.1.9 18.6 1.6 28.3 2.1v-24.6c-9.7-.5-19.2-1.1-28.3-2.1zm-46.4-7.4v24.6c8.9 2 18.3 3.7 28.3 5.2V332c-9.9-1.4-19.4-3.2-28.3-5.2zM323.5 450.8v24.6c9.8-.8 19.2-1.8 28.3-3.2v-24.6c-9.1 1.4-18.5 2.4-28.3 3.2zm-41.3 1.6h-5.1V477h5.1c7.9 0 15.6-.2 23.2-.5v-24.6c-7.6.4-15.3.5-23.2.5zm-51.4-2.5v24.6c9.1.9 18.6 1.6 28.3 2.1V452c-9.7-.5-19.2-1.2-28.3-2.1zm-46.4-7.4v24.6c8.9 2 18.3 3.7 28.3 5.2v-24.6c-9.9-1.5-19.4-3.2-28.3-5.2zM323.5 566.6v24.6c9.8-.8 19.2-1.8 28.3-3.2v-24.6c-9.1 1.4-18.5 2.4-28.3 3.2zm-41.3 1.7h-5.1v24.6h5.1c7.9 0 15.6-.2 23.2-.5v-24.6c-7.6.3-15.3.5-23.2.5zm-51.4-2.6v24.6c9.1.9 18.6 1.6 28.3 2.1v-24.6c-9.7-.5-19.2-1.2-28.3-2.1zm-46.4-7.4v24.6c8.9 2 18.3 3.7 28.3 5.2v-24.6c-9.9-1.5-19.4-3.2-28.3-5.2z"/><path class="st12" d="M766.5 633v97H280.6v-97h-24.9v97H0v24.9h769.6c12.1 0 21.8-9.8 21.8-21.8V633h-24.9z"/><path class="st6" d="M288.7 722.3v-34.8c0-6.5-41.1-6.5-41.1 0v34.8h-34.8c-6 0-6 41.1 0 41.1h110.8c5.1 0 5.1-41.1 0-41.1h-34.9z"/><g><path class="st1" d="M779 651.5c-.4 0-.8 0-1.2-.1s-.8-.2-1.1-.3-.7-.3-1-.5-.6-.5-.9-.8c-1.1-1.1-1.8-2.7-1.8-4.2 0-.4 0-.8.1-1.2s.2-.8.3-1.1c.1-.4.3-.7.5-1s.5-.6.8-.9c.3-.3.6-.5.9-.7.3-.2.7-.4 1-.5.4-.1.7-.3 1.1-.3 2-.4 4 .2 5.4 1.6.3.3.5.6.8.9.2.3.4.7.5 1 .1.4.3.7.3 1.1.1.4.1.8.1 1.2s0 .8-.1 1.2-.2.8-.3 1.1c-.2.4-.3.7-.5 1s-.5.6-.8.9c-.3.3-.6.5-.9.8-.3.2-.7.4-1 .5-.4.2-.7.3-1.1.3-.3-.1-.8 0-1.1 0zm-32.1 91c0-3.3 2.7-6 6-6s6 2.7 6 6-2.7 6-6 6-6-2.7-6-6zm-23.7 0c0-3.3 2.7-6 6-6s6 2.7 6 6-2.7 6-6 6-6-2.7-6-6zm-23.7 0c0-3.3 2.7-6 6-6s6 2.7 6 6-2.7 6-6 6-6-2.7-6-6zm-23.7 0c0-3.3 2.7-6 6-6s6 2.7 6 6-2.7 6-6 6-6-2.7-6-6zm-23.7 0c0-3.3 2.7-6 6-6s6 2.7 6 6-2.7 6-6 6-6-2.7-6-6zm-23.6 0c0-3.3 2.7-6 6-6s6 2.7 6 6-2.7 6-6 6c-3.4 0-6-2.7-6-6zm-23.7 0c0-3.3 2.7-6 6-6s6 2.7 6 6-2.7 6-6 6-6-2.7-6-6zm166.7 1.1c-2.3-2.4-2.3-6.2 0-8.5 2.4-2.3 6.2-2.3 8.5.1s2.3 6.1 0 8.5c-1.2 1.2-2.7 1.7-4.2 1.7-1.6 0-3.1-.6-4.3-1.8zm1.5-27.1c0-3.3 2.7-6 6-6s6 2.7 6 6-2.7 6-6 6c-3.4 0-6-2.6-6-6zm0-23.7c0-3.3 2.7-6 6-6s6 2.7 6 6-2.7 6-6 6c-3.4 0-6-2.6-6-6zm0-23.6c0-3.3 2.7-6 6-6s6 2.7 6 6-2.7 6-6 6c-3.4 0-6-2.7-6-6zm-191.9 79.3c-.4 0-.8 0-1.2-.1s-.8-.2-1.1-.3c-.4-.2-.7-.3-1-.5s-.6-.5-.9-.7c-.3-.3-.5-.6-.8-.9-.2-.3-.4-.7-.5-1-.1-.4-.3-.7-.3-1.1-.1-.4-.1-.8-.1-1.2 0-1.6.6-3.1 1.8-4.2 1.1-1.1 2.7-1.8 4.2-1.8s3.1.6 4.2 1.8 1.8 2.7 1.8 4.2-.6 3.1-1.8 4.2c-1.2.9-2.8 1.6-4.3 1.6z"/><path d="M550.2 748.5c-.4 0-.8 0-1.2-.1s-.8-.2-1.1-.3c-.4-.2-.7-.3-1-.5s-.6-.5-.9-.7c-.3-.3-.5-.6-.8-.9-.2-.3-.4-.7-.5-1-.1-.4-.3-.7-.3-1.1-.1-.4-.1-.8-.1-1.2 0-1.6.6-3.1 1.8-4.2 1.1-1.1 2.7-1.8 4.2-1.8s3.1.6 4.2 1.8 1.8 2.7 1.8 4.2-.6 3.1-1.8 4.2c-1.2.9-2.7 1.6-4.3 1.6z" opacity=".8" fill="#1d016a"/><path d="M503.9 748.5c-.4 0-.8 0-1.2-.1-.4-.1-.8-.2-1.1-.3-.4-.2-.7-.3-1-.5s-.6-.5-.9-.7c-.3-.3-.5-.6-.8-.9-.2-.3-.4-.7-.5-1-.1-.4-.3-.7-.3-1.1-.1-.4-.1-.8-.1-1.2 0-1.6.6-3.1 1.8-4.2 1.1-1.1 2.7-1.8 4.2-1.8s3.1.6 4.2 1.8 1.8 2.7 1.8 4.2-.6 3.1-1.8 4.2c-1.1.9-2.7 1.6-4.3 1.6z" opacity=".6" fill="#1d016a"/><path d="M434.8 748.5c-.4 0-.8 0-1.2-.1-.4-.1-.8-.2-1.1-.3-.4-.2-.7-.3-1-.5s-.6-.5-.9-.7c-.3-.3-.5-.6-.8-.9-.2-.3-.4-.7-.5-1-.1-.4-.3-.7-.3-1.1-.1-.4-.1-.8-.1-1.2 0-1.6.6-3.1 1.8-4.2 1.1-1.1 2.7-1.8 4.2-1.8s3.1.6 4.2 1.8 1.8 2.7 1.8 4.2-.6 3.1-1.8 4.2c-1.2.9-2.8 1.6-4.3 1.6z" opacity=".4" fill="#1d016a"/><path d="M337.6 748.5c-.4 0-.8 0-1.2-.1-.4-.1-.8-.2-1.1-.3-.4-.2-.7-.3-1-.5s-.6-.5-.9-.7c-.3-.3-.5-.6-.8-.9-.2-.3-.4-.7-.5-1-.1-.4-.3-.7-.3-1.1-.1-.4-.1-.8-.1-1.2 0-1.6.6-3.1 1.8-4.2 1.1-1.1 2.7-1.8 4.2-1.8s3.1.6 4.2 1.8 1.8 2.7 1.8 4.2-.6 3.1-1.8 4.2c-1.1.9-2.7 1.6-4.3 1.6z" opacity=".2" fill="#1d016a"/></g><g><path class="st17" d="M950.2 175H607.8c-28.5 0-51.8 23.1-51.8 51.8v359.5c0 28.5 23.1 51.8 51.8 51.8h342.4c28.5 0 51.8-23.1 51.8-51.8V226.6c-.1-28.5-23.2-51.6-51.8-51.6z"/><defs><path id="SVGID_1_" d="M952 175H606.1c-27.6 0-49.9 22.3-49.9 49.9v363c0 27.6 22.3 49.9 49.9 49.9H952c27.6 0 49.9-22.3 49.9-49.9v-363c0-27.5-22.3-49.9-49.9-49.9z"/></defs><clipPath id="SVGID_00000143581545407380493290000016013863075299721601_"><use xlink:href="#SVGID_1_" overflow="visible"/></clipPath><g clip-path="url(#SVGID_00000143581545407380493290000016013863075299721601_)"><path class="st19" d="M922 512.2l-97.7-24.9s-21.8 13.6-48 10.2c-26.3-3.4-55.5-35.4-55.5-35.4s-40.4 14.9-66.1 33.1c-25.7 18.2-18.1 15.5-18.1 15.5l12.3 14.7-19.5 157.1s88.1 39.3 115.2 39.3c27.2 0 130.5-8.4 130.5-8.4L920 608.1l2.8-76-.8-19.9"/><path class="st19" d="M844.6 462.1l-41.5 35.4-22 27.2 76 29s67.2-33 71.7-43c.6-1.5-8.8-9.3-18.1-15.5-25.9-17.6-66.1-33.1-66.1-33.1"/><path class="st20" d="M815.6 235.4c-1.3.6-2.8.2-3.5-1.1-5-8.4-25.5-38-65.9-35.6-46.9 2.6-61.4 29.4-64 40.4-1.5 6.1-1.7 16.9-5.8 19.9s-17.7-3.7-32.8 12.8c-8.9 9.9-7.3 28.9-5 34.8 1.7 4.5-9.1 6.7-15.8 19.5-5.2 9.7-8.4 24.6-2.6 40.2 6.7 18.6 35 29.4 45.8 28.3 10.8-.9 15.8 4.1 17.5 7.4 1.7 3.4 13.4 31.3 47.5 28.7 34.1-2.6 37-7.1 67.8-7.1s49-4.5 60.7-14.5c9.9-8.4 11.5-22.3 14-24.9 1.9-2 30.9-5.4 42.3-25.3 7.4-12.8 8.8-35.2 2.6-45.4-6.1-10.2-16.2-16.9-24.9-20.1-4.5-1.5-7.6-2.4-9.7-3-1.3-.4-2-1.9-1.5-3 2.4-4.7 5.6-15.5 3.7-25.5-2.4-13.4-12.5-25.3-22.5-30.7-10.1-5.4-29-4.5-34.1-2-3.6 1.5-10.3 4.7-13.8 6.2z"/><path class="st21" d="M820.2 451l-6-46.5-70.2 5.4-.7 40.2-14 7.8s6.1 23.8 26.3 32.8c21.2 9.5 46.7 7.4 57.2 1.5 5.8-3.4 18.8-15.8 21.6-23.8s2.6-10.1 2.6-10.1l-16.8-7.3z"/><path class="st12" d="M780.6 504.9c-31.7 0-57.9-16.8-64.2-43.4-.4-1.3.4-2.8 1.7-3.2l10.4-4.3c1.5-.6 3.4.2 3.7 1.9 5.2 18.4 25.5 32.6 48.4 32.6 24 0 44.5-14.3 49-33.9.4-1.5 1.9-2.4 3.4-2l10.8 2.4c1.5.4 2.4 1.9 2.2 3.4-5.5 27.2-33.1 46.5-65.4 46.5z"/><path class="st1" d="M816.3 419.5l-72.1 4.6-.5-19.7 70.6-1.1 2 16.2z"/><path class="st21" d="M792.3 415l-19.5 2c-37.6 3.9-71.5-23.6-75.2-61.3l-6.7-71.1c-.2-2 1.3-3.9 3.4-4.1l148.8-15.3c2-.2 3.9 1.3 4.1 3.4l6.7 71.1c3.4 37.7-24.2 71.6-61.6 75.3z"/><path class="st21" d="M696.2 328.4l-21.4 1.1c-11.2 1.3-19.2 11.7-17.9 22.9 1.3 11.2 11.7 19.2 22.9 17.9l21.4-1.1m149.4-51.4l21.4-2.6c11.2-.6 21 8 21.6 19.2s-8 21-19.2 21.6l-21.4 2.6"/><path class="st20" d="M719.9 287.1c-1.7 0-3 1.7-2.2 3.4 2.8 6.9-1.3 30.7-10.1 40.6-11.5 12.8-33.9 0-35.9-7.4s-4.3-49.2 7.3-54.5c11.5-5.4 48.6-16.2 61.4-17.5 12.8-1.3 70.2-3.4 85.6 0 15.5 3.4 34.4 13.4 35 22.9.6 7.1 2.2 30.2 0 42.3-.7 3.7-7.4 11.5-13.8 11.7-9.1.6-20.9-8.9-25.3-13.2-6.7-6.5-9.5-21.6-18.8-24.9-9.3-3.4-18.2.7-25.7 4.8-7.4 4.1-23.1 4.1-31.1-1.3-8.2-5.8-20.3-6.9-26.4-6.9z"/><circle class="st1" cx="744.2" cy="342.2" r="5.2"/><circle class="st1" cx="808.7" cy="336.1" r="5.2"/><path d="M776.5 325.5l5 33.3" fill="none" stroke="#1d016a" stroke-width="2" stroke-linecap="round" stroke-linejoin="round" stroke-miterlimit="10"/><path class="st17" d="M751.7 373.3l57.2-8c1.1-.2 1.9.9 1.5 1.9-.9 2.8-3 7.6-6.7 12.8-8.6 12.3-25.9 14-38.7 7.4-5.4-2.8-11.2-8.8-14-11.9-1-.7-.4-2 .7-2.2z"/><path class="st20" d="M688.2 327.1l9.5 25.9 3.5-31.4-13 5.5zm152.1-12.4l10.3 30.3 3.1-30.3h-13.4z"/><path id="XMLID_00000023968369030913912150000002111537332282199444_" class="st19" d="M996.1 659.5c3.5 11.7 7.8 31.1 5.6 32.2l-21.4-2-95.7-12.8s2.2-17.1 3.4-20.7c.9-3 10.1-5.8 13.2-6.5.4-.2.6-.7.2-.9l-2.8-3c-.4-.4 0-.9.4-.9l47.1 3.7-44.5-3.7s-8.8-27.6-10.8-34.3c-2-6.5-16.9-43.4-16.9-43.4l36.9-42.6 7.4-6.7 5.6-4.1s4.5-2.8 6-2c1.3.7 26.8 34.8 35.6 58.5 8.6 23.3 27.2 77.4 30.7 89.2z"/><path id="XMLID_00000129169526300607012620000003251052210181848210_" class="st19" d="M639.8 513.5l49.2 53.6s-14.7 36.1-16.8 42.6-11.4 34.6-11.4 34.6l-6.7 10.1-1.9 4.1s-66.5 23.3-75.4 26.3-16.4 9.9-16.4 9.9c-2.2-1.1 2.8-23.6 6.3-35.4s22.3-65.9 31.1-89.6c8.8-23.6 34.3-57.7 35.6-58.5 1.2-.3 6.4 2.3 6.4 2.3z"/></g></g><g><path class="st6" d="M1020.5 524.5l-113.8-72.7L852 652.9 966.5 726c1.5.9 3.4.2 3.9-1.5L1023 531c.7-2.5-.3-5.2-2.5-6.5z"/><path class="st6" d="M906.7 451.8c-14.4-1.3-23.9 1.3-28.6 7.7l-54.7 201.2c5.8-6 13.7-10.1 28.6-7.7l54.7-201.2z"/><path class="st17" d="M1016.5 529.3l-110.3-67.8-52.6 193.4 110.3 67.7 52.6-193.3z"/><path class="st17" d="M906.2 461.5c-13.8-1.2-23 1.3-27.5 7.4l-52.6 193.4c5.6-5.8 13.2-9.7 27.5-7.4l52.6-193.4z"/><path class="st19" d="M988.6 534.6c9 3.9 18.4 1.4 27.9-5.3l-52.6 193.4c-8.9 6-18.4 6.4-27.9 5.3l52.6-193.4z"/><path class="st8" d="M991.9 532.2l-113.8-72.7-54.7 201.2 114.5 73.1c1.5.9 3.4.2 3.9-1.5l52.7-193.6c.6-2.5-.4-5.1-2.6-6.5z"/><path class="st7" d="M982.1 539.9l-100.2-64L833.7 653l100.8 64.4c1.3.8 3 .2 3.4-1.3l46.4-170.4c.6-2.2-.3-4.5-2.2-5.8z"/><path class="st1" d="M956.4 597.9l-80.5-49.8 8.1-29.9 80.5 49.9-8.1 29.8zm-39.1 93.3l-57-35.3 1.5-5.6 57 35.3-1.5 5.6z"/></g><g><path class="st17" d="M139.2 968.8c-4.3-4.9-6.5-11.5-6.5-20 0-5.6 1.1-10.4 3.4-14.6 2.3-4.1 5.4-7.3 9.4-9.6s8.5-3.4 13.5-3.4c2.1 0 4.1.1 6.1.4 2 .3 4.3.6 7 1 2 .3 3.1.5 3.3.5l-.8 14.8H168l-2.2-10.3c-.5-.5-1.4-1-2.7-1.3-1.3-.3-3-.5-5-.5-4.1 0-7.4 1.9-9.8 5.6-2.5 3.8-3.7 9.2-3.7 16.4 0 6.9 1.2 12.5 3.5 16.9 2.3 4.4 5.8 6.5 10.3 6.5 2.2 0 3.8-.2 5-.6 1.2-.4 2.2-1 3-1.8l3.2-7.4 6 .6-1.4 11.2c-1 .1-2 .3-3 .5-1 .3-1.6.4-1.8.5-1.9.5-3.7.9-5.4 1.3-1.7.3-3.7.5-6.1.5-8.2.1-14.4-2.4-18.7-7.2zM183.9 943.8c1.8-3.2 4.2-5.6 7.2-7.2 3-1.6 6.3-2.4 9.9-2.4 6 0 10.7 1.9 14 5.6 3.3 3.7 4.9 8.8 4.9 15.1 0 4.6-.9 8.4-2.7 11.6-1.8 3.2-4.2 5.6-7.2 7.1-3 1.6-6.3 2.3-9.9 2.3-6 0-10.6-1.9-14-5.6-3.3-3.7-5-8.8-5-15.1.1-4.4 1-8.2 2.8-11.4zm24.9 11.9c0-5.5-.6-9.6-1.9-12.5-1.3-2.9-3.4-4.3-6.3-4.3-5.6 0-8.3 5.2-8.3 15.7 0 5.5.7 9.6 2.1 12.5 1.4 2.9 3.5 4.3 6.4 4.3 5.3 0 8-5.2 8-15.7zM231.8 973.8c-1.4-1.4-2.2-3.6-2.2-6.6v-26.4H225v-3.7c.4-.1 1.1-.4 2.1-.8s1.8-.7 2.3-.9c.8-.6 1.5-1.7 2.1-3.2.4-1 1.2-3.5 2.4-7.5h5.8l.3 10.6h11v5.5h-11V961c0 2.7.1 4.6.2 5.7.1 1.1.5 1.8.9 2.1.5.3 1.3.5 2.5.5s2.4-.1 3.7-.4 2.4-.6 3.2-1l1.4 4c-1.3 1-3.3 1.9-5.9 2.7-2.6.8-5.1 1.2-7.6 1.2-2.9.1-5.1-.6-6.6-2zM261.6 954.2c4.4-2.2 10.1-3.3 17-3.4v-1.7c0-2-.2-3.5-.6-4.6-.4-1.1-1.2-1.9-2.2-2.5-1.1-.6-2.7-.8-4.7-.8-2.4 0-4.5.3-6.3.9s-3.8 1.4-5.8 2.3l-2.2-4.6c.7-.6 1.9-1.4 3.6-2.2 1.7-.9 3.7-1.6 6.1-2.3 2.3-.6 4.8-1 7.3-1 3.7 0 6.6.5 8.7 1.4 2.1 1 3.6 2.5 4.5 4.6.9 2.1 1.4 4.9 1.4 8.5v22h3.9v4c-1 .2-2.3.5-4.1.7-1.8.2-3.3.4-4.7.4-1.6 0-2.7-.2-3.3-.7-.6-.5-.8-1.5-.8-3v-1.9c-1.3 1.4-3 2.7-5 3.9-2.1 1.2-4.4 1.7-7 1.7-2.2 0-4.2-.5-6.1-1.4-1.8-.9-3.3-2.3-4.4-4.1-1.1-1.8-1.7-4-1.7-6.5-.2-4.2 2-7.5 6.4-9.7zm13.6 15c1.3-.6 2.4-1.3 3.4-2.2v-11.8c-4.3 0-7.5.7-9.7 2.2-2.1 1.5-3.2 3.3-3.2 5.6s.5 4.1 1.6 5.3c1.1 1.2 2.6 1.8 4.4 1.8 1.1 0 2.2-.3 3.5-.9zM320.6 974c-2.4-1.4-4.2-3.6-5.6-6.6-1.4-3-2.1-6.7-2.1-11.2 0-4 .8-7.7 2.5-11s4.1-6 7.3-8 7.1-3 11.6-3c1.8 0 3.5.2 5.2.6v-12.2l-7.1-1v-4l14.8-1.4h.2l2 1.5v53.1h3.9v4.1c-3.5.7-6.3 1.1-8.6 1.1-1.5 0-2.6-.3-3.3-.8s-1-1.5-1-3v-2c-1.2 1.7-2.9 3.1-5.1 4.1-2.2 1.1-4.4 1.6-6.8 1.6-2.9.2-5.5-.5-7.9-1.9zm16-4.9c1.2-.6 2.2-1.4 2.9-2.3v-26.2c-.3-.5-1-.9-2.1-1.2-1.1-.3-2.2-.5-3.5-.5-3.1 0-5.5 1.3-7.4 4-1.8 2.7-2.8 6.9-2.8 12.8 0 4.9.8 8.5 2.4 10.9 1.6 2.4 3.7 3.6 6.3 3.6 1.5-.1 2.9-.4 4.2-1.1zM362.6 970.5c-3.1-3.7-4.6-8.8-4.6-15.2 0-4.3.8-8.1 2.4-11.2 1.6-3.2 3.9-5.6 6.8-7.3 2.9-1.7 6.3-2.5 10.1-2.5 4.8 0 8.5 1.3 11.1 3.8 2.6 2.5 3.9 6.1 4 10.8 0 3.2-.2 5.5-.6 7.1h-23.4c.2 4.4 1.2 7.8 3.1 10.2 1.9 2.4 4.5 3.6 8 3.6 1.9 0 3.8-.3 5.8-.9 2-.6 3.6-1.4 4.7-2.2l1.8 4c-1.3 1.4-3.4 2.7-6.3 3.8-2.9 1.2-5.8 1.8-8.8 1.8-6.3-.2-11-2.1-14.1-5.8zm19.8-19c.1-1.3.1-2.4.1-3.1 0-6.4-2.1-9.6-6.4-9.6-2.4 0-4.2.9-5.5 2.8-1.3 1.9-2 5.2-2.2 9.9h14zM421 954.2c4.4-2.2 10.1-3.3 17-3.4v-1.7c0-2-.2-3.5-.6-4.6-.4-1.1-1.2-1.9-2.2-2.5-1.1-.6-2.7-.8-4.7-.8-2.4 0-4.5.3-6.3.9-1.9.6-3.8 1.4-5.8 2.3l-2.2-4.6c.7-.6 1.9-1.4 3.6-2.2 1.7-.9 3.7-1.6 6.1-2.3 2.3-.6 4.8-1 7.3-1 3.7 0 6.6.5 8.7 1.4 2.1 1 3.6 2.5 4.5 4.6.9 2.1 1.4 4.9 1.4 8.5v22h3.9v4c-1 .2-2.3.5-4.1.7-1.8.2-3.3.4-4.7.4-1.6 0-2.7-.2-3.3-.7-.6-.5-.8-1.5-.8-3v-1.9c-1.3 1.4-3 2.7-5 3.9-2.1 1.2-4.4 1.7-7 1.7-2.2 0-4.2-.5-6.1-1.4-1.8-.9-3.3-2.3-4.4-4.1-1.1-1.8-1.7-4-1.7-6.5-.2-4.2 2-7.5 6.4-9.7zm13.7 15c1.3-.6 2.4-1.3 3.4-2.2v-11.8c-4.3 0-7.5.7-9.7 2.2-2.1 1.5-3.2 3.3-3.2 5.6s.5 4.1 1.6 5.3c1.1 1.2 2.6 1.8 4.4 1.8 1 0 2.2-.3 3.5-.9zM493.3 965.1c-1.7 3.4-4.1 6-7.3 8s-7 3-11.4 3c-1 0-2-.1-3-.3-1-.2-1.9-.4-2.5-.6l.2 6v6.5l6.7.9v4.1h-21.4v-4.1l4.7-.9v-45.6l-4.7-1.3v-5l11.9-1.5h.1l1.8 1.4v4c1.2-1.5 2.8-2.8 4.9-3.9s4.3-1.7 6.8-1.7c4.6 0 8.3 1.6 11.2 4.9 2.9 3.2 4.4 8.2 4.4 14.9.1 4.1-.8 7.8-2.4 11.2zm-21-23.9c-1.3.6-2.3 1.3-3 2.1V970c.3.5 1 .9 2.1 1.2 1 .3 2.2.5 3.4.5 3.1 0 5.6-1.4 7.4-4.1 1.8-2.7 2.8-7 2.8-12.8 0-4.9-.8-8.5-2.4-11-1.6-2.4-3.7-3.6-6.3-3.6-1.3 0-2.7.4-4 1zM501.7 971l4.7-.6v-28.3l-4.6-1.3v-5l11.2-1.5h.2l1.8 1.4v1.6l-.2 5.8h.2c.3-1 1.1-2.1 2.4-3.6 1.2-1.4 2.8-2.7 4.7-3.7 1.9-1.1 3.9-1.6 6.2-1.6 1.1 0 2 .1 2.7.4v10.8c-1.4-1-3.2-1.5-5.3-1.5-3.5 0-6.5.9-9.1 2.8v23.6l8.3.6v4.2h-23.2V971zM539.5 970.5c-3.1-3.7-4.6-8.8-4.6-15.2 0-4.3.8-8.1 2.4-11.2 1.6-3.2 3.9-5.6 6.8-7.3 2.9-1.7 6.3-2.5 10.1-2.5 4.8 0 8.5 1.3 11.1 3.8 2.6 2.5 3.9 6.1 4 10.8 0 3.2-.2 5.5-.6 7.1h-23.4c.2 4.4 1.2 7.8 3.1 10.2 1.9 2.4 4.5 3.6 8 3.6 1.9 0 3.8-.3 5.8-.9 2-.6 3.6-1.4 4.7-2.2l1.8 4c-1.3 1.4-3.4 2.7-6.3 3.8-2.9 1.2-5.8 1.8-8.8 1.8-6.3-.2-11-2.1-14.1-5.8zm19.8-19c.1-1.3.1-2.4.1-3.1 0-6.4-2.1-9.6-6.4-9.6-2.4 0-4.2.9-5.5 2.8-1.3 1.9-2 5.2-2.2 9.9h14zM579.1 942.1l-4.6-1.3v-5l11.9-1.5h.2l1.8 1.4v2.8l-.1 1.7c1.7-1.6 3.9-3 6.5-4.1s5.4-1.7 8.1-1.7c2.9 0 5.2.5 6.9 1.6 1.7 1.1 2.8 2.8 3.6 5.1s1.1 5.4 1.1 9.4v19.9l4.4.6v4.3h-18.6V971l3.9-.6v-19.9c0-2.5-.2-4.4-.5-5.9-.3-1.4-.9-2.4-1.8-3.1-.9-.6-2.1-1-3.8-1-2.7 0-5.7 1.2-8.8 3.5v26.2l4.3.6v4.3H575V971l4.2-.6v-28.3zM631.2 974c-2.4-1.4-4.2-3.6-5.6-6.6-1.4-3-2.1-6.7-2.1-11.2 0-4 .8-7.7 2.5-11s4.1-6 7.3-8 7.1-3 11.6-3c1.8 0 3.5.2 5.2.6v-12.2l-7.1-1v-4l14.8-1.4h.2l2 1.5v53.1h3.9v4.1c-3.5.7-6.3 1.1-8.6 1.1-1.5 0-2.6-.3-3.3-.8s-1-1.5-1-3v-2c-1.2 1.7-2.9 3.1-5.1 4.1-2.2 1.1-4.4 1.6-6.8 1.6-2.9.2-5.6-.5-7.9-1.9zm15.9-4.9c1.2-.6 2.2-1.4 2.9-2.3v-26.2c-.3-.5-1-.9-2.1-1.2-1.1-.3-2.2-.5-3.5-.5-3.1 0-5.5 1.3-7.4 4-1.8 2.7-2.8 6.9-2.8 12.8 0 4.9.8 8.5 2.4 10.9 1.6 2.4 3.7 3.6 6.3 3.6 1.6-.1 3-.4 4.2-1.1zM673.9 942.1l-5.1-1.4v-4.8l13.2-1.6h.1l2 1.4v34.6l4.8.6v4.3h-20.1V971l5-.6v-28.3zm-.3-14.9c-1-1-1.5-2.3-1.5-3.9 0-1.8.6-3.3 1.7-4.5 1.2-1.2 2.7-1.8 4.6-1.8 1.9 0 3.4.5 4.4 1.5 1 1 1.5 2.3 1.5 3.8 0 1.9-.6 3.5-1.7 4.6-1.2 1.2-2.8 1.7-4.8 1.7h-.1c-1.7.1-3.1-.4-4.1-1.4zM702 940.5l-1.7 7.1h-5.2v-12.2h31.7l1.7 3.7-19.1 26.5-5 5.2 16.1-.8 3.5-8.3 4.9.6-1.2 13h-33.4l-1.8-4 19.6-26 5.2-5.4-15.3.6zM740.1 954.2c4.4-2.2 10.1-3.3 17-3.4v-1.7c0-2-.2-3.5-.6-4.6-.4-1.1-1.2-1.9-2.2-2.5-1.1-.6-2.7-.8-4.7-.8-2.4 0-4.5.3-6.3.9-1.9.6-3.8 1.4-5.8 2.3l-2.2-4.6c.7-.6 1.9-1.4 3.6-2.2 1.7-.9 3.7-1.6 6.1-2.3 2.3-.6 4.8-1 7.3-1 3.7 0 6.6.5 8.7 1.4 2.1 1 3.6 2.5 4.5 4.6.9 2.1 1.4 4.9 1.4 8.5v22h3.9v4c-1 .2-2.3.5-4.1.7-1.8.2-3.3.4-4.7.4-1.6 0-2.7-.2-3.3-.7-.6-.5-.8-1.5-.8-3v-1.9c-1.3 1.4-3 2.7-5 3.9-2.1 1.2-4.4 1.7-7 1.7-2.2 0-4.2-.5-6.1-1.4-1.8-.9-3.3-2.3-4.4-4.1-1.1-1.8-1.7-4-1.7-6.5-.2-4.2 2-7.5 6.4-9.7zm13.6 15c1.3-.6 2.4-1.3 3.4-2.2v-11.8c-4.3 0-7.5.7-9.7 2.2-2.1 1.5-3.2 3.3-3.2 5.6s.5 4.1 1.6 5.3c1.1 1.2 2.6 1.8 4.4 1.8 1 0 2.2-.3 3.5-.9zM778.4 991.7c-2.9-2-4.3-4.7-4.3-8.2 0-2 .7-3.8 2-5.6s2.9-3.1 4.8-3.9c-2.2-1.3-3.3-3.4-3.3-6.2 0-1.6.5-3.2 1.6-4.6 1.1-1.5 2.4-2.6 4.1-3.4-2.6-1-4.6-2.5-5.9-4.6-1.3-2.1-1.9-4.5-1.9-7.3 0-2.7.8-5.1 2.4-7.2 1.6-2 3.8-3.6 6.5-4.7s5.6-1.7 8.8-1.7c5.6 0 9.8 1.1 12.5 3.2.6-.8 1.7-1.6 3.2-2.3 1.5-.7 3-1.1 4.6-1.1h2.5v7.8h-7.4c.7 1.5 1.1 3.2 1.1 4.9 0 4.4-1.5 7.9-4.6 10.5-3.1 2.6-7.4 3.9-12.8 3.9-2.3 0-4.1-.2-5.7-.5-.5.6-.9 1.3-1.1 2-.3.7-.4 1.3-.4 1.8 0 1.6.6 2.7 1.7 3.2 1.1.6 3.2.9 6.1.9h7.7c9.8 0 14.7 3.5 14.7 10.6 0 3-1.1 5.6-3.2 8-2.1 2.3-4.9 4.2-8.4 5.5-3.5 1.3-7.2 1.9-11.2 1.9-6.5.1-11.2-.9-14.1-2.9zm22.9-4.1c2.2-1.5 3.3-3.5 3.3-6.1 0-2.1-.5-3.5-1.6-4.5s-3-1.4-5.8-1.4h-7.8c-1.2 0-2.3-.1-3.3-.2-1.3 1.7-1.9 3.8-1.9 6.2 0 2.6.7 4.7 2.2 6 1.4 1.4 3.8 2.1 7.2 2.1 2.9 0 5.5-.7 7.7-2.1zm-1.7-39.9c0-3.1-.6-5.4-1.7-6.9s-2.8-2.2-5.1-2.2-4 .7-5.2 2.2c-1.2 1.5-1.8 3.7-1.8 6.6 0 6.3 2.4 9.4 7.2 9.4 4.4 0 6.6-3.1 6.6-9.1zM823.7 970.5c-3.1-3.7-4.6-8.8-4.6-15.2 0-4.3.8-8.1 2.4-11.2 1.6-3.2 3.9-5.6 6.8-7.3 2.9-1.7 6.3-2.5 10.1-2.5 4.8 0 8.5 1.3 11.1 3.8 2.6 2.5 3.9 6.1 4 10.8 0 3.2-.2 5.5-.6 7.1h-23.4c.2 4.4 1.2 7.8 3.1 10.2 1.9 2.4 4.5 3.6 8 3.6 1.9 0 3.8-.3 5.8-.9 2-.6 3.6-1.4 4.7-2.2l1.8 4c-1.3 1.4-3.4 2.7-6.3 3.8-2.9 1.2-5.8 1.8-8.8 1.8-6.3-.2-11-2.1-14.1-5.8zm19.8-19c.1-1.3.1-2.4.1-3.1 0-6.4-2.1-9.6-6.4-9.6-2.4 0-4.2.9-5.5 2.8-1.3 1.9-2 5.2-2.2 9.9h14zM859.3 971l4-.6v-28.2l-4.6-1.3v-5l11.9-1.5.9.6 1.1 2.4v3c1.6-1.5 3.8-2.9 6.8-4.1 3-1.2 5.5-1.8 7.7-1.8 2.6 0 4.7.4 6.3 1.3 1.6.9 2.8 2.2 3.6 4 1.6-1.4 3.7-2.7 6.3-3.7 2.6-1.1 5.1-1.6 7.6-1.6 4.3 0 7.3 1.2 9.1 3.7 1.8 2.5 2.7 6.6 2.7 12.2v19.9l4.7.6v4.3h-18.6V971l3.7-.6v-19.6c0-3.7-.4-6.4-1.3-7.9s-2.6-2.3-5.1-2.3c-1.3 0-2.7.3-4.1.9-1.4.6-2.7 1.3-3.8 2.2.3 1.8.5 4.1.5 6.8v19.8l4.5.6v4.3h-18.8V971l4-.6v-19.8c0-2.5-.2-4.4-.5-5.9-.3-1.4-.9-2.4-1.8-3.1s-2.1-1-3.7-1c-1.5 0-3.1.3-4.6 1-1.5.7-2.9 1.5-4.1 2.5v26.2l4.2.6v4.3h-18.6V971z"/></g></svg>