<svg id="Layer_1" xmlns="http://www.w3.org/2000/svg" viewBox="0 0 447.7 181.8"><style>.st2{fill:none;stroke:#1d006a;stroke-width:4;stroke-linecap:round;stroke-linejoin:round;stroke-miterlimit:10}.st3{fill:#fff}.st5{fill:#1d006a}</style><path d="M218.4 111c-9.2-20.6-36.1-28.6-60.1-17.8-24 10.7-36 36-26.8 56.6s36.1 28.6 60.1 17.8c2-.9 3.9-1.8 5.6-2.9 9.7 3.7 19 4.7 27.7.6 1.6-.7 1.6-2.9.2-3.9-4.9-3.1-9-6.7-12.1-11 8.6-11.8 11.1-26.6 5.4-39.4z" fill="#fff" stroke="#1d006a" stroke-width="4" stroke-linecap="round" stroke-linejoin="round" stroke-miterlimit="10"/><path d="M301.9 117.6c.7-.8 1.3-1.7 1.7-2.8 2.3-5.5-.4-11.9-5.9-14.2-3.1-1.3-6.5-1-9.2.4-2.3-3.5-5.6-6.4-9.9-8.1-7.6-3.1-15.9-1.6-21.9 3.1-.6-.6-1.4-1.2-2.3-1.5-1.7-.7-3.6-.6-5.2.1-1.1-2.5-3.1-4.7-5.9-5.8-5.3-2.2-11.4.2-13.9 5.3-7.3-1.3-14.7 2.5-17.7 9.7-2.7 6.5-.7 13.8 4.3 18.3-1.4.7-2.5 1.8-3.1 3.4-1.4 3.4.2 7.3 3.6 8.8.4.2.9.3 1.4.4.2 6.1 3.9 11.9 9.9 14.4 4.4 1.8 9.1 1.5 13.1-.4.8.7 1.7 1.4 2.6 2l-1.2-.5c-.5 6.9-3.1 13.3-7.2 19.5-1 1.4 0 3.4 1.7 3.4 9.5.2 17.5-4.4 24.8-11.5.5.3 1 .5 1.5.7 7.9 3.2 16.8-.2 20.5-7.7h.1c3.4 1.4 7.3-.2 8.8-3.6.7-1.7.6-3.6-.1-5.2 5.8-.5 11.1-4.1 13.5-9.9 2.9-6.6 1-13.9-4-18.3zm-47.1 36.2c.3.5.5 1.1.8 1.6l-5.1-2.1c1.5.3 2.9.5 4.3.5z" fill="#ec672c"/><path class="st2" d="M301.9 117.6c.7-.8 1.3-1.7 1.7-2.8 2.3-5.5-.4-11.9-5.9-14.2-3.1-1.3-6.5-1-9.2.4-2.3-3.5-5.6-6.4-9.9-8.1-7.6-3.1-15.9-1.6-21.9 3.1-.6-.6-1.4-1.2-2.3-1.5-1.7-.7-3.6-.6-5.2.1-1.1-2.5-3.1-4.7-5.9-5.8-5.3-2.2-11.4.2-13.9 5.3-7.3-1.3-14.7 2.5-17.7 9.7-2.7 6.5-.7 13.8 4.3 18.3-1.4.7-2.5 1.8-3.1 3.4-1.4 3.4.2 7.3 3.6 8.8.4.2.9.3 1.4.4.2 6.1 3.9 11.9 9.9 14.4 4.4 1.8 9.1 1.5 13.1-.4.8.7 1.7 1.4 2.6 2l-1.2-.5c-.5 6.9-3.1 13.3-7.2 19.5-1 1.4 0 3.4 1.7 3.4 9.5.2 17.5-4.4 24.8-11.5.5.3 1 .5 1.5.7 7.9 3.2 16.8-.2 20.5-7.7h.1c3.4 1.4 7.3-.2 8.8-3.6.7-1.7.6-3.6-.1-5.2 5.8-.5 11.1-4.1 13.5-9.9 2.9-6.6 1-13.9-4-18.3zm-47.1 36.2c.3.5.5 1.1.8 1.6l-5.1-2.1c1.5.3 2.9.5 4.3.5z"/><path class="st3" d="M291.7 22.1l-58.3-11.9c-6.4-1.3-12.7 2.9-14 9.2l-8.6 42.1c-1.3 6.4 2.9 12.7 9.2 14l35.3 7.2c-.7 4.2-2.2 8.3-4.3 12.4-.8 1.5.4 3.4 2.1 3.2 8.4-.8 15.2-5.2 21.1-11.8l4.2.8c6.4 1.3 12.7-2.9 14-9.2L301 36c1.2-6.4-2.9-12.7-9.3-13.9z"/><path class="st2" d="M291.7 22.1l-58.3-11.9c-6.4-1.3-12.7 2.9-14 9.2l-8.6 42.1c-1.3 6.4 2.9 12.7 9.2 14l35.3 7.2c-.7 4.2-2.2 8.3-4.3 12.4-.8 1.5.4 3.4 2.1 3.2 8.4-.8 15.2-5.2 21.1-11.8l4.2.8c6.4 1.3 12.7-2.9 14-9.2L301 36c1.2-6.4-2.9-12.7-9.3-13.9z"/><path d="M216 39.9c1-1.2 1.6-2.7 1.6-4.3 0-3.7-3-6.7-6.7-6.7-.5 0-1 .1-1.4.2-2.5-5.6-8.1-9.5-14.7-9.5-4.8 0-9 2.1-11.9 5.3-2.2-.7-4.5-1.2-7-1.2-2.8 0-5.4.5-7.9 1.5-2.9-2.7-6.8-4.4-11-4.4-8.5 0-15.4 6.6-16 14.9-3.7 0-6.7 3-6.7 6.7 0 1.8.8 3.5 2 4.8-5.2 2.6-8.7 8.1-8.7 14.3 0 7 4.5 13 10.8 15.1-.3 1-.5 2.1-.5 3.2 0 6 4.9 10.9 10.9 10.9 3.4 0 6.4-1.5 8.4-4 3.5 2.4 7.7 3.7 12.2 3.7 5.2 0 10-1.8 13.7-4.9 6.1 7 13.1 11.8 21.9 12.7 1.7.2 2.9-1.6 2.1-3.2-2.4-4.7-4-9.4-4.6-14.2.3.1.7.1 1 .1 5.8 0 10.5-4.5 10.9-10.2 7.2-1.6 12.7-8 12.7-15.7-.1-7-4.7-13-11.1-15.1z" fill="#5d5593"/><path class="st2" d="M216 39.9c1-1.2 1.6-2.7 1.6-4.3 0-3.7-3-6.7-6.7-6.7-.5 0-1 .1-1.4.2-2.5-5.6-8.1-9.5-14.7-9.5-4.8 0-9 2.1-11.9 5.3-2.2-.7-4.5-1.2-7-1.2-2.8 0-5.4.5-7.9 1.5-2.9-2.7-6.8-4.4-11-4.4-8.5 0-15.4 6.6-16 14.9-3.7 0-6.7 3-6.7 6.7 0 1.8.8 3.5 2 4.8-5.2 2.6-8.7 8.1-8.7 14.3 0 7 4.5 13 10.8 15.1-.3 1-.5 2.1-.5 3.2 0 6 4.9 10.9 10.9 10.9 3.4 0 6.4-1.5 8.4-4 3.5 2.4 7.7 3.7 12.2 3.7 5.2 0 10-1.8 13.7-4.9 6.1 7 13.1 11.8 21.9 12.7 1.7.2 2.9-1.6 2.1-3.2-2.4-4.7-4-9.4-4.6-14.2.3.1.7.1 1 .1 5.8 0 10.5-4.5 10.9-10.2 7.2-1.6 12.7-8 12.7-15.7-.1-7-4.7-13-11.1-15.1z"/><path class="st5" d="M245.1 70.2c-.6-.7-.9-1.4-.8-2.2 0-.8.4-1.5 1-2.1.7-.6 1.5-1 2.4-1.1.9-.1 1.7.3 2.5 1 .5.4.7.8 1 1.2.2.4.2.8.2 1.2-.1.4-.2.7-.4 1.1-.2.3-.4.6-.7.9-.6.7-1.4 1.2-2.4 1.2-1.1-.1-2-.5-2.8-1.2zm1.6-11.2c-.2-.3-.3-.8-.4-1.5s-.2-1.3-.2-2.1c-.1-.7 0-1.4 0-2.2.1-.7.2-1.3.3-1.8.3-.9.8-1.6 1.4-2.1.6-.5 1.4-.9 2.2-1.2.8-.3 1.7-.5 2.7-.6 1-.1 1.9-.3 2.8-.4.9-.1 1.8-.3 2.6-.5s1.5-.5 2.1-1c.1-.1.1-.2.1-.3.1-.1.1-.2.1-.3.4-1.1.6-2.3.6-3.6s-.3-2.5-.7-3.7c-.5-1.2-1.2-2.3-2.2-3.2-1-1-2.2-1.7-3.7-2.2-.7-.3-1.4-.4-2.1-.6-.7-.1-1.2-.2-1.5-.3l.4-4.3c.2-.1.5-.1 1 0s1.1.1 1.7.2c.6.1 1.3.3 2.1.5.7.2 1.5.4 2.2.6 2.4.8 4.3 1.8 5.8 3.1s2.5 2.6 3.3 4.1c.7 1.5 1.1 3 1.1 4.5.1 1.5-.2 3-.6 4.3-.4 1.3-1 2.3-1.7 3.1-.7.8-1.5 1.5-2.4 2s-1.8.9-2.8 1.2c-1 .3-1.9.5-2.9.7-.9.2-1.8.4-2.6.7-.8.2-1.5.5-2 1-.1.1-.2.3-.3.5l-.3.6c-.3 1-.6 1.8-.7 2.7-.2.9-.3 1.7-.4 2.6l-5-.5z"/><g><path class="st5" d="M179.4 141.5c-.4-.1-.8-.3-1.4-.6-.6-.3-1.2-.6-1.8-1.1s-1.2-.8-1.7-1.3-1-.9-1.3-1.3c-.5-.8-.8-1.6-.9-2.4s.1-1.6.3-2.5c.3-.8.6-1.7 1.1-2.5.5-.8.9-1.7 1.3-2.5s.8-1.6 1.1-2.4c.3-.8.5-1.5.4-2.2-.1-.1-.1-.2-.2-.3-.1-.1-.1-.2-.2-.3-.7-1-1.5-1.8-2.6-2.6-1.1-.7-2.2-1.3-3.4-1.6-1.2-.3-2.5-.4-3.9-.2s-2.7.8-4 1.7c-.6.4-1.2.9-1.7 1.4l-1.1 1.1-3.2-2.8c.1-.2.3-.4.6-.8s.7-.7 1.2-1.2c.5-.4 1-.9 1.6-1.4.6-.5 1.2-1 1.8-1.4 2.1-1.5 4.1-2.4 5.9-2.9 1.9-.4 3.6-.5 5.2-.2s3 .9 4.3 1.7c1.3.9 2.3 1.9 3.1 3.1.8 1.1 1.3 2.2 1.5 3.3.2 1.1.3 2.1.2 3.1-.1 1-.4 2-.7 2.9-.4 1-.7 1.8-1.1 2.7-.4.8-.7 1.7-1 2.5-.3.8-.4 1.5-.4 2.2.1.2.1.3.2.5s.2.4.4.6c.6.8 1.2 1.5 1.8 2.2s1.2 1.3 1.8 1.8l-3.2 3.7zm8.1 8c-.9.1-1.6-.1-2.3-.6s-1-1.2-1.1-2c-.1-1 .1-1.8.6-2.5s1.2-1.3 2.3-1.5c.6-.1 1.1-.2 1.5-.1.4.1.8.3 1.1.5.3.3.5.5.6.9s.3.7.3 1.1c.2 1 .1 1.8-.5 2.6-.5.8-1.4 1.3-2.5 1.6z"/></g><g><path class="st3" d="M251.3 137.5c-.4-.6-.5-1.3-.3-1.9.2-.6.5-1.1 1.1-1.5.7-.4 1.4-.6 2.1-.5.7.1 1.3.5 1.9 1.2.3.4.5.8.5 1.1.1.4.1.7-.1 1-.1.3-.3.5-.5.8-.2.3-.5.4-.7.6-.6.5-1.3.7-2.1.5-.6-.2-1.3-.6-1.9-1.3zm3.2-8.7c-.1-.3-.1-.7-.1-1.2s.1-1.1.2-1.7c.1-.6.2-1.2.4-1.7s.3-1 .5-1.4c.4-.7.9-1.2 1.5-1.5.6-.3 1.3-.5 2-.6s1.4-.1 2.2-.1c.8.1 1.5.1 2.3.2.7.1 1.5.1 2.2 0 .7-.1 1.3-.2 1.8-.4.1-.1.1-.2.2-.2.1-.1.1-.2.2-.3.5-.8.8-1.7 1-2.8.2-1 .2-2.1.1-3.1-.2-1-.6-2-1.2-3s-1.5-1.7-2.6-2.4c-.5-.3-1.1-.6-1.6-.8-.5-.2-.9-.4-1.1-.4l1-3.3c.2 0 .4.1.8.2s.8.3 1.3.5 1 .4 1.6.7 1.1.6 1.6.8c1.8 1.1 3.2 2.2 4.1 3.4s1.6 2.5 2 3.8c.3 1.3.4 2.5.2 3.7-.2 1.2-.6 2.3-1.2 3.3-.5 1-1.2 1.7-1.9 2.2-.7.5-1.5.9-2.3 1.2-.8.3-1.6.4-2.4.5-.8.1-1.6.1-2.4.1-.8 0-1.5.1-2.2.1s-1.3.2-1.8.4l-.3.3c-.1.2-.2.3-.3.5-.4.7-.7 1.4-1.1 2.1-.3.7-.5 1.4-.7 2l-4-1.1z"/></g><g><path class="st3" d="M175.6 66.5c-.3-.2-.7-.4-1.2-.8s-1-.8-1.4-1.3c-.5-.5-.9-1-1.3-1.5s-.7-1-1-1.4c-.4-.8-.5-1.6-.3-2.4.1-.7.4-1.5.8-2.2.4-.7.9-1.4 1.5-2.1.6-.7 1.2-1.4 1.7-2 .6-.6 1.1-1.3 1.5-2 .4-.6.7-1.3.8-2-.1-.1-.1-.2-.1-.3s-.1-.2-.1-.3c-.4-1-1.1-2-1.8-2.9-.8-.9-1.7-1.6-2.8-2.2-1.1-.5-2.2-.8-3.5-1-1.3-.1-2.6.2-4 .8-.7.3-1.3.6-1.8.9-.5.3-1 .6-1.2.7l-2.4-3.2c.1-.2.3-.3.7-.6.4-.3.8-.6 1.3-.9s1.1-.6 1.7-1c.6-.3 1.3-.6 2-.9 2.2-.9 4.2-1.4 6-1.4 1.8 0 3.4.3 4.8.8 1.4.6 2.6 1.4 3.5 2.4 1 1.1 1.7 2.2 2.2 3.4.5 1.2.7 2.3.7 3.3s-.2 2-.5 2.9c-.3.9-.7 1.7-1.2 2.5s-1 1.5-1.5 2.3c-.5.7-1 1.4-1.4 2.1-.4.6-.7 1.3-.8 2 0 .1.1.3.1.5.1.2.1.4.2.6.4.8.7 1.6 1.2 2.4.4.7.9 1.4 1.3 2.1l-3.7 2.7zm5.9 8.9c-.8-.1-1.5-.4-2-1s-.7-1.3-.6-2.1c.1-.9.4-1.6 1-2.2.6-.6 1.4-.9 2.4-1 .6 0 1.1.1 1.4.3.4.2.6.4.8.7.2.3.3.6.4 1 .1.4.1.7.1 1.1 0 1-.3 1.7-1 2.3-.6.6-1.5.8-2.5.9z"/></g></svg>