<svg id="Layer_1" xmlns="http://www.w3.org/2000/svg" xmlns:xlink="http://www.w3.org/1999/xlink" viewBox="0 0 1728 849.1"><style>.st0{fill:#313537}.st1{fill:#190865}.st5{fill:#8393c6}.st6{fill:#e78059}.st7{fill:#1d016a}.st8{fill:none;stroke:#ff5c00;stroke-width:1.0101;stroke-miterlimit:10}.st13{fill:#ff5c00}.st14{fill:none;stroke:#1d016a;stroke-width:1.0101;stroke-miterlimit:10}.st18{fill:#eff1f5}.st19{fill:#dddfe3}.st20{fill:#a6a9ad}.st22{opacity:.3}.st24{fill:none;stroke:#1d016a;stroke-width:2.0412;stroke-linecap:round;stroke-linejoin:round;stroke-miterlimit:10}.st25{fill:#e68662}.st26,.st31{fill:none;stroke:#190865;stroke-width:1.2648;stroke-miterlimit:10}.st31{stroke:#1d016a;stroke-width:13}</style><path class="st0" d="M432.4 211.5c-7.9 7.3-16.9 13.7-26.5 18-18.9 8.5-43.3 2.7-60.5-7.2-15.1-8.7-25.9-21.8-29.4-39.4-3.3-16.7 2.2-47.9 26-43.3-5.9-8.8-12-22.4 1.7-27.1 4.1-1.4 8.6-1.2 12.8-.1-3.2-11.2-6.8-23.3-1.9-34.4 9.2-21.2 39.7-25.4 59.9-21.7 1.4.2 2.8.5 4.1.2 1.8-.4 3.1-1.7 4.7-2.6 5.2-2.9 12.6.4 14.1 6.1 8.7-2.6 14.5-11.9 23.8-13.3 6.9-1 12.8 5.9 13.4 12.8.6 6.9-2.4 13.5-5.2 19.9-3.7 8.4-7.1 17-10.1 25.6-.5 1.4-1 2.9-.4 4.2.7 1.7 2.8 2.4 4.6 3.1 5.2 2.1 9.1 6.9 10.2 12.4 2.4 12-6.7 18.4-13.7 26-8.7 9.4-17.7 18.7-26.9 27.7 3.7-1.7 8.2-2 11.8-.1 3.6 1.8 6.2 5.9 5.7 9.9-.4 3-2.2 5.5-4 7.9-4.2 5.3-9 10.6-14.2 15.4z"/><path class="st1" d="M408.2 191.2c57.8 1.9 127.1-14.5 176.3-45 7.5-4.7 14.8-9.7 21.7-15.6l23.4 54.5c-36.6 5.2-74 14.7-110.3 21.7-36.2 7.2-72.7 11.7-109.1 17.2-.1-.1-2-32.8-2-32.8z"/><path d="M1038.2 251.5c-1.6-.3-3.3-.1-4.8.5-3.4 1.4-9.6 3.9-12.3 5-3.8 1.6-6.8 2.9-13 3.4l-9.9 1.8c-1.1.2-1.1 1.9-.9 2.4.7 1.6.9 2 2.8 2.9.7.3 3 .9 3 .9 1.6.2 2.5.4 3.7.2.5-.1 1-.2 1.6-.3l6.3-1.6c4.3-1.1 8.6-2.1 12.7-3.8l9.7-2.2c-.4-.6-.7-1.3-.8-2-.6-3.1 1.4-6 4.4-6.6v-.2l-1.4-.2-1.1-.2z" fill="#717ea5"/><path d="M1037.1 260.7l-9.7 2.2c-4.1 1.8-8.4 2.8-12.7 3.8l-6.3 1.6c-.6.2-1.1.3-1.6.3 1 2.1 5.6 5.1 10 4.2.6-.1 1.4-.4 2.4-.8 2.5-1 6.2-2.6 9.9-4.1 6.3-2.4 13.6-4.5 13.9-4.6h-1c-2 .1-3.9-1-4.9-2.6z" fill="#667194"/><path d="M1043.1 263.3c-.4.1-7.7 2.2-14 4.6-3.7 1.4-7.4 3.1-9.9 4.1v.1s2 1.8 4.5 2.7c3.7 1.3 6.8-.4 10.6-2 1.3-.6 4.8-3.2 7.8-4.8 5.4-2.8 12.2-5.1 12.5-5.2l-11.5.5z" fill="#525b79"/><path class="st5" d="M1285.9 230.3c-14.4 22.8-32.6 42.7-52.8 60.2-3.5 3-7.4 6.2-11.1 8.9-4.9 3.6-11.1 4-16.4 2.1l-1.7-.5c-2.1-.6-7.5-2.4-9.7-3.1-29.5-9.9-58.2-22-85.4-37.1l9.6-20.9c15.7 5.6 31.8 10.2 48.1 13.9 14.2 3.3 28.6 6 42.9 8.1l3 .4c.8.1 2.2.3 2.8.3l-16.5 4 1.5-1.4c18.1-16.9 34.2-36.5 46.1-58.2l39.6 23.3z"/><path class="st6" d="M1252.3 199.1l-36.9 48.8-4.4 2.1.2 4-4.9-.2 39.2 51.2 36.9-67.6-6.6-51z"/><path class="st1" d="M1208.7 256.9l25.4 33.1-11.4 10 6.1-12.2-24.4-26.6z"/><g id="XMLID_00000103260594129642144620000017287160859933141913_"><path class="st5" d="M1054.6 262.9l9.8-.3s15.4 14.3 44.8-1.7l18.4 9.9c14.8 7.2 26.4-16.8 11.6-23.9 0 0-19.7-8.7-33.6-10.6-13.9-1.9-48.3-.2-54.6.3-3.9.3-11.4 1.6-17.1 3.8-4.5 1.7-24.6 9.8-32.9 13.1-1.8.7-2.2 3.2-.7 4.4 1.9 1.5 4.6 2.9 7.7 2.7 6.2-.5 9.2-1.8 13-3.4 2.7-1.1 8.9-3.6 12.3-5 1.5-.6 3.2-.8 4.8-.5l1.1.2 28.3-4.8c1.4-.2 2.7-.2 4.1 0 1.3.2 2.7.6 3.9 1.2l-34.3 3.9c-.1 0-.3 0-.4.1h-.1c-3 .6-5 3.5-4.4 6.6.1.7.4 1.4.8 2 1.1 1.6 2.9 2.7 5 2.6h1l11.5-.6z"/><path class="st1" d="M1039.3 251.7l1.4.2v.2h.1c.1 0 .3 0 .4-.1l34.3-3.9c-1.2-.6-2.6-1-3.9-1.2-1.4-.2-2.7-.2-4.1 0l-28.2 4.8z"/></g><path class="st7" d="M2006.2 251.5l-85.5 6.2c-2 .1-3.6-1.4-3.6-3.4v-85.5c0-1.8 1.4-3.2 3.1-3.4l85.5-6.2c2-.1 3.6 1.4 3.6 3.4v85.5c0 1.8-1.4 3.3-3.1 3.4z"/><path class="st8" d="M2010.9 247.1l-85.5 6.2c-2 .1-3.6-1.4-3.6-3.4v-85.4c0-1.8 1.4-3.2 3.1-3.4l85.5-6.2c2-.1 3.6 1.4 3.6 3.4v85.5c0 1.7-1.3 3.2-3.1 3.3z"/><path d="M1893.9 259.7l-47.5 3.5c-1.1.1-2-.8-2-1.9v-47.4c0-1 .8-1.8 1.7-1.9l47.5-3.5c1.1-.1 2 .8 2 1.9v47.4c.1 1.1-.7 1.9-1.7 1.9z" fill="#605396"/><path class="st8" d="M1897.2 256.6l-47.5 3.5c-1.1.1-2-.8-2-1.9v-47.4c0-1 .8-1.8 1.7-1.9l47.5-3.5c1.1-.1 2 .8 2 1.9v47.4c.1 1.1-.7 1.9-1.7 1.9z"/><path d="M2081.5 245.8l-47.5 3.5c-1.1.1-2-.8-2-1.9V200c0-1 .8-1.8 1.7-1.9l47.5-3.5c1.1-.1 2 .8 2 1.9v47.4c0 1-.7 1.8-1.7 1.9z" fill="#55468f"/><path class="st8" d="M2084.8 242.7l-47.5 3.5c-1.1.1-2-.8-2-1.9v-47.4c0-1 .8-1.8 1.7-1.9l47.5-3.5c1.1-.1 2 .8 2 1.9v47.4c0 1-.7 1.8-1.7 1.9z"/><path d="M2347.6 384.2l-85.5 6.2c-2 .1-3.6-1.4-3.6-3.4v-85.5c0-1.8 1.4-3.2 3.1-3.4l85.5-6.2c2-.1 3.6 1.4 3.6 3.4v85.5c0 1.8-1.4 3.3-3.1 3.4z" fill="#303537"/><path class="st8" d="M2352.3 379.9l-85.5 6.2c-2 .1-3.6-1.4-3.6-3.4v-85.5c0-1.8 1.4-3.2 3.1-3.4l85.5-6.2c2-.1 3.6 1.4 3.6 3.4v85.5c0 1.8-1.3 3.2-3.1 3.4z"/><path d="M2274.4 275.2l-85.5 6.2c-2 .1-3.6-1.4-3.6-3.4v-85.5c0-1.8 1.4-3.2 3.1-3.4l85.5-6.2c2-.1 3.6 1.4 3.6 3.4v85.5c0 1.8-1.4 3.3-3.1 3.4z" fill="#f4f4f4"/><path class="st8" d="M2279.1 270.8l-85.5 6.2c-2 .1-3.6-1.4-3.6-3.4v-85.5c0-1.8 1.4-3.2 3.1-3.4l85.5-6.2c2-.1 3.6 1.4 3.6 3.4v85.6c0 1.7-1.4 3.2-3.1 3.3z"/><path class="st13" d="M2005.8 388.2l-85.5 6.2c-2 .1-3.6-1.4-3.6-3.4v-85.5c0-1.8 1.4-3.2 3.1-3.4l85.5-6.2c2-.1 3.6 1.4 3.6 3.4v85.5c0 1.8-1.3 3.2-3.1 3.4z"/><path class="st14" d="M2010.5 383.8L1925 390c-2 .1-3.6-1.4-3.6-3.4v-85.5c0-1.8 1.4-3.2 3.1-3.4l85.5-6.2c2-.1 3.6 1.4 3.6 3.4v85.5c0 1.8-1.3 3.3-3.1 3.4z"/><path d="M1893.6 396.4l-47.5 3.5c-1.1.1-2-.8-2-1.9v-47.4c0-1 .8-1.8 1.7-1.9l47.5-3.5c1.1-.1 2 .8 2 1.9v47.4c0 1-.8 1.8-1.7 1.9z" fill="#f98158"/><path class="st14" d="M1896.8 393.3l-47.5 3.5c-1.1.1-2-.8-2-1.9v-47.4c0-1 .8-1.8 1.7-1.9l47.5-3.5c1.1-.1 2 .8 2 1.9v47.4c.1 1-.7 1.8-1.7 1.9z"/><path d="M2081.1 382.5l-47.5 3.5c-1.1.1-2-.8-2-1.9v-47.4c0-1 .8-1.8 1.7-1.9l47.5-3.5c1.1-.1 2 .8 2 1.9v47.4c0 1-.7 1.8-1.7 1.9z" fill="#fa7c4e"/><path class="st14" d="M2084.4 379.4l-47.5 3.5c-1.1.1-2-.8-2-1.9v-47.5c0-1 .8-1.8 1.7-1.9l47.5-3.5c1.1-.1 2 .8 2 1.9v47.5c0 1-.7 1.8-1.7 1.9z"/><ellipse cx="864" cy="795.3" rx="713.6" ry="44.9" fill="#b3b9c2"/><g id="XMLID_00000096041430651450030270000008976080821912691608_"><path class="st13" d="M1077.3 770.7c-1.1 5 2.7 9.7 7.7 9.7h40.3c2.6 0 4.5-2.5 3.8-5l-2-4.9c-.4-1.4 1.4-2.3 2.2-1.2l6.2 9.7c.7.9 1.9 1.5 3.1 1.5h5.6c2.7 0 4.6-2.7 3.7-5.3l-2.2-5.3c-.5-1.3 1.2-2.3 2.1-1.3l8.2 10.7c.7.8 1.8 1.2 2.8 1.2h4.1c2.8 0 4.7-2.8 3.7-5.3l-1.9-4.3c-.5-1.3 1.2-2.4 2.2-1.3l6.6 9.7c.7.8 1.8 1.3 2.9 1.3h4.4c2.9 0 4.8-2.9 3.6-5.5l-2.3-5.4c-.6-1.3 1-2.4 2-1.5l10.2 11.5c.7.6 1.6.9 2.6.9h31.4c4.8 0 8.5-4.3 7.9-9-1.6-11.3-4.1-29.3-4.4-32-.4-4-3.1-5.2-3.1-5.2.1 1.1.1 2 0 2.2-.4 1-10 2.7-14.1 2.9-1.2.1-13.2.1-29.4.1h-98.8s0-1.1.4-2.8l-.4-.1c-1.1 1.1-1.8 2.4-2.1 3.9l-7 30.1z"/><path class="st6" d="M1086.7 736.4c-.3 1.7-.4 2.8-.4 2.8h38.3c-6.7-19.5-21.9-24.3-21.9-24.3-11.8 7.2-15.1 16.8-16 21.5z"/><path class="st18" d="M1143.9 713.4c-.5 1.4-1.9 2.6-3.7 3.1-1 .3-2 .4-3 .2-1.5-.3-2.8-1.2-3.2-2.5-.2-.7-.2-1.4.1-2l-2-2.9c-3.6 1.2-6.8 2.1-9.6 2.9l1 1.8c1.7.3 3 1.4 3.3 2.9.1.8 0 1.5-.4 2.2-.7 1.3-2.1 2.4-4 2.7-1 .2-2 .2-2.8-.1-1.6-.4-2.8-1.4-3-2.8-.2-.8 0-1.6.4-2.3l-1.5-2.9c-1.1.2-1.8.2-2 .2-1.6-.8-3.1-2.9-3.1-2.9-3 1.2-5.6 2.5-7.8 3.8 0 0 15.2 4.8 21.9 24.3h60.5c2.6-31.4 36.7-32.7 36.7-32.7-2.2-7-4.3-13.5-4.3-13.5l-2.7-11.6h-37.5c-4.7 7.4-13.4 13.6-22.9 18.6l1.7 1.1c2.4-.9 4.9-.4 5.8 1.4.4.7.4 1.6.2 2.4-.3 1.4-1.4 2.7-3 3.5-.6.3-1.2.5-1.8.6-2 .4-3.9-.3-4.6-1.8-.3-.5-.4-1.1-.3-1.7l-3.8-2.7c-3.3 1.5-6.7 2.9-9.9 4.1l1.3 1.6c1.9.1 3.5 1.1 4 2.6.4.9.3 1.7 0 2.4z"/><path class="st19" d="M1110.6 711s1.5 2 3.1 2.9c.2.1.9 0 2-.2l-2-3.9c-1 .4-2 .8-3.1 1.2z"/><path class="st20" d="M1113.7 709.8l2 3.9c1.6-.3 3.9-.8 6.9-1.5l-2.8-4.7c-1.9.7-3.9 1.5-6.1 2.3z"/><path class="st20" d="M1115.7 713.7l1.5 2.9c.7-1.2 2.1-2.2 3.9-2.6.9-.2 1.8-.2 2.5 0l-1-1.8c-2.9.7-5.3 1.3-6.9 1.5z"/><path class="st1" d="M1117.2 716.6c-.4.7-.6 1.5-.4 2.3.3 1.4 1.5 2.4 3 2.8l-2.6-5.1z"/><path class="st20" d="M1117.2 716.6l2.6 5.1c.9.2 1.8.3 2.8.1 1.8-.4 3.3-1.4 4-2.7l-3-5.1c-.8-.2-1.7-.2-2.5 0-1.8.3-3.2 1.3-3.9 2.6z"/><path class="st19" d="M1119.8 707.5l2.8 4.7c2.8-.7 6-1.7 9.6-2.9l-3.5-5.1c-2.7 1-5.7 2.1-8.9 3.3z"/><path class="st1" d="M1123.6 713.9l3 5.1c.4-.7.5-1.4.4-2.2-.3-1.4-1.7-2.5-3.4-2.9z"/><path class="st20" d="M1128.7 704.3l3.5 5.1c2.1-.7 4.3-1.5 6.6-2.3l-3.9-5c-2 .6-4 1.4-6.2 2.2z"/><path class="st20" d="M1132.2 709.3l2 2.9c.5-1.4 1.9-2.7 3.8-3.3.7-.2 1.5-.3 2.2-.3l-1.3-1.6c-2.4.8-4.6 1.6-6.7 2.3z"/><path class="st1" d="M1134.2 712.2c-.2.7-.3 1.3-.1 2 .4 1.3 1.6 2.2 3.2 2.5l-3.1-4.5z"/><path class="st20" d="M1134.2 712.2l3.1 4.5c.9.2 1.9.1 3-.2 1.8-.5 3.2-1.7 3.7-3.1l-3.8-4.8c-.7 0-1.4.1-2.2.3-1.9.6-3.3 1.9-3.8 3.3z"/><path class="st19" d="M1134.9 702l3.9 5c3.2-1.2 6.6-2.6 9.9-4.1l-5.6-3.9c-2.4.9-5.2 1.9-8.2 3z"/><path class="st1" d="M1140.1 708.6l3.8 4.8c.3-.7.4-1.5.1-2.2-.4-1.5-2-2.5-3.9-2.6z"/><path class="st20" d="M1143.1 699l5.6 3.9c2-.9 3.9-1.9 5.9-2.9l-5.6-3.5c-1.8.8-3.7 1.6-5.9 2.5z"/><path class="st20" d="M1148.7 702.9l3.8 2.7c.1-1.6 1.3-3.3 3.1-4.2l.6-.3-1.7-1.1c-1.8 1-3.8 2-5.8 2.9z"/><path class="st19" d="M1149 696.5l5.6 3.5c9.5-4.9 18.2-11.2 22.9-18.6h-9s-4.5 6.1-13 11.6c-2 1.3-4.1 2.4-6.5 3.5z"/><path class="st1" d="M1152.6 705.6c0 .6.1 1.2.3 1.7.8 1.5 2.6 2.1 4.6 1.8l-4.9-3.5z"/><path class="st20" d="M1152.6 705.6l5 3.5c.6-.1 1.2-.3 1.8-.6 1.6-.8 2.7-2.2 3-3.5l-6.1-3.8-.6.3c-1.8.8-3 2.5-3.1 4.1z"/><path class="st1" d="M1156.3 701.1l6.1 3.8c.2-.8.1-1.6-.2-2.4-1-1.8-3.5-2.4-5.9-1.4z"/><path class="st6" d="M1221.9 706.5s-34 1.3-36.7 32.7c16.2 0 28.1 0 29.4-.1 4.1-.2 13.7-1.8 14.1-2.9.1-.3.1-1.1 0-2.2-.2-3-1-7.9-1.4-10-.4-1.5-3-9.8-5.4-17.5z"/></g><g id="XMLID_00000031194831178669828300000006891243648559675044_"><path class="st13" d="M1331.7 768.9c1.6 4.8 7.3 6.8 11.7 4.2l34.3-21.1c2.2-1.4 2.5-4.5.6-6.3l-4.3-3.1c-1.1-.9 0-2.6 1.3-2.2l10.4 5c1.1.4 2.4.3 3.4-.4l4.8-2.9c2.3-1.4 2.5-4.7.4-6.4l-4.7-3.4c-1.1-.9-.2-2.6 1.1-2.3l12.6 4.9c1 .3 2.1.1 3-.5l3.5-2.1c2.3-1.4 2.5-4.8.3-6.5l-3.8-2.7c-1.1-.9-.2-2.7 1.2-2.3l10.7 4.7c1.1.3 2.2.2 3.2-.4l3.8-2.3c2.4-1.5 2.5-5 .2-6.6l-4.8-3.4c-1.1-.8-.4-2.6.9-2.3l14.7 4.4c.9.1 1.9-.1 2.7-.5l26.7-16.5c4.1-2.5 5-8.1 1.9-11.8-7.3-8.7-18.9-22.8-20.6-25-2.4-3.2-5.3-2.8-5.3-2.8.7.9 1.1 1.6 1.2 1.9.2 1.1-7.1 7.5-10.5 9.8-1 .7-11.2 7-24.9 15.5-15.3 9.4-35 21.6-51.6 31.8-18.3 11.3-32.6 20.1-32.6 20.1s-.5-.9-1.2-2.6l-.3.1c-.3 1.5-.3 3 .2 4.4l9.8 29.6z"/><path class="st6" d="M1321.6 734.8c.6 1.7 1.2 2.6 1.2 2.6s14.3-8.8 32.6-20.1c-16-13.1-31.4-9.2-31.4-9.2-6.3 12.4-4 22.3-2.4 26.7z"/><path class="st18" d="M1358.3 685.3c.3 1.4-.3 3.2-1.5 4.6-.7.8-1.6 1.4-2.4 1.7-1.5.6-3 .4-4-.5-.5-.5-.8-1.1-1-1.8l-3.2-1.4c-2.4 2.9-4.7 5.4-6.7 7.5l1.8 1c1.6-.6 3.3-.4 4.4.7.5.6.8 1.3.9 2.1.1 1.5-.6 3.1-1.9 4.4-.7.7-1.6 1.2-2.4 1.4-1.5.5-3.1.2-4.1-.8-.6-.6-.8-1.4-.9-2.2l-2.8-1.7c-.9.8-1.4 1.2-1.6 1.2-1.8.2-4.1-.8-4.1-.8-1.9 2.5-3.4 5-4.7 7.4 0 0 15.5-3.9 31.4 9.2 16.5-10.2 36.3-22.3 51.6-31.8-14.2-28.1 14.1-47.1 14.1-47.1-5.6-4.8-10.7-9.2-10.7-9.2l-8.4-8.5-31.9 19.7c-.1 8.8-4.2 18.6-9.7 27.8h2c1.5-2.1 4-2.9 5.7-1.8.7.4 1.2 1.1 1.4 1.9.4 1.3.2 3.1-.7 4.6-.3.6-.8 1.1-1.2 1.5-1.5 1.4-3.4 1.8-4.9.9-.5-.3-.9-.7-1.2-1.3l-4.7-.3c-2 3.1-4.2 6-6.3 8.7l2 .7c1.7-.9 3.5-.9 4.7.1.5.6.9 1.3 1 2.1z"/><path class="st19" d="M1328.7 700.7s2.3 1 4.1.8c.2 0 .8-.4 1.6-1.2l-3.8-2.3c-.6.9-1.2 1.8-1.9 2.7z"/><path class="st20" d="M1330.7 698.1l3.8 2.3c1.2-1 2.9-2.7 5-4.9l-4.8-2.5c-1.3 1.5-2.6 3.2-4 5.1z"/><path class="st20" d="M1334.4 700.3l2.8 1.7c-.1-1.4.6-3 2-4.3.7-.6 1.4-1.1 2.1-1.3l-1.8-1c-2.1 2.2-3.9 3.9-5.1 4.9z"/><path class="st1" d="M1337.2 702c0 .8.3 1.6.9 2.2 1 1 2.5 1.3 4.1.8l-5-3z"/><path class="st20" d="M1337.2 702l4.9 3c.9-.3 1.7-.7 2.4-1.4 1.4-1.3 2.1-2.9 1.9-4.4l-5.2-2.8c-.7.3-1.5.7-2.1 1.3-1.3 1.3-2 2.9-1.9 4.3z"/><path class="st19" d="M1334.7 692.9l4.8 2.5c2-2.1 4.3-4.6 6.7-7.5l-5.6-2.5c-1.9 2.3-3.8 4.8-5.9 7.5z"/><path class="st1" d="M1341.3 696.4l5.2 2.8c-.1-.8-.3-1.5-.9-2.1-1-1.1-2.7-1.3-4.3-.7z"/><path class="st20" d="M1340.5 685.4l5.6 2.5c1.4-1.7 2.9-3.5 4.4-5.4l-6-2.2c-1.2 1.6-2.5 3.3-4 5.1zM1346.2 687.9l3.2 1.4c-.3-1.5.2-3.3 1.5-4.8.5-.6 1.1-1 1.7-1.4l-2-.7c-1.5 2-3 3.8-4.4 5.5z"/><path class="st1" d="M1349.3 689.3c.1.7.5 1.3 1 1.8 1 .9 2.5 1 4 .5l-5-2.3z"/><path class="st20" d="M1349.3 689.3l5 2.2c.9-.3 1.7-.9 2.4-1.7 1.2-1.4 1.8-3.1 1.5-4.6l-5.8-2.1c-.6.3-1.2.8-1.7 1.4-1.2 1.5-1.7 3.4-1.4 4.8z"/><path class="st19" d="M1344.6 680.3l6 2.2c2.1-2.7 4.3-5.7 6.3-8.7l-6.8-.4c-1.7 2.1-3.5 4.4-5.5 6.9z"/><path class="st1" d="M1352.5 683.2l5.8 2.1c-.1-.8-.5-1.4-1-2-1.2-1-3.1-1-4.8-.1z"/><path class="st20" d="M1350 673.4l6.8.4c1.2-1.8 2.4-3.7 3.5-5.5l-6.6-.1c-1 1.6-2.3 3.3-3.7 5.2zM1356.9 673.8l4.7.3c-.7-1.4-.6-3.4.5-5.2.1-.2.2-.4.4-.6h-2c-1.3 1.8-2.4 3.7-3.6 5.5z"/><path class="st19" d="M1353.8 668.2l6.6.1c5.5-9.2 9.6-19 9.7-27.8l-7.6 4.7s-.6 7.6-5 16.7c-1.1 2.1-2.3 4.1-3.7 6.3z"/><path class="st1" d="M1361.5 674.1c.3.5.7 1 1.2 1.3 1.4.9 3.4.4 4.9-.9l-6.1-.4z"/><path class="st20" d="M1361.5 674.1l6 .4c.5-.4.9-.9 1.2-1.5.9-1.5 1.1-3.3.7-4.6l-7.2-.1c-.1.2-.3.4-.4.6-.9 1.7-1 3.7-.3 5.2z"/><path class="st1" d="M1362.4 668.3l7.2.1c-.3-.8-.7-1.5-1.4-1.9-1.8-1.1-4.3-.3-5.8 1.8z"/><path class="st6" d="M1421 638.5s-28.3 19-14.1 47.1c13.8-8.5 23.9-14.8 24.9-15.5 3.4-2.3 10.7-8.7 10.5-9.8-.1-.3-.5-1-1.2-1.9-1.8-2.4-5-6.2-6.5-7.7-.9-1.2-7.5-7-13.6-12.2z"/></g><path d="M1348.7 664.7l-68.2-134.9 10.7-218.5 92.1 8.6-45 192.3 2.4 2.3-1.1 3.2 77.5 110.5c5.4 10.2-62.9 46.8-68.4 36.5z" fill="#130845"/><path class="st1" d="M1262.9 533.5L1226 699.6c-1.8 14.5-80 4.8-78.2-9.7l61.8-193.5 71.9-138.4-.3-40.2 101.8-6.7v27.2c0 14-4.1 27.6-11.7 39.3l-108.4 155.9z"/><path d="M1291.5 204.1c1.7 7 3.5 14 5.3 21 .1.3.8-.6.7-1-1.7-7-3.5-14-5.2-21-.1-.3-.9.6-.8 1zM1330 566.9s.1-.1 0-.1c0 0-.1.1 0 .1zM1386.9 635.6c2.3 23-6.9 46.3-23.6 62.1-4.8 4.5-10.2 8.5-16 11.6-.4.2-1 1.6-.4 1.4 21.3-10.7 36.3-32.6 40.3-56 1.1-6.6 1.3-13.4.6-20-.1-.6-.9.5-.9.9z"/><path d="M1324.5 171.3c-2.1-3.5-12-4.9-23.4-2.6-10.1 2-18.3 6.3-20.4 10 0 0 2.5 9.1 5.4 9.7s32.1-2.9 32.1-2.9l5.8-5.3.5-8.9z" fill="#e04c03"/><path class="st0" d="M1349 117.6c-2 2.7-4.7 5.1-6.3 8.1-1.1 2.2-.9 4.7-3.1 6.3-3.3 2.4-7.8 1.1-9.8 5.1-1 2.1-1.2 4.7-2.8 6.5-3.3 3.8-10.2 2.6-15.7 1-2 6.2-9.1 10.3-16.5 10.2-7.4-.1-14.8-4-19.4-9.5-1.7-2-3.1-4.3-5.5-5.8-4.3-2.7-10-1.7-15-2.8-7.4-1.7-12.8-8.3-14.3-14.9s.1-13.3 2.2-19.5c-10.7-8.4-15.1-22.6-10.5-33.8 4.6-11.2 17.9-18.6 31.7-17.7-.8-4.5 2.3-8.7 6.6-10.7s9.7-2 14.6-1c5.6 1.1 11 3.3 15.8 6.4 3.8 2.5 6.7 8.2 11 9.4 10.7 2.8 19.6-.9 28.1 8.4 7.6 8.3 3.2 17.7 9.6 25.9 8.4 10.8 6.3 18.9-.7 28.4z"/><path class="st5" d="M1322 183.9c.7 3.2-17 13.2-27.5 17.1-10.6 4-13.9 1.8-12.9-1.8 2-7.2 8.2-14.5 8.2-14.5l-4.1-29.8 32.6-26.2 3.7 55.2z"/><path class="st1" d="M1317 131.2c1.6 22.3-13.7 32.5-23 35.6l-6.3 1.9-1.8-12.9 31.1-24.6z"/><path class="st5" d="M1290.8 161.1c16.9-2.5 28.6-18.3 26.1-35.2l-2.5-16.8c-2.5-16.9-18.3-28.6-35.2-26.1-16.9 2.5-28.6 18.3-26.1 35.2l2.5 16.8c2.6 16.9 18.4 28.6 35.2 26.1z"/><path class="st5" d="M1318.7 130.6l8.4-1.7c5.4-1.1 8.9-6.3 7.8-11.7-1.1-5.4-6.3-8.9-11.7-7.8l-8.4 1.7c-5.4 1.1-8.9 6.3-7.8 11.7 1.1 5.4 6.3 8.9 11.7 7.8z"/><circle class="st1" cx="1290.1" cy="120.2" r="2.6"/><circle class="st1" cx="1264.3" cy="125.1" r="2.6"/><path class="st24" d="M1274.8 118.3l1 13.4"/><path class="st0" d="M1253.7 98.7c.5 3.1 2.5 5.8 5.3 7 3.6 1.5 7.6 1 11.4.2 2.3-.5 4.5-1.1 6.6-2 3.8-1.6 7.1-4.1 11-5.3 1-.3 2.3-.4 2.9.5.2.3.3.8.3 1.2.3 2.5 1.3 4.9 3.1 6.6 2.7 2.5 7.2 2.6 10.1.4-.6 2.3-.6 4.8.1 7.1.4 1.2 1.2 2.3 2.4 2.7 2.1.9 3.8-.6 5.3-1.9 2.9-2.4 5.1-4.6 10.1-5.5.9-.2 1.4-1.1 1-1.9l-3.7-8.3c-6.6-14.3-21.7-22.7-37.3-20.8l-14.6 1.8c-9 1-15.3 9.3-14 18.2z"/><path class="st24" d="M1268.8 142.2c9.2 3.5 17.1-1.8 18.6-4.7"/><path class="st6" d="M1325.1 179.7l-7-.5c-8.7 4.5-18.5 5.2-31.4 3.7l-10.9 3.4-17.4 11.9-8.2 149.5c70.9-1.3 145.9-14.3 154.3-30.9L1350 181.6l-24.9-1.9z"/><path class="st1" d="M1257.2 219.9l-3 56.2-4.1 4.6z"/><path class="st18" d="M493 767.7s-5.4 8.3-7.1 16.5c-.5 2.3-1 6.7-1.3 9.6-.2 1.5 1.1 2.9 2.6 2.9l150 .1c1.8 0 3-1.7 2.5-3.4-2-6.8-6.5-21.6-9.3-24.2-3.6-3.4-137.4-1.5-137.4-1.5z"/><g id="XMLID_00000096039666684278503830000016417085777058341547_"><path class="st19" d="M637.2 786h-45.4c-.5-20.2 9.2-29.2 13.5-32.2 1.2-.8 2.6-1.1 4-.9 3.2.5 9.2 1.5 12 3.2 3.9 2.4 8.1 5.7 10.2 10.4 2.1 4.5 5.7 19.5 5.7 19.5z"/><path class="st6" d="M584.9 748.9c5.9 2.1 20.4 4.8 20.4 4.8-4.3 3-14 12.1-13.5 32.2l-78.2-.1c-1-23-22.4-30.2-22.4-30.2l7.7-17.8 52.5.1c.1 0 27.6 8.9 33.5 11z"/><path class="st19" d="M515.4 785.9h-25.5c-2.2 0-3.9-1.9-3.6-4.1.5-4.5 1.3-11.4 1.5-14.6.4-5 2.3-12.2 2.3-12.2.7-1.3 2.3-1.8 3.5-1.1 5.9 3.3 21 13.5 21.8 32z"/></g><path class="st18" d="M194.6 696.2s-8.9 4.4-14.5 10.5c-1.6 1.7-4.3 5.2-6 7.6-.9 1.2-.6 3 .8 3.8l128.8 76.7c1.5.9 3.4.1 3.9-1.6 1.8-6.8 5.5-21.8 4.4-25.6-1.4-4.7-117.4-71.4-117.4-71.4z"/><g id="XMLID_00000101781509232177400480000003925450894687390611_"><path class="st19" d="M309.3 785.7l-39-23.2c9.8-17.6 22.8-20.4 28.1-20.8 1.4-.1 2.8.4 3.9 1.3 2.5 2 7.1 6 8.6 8.9 2.1 4.1 4.1 9 3.5 14.1-.6 4.9-5.1 19.7-5.1 19.7z"/><path class="st6" d="M283.3 727c4 4.8 15.1 14.6 15.1 14.6-5.3.4-18.2 3.2-28.1 20.8l-67.2-40c10.9-20.3-3.8-37.4-3.8-37.4l15.8-11.4 45.1 26.9c-.1 0 19.1 21.8 23.1 26.5z"/><path class="st19" d="M204.6 723.3l-22-13.1c-1.9-1.1-2.4-3.6-1-5.4 2.7-3.6 6.9-9.1 8.8-11.8 2.8-4.1 8.2-9.3 8.2-9.3 1.2-.8 2.8-.4 3.6.9 3.4 5.9 11.1 22.4 2.4 38.7z"/></g><path class="st18" d="M280 711.6c-4.6 9.8-79.1-25.2-74.5-35 30.7-35.5 74.1-78.2 126.5-126 5.6-62.2 19.7-143.5 36.6-229.1l66.9-.9c-1.2 28.8-6 56.2-12.6 82.9L384 555.6c-10.4 39.5-30.1 44.9-104 156z"/><path class="st18" d="M564.1 727.8c8.8 16.4-69.2 38.8-77.4 21.8 0 0-103.1-212.1-135.3-318.8-26.1-86.4 1.3-90.7 15.6-125.9 7.7-19 28.4-29.1 48-23.4 14.6 4.2 23.9 18.5 21.8 33.5-.7 5.2-17 61.2-17 61.2s2.7 45.5 21.8 119.3c22.9 88.6 93.7 200.7 122.5 232.3z"/><path transform="rotate(9.701 407.227 167.326)" class="st25" d="M392.7 136.3h28.8v62h-28.8z"/><g><path class="st0" d="M399.5 134.5l.9 6.1c1.9 12.7 10.5 22.8 21.6 27.3l4.4-29.8-26.9-3.6z"/></g><g><path class="st25" d="M420.5 85c-16.4 2.5-27.7 17.8-25.2 34.2l2.6 17.2c2.5 16.4 17.8 27.7 34.2 25.2 16.4-2.5 27.7-17.8 25.2-34.2l-2.6-17.2c-2.5-16.4-17.8-27.7-34.2-25.2z"/><path class="st26" d="M439.8 113.6l2 13.5M451.6 134.5c-1.9 6.1-15.3 7.2-17 2.2M431.7 115.4l.9 5.9c.4 2.3-1.3 4.5-3.6 4.9-2.3.4-4.5-1.3-4.9-3.6l-.9-5.9M453.2 112.4l.8 5.2c.3 2.1-1.1 4-3.2 4.3-2.1.3-4-1.1-4.3-3.2l-.8-5.2"/></g><path class="st25" d="M399.9 121.7l-9.1 1.4c-4.7.7-7.9 5.1-7.2 9.8.7 4.7 5.1 7.9 9.8 7.2l9.1-1.4c4.7-.7 7.9-5.1 7.2-9.8-.7-4.7-5.1-7.9-9.8-7.2z"/><path class="st1" d="M359.8 319.2l75.7 3.1-.5 8.7s-41.1 5.6-75.2-11.8zM418.6 175.1l-25.4-4.3c-3-.5-5.8 1.5-6.3 4.5l-5.1 30.1c-.5 3 1.5 5.8 4.5 6.3l25.4 4.3c3 .5 5.8-1.5 6.3-4.5l5.1-30.1c.5-3-1.5-5.8-4.5-6.3z"/><path class="st1" d="M418.1 191l-30.8-9.5-7.3 4.6c-5.7 3.6-9.6 10.2-10.4 17.4l-6.2 59.9-14.7 27.9c-2.6 5-2.9 11.1-.7 16 3 6.7 8.5 11.5 15.1 13 11.4 2.7 30.3 6.2 48.3 5.5 28.1-1 34.6-9 34.6-9l.4-.5c7.4-8.3 4.6-12.8-.9-21.9l.5-2.6c.2-1-.6-1.9-1.6-1.9l-2.1-.1-10.8-81.8c-.9-4.6-3.2-8.6-6.5-11.3l-6.9-5.7zM423 403.6l-6.5-32.5 8.5.1-4.2 1.9zM357.4 445.4l26.7 110.3 5.7-22.3z"/><path class="st1" d="M388.1 231.8l36.3 56.3c7.4 11.3 14.4 21.6 20.5 29.8-2 1.6-4.7 2.8-7.7 3.9l-40.6-74.4-6.5-3 4.3.1-6.3-12.7zM421.4 191.6l-4.5-.3 5-3z"/><g><path class="st0" d="M404.6 121.7c3.1-.3 7-3 8.1-7.5.9-4-.9-9.7-.9-11.2-.1-3.1.7-6.8 3.5-8.2 3.1-1.6 6.8.3 10 1.8 5.1 2.5 10.8 4 16.5 3.6 9.8-.8 21-10 9-17.7-10.6-6.8-24.6-4.8-36.6-1-6 1.9-11.9 4.3-16.9 8-5 3.8-9.1 9.1-10.3 15.2-1 4.9.1 10.7 3.5 14.5 1.5 1.7 1.6 3.6 1.6 3.6s8.7-.7 12.5-1.1z"/></g><path class="st13" d="M1279.1 186.8c4.3 5.2 15.6 7.4 27.9 5 10.5-2.1 17.8-6.2 21.3-11.6l-3.8-8.9c-4.3 4.1-11.4 7.6-19.7 9.3-9.6 1.9-18.5 1-24-1.9l-1.7 8.1z"/><path class="st18" d="M1146.5 698.1c-65.5 10.2-141.9 15.9-226.1 18.2l-242.8 43.4c-52-150.8-116.9-402.4-183.7-676.4L772 33.4l18 37.9-1.7 25.7 18.9 18.9-17.2 48.8 18.9 20.6 1.7 35.1 33.4 57.4-.9 30.9 11.1 61.7 23.1 29.1-3.9 25.9 21.9 37.6-1.7 31.7 12.9 18 2.6 22.3 9.8 22.8 20 8.7-15.1-19.9 3.2-18.3-5.8-16.5 11.2-25-12.8-10.6 11.2-25-11.7-30.3 9-26-14.3-34.5-11.7-65.4v-35.6l-26.6-47.8.5-35.1-13.6-26.5 12.1-38.3-14.3-18.6 2.2-33.5-16.9-40.9 230.9-6.4c28.4 216.8 51.3 446.3 70.1 685.8z"/><g><defs><path id="SVGID_1_" d="M1146.5 698.1c-65.5 10.2-141.9 15.9-226.1 18.2l-242.8 43.4c-52-150.8-116.9-402.4-183.7-676.4L772 33.4l18 37.9-1.7 25.7 18.9 18.9-17.2 48.8 18.9 20.6 1.7 35.1 33.4 57.4-.9 30.9 11.1 61.7 23.1 29.1-3.9 25.9 21.9 37.6-1.7 31.7 12.9 18 2.6 22.3 9.8 22.8 20 8.7-15.1-19.9 3.2-18.3-5.8-16.5 209.5-.4 15.8 186.7z"/></defs><clipPath id="SVGID_00000010989714303070108310000005776049707315241124_"><use xlink:href="#SVGID_1_" overflow="visible"/></clipPath><g clip-path="url(#SVGID_00000010989714303070108310000005776049707315241124_)"><path class="st7" d="M626.1 219c-4.8-3.1-8.3-8.2-10.3-15.3-1.4-4.8-1.6-9.3-.6-13.4.9-4.1 2.9-7.6 5.8-10.5 2.9-2.9 6.5-4.9 10.8-6.2 1.7-.5 3.4-.9 5-1.1 1.6-.3 3.6-.6 6-.9 1.8-.2 3.1-.4 3.8-.5l3.2 13.9-6.6 1.9-4.8-8.8c-1.2-.7-3.2-.7-6.1.1-3.1.9-5.2 3.2-6.1 6.8-.9 3.6-.5 8.5 1.2 14.5 1.7 5.9 3.9 10.4 6.7 13.4 2.8 3.1 5.9 4.1 9.3 3.1 1.7-.5 2.9-1 3.7-1.6.8-.6 1.4-1.3 1.8-2l.9-7.3 6.2-1.2 1.7 10.3c-1.2.4-2.5 1.1-4.1 2.2-1.5.9-3 1.7-4.3 2.4-1.4.7-3.1 1.3-5.3 1.9-7 1.9-13 1.3-17.9-1.7zM666.2 207.5c-4.5-3.2-7.8-8.5-9.8-15.7-1.3-4.7-1.6-9.1-.9-13.1.7-4 2.4-7.5 5-10.3 2.6-2.8 6-4.8 10.2-6 7-2 12.8-1.5 17.2 1.4 4.4 3 7.7 8.1 9.8 15.3 1.4 4.8 1.7 9.3 1 13.4-.7 4.2-2.4 7.7-5 10.6-2.6 2.9-6.1 5-10.3 6.2-7 2-12.7 1.4-17.2-1.8zm0-34.2c-.7 3.7-.1 8.7 1.7 15.2 1.9 6.5 4 11.2 6.5 13.9 2.5 2.7 5.2 3.7 8.2 2.8 2.9-.8 4.7-3.2 5.3-7.1.6-3.9 0-9.1-1.8-15.6-1.9-6.5-4-11.1-6.4-13.5-2.4-2.5-5.1-3.3-8.1-2.4-2.9.7-4.7 3-5.4 6.7zM701.4 159.7l-5 .6-1.2-4.3 15.4-4.4 24.4 21.3 5.5 6.4-8.1-28.4-5.4.7-1.2-4.3 15.7-4.5 1.2 4.3-4.4 2.1 11.5 40.5-9 2.6-25.9-22.9-6.4-6.9 8.9 31.4 6.7-1.2 1.2 4-17.1 4.9-1.2-4 4.6-2-10.2-35.9zM760.7 142.3l-7.6 2.5 1.3 14.4-5.8 1.6-4.3-18.8 40.4-11.5 6.1 18.3-5.5 1.6-6.6-12.9-7.5 1.8 10.3 36.3 8.7-1.8 1.2 4-26.9 7.7-1.2-4 7.6-2.9-10.2-36.3zM802.9 125.2l11-3.1 25.4 37.2 3.5-.3 1.2 4-19.3 5.5-1.2-4 4.2-1.9-4.2-6.8-14.7 4.2v8l4.9-.8 1.2 4-16.3 4.6-1.2-4 3.4-1.7 2.1-44.9zm7.6 9.3l-2.1-4 .3 4.6.2 19.7 12.1-3.5-10.5-16.8zM848.5 117.3l-7.6 2.5 1.3 14.4-5.8 1.6-4.3-18.8 40.4-11.5 6.1 18.3-5.5 1.6-6.6-12.9-7.5 1.8 10.3 36.3 8.7-1.8 1.2 4-26.9 7.7-1.2-4 7.6-2.9-10.2-36.3zM892.7 143.1c-4.5-3.2-7.8-8.5-9.8-15.7-1.3-4.7-1.6-9.1-.9-13.1.7-4 2.4-7.5 5-10.3 2.6-2.8 6-4.8 10.2-6 7-2 12.8-1.5 17.2 1.4 4.4 3 7.7 8.1 9.8 15.3 1.4 4.8 1.7 9.3 1 13.4-.7 4.2-2.4 7.7-5 10.6-2.6 2.9-6.1 5-10.3 6.2-7 2-12.7 1.4-17.2-1.8zm0-34.3c-.7 3.7-.1 8.7 1.7 15.2 1.9 6.5 4 11.2 6.5 13.9 2.5 2.7 5.2 3.7 8.2 2.8 2.9-.8 4.7-3.2 5.3-7.1.6-3.9 0-9.1-1.8-15.6-1.9-6.5-4-11.1-6.4-13.5-2.4-2.5-5.1-3.3-8.1-2.4-2.9.8-4.7 3-5.4 6.7z"/></g><path clip-path="url(#SVGID_00000010989714303070108310000005776049707315241124_)" fill="none" stroke="#1d016a" stroke-width="13" stroke-miterlimit="10" d="M623.8 300.1L968.6 202M634.4 337.4l344.8-98.1M645 374.7l344.8-98.1M655.6 412l344.8-98.1M666.2 449.3l344.8-98.1M676.8 486.6l344.9-98.1M687.5 524l201.2-57.3"/><path clip-path="url(#SVGID_00000010989714303070108310000005776049707315241124_)" fill="none" stroke="#1d016a" stroke-width="3" stroke-miterlimit="10" d="M1074.7 575.1L921 618.9"/><g clip-path="url(#SVGID_00000010989714303070108310000005776049707315241124_)"><path class="st7" d="M1002.8 595.5c-24.6-21.5-49.3-43.1-73.9-64.6-3.2-2.8-6.3-5.9-9.8-8.4-3-2.3-6.6-3.7-10.2-2.1-1 .4-2.2 2.4-1.7 3.6 8.5 18.5 22.8 33.3 37.2 47.4 15.4 15.1 31.4 29.4 48.1 43 9.4 7.7 19.1 15.1 28.9 22.2.7.5 1.8-.4 2.2-.9.6-.7 1.1-1.8.8-2.8-3.2-12.2-11.7-21.9-20.2-30.8-9.5-10.1-19.4-19.8-29.6-29.2-5.8-5.3-11.7-10.6-17.7-15.7-.8-.7-2 .6-2.4 1.1-.5.7-1.1 2.1-.4 2.9 14.2 17.6 30.5 33.5 48.6 47.1 2.6 1.9 5.1 3.9 7.8 5.7 2.5 1.7 5.3 2.8 8.2 1.4 1.1-.6 2.1-2.3 1.7-3.6-4.6-14.2-12.6-27.2-23.3-37.5-3-2.9-6.2-5.7-9.6-8.1-1.5-1.1-3.9 2.8-2.8 4.1 10.3 11.3 21.9 21.4 34.6 29.9 3.6 2.4 7.3 4.7 11.1 6.9.9.5 1.9-.5 2.4-1.1.6-.9.9-1.9.4-2.9-7.2-15.1-17.9-28.3-31.2-38.4-1.6-1.2-4.1 3-2.5 4.3 13 11 26.9 21 41.3 30.1 1.6 1 3.4-2.4 3-3.7-4.7-13.5-13.6-25.2-25.3-33.4-1.7-1.2-4.1 3-2.5 4.3 10.3 8.7 21.4 16.5 33 23.3 1.8 1 3.7-2.7 2.8-4.1l-15.9-24c-.9 1.4-1.9 2.7-2.8 4.1 6.8 2.9 13.7 5.8 20.5 8.7 1.9.8 4.3-3.6 2.5-4.3-6.8-2.9-13.7-5.8-20.5-8.7-1.8-.8-3.8 2.6-2.8 4.1l15.9 24c.9-1.4 1.9-2.7 2.8-4.1-11.6-6.8-22.7-14.7-33-23.3-.8 1.4-1.7 2.9-2.5 4.3 11.2 7.8 19.9 19.1 24.3 32 1-1.2 2-2.4 3-3.7-14.5-9-28.3-19.1-41.3-30.1-.8 1.4-1.7 2.9-2.5 4.3 13.1 9.9 23.6 23 30.6 37.8.9-1.4 1.9-2.7 2.8-4.1-13.1-7.5-25.2-16.6-36.1-27-3.1-3-6.1-6.1-9-9.2-.9 1.4-1.9 2.7-2.8 4.1 11.6 8.6 21 19.9 27.4 32.9 1.8 3.7 3.3 7.5 4.6 11.5.6-1.2 1.1-2.4 1.7-3.6-2.2 1.1-5-1.1-6.6-2.3-2.2-1.5-4.3-3.1-6.4-4.7-4.3-3.3-8.6-6.7-12.7-10.2-8.3-7-16.1-14.6-23.5-22.6-4.2-4.5-8.2-9.2-12.1-14-.9 1.4-1.9 2.7-2.8 4.1 10.5 8.9 20.6 18.2 30.5 27.8 4.9 4.8 9.7 9.7 14.5 14.6 4.3 4.5 8.6 9 12.4 14 4.1 5.4 7.5 11.3 9.3 17.9 1-1.2 2-2.4 3-3.7-17.3-12.6-34-25.9-50.1-40.1-8-7-15.8-14.2-23.4-21.6-7.3-7.1-14.6-14.3-21.2-22-7.3-8.4-13.9-17.5-18.6-27.6-.6 1.2-1.1 2.4-1.7 3.6 2.9-1.3 6.2 1.1 8.3 2.8 3 2.4 5.8 5.1 8.7 7.6 6 5.2 12 10.5 18 15.7l36 31.5c6.8 5.9 13.5 11.8 20.3 17.7.8.7 2.2-.8 2.5-1.4.2-.8.5-2.1-.3-2.8z"/></g><g clip-path="url(#SVGID_00000010989714303070108310000005776049707315241124_)"><path class="st7" d="M889.9 346.4c.2-.4.5-.9.7-1.3.2-.3.3-.6.4-.9.1-.3.1-.6.1-.9 0-.2 0-.5-.2-.7-.1-.2-.2-.4-.4-.5-.1 0-.3-.1-.4-.1-.3 0-.6.1-.9.2-.2.1-.3.2-.5.3-.3.3-.6.6-.8 1-.2.4-.5.9-.7 1.3-.2.3-.3.6-.4.9-.1.3-.1.6-.1.9 0 .2 0 .5.2.7.1.2.2.4.4.5.1 0 .3.1.4.1.3 0 .6-.1.9-.2.2-.1.3-.2.5-.3.4-.3.6-.7.8-1z"/></g></g><g><defs><path id="SVGID_00000024681730630515575450000012957209023643376000_" d="M677.6 759.7l242.8-43.4c84.2-2.3 160.6-8 226.1-18.2-18.8-239.5-41.8-469-70.1-685.8l-230.9 6.4 16.9 40.9-2.2 33.5 14.3 18.6-12.1 38.3 13.7 26.6-.5 35.1 26.6 47.8V295l11.7 65.3 14.3 34.5-9 26 11.7 30.3-11.2 25 12.8 10.6-11.2 25 5.8 16.5-3.2 18.3 15.1 19.9-20-8.7-9.8-22.8-2.6-22.3-285 46.3 56 200.8z"/></defs><clipPath id="SVGID_00000048493590005236920070000016786655585783511725_"><use xlink:href="#SVGID_00000024681730630515575450000012957209023643376000_" overflow="visible"/></clipPath><g clip-path="url(#SVGID_00000048493590005236920070000016786655585783511725_)"><path class="st7" d="M687.2 165c-4-4.1-6.2-9.9-6.5-17.3-.2-5 .6-9.4 2.5-13.2 1.9-3.8 4.6-6.8 8-8.9 3.5-2.1 7.5-3.3 12-3.5 1.8-.1 3.5-.1 5.2.1 1.7.1 3.7.3 6 .5 1.8.2 3.1.3 3.8.3l-.2 14.2-6.8.3-2.6-9.7c-1-1-3-1.4-5.9-1.3-3.3.1-5.8 1.9-7.5 5.2-1.8 3.3-2.5 8.1-2.2 14.4.3 6.1 1.4 11 3.4 14.6 2 3.6 4.8 5.3 8.3 5.2 1.7-.1 3.1-.3 4-.7.9-.4 1.7-.9 2.3-1.6l2.6-6.9 6.3.3-.7 10.4c-1.2.1-2.7.5-4.5 1.2-1.7.5-3.3 1-4.8 1.3-1.5.3-3.4.5-5.6.6-7.4.5-13.1-1.4-17.1-5.5zM728.8 163.2c-3.6-4.2-5.6-10-5.9-17.6-.2-4.9.5-9.2 2.2-13 1.6-3.8 4.1-6.7 7.2-8.8 3.2-2.1 7-3.3 11.3-3.5 7.3-.3 12.8 1.5 16.4 5.4 3.6 3.9 5.6 9.6 5.9 17.1.2 5-.5 9.4-2.2 13.3-1.7 3.9-4.1 6.9-7.4 9.2-3.2 2.2-7.1 3.5-11.5 3.7-7 .2-12.3-1.7-16-5.8zm8-33.3c-1.5 3.4-2.2 8.5-1.9 15.1.3 6.8 1.3 11.8 3.1 15 1.8 3.2 4.2 4.8 7.3 4.6 3-.1 5.3-2 6.8-5.7s2.1-8.8 1.9-15.6c-.3-6.8-1.3-11.7-3.1-14.6-1.7-3-4.2-4.4-7.3-4.3-3 .2-5.3 2-6.8 5.5zM774.2 124.9l-5-.6-.2-4.5 16-.7 18.7 26.4 3.9 7.5-1.3-29.5-5.5-.6-.2-4.5 16.3-.7.2 4.5-4.8 1 1.8 42-9.4.4-19.9-28.3-4.6-8.2 1.4 32.6 6.8.4.2 4.2-17.7.8-.2-4.2 4.9-.9-1.4-37.1zM835.9 121.6l-7.9.7-2.1 14.3-6 .3.2-19.3 42-1.8 1.7 19.2-5.7.2-3.4-14.1H847l1.6 37.7 8.9.3.2 4.2-28 1.2-.2-4.2 8.1-1-1.7-37.7zM926.1 112.7l11.5-.5 16.1 42.1 3.5.5.2 4.2-20.1.9-.2-4.2 4.5-.8-2.5-7.6-15.2.7-1.8 7.8 5 .4.2 4.2-16.9.7-.2-4.2 3.7-.9 12.2-43.3zm5.1 10.9l-1.1-4.4-.8 4.6L925 143l12.6-.5-6.4-18.9zM972.3 115.6l-8 .7-2.1 14.3-6 .3.2-19.3 42-1.8 1.7 19.2-5.7.2-3.4-14.1h-7.7l1.6 37.7 8.9.3.2 4.2-28 1.2-.2-4.2 8.1-1-1.6-37.7zM1009.3 150.9c-3.6-4.2-5.6-10-5.9-17.6-.2-4.9.5-9.2 2.2-13 1.6-3.8 4.1-6.7 7.2-8.8 3.2-2.1 7-3.3 11.3-3.5 7.3-.3 12.8 1.5 16.4 5.4 3.6 3.9 5.6 9.6 5.9 17.1.2 5-.5 9.4-2.2 13.3-1.7 3.9-4.1 6.9-7.4 9.2-3.2 2.2-7.1 3.5-11.5 3.7-7 .3-12.4-1.6-16-5.8zm7.9-33.3c-1.5 3.4-2.2 8.5-1.9 15.1.3 6.8 1.3 11.8 3.1 15 1.8 3.2 4.2 4.8 7.3 4.6 3-.1 5.3-2 6.8-5.7s2.1-8.8 1.9-15.6c-.3-6.8-1.3-11.7-3.1-14.6-1.7-3-4.2-4.4-7.3-4.3-3 .3-5.3 2.1-6.8 5.5z"/><path class="st31" d="M666 243.3l358.2-15.4M667.7 282.1l358.2-15.4M669.4 320.8l358.1-15.3M671 359.6l358.2-15.4M672.7 398.4l358.2-15.4M674.4 437.1l358.1-15.4M676 475.9l209.1-9"/><path fill="none" stroke="#1d016a" stroke-width="3" stroke-miterlimit="10" d="M1040.9 615.6l-159.8 6.8"/><g><path class="st7" d="M965.9 618.6c-19.1-26.8-38.1-53.6-57.2-80.4-2.5-3.5-4.8-7.3-7.7-10.5-2.3-2.6-5.2-4.8-8.9-4.1-1.5.3-2.4 2.4-2.2 3.7 4 20.2 14.9 38.3 25.7 55.5 11.3 18 23.5 35.4 36.4 52.2 7.3 9.5 14.9 18.8 22.7 28 1.4 1.7 3.4-1.7 3.4-2.9-.3-13-6.5-24.6-12.9-35.5-6.9-11.8-14.1-23.4-21.8-34.7-4.4-6.5-8.8-12.8-13.4-19.1-.7-.9-1.9 0-2.5.6-.7.9-1.1 2.1-.6 3.2 9.7 20.4 21.9 39.6 36.3 57 2 2.4 4 4.8 6.1 7.1 2 2.1 4.4 4.1 7.5 3.4 1.2-.3 2.3-2 2.2-3.2-1.2-14.8-5.9-29.3-13.8-41.9-2.3-3.6-4.8-7-7.5-10.3-1.5-1.8-4 2.2-3.1 3.8 7.3 13.3 16.3 25.8 26.6 36.9 2.9 3.2 5.9 6.2 9.1 9.1 1.7 1.6 3.6-1.9 3.3-3.4-3.5-16.3-10.8-31.7-21.4-44.6-1.4-1.8-4.2 2.2-3.1 3.8 10.1 13.7 21.2 26.7 33.2 38.8 1.5 1.5 3.5-1.5 3.4-2.9-1.4-14.2-7.3-27.8-16.8-38.4-1.5-1.7-4.2 2.3-3.1 3.8 8 10.9 17 21 26.7 30.4 1.6 1.5 3.8-1.9 3.3-3.4l-9.9-27c-1 1.2-2 2.4-3 3.7 6 4.4 12 8.8 18 13.3 1.6 1.2 4.2-3.1 2.5-4.3-6-4.4-12-8.8-18-13.3-.7-.5-1.8.4-2.2.9-.6.7-1.1 1.9-.8 2.8l9.9 27c1.1-1.1 2.2-2.3 3.3-3.4-9.7-9.4-18.7-19.5-26.7-30.4-1 1.3-2.1 2.5-3.1 3.8 9.1 10.2 14.9 23.1 16.3 36.7 1.1-1 2.2-1.9 3.4-2.9-12-12.1-23.1-25.1-33.2-38.8-1 1.3-2.1 2.5-3.1 3.8 10.4 12.7 17.6 27.8 21 43.8 1.1-1.1 2.2-2.3 3.3-3.4-11.1-10.4-20.9-22.2-29.1-35-2.3-3.6-4.5-7.3-6.6-11.1-1 1.3-2.1 2.5-3.1 3.8 9.3 11 15.9 24.2 19 38.3.9 4 1.5 8 1.8 12.1.7-1.1 1.5-2.2 2.2-3.2-2.4.6-4.5-1.8-5.9-3.5l-5.4-6.3c-3.5-4.2-6.9-8.6-10.1-13-6.4-8.8-12.3-17.9-17.6-27.3-3.1-5.4-5.9-11-8.6-16.6-1 1.3-2.1 2.5-3.1 3.8 8 10.9 15.6 22.1 22.8 33.5 3.6 5.6 7.1 11.3 10.4 17.1 3.2 5.5 6.5 11 9.1 16.8 2.9 6.4 5.1 13.2 5.2 20.3 1.1-1 2.2-1.9 3.4-2.9a691.92 691.92 0 0 1-39-50c-6.1-8.7-12.1-17.5-17.8-26.4-5.5-8.7-11-17.4-15.8-26.5-5.3-10.1-9.7-20.8-12-32-.7 1.2-1.4 2.5-2.2 3.7 3.1-.6 5.7 2.1 7.4 4.3 2.4 3 4.4 6.2 6.6 9.2 4.6 6.5 9.2 13 13.9 19.5 9.2 13 18.5 26 27.7 39 5.3 7.4 10.6 14.9 15.9 22.3 1.5 1.3 4.5-2.6 3.3-4.2z"/></g><g><path class="st7" d="M914 350.4c.3-.4.7-.7 1-1.1.2-.3.4-.5.5-.8.2-.3.3-.6.3-.9.1-.3.1-.5 0-.8 0-.2-.1-.4-.2-.6l-.3-.3c-.3-.1-.5-.2-.8-.1-.2.1-.3.1-.5.2-.3.2-.6.5-.9.8-.3.4-.7.7-1 1.1-.2.3-.4.5-.5.8-.2.3-.3.6-.3.9-.1.3-.1.5 0 .8 0 .2.1.4.2.6l.3.3c.3.1.5.2.8.1.2-.1.3-.1.5-.2.4-.2.7-.5.9-.8z"/></g><g><path class="st7" d="M861.9 157.7l4.9-.6v-36.9l-4.6-.9V115h9.7c.8 0 1.7 0 2.6-.1 1 0 1.7-.1 2.2-.1 2.3-.2 4.2-.3 5.8-.3 4.5 0 8.1.4 10.7 1.3 2.6.9 4.6 2.2 5.8 4 1.2 1.8 1.8 4.2 1.8 7.2 0 2.9-.8 5.5-2.3 8-1.5 2.5-3.7 4.2-6.7 5.1 1.9.7 3.6 2.1 4.9 4 1.3 2 2.7 4.5 4.1 7.5.8 1.8 1.5 3.1 2 3.9.5.9 1 1.4 1.6 1.5l1.8.6v4.2h-12c-.6 0-1.3-.7-2-2s-1.5-3.5-2.6-6.3c-1.3-3.5-2.4-6.2-3.4-8.1-.9-1.9-2-3.1-3.1-3.5h-5.7V157l5.6.6v4.2h-21.3v-4.1zm25.6-22.5c1.2-1.7 1.8-4.3 1.8-7.7 0-3-.6-5.2-1.8-6.7-1.2-1.4-3.2-2.1-6-2.1-1.5 0-2.8.1-4 .3v18.6c.5.1 1.5.2 2.7.2h2.1c2.3 0 4-.9 5.2-2.6z"/></g></g></g><g><path class="st1" d="M1314.1 287.8l36.4-49.9-39.9 43.8-22.1-16.2-1.3 1.8z"/><path class="st5" d="M1338.5 237.9c-28.9 31.4-59.6 62-93.8 87.9-34.1 25.9-71.5 47-109.4 66.1l-12.6-22.7c34.9-21.2 68.9-44 99.2-71.2 30.3-27 56.6-57.8 81.6-89.8-.1 0 35 29.7 35 29.7z"/><path class="st6" d="M1347.3 181l-22.2-1.3-62.2 67.1 47.7 34.8 49.7-54.5c3.6-4 6-9 6.8-14.3.5-3.2.5-6.5-.1-9.7l-1.3-7.8c-.2-1.3-.7-2.5-1.5-3.6l-1.9-2.6c-3.6-4.7-9.1-7.7-15-8.1z"/><path class="st5" d="M1123.6 368.9l-44.4 13.1 4 17.8 3.9 8.9 20.2 16.3c10.7-8.2 20.7-19.5 29.9-34.2 11.5-6.5-2-28.4-13.6-21.9z"/><path class="st5" d="M1095.9 385.9c7.8 5.7 25.9 6.4 31.2-3.4 5.5-10.3-7.2-16.6-15.6-17.4-4.5-.4-9-.1-13.4-.4-9.5-.7-18-4.9-26.7-8.2-1.9-.7-3.9.9-3.5 2.9.8 4.7 3.7 9.1 7.5 11.8 3.7 2.7 11.8 2 14.1 5.1.8 1.1 1.2 2.5 1.8 3.8 1 2.3 2.6 4.3 4.6 5.8zM1084.9 380.3l-49.1 13.7c-2.7.7-4.3 3.5-3.5 6.2.7 2.5 3.2 4.1 5.8 3.6l49.2-8.8-2.4-14.7z"/><path class="st5" d="M1083.3 395.3l-47.2 20.2c-2.4 1-3.5 3.8-2.5 6.2 1 2.3 3.5 3.4 5.8 2.6l47.7-15.6-3.8-13.4zM1093.5 404.7L1050 432c-2.2 1.4-2.9 4.3-1.5 6.5 1.3 2.1 4 2.8 6.1 1.7l44.7-22.9-5.8-12.6z"/><path class="st5" d="M1111.4 403.1l-17.1 14.9-23.4 22.8c-1.5 1.5-1.6 3.9-.1 5.4 1.3 1.4 3.5 1.6 5 .5l30.3-20.9c2.3-1.6 4.3-3.5 6-5.7l8.7-11.6-9.4-5.4z"/></g><g><path class="st25" d="M603.4 370.2l44.4 2.5.1 17.5-1.7 9.2-15.2 19.7c-11.8-5.4-23.7-13.6-35.4-25.4-12.3-3.5-4.4-27 7.8-23.5z"/><path class="st25" d="M633.1 380c-6.1 7-22.9 11.7-30 3.7-7.5-8.4 3.1-17.2 10.8-19.7 4.1-1.4 8.4-2 12.5-3.3 8.7-2.8 15.7-8.5 23.1-13.5 1.6-1.1 3.8 0 3.9 1.9.3 4.5-1.5 9.3-4.4 12.7-2.9 3.4-10.6 4.5-12 7.9-.5 1.3-.6 2.6-.9 4-.4 2.2-1.4 4.5-3 6.3zM642.2 372.4l49 2c2.7.1 4.8 2.4 4.7 5-.1 2.5-2.1 4.5-4.6 4.7l-47.9 2.6-1.2-14.3z"/><path class="st25" d="M646.9 386l48.6 8.5c2.5.4 4.1 2.8 3.7 5.2-.4 2.3-2.5 3.9-4.8 3.7l-48.1-4.1.6-13.3zM639.5 397.1l46.7 16c2.4.8 3.6 3.4 2.8 5.7-.8 2.2-3.1 3.5-5.4 2.9l-46.8-11.5 2.7-13.1z"/><path class="st25" d="M622.4 399.5l19.2 10.1 26.9 16.2c1.7 1 2.3 3.3 1.3 5.1-.9 1.6-2.9 2.3-4.6 1.6l-32.9-12.9c-2.5-1-4.8-2.3-6.8-4l-10.7-8.9 7.6-7.2z"/><path class="st1" d="M453.2 262.6c8.8 13.3 18.5 26.6 29.2 38.2 10.4 11.4 22.6 18.1 36 25.5 19.3 10.3 39.6 19 60.2 26.7 9.7 3.6 19.6 7 29.6 9.9.6.2 1.3.4 1.9.5l-28 59.4-7.4-5-7.3-4.9c-22.6-15.2-50.4-32.8-72.7-48.3-10.3-7.3-19.9-14-29.5-22.8-9.8-9.3-16.7-18.9-24.3-29.3-16.8-23.7-31.8-48.4-47.5-72.7-2.3-3.6-7.4-10.8-9.5-14.6-12.9-23.5 19.7-41.4 32.6-17.9 0 0 24.7 36.9 36.7 55.3z"/></g></svg>