<svg id="Layer_1" xmlns="http://www.w3.org/2000/svg" xmlns:xlink="http://www.w3.org/1999/xlink" viewBox="0 0 1072 1072"><style>.st0{fill:#f4f4f4}.st1{fill:#1d016a}.st2{fill:none;stroke:#ff5c00;stroke-width:1.0101;stroke-miterlimit:10}.st6{fill:#ff5c00}.st7{fill:none;stroke:#1d016a;stroke-width:1.0101;stroke-miterlimit:10}.st12{fill:#fff}.st16{fill:#1d016a;stroke:#f4f4f4;stroke-width:7;stroke-linecap:round;stroke-linejoin:round;stroke-miterlimit:10}</style><path class="st0" d="M0 0h1072v1072H0z"/><path class="st1" d="M1678.2 387l-85.5 6.2c-2 .1-3.6-1.4-3.6-3.4v-85.5c0-1.8 1.4-3.2 3.1-3.4l85.5-6.2c2-.1 3.6 1.4 3.6 3.4v85.5c0 1.8-1.4 3.3-3.1 3.4z"/><path class="st2" d="M1682.9 382.6l-85.5 6.2c-2 .1-3.6-1.4-3.6-3.4V300c0-1.8 1.4-3.2 3.1-3.4l85.5-6.2c2-.1 3.6 1.4 3.6 3.4v85.5c0 1.7-1.3 3.2-3.1 3.3z"/><path d="M1565.9 395.2l-47.5 3.5c-1.1.1-2-.8-2-1.9v-47.4c0-1 .8-1.8 1.7-1.9l47.5-3.5c1.1-.1 2 .8 2 1.9v47.4c.1 1.1-.7 1.9-1.7 1.9z" fill="#605396"/><path class="st2" d="M1569.2 392.1l-47.5 3.5c-1.1.1-2-.8-2-1.9v-47.4c0-1 .8-1.8 1.7-1.9l47.5-3.5c1.1-.1 2 .8 2 1.9v47.4c.1 1.1-.7 1.9-1.7 1.9z"/><path d="M1753.5 381.3l-47.5 3.5c-1.1.1-2-.8-2-1.9v-47.4c0-1 .8-1.8 1.7-1.9l47.5-3.5c1.1-.1 2 .8 2 1.9v47.4c0 1-.7 1.8-1.7 1.9z" fill="#55468f"/><path class="st2" d="M1756.8 378.2l-47.5 3.5c-1.1.1-2-.8-2-1.9v-47.4c0-1 .8-1.8 1.7-1.9l47.5-3.5c1.1-.1 2 .8 2 1.9v47.4c0 1-.7 1.8-1.7 1.9z"/><path d="M2019.6 519.7l-85.5 6.2c-2 .1-3.6-1.4-3.6-3.4V437c0-1.8 1.4-3.2 3.1-3.4l85.5-6.2c2-.1 3.6 1.4 3.6 3.4v85.5c0 1.8-1.4 3.3-3.1 3.4z" fill="#303537"/><path class="st2" d="M2024.3 515.4l-85.5 6.2c-2 .1-3.6-1.4-3.6-3.4v-85.5c0-1.8 1.4-3.2 3.1-3.4l85.5-6.2c2-.1 3.6 1.4 3.6 3.4V512c0 1.8-1.3 3.2-3.1 3.4z"/><path class="st0" d="M1946.4 410.7l-85.5 6.2c-2 .1-3.6-1.4-3.6-3.4V328c0-1.8 1.4-3.2 3.1-3.4l85.5-6.2c2-.1 3.6 1.4 3.6 3.4v85.5c0 1.8-1.4 3.3-3.1 3.4z"/><path class="st2" d="M1951.1 406.3l-85.5 6.2c-2 .1-3.6-1.4-3.6-3.4v-85.5c0-1.8 1.4-3.2 3.1-3.4l85.5-6.2c2-.1 3.6 1.4 3.6 3.4V403c0 1.7-1.4 3.2-3.1 3.3z"/><path class="st6" d="M1677.8 523.7l-85.5 6.2c-2 .1-3.6-1.4-3.6-3.4V441c0-1.8 1.4-3.2 3.1-3.4l85.5-6.2c2-.1 3.6 1.4 3.6 3.4v85.5c0 1.8-1.3 3.2-3.1 3.4z"/><path class="st7" d="M1682.5 519.3l-85.5 6.2c-2 .1-3.6-1.4-3.6-3.4v-85.5c0-1.8 1.4-3.2 3.1-3.4l85.5-6.2c2-.1 3.6 1.4 3.6 3.4v85.5c0 1.8-1.3 3.3-3.1 3.4z"/><path d="M1565.6 531.9l-47.5 3.5c-1.1.1-2-.8-2-1.9v-47.4c0-1 .8-1.8 1.7-1.9l47.5-3.5c1.1-.1 2 .8 2 1.9V530c0 1-.8 1.8-1.7 1.9z" fill="#f98158"/><path class="st7" d="M1568.8 528.8l-47.5 3.5c-1.1.1-2-.8-2-1.9V483c0-1 .8-1.8 1.7-1.9l47.5-3.5c1.1-.1 2 .8 2 1.9v47.4c.1 1-.7 1.8-1.7 1.9z"/><path d="M1753.1 518l-47.5 3.5c-1.1.1-2-.8-2-1.9v-47.4c0-1 .8-1.8 1.7-1.9l47.5-3.5c1.1-.1 2 .8 2 1.9v47.4c0 1-.7 1.8-1.7 1.9z" fill="#fa7c4e"/><path class="st7" d="M1756.4 514.9l-47.5 3.5c-1.1.1-2-.8-2-1.9V469c0-1 .8-1.8 1.7-1.9l47.5-3.5c1.1-.1 2 .8 2 1.9V513c0 1-.7 1.8-1.7 1.9z"/><path class="st6" d="M1040.6 839.6L18.2 873.3C8 873.7 0 882 0 892.1v160.5c0 10.6 8.8 19.1 19.4 18.8l1022.4-33.7c10.1-.3 18.2-8.6 18.2-18.8V858.4c0-10.6-8.8-19.1-19.4-18.8z"/><path d="M1054.6 828.2L26.4 862c-8.6.3-15.4 7.3-15.4 15.9v166.2c0 9 7.5 16.2 16.4 15.9l1028.1-33.9c8.6-.3 15.4-7.3 15.4-15.9V844.1c.1-9-7.4-16.2-16.3-15.9z" fill="none" stroke="#1d016a" stroke-width="2.169" stroke-miterlimit="10"/><path class="st12" d="M177.6 987c-4.2.1-7.8-.4-11-1.6-3.2-1.2-5.9-3-8.1-5.4-2.2-2.3-3.9-5.2-5.1-8.5s-1.9-7-2-11.1c-.1-4.2.5-8 1.8-11.4 1.3-3.4 3.2-6.4 5.6-8.9 2.4-2.5 5.3-4.5 8.6-5.9 3.3-1.4 7-2.2 10.9-2.3 1.7-.1 3.3 0 4.8.1 1.5.2 3 .3 4.3.5 1.3.2 2.6.4 3.7.6 1.1.2 2.1.4 2.9.5l-.4 14.1-7.2.2-2.4-9.2c-.2-.3-.6-.5-.9-.8-.4-.3-.8-.5-1.4-.6-.5-.2-1.2-.3-1.9-.4-.8-.1-1.7-.1-2.7-.1-2 .1-3.9.6-5.5 1.5-1.7.9-3.1 2.3-4.2 4.1-1.2 1.8-2 4.1-2.6 6.8-.6 2.7-.8 5.8-.7 9.4.1 3.1.5 6.1 1.1 8.9.6 2.8 1.5 5.4 2.7 7.5 1.2 2.2 2.7 3.9 4.4 5.1s3.8 1.9 6.2 1.8c1.2 0 2.2-.1 3-.3.8-.2 1.6-.3 2.2-.6.6-.2 1.1-.5 1.5-.8s.7-.6 1-.9l3-7.9 6.2.2-.5 12c-1 .1-2 .3-3 .6s-2.2.7-3.5 1c-1.3.4-2.8.7-4.5 1-1.9.5-3.9.7-6.3.8zM199.9 974.8c-.1-1.7.2-3.3.8-4.6.6-1.4 1.4-2.6 2.5-3.6s2.3-1.9 3.8-2.7c1.5-.8 3-1.4 4.7-1.9 1.7-.5 3.5-.9 5.3-1.2s3.7-.5 5.6-.6l-.1-1.7c-.1-2.7-.7-4.6-1.8-5.7-1.1-1.1-2.9-1.6-5.4-1.5-1.3 0-2.5.2-3.8.4-1.3.2-2.5.5-3.7.9-1.2.3-2.2.7-3.2 1.1-1 .4-1.8.8-2.5 1.1l-2.2-4.7c.5-.4 1.3-1 2.5-1.6 1.2-.7 2.5-1.4 4.2-2 1.6-.7 3.4-1.2 5.4-1.8 2-.5 4-.8 6.1-.9 2.6-.1 4.8.1 6.7.6s3.3 1.3 4.5 2.5c1.2 1.1 2.1 2.6 2.6 4.4.6 1.8.9 3.9 1 6.3l.7 22 4.4-.1.1 4.3c-.4.1-1 .2-1.6.4-.7.2-1.4.3-2.2.5-.8.2-1.6.3-2.6.4-.9.1-1.9.2-2.8.2h-2.2c-.6-.1-1.1-.2-1.5-.4-.4-.2-.6-.6-.8-1.1s-.3-1.1-.3-1.9l-.1-2c-.4.6-.9 1.2-1.6 1.9s-1.5 1.3-2.5 1.9-2.1 1.1-3.4 1.6-2.6.7-4.2.7c-1.7.1-3.2-.1-4.7-.5s-2.8-1.1-3.9-2c-1.1-.9-2-2.1-2.7-3.5-.6-1.5-1-3.2-1.1-5.2zm16.9 4.1c.4 0 .9-.1 1.4-.2.5-.1 1.1-.3 1.7-.5.6-.2 1.1-.5 1.7-.8.6-.3 1-.7 1.4-1.1l-.4-11.7c-2.3.1-4.2.3-5.7.8s-2.7 1.1-3.6 1.8-1.5 1.6-1.9 2.5c-.4.9-.5 1.9-.5 2.9.1 2.1.6 3.7 1.6 4.7s2.5 1.7 4.3 1.6zM242.3 984.1l-.1-4.7 5.1-.8-.9-27.1-4.8-1.3-.2-5.3 12-2.1h.2l1.9 1.5.1 2.9.1 5.5h.1c.3-.8.7-1.7 1.4-2.9s1.6-2.3 2.6-3.4c1.1-1.1 2.3-2.1 3.7-2.9 1.4-.8 2.9-1.2 4.6-1.3h1.7c.4 0 .7.1 1 .2l.4 12.2c-.3-.2-.9-.4-2-.6-1.1-.2-2.4-.3-3.9-.2-.8 0-1.6.1-2.5.2-.8.1-1.6.3-2.3.4-.7.2-1.3.4-1.9.6-.6.2-1 .5-1.3.7l.7 22.5 8.8.6.1 4.6-24.6.7zM280.4 974.5l-.8-25.9-5 .2-.1-4c.2-.1.5-.2.9-.3.4-.2.8-.3 1.3-.5.4-.2.8-.3 1.2-.5.3-.2.6-.3.7-.4.8-.7 1.6-1.8 2.4-3.5.2-.5.5-1 .7-1.7.3-.6.5-1.3.8-2s.5-1.4.7-2.1c.2-.7.4-1.3.5-1.8l6.3-.2.4 10.4 10.4-.3.2 6-10.4.3.6 19.5c.1 1.9.1 3.4.2 4.5s.3 1.9.5 2.5c.2.6.6.9 1.1 1.1.5.2 1.1.2 1.9.2.6 0 1.2-.1 1.8-.2.6-.1 1.2-.2 1.8-.4.6-.1 1.1-.3 1.6-.5s.9-.3 1.2-.4l1.8 4.1c-.7.6-1.5 1.1-2.5 1.7-1 .6-2.1 1.1-3.3 1.6-1.2.5-2.5.9-3.9 1.2s-2.7.5-4.1.5h-.1c-1.6.1-2.9-.1-4-.5s-2-.9-2.7-1.7-1.2-1.7-1.6-2.9c-.3-1.2-.4-2.5-.5-4zM325.1 982.3c-3.3.1-6.2-.3-8.6-1.3s-4.4-2.3-6-4.1c-1.6-1.8-2.8-4-3.6-6.5-.8-2.5-1.3-5.3-1.4-8.4-.1-3.3.3-6.2 1.1-8.9.8-2.6 2.1-4.9 3.7-6.8 1.6-1.9 3.6-3.3 6-4.4s5-1.6 7.9-1.7c9.8-.3 15 4.3 15.7 13.8.1 1.6.1 3.1.1 4.4 0 1.3-.1 2.4-.3 3.3l-23 .7c.2 2.3.6 4.3 1.2 5.9s1.4 2.9 2.3 3.9 2.1 1.7 3.3 2.2c1.3.4 2.7.6 4.2.6 1.2 0 2.3-.2 3.3-.4s2-.5 2.9-.8c.9-.3 1.7-.7 2.4-1 .7-.4 1.3-.7 1.8-1.1l2 4.2c-.6.6-1.4 1.3-2.4 2s-2.2 1.4-3.5 2c-1.3.6-2.8 1.1-4.3 1.5-1.5.6-3.1.9-4.8.9zm-2.1-37.2c-.9 0-1.8.2-2.5.6-.8.4-1.4 1-2 1.9s-1 2.2-1.4 3.9c-.3 1.6-.5 3.8-.5 6.3l12.7-.4v-.5-.7-.7-.5c0-1.2-.2-2.4-.4-3.6-.2-1.2-.5-2.3-1-3.3-.5-.9-1.1-1.7-1.9-2.3-.8-.4-1.8-.7-3-.7zM346.3 980.8l-.1-4.7 5.1-.8-.9-27.1-4.8-1.4-.2-5.3 12.9-2.1h.2l2.6 1.4 1.1 34.1 5.1.5.1 4.7-21.1.7zm7.9-47.3c-.8 0-1.6-.1-2.2-.4-.7-.3-1.2-.7-1.7-1.2s-.8-1.1-1-1.8c-.2-.7-.4-1.4-.4-2.2 0-.9.1-1.8.3-2.6.2-.8.6-1.5 1.1-2.2.5-.6 1.1-1.1 1.9-1.5.8-.4 1.6-.6 2.6-.6s1.8.1 2.5.4c.7.3 1.3.7 1.8 1.2s.9 1.1 1.1 1.8c.2.7.4 1.4.4 2.1 0 .9-.1 1.8-.3 2.6-.2.8-.6 1.5-1.1 2.2-.5.6-1.2 1.1-2 1.5-.9.5-1.8.7-3 .7zM372.4 980l-.1-4.7 5.1-.8-.9-27.1-4.8-1.3-.2-5.3 12-2.1h.2l1.9 1.5.1 2.9.1 5.5h.1c.3-.8.7-1.7 1.4-2.9s1.6-2.3 2.6-3.4c1.1-1.1 2.3-2.1 3.7-2.9 1.4-.8 2.9-1.2 4.6-1.3h1.7c.4 0 .7.1 1 .2l.4 12.2c-.3-.2-.9-.4-2-.6-1.1-.2-2.4-.3-3.9-.2-.8 0-1.6.1-2.5.2-.8.1-1.6.3-2.3.4-.7.2-1.3.4-1.9.6-.6.2-1 .5-1.3.7l.7 22.5 8.8.6.1 4.6-24.6.7zM405.7 968.2c-.1-1.7.2-3.3.8-4.6.6-1.4 1.4-2.6 2.5-3.6s2.3-1.9 3.8-2.7c1.5-.8 3-1.4 4.7-1.9 1.7-.5 3.5-.9 5.3-1.2 1.9-.3 3.7-.5 5.6-.6l-.1-1.7c-.1-2.7-.7-4.6-1.8-5.7s-2.9-1.6-5.4-1.5c-1.3 0-2.5.2-3.8.4s-2.5.5-3.7.9c-1.2.3-2.2.7-3.2 1.1s-1.8.8-2.5 1.1l-2.2-4.7c.5-.4 1.3-1 2.5-1.6 1.2-.7 2.5-1.4 4.2-2s3.4-1.2 5.4-1.8c2-.5 4-.8 6.1-.9 2.6-.1 4.8.1 6.7.6 1.8.5 3.3 1.3 4.5 2.5 1.2 1.1 2.1 2.6 2.6 4.4.6 1.8.9 3.9 1 6.3l.7 22 4.4-.1.1 4.3c-.4.1-1 .2-1.6.4-.7.2-1.4.3-2.2.5-.8.2-1.6.3-2.6.4-.9.1-1.9.2-2.8.2h-2.2c-.6-.1-1.1-.2-1.5-.4-.4-.2-.6-.6-.8-1.1-.2-.5-.3-1.1-.3-1.9l-.1-2c-.4.6-.9 1.2-1.6 1.9-.7.7-1.5 1.3-2.5 1.9-1 .6-2.1 1.1-3.4 1.6s-2.6.7-4.2.7c-1.7.1-3.2-.1-4.7-.5s-2.8-1.1-3.9-2c-1.1-.9-2-2.1-2.7-3.5-.7-1.4-1.1-3.2-1.1-5.2zm16.9 4.2c.4 0 .9-.1 1.4-.2.5-.1 1.1-.3 1.7-.5s1.1-.5 1.7-.8c.6-.3 1-.7 1.4-1.1l-.4-11.7c-2.3.1-4.2.3-5.7.8s-2.7 1.1-3.6 1.8-1.5 1.6-1.9 2.5c-.4.9-.5 1.9-.5 2.9.1 2.1.6 3.7 1.6 4.7s2.4 1.7 4.3 1.6zM485.7 977.2c-2.2.1-4.2-.3-6.2-1-1.9-.7-3.6-1.9-5.1-3.5-1.5-1.6-2.6-3.6-3.5-6.1-.9-2.5-1.4-5.4-1.5-8.8-.1-3.2.3-6.2 1.1-8.9.9-2.7 2.2-5.1 3.9-7.1 1.7-2 3.9-3.6 6.4-4.8 2.6-1.2 5.5-1.8 8.7-1.9h2.9l2.7.3-.4-12-6.5-.9-.1-4 14.9-2h.2l2.2 1.6 1.7 52.7 3.9-.1.1 4.4c-1.2.3-2.5.6-4 1-1.5.3-3.1.5-4.9.6-1.4 0-2.6-.2-3.4-.8s-1.3-1.7-1.3-3.4v-1.4c-.6.8-1.2 1.5-2 2.2-.8.7-1.7 1.4-2.7 1.9-1 .6-2.1 1-3.3 1.4-1.1.4-2.4.6-3.8.6zm4.3-6.5c1.4 0 2.7-.4 3.8-.9 1.1-.6 1.9-1.2 2.5-1.9l-.8-26.6c-.4-.4-1.1-.8-2-1.1-.9-.3-2-.4-3.3-.4s-2.5.3-3.6.9c-1.1.6-2.1 1.5-2.9 2.8-.8 1.3-1.4 2.9-1.9 5-.4 2.1-.6 4.6-.6 7.6 0 2.6.3 4.9.7 6.7.4 1.9 1 3.4 1.8 4.5.8 1.2 1.7 2 2.7 2.5 1.2.7 2.3.9 3.6.9zM535 975.7c-3.3.1-6.2-.3-8.6-1.3-2.4-1-4.4-2.3-6-4.1-1.6-1.8-2.8-4-3.6-6.5-.8-2.5-1.3-5.3-1.4-8.4-.1-3.3.3-6.2 1.1-8.9.8-2.6 2.1-4.9 3.7-6.8s3.6-3.3 6-4.4c2.3-1 5-1.6 7.9-1.7 9.8-.3 15 4.3 15.7 13.8.1 1.6.1 3.1.1 4.4 0 1.3-.1 2.4-.3 3.3l-23 .7c.2 2.3.6 4.3 1.2 5.9s1.4 2.9 2.3 3.9c.9 1 2.1 1.7 3.3 2.2 1.3.4 2.7.6 4.2.6 1.2 0 2.3-.2 3.3-.4s2-.5 2.9-.8c.9-.3 1.7-.7 2.4-1 .7-.4 1.3-.7 1.8-1.1l2 4.2c-.6.6-1.4 1.3-2.4 2s-2.2 1.4-3.5 2c-1.3.6-2.8 1.1-4.3 1.5-1.6.6-3.2.8-4.8.9zm-2.2-37.2c-.9 0-1.8.2-2.5.6-.8.4-1.4 1-2 1.9-.6.9-1 2.2-1.4 3.9-.3 1.6-.5 3.8-.5 6.3l12.7-.4v-.5-.7-.7-.5c0-1.2-.2-2.4-.4-3.6-.2-1.2-.5-2.3-1-3.3s-1.1-1.7-1.9-2.3-1.8-.7-3-.7zM582.6 964.9l-.8-25.9-5 .2-.1-4c.2-.1.5-.2.9-.3.4-.2.8-.3 1.3-.5.4-.2.8-.3 1.2-.5s.6-.3.7-.4c.8-.7 1.6-1.8 2.4-3.5.2-.5.5-1 .7-1.7.3-.6.5-1.3.8-2 .2-.7.5-1.4.7-2.1.2-.7.4-1.3.5-1.8l6.3-.2.4 10.4 10.4-.3.2 6-10.4.3.6 19.5c.1 1.9.1 3.4.2 4.5s.3 1.9.5 2.5c.2.6.6.9 1.1 1.1.5.2 1.1.2 1.9.2.6 0 1.2-.1 1.8-.2.6-.1 1.2-.2 1.8-.4.6-.1 1.1-.3 1.6-.5s.9-.3 1.2-.4l1.8 4.1c-.7.6-1.5 1.1-2.5 1.7-1 .6-2.1 1.1-3.3 1.6-1.2.5-2.5.9-3.9 1.2s-2.7.5-4.1.5h-.1c-1.6 0-2.9-.1-4-.5s-2-.9-2.7-1.7c-.7-.8-1.2-1.7-1.6-2.9-.3-1.2-.5-2.5-.5-4zM609 972.5l-.1-4.7 5.1-.8-.9-27.1-4.8-1.3-.2-5.3 12-2.1h.2l1.9 1.5.1 2.9.1 5.5h.1c.3-.8.7-1.7 1.4-2.9s1.6-2.3 2.6-3.4c1.1-1.1 2.3-2.1 3.7-2.9 1.4-.8 2.9-1.2 4.6-1.3h1.7c.4 0 .7.1 1 .2l.4 12.2c-.3-.2-.9-.4-2-.6-1.1-.2-2.4-.3-3.9-.2-.8 0-1.6.1-2.5.2-.8.1-1.6.3-2.3.4-.7.2-1.3.4-1.9.6-.6.2-1 .5-1.3.7l.7 22.5 8.8.6.1 4.6-24.6.7zM642.3 960.7c-.1-1.7.2-3.3.8-4.6.6-1.4 1.4-2.6 2.5-3.6s2.3-1.9 3.8-2.7c1.5-.8 3-1.4 4.7-1.9s3.5-.9 5.3-1.2c1.9-.3 3.7-.5 5.6-.6l-.1-1.7c-.1-2.7-.7-4.6-1.8-5.7s-2.9-1.6-5.4-1.5c-1.3 0-2.5.2-3.8.4-1.3.2-2.5.5-3.7.9-1.2.3-2.2.7-3.2 1.1-1 .4-1.8.8-2.5 1.1l-2.2-4.7c.5-.4 1.3-1 2.5-1.6 1.2-.7 2.5-1.4 4.2-2 1.6-.7 3.4-1.2 5.4-1.8s4-.8 6.1-.9c2.6-.1 4.8.1 6.7.6s3.3 1.3 4.5 2.5 2.1 2.6 2.6 4.4c.6 1.8.9 3.9 1 6.3l.7 22 4.4-.1.1 4.3c-.4.1-1 .2-1.6.4-.7.2-1.4.3-2.2.5-.8.2-1.7.3-2.6.4-.9.1-1.9.2-2.8.2h-2.2c-.6-.1-1.1-.2-1.5-.4-.4-.2-.6-.6-.8-1.1-.2-.5-.3-1.1-.3-1.9l-.1-2c-.4.6-.9 1.2-1.6 1.9-.7.7-1.5 1.3-2.5 1.9-1 .6-2.1 1.1-3.4 1.6-1.3.4-2.6.7-4.2.7-1.7.1-3.2-.1-4.7-.5s-2.8-1.1-3.9-2c-1.1-.9-2-2.1-2.7-3.5-.7-1.4-1.1-3.2-1.1-5.2zm16.8 4.2c.4 0 .9-.1 1.4-.2.5-.1 1.1-.3 1.7-.5.6-.2 1.1-.5 1.7-.8.6-.3 1-.7 1.4-1.1l-.4-11.7c-2.3.1-4.2.3-5.7.8s-2.7 1.1-3.6 1.8c-.9.7-1.5 1.6-1.9 2.5-.4.9-.5 1.9-.5 2.9.1 2.1.6 3.7 1.6 4.7s2.5 1.7 4.3 1.6zM686.8 968.1l-1.6-50.5-5.3-.7-.1-4.1 13.7-2.2h.1l2.3 1.4.7 21c.5-.6 1.2-1.1 1.9-1.7.7-.5 1.6-1 2.4-1.5.9-.4 1.9-.8 2.9-1.1 1.1-.3 2.2-.4 3.4-.5 2.1-.1 4.1.2 6 .9 1.9.6 3.6 1.7 5.1 3.3 1.5 1.5 2.7 3.5 3.6 6 .9 2.5 1.4 5.5 1.5 9.2.1 3.1-.3 6-1.2 8.8-.9 2.7-2.2 5.1-3.9 7.2-1.7 2.1-3.9 3.7-6.4 4.9-2.5 1.2-5.5 1.9-8.7 2-2.3.1-4.4 0-6.3-.1-1.9-.2-3.6-.4-5-.6-1.4-.3-2.6-.5-3.4-.8-.9-.5-1.4-.7-1.7-.9zm16.1-33.3c-1.5 0-2.7.4-3.8.9-1.1.6-1.9 1.2-2.5 1.9l.8 26.5c.3.5 1 .9 1.9 1.2 1 .3 2.1.4 3.3.4 1.6-.1 3-.5 4.1-1.4 1.2-.9 2.1-2.1 2.8-3.6s1.2-3.2 1.6-5.2.4-4.1.4-6.3c0-2.3-.3-4.4-.7-6.2-.4-1.8-.9-3.3-1.7-4.6-.7-1.2-1.6-2.2-2.7-2.8-.8-.6-2-.9-3.5-.8zM728.4 958c-.1-1.7.2-3.3.8-4.6.6-1.4 1.4-2.6 2.5-3.6s2.3-1.9 3.8-2.7c1.5-.8 3-1.4 4.7-1.9 1.7-.5 3.5-.9 5.3-1.2 1.9-.3 3.7-.5 5.6-.6l-.1-1.7c-.1-2.7-.7-4.6-1.8-5.7-1.1-1.1-2.9-1.6-5.4-1.5-1.3 0-2.5.2-3.8.4-1.3.2-2.5.5-3.7.9-1.2.3-2.2.7-3.2 1.1-1 .4-1.8.8-2.5 1.1l-2.2-4.7c.5-.4 1.3-1 2.5-1.6s2.5-1.4 4.2-2c1.6-.7 3.4-1.2 5.4-1.8s4-.8 6.1-.9c2.6-.1 4.8.1 6.7.6 1.8.5 3.3 1.3 4.5 2.5 1.2 1.1 2.1 2.6 2.6 4.4.6 1.8.9 3.9 1 6.3l.7 22 4.4-.1.1 4.3c-.4.1-1 .2-1.6.4-.7.2-1.4.3-2.2.5-.8.2-1.7.3-2.6.4-.9.1-1.9.2-2.8.2h-2.2c-.6-.1-1.1-.2-1.5-.4-.4-.2-.6-.6-.8-1.1-.2-.5-.3-1.1-.3-1.9l-.1-2c-.4.6-.9 1.2-1.6 1.9-.7.7-1.5 1.3-2.5 1.9-1 .6-2.1 1.1-3.4 1.6-1.3.4-2.6.7-4.2.7-1.7.1-3.2-.1-4.7-.5s-2.8-1.1-3.9-2c-1.1-.9-2-2.1-2.7-3.5-.6-1.5-1-3.2-1.1-5.2zm16.9 4.2c.4 0 .9-.1 1.4-.2s1.1-.3 1.7-.5c.6-.2 1.1-.5 1.7-.8.6-.3 1-.7 1.4-1.1l-.4-11.7c-2.3.1-4.2.3-5.7.8s-2.7 1.1-3.6 1.8-1.5 1.6-1.9 2.5c-.4.9-.5 1.9-.5 2.9.1 2.1.6 3.7 1.6 4.7 1.1 1.2 2.5 1.7 4.3 1.6zM769.7 967.4l-.1-4.7 5.1-.9-1.5-47.1-5.3-.7-.1-4.1 13.7-2.2h.1l2.3 1.6 1.7 52.1 5.3.5.1 4.7-21.3.8zM795.2 966.6l-.1-4.7 4.3-.8-1.5-47.1-5.3-.7-.1-4.1 13.7-2.2h.2l2.2 1.6.6 16.6-.4 5.6c.6-.6 1.4-1.3 2.3-1.9s2-1.3 3.2-1.9c1.2-.6 2.5-1.1 3.9-1.5 1.4-.4 2.9-.6 4.5-.7 2.3-.1 4.2.2 5.7.8 1.5.6 2.7 1.5 3.7 2.8.9 1.3 1.6 2.9 2 4.9.4 2 .7 4.4.8 7.1l.6 19.5 5 .5.1 4.7-19.7.6-.1-4.6 3.9-.9-.6-19.7c-.1-1.6-.2-3-.4-4.2s-.5-2.1-1-2.9c-.5-.7-1.1-1.3-2-1.6-.8-.3-1.9-.5-3.1-.4-.7 0-1.5.1-2.2.3-.8.2-1.5.4-2.2.7s-1.4.6-2 .9c-.6.3-1.1.7-1.6 1l.8 26.3 4.9.6.1 4.7-20.2.7zM843.4 945.1c-.1-3.6.3-6.7 1.4-9.4 1-2.7 2.4-4.9 4.2-6.8 1.8-1.8 3.9-3.2 6.2-4.2 2.4-.9 4.9-1.5 7.5-1.5 3.1-.1 5.8.3 8.2 1.2 2.4.9 4.4 2.2 6.1 3.9 1.7 1.7 2.9 3.9 3.8 6.4.9 2.5 1.4 5.4 1.5 8.7.1 3.7-.3 6.9-1.4 9.6-1 2.7-2.4 5-4.2 6.7s-3.9 3.1-6.2 4c-2.4.9-4.9 1.4-7.5 1.5-3.1.1-5.8-.3-8.2-1.2-2.4-.9-4.4-2.2-6.1-3.9-1.7-1.7-3-3.9-3.9-6.4-.8-2.4-1.3-5.3-1.4-8.6zm20 15.3c1.3 0 2.4-.4 3.3-1s1.7-1.5 2.3-2.8c.6-1.3 1-2.8 1.2-4.8.2-1.9.3-4.2.2-6.9-.1-2.8-.3-5.2-.6-7.3-.3-2.1-.8-3.9-1.5-5.3-.6-1.4-1.5-2.5-2.5-3.2-1-.7-2.2-1-3.6-1-1.3 0-2.4.4-3.3 1-.9.6-1.7 1.5-2.3 2.8-.6 1.3-1 2.8-1.3 4.8-.2 1.9-.3 4.2-.2 6.9.1 2.7.3 5.2.7 7.3s.9 3.9 1.5 5.3c.7 1.4 1.5 2.5 2.5 3.2 1 .7 2.2 1.1 3.6 1z"/><path fill="none" d="M1249 344v-30"/><g><path class="st12" d="M662.4 86.1L318 250.3c-9.2 4.4-13.1 15.4-8.7 24.6l215 450.8c4.4 9.2 15.4 13.1 24.6 8.7l344.4-164.2L662.4 86.1z"/><path class="st1" d="M632.9 70.7L227.3 264.1c-10.4 5-14.9 17.5-9.9 27.9l235.7 494.2c5 10.4 17.5 14.9 27.9 9.9l405.6-193.4-253.7-532z"/><path d="M509 311.6l10.1 5.4c3.1 1.6 6.9.5 8.6-2.5l5.5-10c2.1-3.7 7.2-4.4 10.1-1.3l8 8.3c2.4 2.5 6.4 2.6 8.9.2l8.4-7.8c3.1-2.9 8.2-2 10.1 1.9l5 10.3c1.5 3.1 5.3 4.5 8.4 3l10.4-4.9c3.9-1.8 8.4.6 9 4.9l1.6 11.4c.5 3.4 3.6 5.9 7.1 5.4l11.4-1.4c4.2-.5 7.8 3.2 7 7.4l-2 11.3c-.6 3.4 1.6 6.7 5.1 7.4l11.3 2.2c4.2.8 6.4 5.5 4.4 9.2l-5.4 10.1c-1.6 3.1-.5 6.9 2.5 8.6l10 5.5c3.7 2.1 4.4 7.2 1.3 10.1l-8.3 8c-2.5 2.4-2.6 6.4-.2 8.9l7.8 8.4c2.9 3.1 2 8.2-1.9 10.1l-10.3 5c-3.1 1.5-4.5 5.3-3 8.4l4.9 10.4c1.8 3.9-.6 8.4-4.9 9l-11.4 1.6c-3.4.5-5.9 3.6-5.4 7.1l1.4 11.4c.5 4.2-3.2 7.8-7.4 7l-11.3-2c-3.4-.6-6.7 1.6-7.4 5.1l-2.2 11.3c-.8 4.2-5.5 6.4-9.2 4.4l-10.1-5.4c-3.1-1.6-6.9-.5-8.6 2.5l-5.5 10c-2.1 3.7-7.2 4.4-10.1 1.3l-8-8.3c-2.4-2.5-6.4-2.6-8.9-.2l-8.4 7.8c-3.1 2.9-8.2 2-10.1-1.9l-5-10.3c-1.5-3.1-5.3-4.5-8.4-3l-10.4 4.9c-3.9 1.8-8.4-.6-9-4.9l-1.6-11.4c-.5-3.4-3.6-5.9-7.1-5.4l-11.4 1.4c-4.2.5-7.8-3.2-7-7.4l2-11.3c.6-3.4-1.6-6.7-5.1-7.4l-11.3-2.2c-4.2-.8-6.4-5.5-4.4-9.2l5.4-10.1c1.6-3.1.5-6.9-2.5-8.6l-10-5.5c-3.7-2.1-4.4-7.2-1.3-10.1l8.3-8c2.5-2.4 2.6-6.4.2-8.9l-7.8-8.4c-2.9-3.1-2-8.2 1.9-10.1l10.3-5c3.1-1.5 4.5-5.3 3-8.4l-4.9-10.4c-1.8-3.9.6-8.4 4.9-9l11.4-1.6c3.4-.5 5.9-3.6 5.4-7.1l-1.4-11.4c-.5-4.2 3.2-7.8 7.4-7l11.3 2c3.4.6 6.7-1.6 7.4-5.1l2.2-11.3c.7-4.2 5.4-6.4 9.2-4.4z" fill="none" stroke="#f4f4f4" stroke-width="7" stroke-linecap="round" stroke-linejoin="round" stroke-miterlimit="10"/><defs><path id="SVGID_1_" d="M509 311.6l10.1 5.4c3.1 1.6 6.9.5 8.6-2.5l5.5-10c2.1-3.7 7.2-4.4 10.1-1.3l8 8.3c2.4 2.5 6.4 2.6 8.9.2l8.4-7.8c3.1-2.9 8.2-2 10.1 1.9l5 10.3c1.5 3.1 5.3 4.5 8.4 3l10.4-4.9c3.9-1.8 8.4.6 9 4.9l1.6 11.4c.5 3.4 3.6 5.9 7.1 5.4l11.4-1.4c4.2-.5 7.8 3.2 7 7.4l-2 11.3c-.6 3.4 1.6 6.7 5.1 7.4l11.3 2.2c4.2.8 6.4 5.5 4.4 9.2l-5.4 10.1c-1.6 3.1-.5 6.9 2.5 8.6l10 5.5c3.7 2.1 4.4 7.2 1.3 10.1l-8.3 8c-2.5 2.4-2.6 6.4-.2 8.9l7.8 8.4c2.9 3.1 2 8.2-1.9 10.1l-10.3 5c-3.1 1.5-4.5 5.3-3 8.4l4.9 10.4c1.8 3.9-.6 8.4-4.9 9l-11.4 1.6c-3.4.5-5.9 3.6-5.4 7.1l1.4 11.4c.5 4.2-3.2 7.8-7.4 7l-11.3-2c-3.4-.6-6.7 1.6-7.4 5.1l-2.2 11.3c-.8 4.2-5.5 6.4-9.2 4.4l-10.1-5.4c-3.1-1.6-6.9-.5-8.6 2.5l-5.5 10c-2.1 3.7-7.2 4.4-10.1 1.3l-8-8.3c-2.4-2.5-6.4-2.6-8.9-.2l-8.4 7.8c-3.1 2.9-8.2 2-10.1-1.9l-5-10.3c-1.5-3.1-5.3-4.5-8.4-3l-10.4 4.9c-3.9 1.8-8.4-.6-9-4.9l-1.6-11.4c-.5-3.4-3.6-5.9-7.1-5.4l-11.4 1.4c-4.2.5-7.8-3.2-7-7.4l2-11.3c.6-3.4-1.6-6.7-5.1-7.4l-11.3-2.2c-4.2-.8-6.4-5.5-4.4-9.2l5.4-10.1c1.6-3.1.5-6.9-2.5-8.6l-10-5.5c-3.7-2.1-4.4-7.2-1.3-10.1l8.3-8c2.5-2.4 2.6-6.4.2-8.9l-7.8-8.4c-2.9-3.1-2-8.2 1.9-10.1l10.3-5c3.1-1.5 4.5-5.3 3-8.4l-4.9-10.4c-1.8-3.9.6-8.4 4.9-9l11.4-1.6c3.4-.5 5.9-3.6 5.4-7.1l-1.4-11.4c-.5-4.2 3.2-7.8 7.4-7l11.3 2c3.4.6 6.7-1.6 7.4-5.1l2.2-11.3c.7-4.2 5.4-6.4 9.2-4.4z"/></defs><clipPath id="SVGID_00000065794900135904911150000008883529706411446931_"><use xlink:href="#SVGID_1_" overflow="visible"/></clipPath><path clip-path="url(#SVGID_00000065794900135904911150000008883529706411446931_)" fill="#1d016a" stroke="#f4f4f4" stroke-width="7" stroke-linecap="round" stroke-linejoin="round" stroke-miterlimit="10" d="M498.3 301L553 415.8 513.1 295 553 415.8 528.5 291 553 415.8l-8.6-126.9 8.6 126.9 7.3-127-7.3 127 23.2-125.1L553 415.8l38.7-121.2L553 415.8l53.6-115.4L553 415.8l67.6-107.7L553 415.8l80.6-98.4-80.6 98.4 92.3-87.5-92.3 87.5 102.5-75.3L553 415.8 664.2 354 553 415.8l118.1-47.4L553 415.8l123.1-32.3L553 415.8l126.1-16.6L553 415.8l127.2-.6-127.2.6 126.3 15.3L553 415.8l123.4 31-123.4-31L671.5 462 553 415.8l111.8 60.7L553 415.8l103.3 74.3L553 415.8l93.2 86.6-93.2-86.6 81.6 97.6-81.6-97.6 68.7 107.1L553 415.8l54.8 114.8L553 415.8l40 120.8-40-120.8 24.5 124.9L553 415.8l8.7 126.9-8.7-126.9-7.3 127 7.3-127-23.2 125.1L553 415.8 514.3 537 553 415.8l-53.6 115.4L553 415.8l-67.6 107.8L553 415.8l-80.6 98.5 80.6-98.5-92.3 87.6 92.3-87.6-102.5 75.3L553 415.8l-111.1 61.9L553 415.8l-118 47.5 118-47.5-123 32.3 123-32.3-126.1 16.6L553 415.8l-127.2.7 127.2-.7-126.3-15.3L553 415.8l-123.4-31 123.4 31-118.5-46.2L553 415.8l-111.8-60.7L553 415.8l-103.3-74.2L553 415.8l-93.2-86.6 93.2 86.6-81.6-97.6 81.6 97.6-68.7-107 68.7 107z"/><path class="st16" d="M500.1 300.1l68.2 53.7 82.9-25.7-30 81.4 50 70.9-86.7-3.4-51.9 69.6L509 463l-82.2-27.9 72.2-48.2z"/><path fill="#1d016a" stroke="#f4f4f4" stroke-width="6.99979" stroke-linecap="round" stroke-linejoin="round" stroke-miterlimit="10" d="M567.749 462.485l16.066-7.66 30.773 64.535-16.066 7.661z"/><circle cx="553" cy="415.8" r="66" fill="#f4f4f4" stroke="#f4f4f4" stroke-width="7" stroke-linecap="round" stroke-linejoin="round" stroke-miterlimit="10"/><circle class="st16" cx="536.2" cy="391.2" r="9.3"/><circle class="st16" cx="570.3" cy="397.7" r="9.3"/><circle class="st16" cx="540.1" cy="426.1" r="9.3"/><circle class="st16" cx="574.6" cy="437.6" r="9.3"/><path class="st0" d="M500.1 300.1c0 2.5 30.8 64.5 30.8 64.5l37.4-10.8-68.2-53.7zM651.2 328.1c-2.4.7-51.8 49.2-51.8 49.2l21.8 32.3 30-81.5zM671.2 480.4c-1.4-2-62.8-34.1-62.8-34.1L584.5 477l86.7 3.4zM426.8 435.1c2.1-1.4 70.8-9.3 70.8-9.3L509 463l-82.2-27.9zM532.6 546.6c-.7-2.4 13-70.2 13-70.2l38.9.7-51.9 69.5z"/><ellipse transform="rotate(-80.781 553.008 415.791)" cx="553" cy="415.8" rx="58.1" ry="58.1" fill="none" stroke="#1d016a" stroke-width="7" stroke-linecap="round" stroke-linejoin="round" stroke-miterlimit="10"/><path class="st16" d="M635.7 468.5c-8.6 15.3-21.1 27.8-36 36.3 3.5 4.6 6.9 9.2 10.4 13.7 16.7-10 30.8-24.3 40.5-41.7-4.9-2.7-9.9-5.5-14.9-8.3z"/><path class="st16" d="M675.9 439.3C659 472 634.2 500.4 604.5 522c7 7.8 14 15.6 21 23.5 33.3-25.1 61.1-57.5 80.3-94.6-9.9-3.9-19.9-7.8-29.9-11.6z"/><g><path class="st16" d="M538.1 515.1c17.3 2.9 34.9 1.1 50.9-5.1 1.4 5.6 2.8 11.2 4.1 16.7-18.3 6.7-38.2 8.6-57.9 5.3 1-5.7 2-11.3 2.9-16.9z"/></g><g><path class="st16" d="M490.1 527.9c36 7.4 73.8 6 109.2-3.4 1.7 10.4 3.3 20.7 5 31.1-40.4 10.1-83.2 11.2-124.1 2.8 3.3-10.2 6.6-20.4 9.9-30.5z"/></g></g></svg>