<svg id="Layer_1" xmlns="http://www.w3.org/2000/svg" viewBox="0 0 1899.33 454.16"><defs><style>.cls-2{stroke:#ec672c}.cls-2,.cls-3{fill:none}.cls-5{fill:#fff}.cls-2,.cls-3{stroke-linecap:round;stroke-linejoin:round;stroke-width:5.47px}.cls-3{stroke:#fff}</style><linearGradient id="linear-gradient" x1="24541.33" y1="-1956.88" x2="24541.33" y2="-2674.37" gradientTransform="rotate(-180 12746.1 -1005.41)" gradientUnits="userSpaceOnUse"><stop offset=".08" stop-color="#1d006a"/><stop offset=".27" stop-color="#250a6f"/><stop offset=".59" stop-color="#3a277d"/><stop offset="1" stop-color="#5d5593"/></linearGradient></defs><path d="M1.02 454.16h1899.7V106.61C1648.65 49.2 1315.79 14.3 950.87 14.3S253.09 49.2 1.02 106.61v347.55z" fill="url(#linear-gradient)"/><path class="cls-5" d="M768.54 317.45c0 10.5-2.07 18.86-6.22 25.08-4.75 6.96-11.67 10.43-20.77 10.43s-15.99-3.48-20.67-10.43c-4.21-6.22-6.32-14.58-6.32-25.08s2.11-18.86 6.32-25.08c4.68-6.96 11.57-10.43 20.67-10.43s16.02 3.48 20.77 10.43c4.15 6.22 6.22 14.58 6.22 25.08zm-16.55-.65c0-16.15-3.48-24.23-10.43-24.23s-10.43 8.08-10.43 24.23 3.48 24.23 10.43 24.23 10.43-8.08 10.43-24.23zM827.81 332.9c0 13.38-9.26 20.06-27.79 20.06-9.5 0-16.85-1.34-22.07-4.01v-63c5.15-2.67 12.24-4.01 21.27-4.01s15.38 1.77 20.06 5.32c4.35 3.28 6.52 7.62 6.52 13.04 0 4.15-1.37 7.62-4.11 10.43-2.21 2.41-4.95 4.01-8.23 4.82v.2c3.61.94 6.79 2.81 9.53 5.62 3.21 3.35 4.82 7.19 4.82 11.54zm-17.56-31.5c0-6.89-3.62-10.33-10.87-10.33-2.33 0-4.29.27-5.88.8v20.36h3.19c4.98 0 8.49-.85 10.52-2.56 2.03-1.71 3.04-4.46 3.04-8.28zm1.3 30.9c0-4.21-1.13-7.31-3.39-9.28-2.26-1.97-6.09-2.96-11.47-2.96h-3.19v22.17c1.79.67 3.86 1 6.19 1 7.91 0 11.87-3.64 11.87-10.93zM887.15 351.96h-17.96l-16.45-30.5v30.5h-16.05v-66.01c5.55-2.67 12.47-4.01 20.77-4.01 9.09 0 15.98 1.94 20.67 5.82 4.41 3.75 6.62 9 6.62 15.75 0 4.48-1.52 8.34-4.56 11.59-3.04 3.24-6.84 5.23-11.39 5.97v.2l18.36 30.7zm-18.36-47.65c0-4.55-.84-7.88-2.51-9.98-1.67-2.11-4.61-3.16-8.83-3.16-1.67 0-3.24.3-4.71.9v25.28c.8.27 1.97.4 3.51.4 8.36 0 12.54-4.48 12.54-13.44zM910.4 351.96h-16.25v-69.02h16.25v69.02zM970.72 348.95c-4.62 2.68-11.1 4.01-19.46 4.01-10.3 0-18.12-3.21-23.47-9.63-5.22-6.15-7.82-14.88-7.82-26.18 0-10.63 2.84-19.16 8.53-25.58 5.68-6.42 13.44-9.63 23.27-9.63 7.49 0 13.58 1.34 18.26 4.01l-4.71 10.03c-2.81-1.67-6.69-2.51-11.64-2.51-11.5 0-17.25 8.03-17.25 24.08 0 7.89 1.24 13.89 3.71 18.01 2.47 4.11 5.88 6.17 10.23 6.17 2.21 0 3.91-.33 5.12-1v-19.56h-8.23v-9.73h23.48v37.52zM1037.09 351.96h-16.75l-4.21-14.75h-20.77l-4.41 14.75H976.4l22.47-69.02h15.85l22.37 69.02zm-23.17-24.18l-6.12-22.4c-.87-3.2-1.4-5.97-1.6-8.3h-.2c-.47 2.33-1.07 5.1-1.81 8.3l-6.42 22.4h16.15zM1094.1 317.15c0 10.77-2.27 19.23-6.82 25.38-5.15 6.96-12.98 10.43-23.47 10.43-8.7 0-15.62-1.34-20.77-4.01v-63c5.55-2.67 12.21-4.01 19.96-4.01 10.7 0 18.69 3.34 23.98 10.03 4.75 6.09 7.12 14.48 7.12 25.18zm-16.45-.3c0-8.56-1.09-14.75-3.26-18.56-2.17-3.81-5.74-5.72-10.68-5.72-1.87 0-3.41.23-4.61.7v47.75c1.4.47 3.01.7 4.81.7 4.95 0 8.48-1.89 10.58-5.67 2.11-3.78 3.16-10.18 3.16-19.21zM1155.03 317.45c0 10.5-2.07 18.86-6.22 25.08-4.75 6.96-11.67 10.43-20.77 10.43s-15.99-3.48-20.67-10.43c-4.21-6.22-6.32-14.58-6.32-25.08s2.11-18.86 6.32-25.08c4.68-6.96 11.57-10.43 20.67-10.43s16.02 3.48 20.77 10.43c4.15 6.22 6.22 14.58 6.22 25.08zm-16.55-.65c0-16.15-3.48-24.23-10.43-24.23s-10.43 8.08-10.43 24.23 3.48 24.23 10.43 24.23 10.43-8.08 10.43-24.23zM1182.37 282.94l-3.31 44.24h-11.94l-3.41-44.24h18.66zm-.4 60.89c0 2.48-.87 4.58-2.61 6.32s-3.85 2.61-6.32 2.61-4.58-.87-6.32-2.61c-1.74-1.74-2.61-3.84-2.61-6.32s.87-4.56 2.61-6.27c1.74-1.71 3.85-2.56 6.32-2.56s4.58.85 6.32 2.56c1.74 1.71 2.61 3.8 2.61 6.27z"/><g><path fill="#1d006a" d="M867.22 77.42h167.3V178.3h-167.3z"/><path d="M975.24 188.45c1.24-3.76 1.63-7.91.59-12.31-2.5-10.54-12.03-18.25-22.86-18.15-12.74.11-23.04 10.48-23.04 23.25 0 2.53.44 4.94 1.19 7.22l-13.1 13.1c-.8.8-.23 2.16.89 2.16h10.2c.87 0 1.58.71 1.58 1.58v10.2c0 1.13 1.36 1.69 2.16.89l13.1-13.1c2.28.75 4.69 1.19 7.22 1.19s4.94-.44 7.22-1.19l13.1 13.1c.8.8 2.16.23 2.16-.89v-10.2c0-.87.71-1.58 1.58-1.58h10.2c1.13 0 1.69-1.36.89-2.16l-13.1-13.1z" fill="#3b2e7d"/><path class="cls-3" d="M1034.52 168.76v9.54a2.59 2.59 0 0 1-2.59 2.59h-57.81M965.15 77.42h66.78a2.59 2.59 0 0 1 2.59 2.59v71.19M927.62 180.89h-57.81a2.59 2.59 0 0 1-2.59-2.59V80.01a2.59 2.59 0 0 1 2.59-2.59h80.46"/><path class="cls-3" d="M933 166.06a23.123 23.123 0 0 0-5.37 14.87c0 12.84 10.41 23.25 23.25 23.25s23.25-10.41 23.25-23.25-10.41-23.25-23.25-23.25c-4.11 0-7.96 1.06-11.31 2.93M974.19 156.03c-12.88-12.88-33.76-12.88-46.63 0"/><path class="cls-3" d="M968.23 213.12l5.13 5.13v-14.84h14.83l-14.89-14.89M958.47 203.36l3.99 4M943.28 203.36l-14.89 14.89v-14.84h-14.84l14.89-14.89"/><path class="cls-2" d="M986.88 120.57h-71.27M903 103.93h96.37"/></g><path d="M1900.72 98.61C1648.65 41.2 1315.79 6.3 950.87 6.3S253.09 41.2 1.02 98.61" fill="none" stroke="#ec672c" stroke-miterlimit="10" stroke-width="3"/></svg>