<svg id="Layer_1" xmlns="http://www.w3.org/2000/svg" viewBox="0 0 1072 1072"><style>.st0{fill:#f4f4f4}.st1{fill:#dddfe3}.st2{fill:#a5b6d0}.st3{fill:#1d016a}.st4{fill:#4f5459}.st5{fill:none;stroke:#ff5c00;stroke-width:1.0101;stroke-miterlimit:10}.st9{fill:#ff5c00}.st10{fill:none;stroke:#1d016a;stroke-width:1.0101;stroke-miterlimit:10}.st14{enable-background:new}.st15{fill:#fff}.st16{fill:#e88159}</style><path class="st0" d="M0 0h1072v1072H0z"/><path class="st1" d="M754.9 74.9H187.5L63.3 199.1v509c0 36.1 29.3 65.4 65.4 65.4h626.2V74.9z"/><path class="st1" d="M1016.4 669.6c0-36.1-29.3-65.4-65.4-65.4H259.4c36.1 0 65.4 29.3 65.4 65.4v283.9h691.6V669.6z"/><path class="st2" d="M259.4 604.3c-36.1 0-65.4 29.3-65.4 65.4v38.4c0 36.1-29.3 65.4-65.4 65.4h196.1V669.6c.1-36.1-29.2-65.3-65.3-65.3zM187.5 199.1H63.3L187.5 74.9z"/><path class="st3" d="M63.3 441.6c1.8 87.2 3 178.2 2.5 265.5-.6 25.3 15.4 49.7 38.9 59.1 28.6 12 62.8.5 78.3-26.4 6.5-10.9 9.1-23.6 8.6-36.2v-7.8-23.4c0-2.6 0-5.4.2-8 1.5-21.7 14.2-42 32.9-53 44.8-26.5 101.6 5 102.6 57.1v285.1l-2.5-2.5c33-.1 83-.2 115.7.6 28.7.3 87 1.5 115.7 1.9-29 .4-86.8 1.6-115.7 1.9-16.7.3-41.5.7-57.9.6h-57.9c-1.4 0-2.5-1.1-2.5-2.5 0-22.4.1-271.1 0-285-.1-3.7-.5-7.5-1.2-11.2-10-48.9-69.9-67.4-105.7-32.5-11.2 11-18.1 26.2-18.8 41.8-.2 7.8 0 21.2-.1 29.2v7.8c.5 13.4-2.3 27.1-9.3 38.7-13.6 23.8-41.9 37.2-68.9 32.9-29.9-4.2-54.4-30-57.2-60-1.3-90.2.7-183.8 2.3-273.7z"/><path class="st3" d="M63.3 441.6c4.2 74.8 2 188.5 2.5 264.4 0 2.6 0 5.4.3 8 2.4 29.6 27.5 54.6 57.1 56.7 4.7.4 11.5.2 16.3.3 45.2-.3 103.8 0 148.7 2.5-44.8 2.6-103.6 2.7-148.7 2.5-4.1 0-10.6.1-14.6-.1-29.6-1.2-56.4-23.9-62.5-53-1.3-5.5-1.7-11.3-1.6-17 .6-76.2-1.9-189.2 2.5-264.3z"/><path class="st3" d="M194 669.6c-1.7-33.6 21.1-61.5 54.3-67 6.6-1.2 16.5-.9 23.3-.9h23c142.8 0 340 .1 482.6 0 38.3.5 76.6 1.6 114.9 2.5-38.3.9-76.6 2.1-114.9 2.5-142.6-.1-339.9 0-482.6 0h-23c-6.2.1-16.4-.3-22.5.9-12.8 2-24.7 8.3-33.9 17.3-12.5 11.4-20.2 27.7-21.2 44.7zM598.8 252.1H219.3c-5.4 0-9.8-4.4-9.8-9.8v-33.9c0-5.4 4.4-9.8 9.8-9.8h379.5c5.4 0 9.8 4.4 9.8 9.8v33.9c0 5.4-4.4 9.8-9.8 9.8z"/><path class="st4" d="M598.8 349.4H219.3c-5.4 0-9.8-4.4-9.8-9.8s4.4-9.8 9.8-9.8h379.5c5.4 0 9.8 4.4 9.8 9.8s-4.4 9.8-9.8 9.8zM598.8 408.5H219.3c-5.4 0-9.8-4.4-9.8-9.8s4.4-9.8 9.8-9.8h379.5c5.4 0 9.8 4.4 9.8 9.8s-4.4 9.8-9.8 9.8zM598.8 467.6H219.3c-5.4 0-9.8-4.4-9.8-9.8s4.4-9.8 9.8-9.8h379.5c5.4 0 9.8 4.4 9.8 9.8s-4.4 9.8-9.8 9.8zM598.8 526.7H219.3c-5.4 0-9.8-4.4-9.8-9.8s4.4-9.8 9.8-9.8h379.5c5.4 0 9.8 4.4 9.8 9.8s-4.4 9.8-9.8 9.8zM598.8 585.8H219.3c-5.4 0-9.8-4.4-9.8-9.8s4.4-9.8 9.8-9.8h379.5c5.4 0 9.8 4.4 9.8 9.8 0 5.5-4.4 9.8-9.8 9.8zM849.1 669.6H469.6c-5.4 0-9.8-4.4-9.8-9.8s4.4-9.8 9.8-9.8h379.5c5.4 0 9.8 4.4 9.8 9.8s-4.4 9.8-9.8 9.8zM849.1 717.2H469.6c-5.4 0-9.8-4.4-9.8-9.8s4.4-9.8 9.8-9.8h379.5c5.4 0 9.8 4.4 9.8 9.8s-4.4 9.8-9.8 9.8zM849.1 764.7H469.6c-5.4 0-9.8-4.4-9.8-9.8s4.4-9.8 9.8-9.8h379.5c5.4 0 9.8 4.4 9.8 9.8s-4.4 9.8-9.8 9.8zM849.1 812.2H469.6c-5.4 0-9.8-4.4-9.8-9.8s4.4-9.8 9.8-9.8h379.5c5.4 0 9.8 4.4 9.8 9.8s-4.4 9.8-9.8 9.8zM849.1 859.7H469.6c-5.4 0-9.8-4.4-9.8-9.8s4.4-9.8 9.8-9.8h379.5c5.4 0 9.8 4.4 9.8 9.8 0 5.5-4.4 9.8-9.8 9.8z"/><path class="st3" d="M1678.2 387l-85.5 6.2c-2 .1-3.6-1.4-3.6-3.4v-85.5c0-1.8 1.4-3.2 3.1-3.4l85.5-6.2c2-.1 3.6 1.4 3.6 3.4v85.5c0 1.8-1.4 3.3-3.1 3.4z"/><path class="st5" d="M1682.9 382.6l-85.5 6.2c-2 .1-3.6-1.4-3.6-3.4V300c0-1.8 1.4-3.2 3.1-3.4l85.5-6.2c2-.1 3.6 1.4 3.6 3.4v85.5c0 1.7-1.3 3.2-3.1 3.3z"/><path d="M1565.9 395.2l-47.5 3.5c-1.1.1-2-.8-2-1.9v-47.4c0-1 .8-1.8 1.7-1.9l47.5-3.5c1.1-.1 2 .8 2 1.9v47.4c.1 1.1-.7 1.9-1.7 1.9z" fill="#605396"/><path class="st5" d="M1569.2 392.1l-47.5 3.5c-1.1.1-2-.8-2-1.9v-47.4c0-1 .8-1.8 1.7-1.9l47.5-3.5c1.1-.1 2 .8 2 1.9v47.4c.1 1.1-.7 1.9-1.7 1.9z"/><path d="M1753.5 381.3l-47.5 3.5c-1.1.1-2-.8-2-1.9v-47.4c0-1 .8-1.8 1.7-1.9l47.5-3.5c1.1-.1 2 .8 2 1.9v47.4c0 1-.7 1.8-1.7 1.9z" fill="#55468f"/><path class="st5" d="M1756.8 378.2l-47.5 3.5c-1.1.1-2-.8-2-1.9v-47.4c0-1 .8-1.8 1.7-1.9l47.5-3.5c1.1-.1 2 .8 2 1.9v47.4c0 1-.7 1.8-1.7 1.9z"/><path d="M2019.6 519.7l-85.5 6.2c-2 .1-3.6-1.4-3.6-3.4V437c0-1.8 1.4-3.2 3.1-3.4l85.5-6.2c2-.1 3.6 1.4 3.6 3.4v85.5c0 1.8-1.4 3.3-3.1 3.4z" fill="#303537"/><path class="st5" d="M2024.3 515.4l-85.5 6.2c-2 .1-3.6-1.4-3.6-3.4v-85.5c0-1.8 1.4-3.2 3.1-3.4l85.5-6.2c2-.1 3.6 1.4 3.6 3.4V512c0 1.8-1.3 3.2-3.1 3.4z"/><g><path class="st0" d="M1946.4 410.7l-85.5 6.2c-2 .1-3.6-1.4-3.6-3.4V328c0-1.8 1.4-3.2 3.1-3.4l85.5-6.2c2-.1 3.6 1.4 3.6 3.4v85.5c0 1.8-1.4 3.3-3.1 3.4z"/><path class="st5" d="M1951.1 406.3l-85.5 6.2c-2 .1-3.6-1.4-3.6-3.4v-85.5c0-1.8 1.4-3.2 3.1-3.4l85.5-6.2c2-.1 3.6 1.4 3.6 3.4V403c0 1.7-1.4 3.2-3.1 3.3z"/></g><path class="st9" d="M1677.8 523.7l-85.5 6.2c-2 .1-3.6-1.4-3.6-3.4V441c0-1.8 1.4-3.2 3.1-3.4l85.5-6.2c2-.1 3.6 1.4 3.6 3.4v85.5c0 1.8-1.3 3.2-3.1 3.4z"/><path class="st10" d="M1682.5 519.3l-85.5 6.2c-2 .1-3.6-1.4-3.6-3.4v-85.5c0-1.8 1.4-3.2 3.1-3.4l85.5-6.2c2-.1 3.6 1.4 3.6 3.4v85.5c0 1.8-1.3 3.3-3.1 3.4z"/><path d="M1565.6 531.9l-47.5 3.5c-1.1.1-2-.8-2-1.9v-47.4c0-1 .8-1.8 1.7-1.9l47.5-3.5c1.1-.1 2 .8 2 1.9V530c0 1-.8 1.8-1.7 1.9z" fill="#f98158"/><path class="st10" d="M1568.8 528.8l-47.5 3.5c-1.1.1-2-.8-2-1.9V483c0-1 .8-1.8 1.7-1.9l47.5-3.5c1.1-.1 2 .8 2 1.9v47.4c.1 1-.7 1.8-1.7 1.9z"/><path d="M1753.1 518l-47.5 3.5c-1.1.1-2-.8-2-1.9v-47.4c0-1 .8-1.8 1.7-1.9l47.5-3.5c1.1-.1 2 .8 2 1.9v47.4c0 1-.7 1.8-1.7 1.9z" fill="#fa7c4e"/><path class="st10" d="M1756.4 514.9l-47.5 3.5c-1.1.1-2-.8-2-1.9V469c0-1 .8-1.8 1.7-1.9l47.5-3.5c1.1-.1 2 .8 2 1.9V513c0 1-.7 1.8-1.7 1.9z"/><path class="st9" d="M1040.6 839.6L18.2 873.3C8 873.7 0 882 0 892.1v160.5c0 10.6 8.8 19.1 19.4 18.8l1022.4-33.7c10.1-.3 18.2-8.6 18.2-18.8V858.4c0-10.6-8.8-19.1-19.4-18.8z"/><path d="M1054.6 828.2L26.4 862c-8.6.3-15.4 7.3-15.4 15.9v166.2c0 9 7.5 16.2 16.4 15.9l1028.1-33.9c8.6-.3 15.4-7.3 15.4-15.9V844.1c.1-9-7.4-16.2-16.3-15.9z" fill="none" stroke="#1d016a" stroke-width="2.169" stroke-miterlimit="10"/><g class="st14"><path class="st15" d="M335.3 933.6c-4.2.1-7.8-.4-11-1.6-3.2-1.2-5.9-3-8.1-5.4-2.2-2.3-3.9-5.2-5.1-8.5-1.2-3.3-1.9-7-2-11.1-.1-4.2.5-8 1.8-11.4 1.3-3.4 3.2-6.4 5.6-8.9 2.4-2.5 5.3-4.5 8.6-5.9 3.3-1.4 7-2.2 10.9-2.3 1.7-.1 3.3 0 4.8.1 1.5.2 3 .3 4.3.5s2.6.4 3.7.6 2.1.4 2.9.5l-.4 14.1-7.2.2-2.4-9.2c-.2-.3-.6-.5-.9-.8-.4-.3-.8-.5-1.4-.6-.5-.2-1.2-.3-1.9-.4-.8-.1-1.7-.1-2.7-.1-2 .1-3.9.6-5.5 1.5-1.7.9-3.1 2.3-4.2 4.1s-2 4.1-2.6 6.8c-.6 2.7-.8 5.8-.7 9.4.1 3.1.5 6.1 1.1 8.9.6 2.9 1.5 5.4 2.7 7.5 1.2 2.2 2.7 3.9 4.4 5.1s3.8 1.9 6.2 1.8c1.2 0 2.2-.1 3-.3.8-.2 1.6-.3 2.2-.6.6-.2 1.1-.5 1.5-.8s.7-.6 1-.9l3-7.9 6.2.2-.5 12c-1 .1-2 .3-3 .6s-2.2.7-3.5 1c-1.3.4-2.8.7-4.5 1-1.9.6-3.9.8-6.3.8zM357.5 912.1c-.1-3.6.3-6.7 1.4-9.4s2.4-4.9 4.2-6.8c1.8-1.8 3.9-3.2 6.2-4.1 2.4-.9 4.9-1.5 7.5-1.5 3.1-.1 5.8.3 8.2 1.2 2.4.9 4.4 2.2 6.1 3.9 1.7 1.7 2.9 3.9 3.8 6.4.9 2.5 1.4 5.4 1.5 8.7.1 3.7-.3 6.9-1.4 9.6-1 2.7-2.4 5-4.2 6.7-1.8 1.8-3.9 3.1-6.2 4-2.4.9-4.9 1.4-7.5 1.5-3.1.1-5.8-.3-8.2-1.2-2.4-.9-4.4-2.2-6.1-3.9-1.7-1.7-3-3.9-3.9-6.4-.8-2.5-1.3-5.4-1.4-8.7zm20 15.3c1.3 0 2.4-.4 3.3-1 .9-.6 1.7-1.5 2.3-2.8.6-1.3 1-2.8 1.2-4.8.2-1.9.3-4.2.2-6.9-.1-2.8-.3-5.2-.6-7.3-.3-2.1-.8-3.9-1.5-5.3-.6-1.4-1.5-2.5-2.5-3.2s-2.2-1-3.6-1c-1.3 0-2.4.4-3.3 1-.9.6-1.7 1.5-2.3 2.8-.6 1.3-1 2.8-1.3 4.8-.2 1.9-.3 4.2-.2 6.9.1 2.7.3 5.2.7 7.3s.9 3.9 1.5 5.3c.7 1.4 1.5 2.5 2.5 3.2 1 .7 2.2 1.1 3.6 1zM402.6 930.7l-.1-4.7 4.5-.8-.9-27.1-4.8-1.3-.2-5.3 12.6-2.1h.2l1.9 1.5.1 4.2c.8-.7 1.6-1.5 2.7-2.2 1-.7 2.2-1.3 3.4-1.9 1.2-.6 2.5-1 3.9-1.4 1.4-.4 2.7-.6 4.1-.6 2.3-.1 4.2.2 5.7.7 1.5.5 2.8 1.4 3.7 2.7.9 1.3 1.6 2.9 2.1 4.9.4 2 .7 4.5.8 7.3l.6 19.5 5 .5.1 4.7-19.8.6-.1-4.7 3.8-.8-.6-19.7c-.1-1.6-.2-3-.4-4.2-.2-1.2-.5-2.1-1-2.9-.5-.7-1.1-1.3-1.9-1.6-.8-.3-1.8-.5-3-.5-.8 0-1.6.1-2.4.3s-1.5.5-2.2.8c-.7.3-1.3.6-1.9 1-.6.4-1.1.7-1.5 1.1l.8 26.1 4.7.6.1 4.7-20 .6zM455.9 920.5l-.8-25.9-5 .2-.1-4c.2-.1.5-.2.9-.3.4-.2.8-.3 1.3-.5.4-.2.8-.3 1.2-.5.3-.2.6-.3.7-.4.8-.7 1.6-1.8 2.4-3.5.2-.5.5-1 .7-1.7.3-.6.5-1.3.8-2 .2-.7.5-1.4.7-2.1.2-.7.4-1.3.5-1.8l6.3-.2.4 10.4 10.4-.3.2 6-10.4.3.6 19.5c.1 1.9.1 3.4.2 4.5s.3 1.9.5 2.5c.2.6.6.9 1.1 1.1.5.2 1.1.2 1.9.2.6 0 1.2-.1 1.8-.2.6-.1 1.2-.2 1.8-.4.6-.1 1.1-.3 1.6-.5s.9-.3 1.2-.4l1.8 4.1c-.7.6-1.5 1.1-2.5 1.7-1 .6-2.1 1.1-3.3 1.6-1.2.5-2.5.9-3.9 1.2-1.4.3-2.7.5-4.1.5h-.1c-1.6 0-2.9-.1-4-.5s-2-.9-2.7-1.7c-.7-.8-1.2-1.7-1.6-2.9-.3-1.1-.5-2.5-.5-4zM482.3 928.2l-.1-4.7 5.1-.8-.9-27.1-4.8-1.3-.2-5.3 12-2.1h.2l1.9 1.5.1 2.9.1 5.5h.1c.3-.8.7-1.7 1.4-2.9s1.6-2.3 2.6-3.4c1.1-1.1 2.3-2.1 3.7-2.9 1.4-.8 2.9-1.2 4.6-1.3h1.7c.4 0 .7.1 1 .2l.4 12.2c-.3-.2-.9-.4-2-.6-1.1-.2-2.4-.3-3.9-.2-.8 0-1.6.1-2.5.2-.8.1-1.6.3-2.3.4-.7.2-1.3.4-1.9.6-.6.2-1 .5-1.3.7l.7 22.5 8.8.6.1 4.6-24.6.7zM515.5 916.4c-.1-1.7.2-3.3.8-4.6.6-1.4 1.4-2.6 2.5-3.6s2.3-1.9 3.8-2.7c1.5-.8 3-1.4 4.7-1.9 1.7-.5 3.5-.9 5.3-1.2 1.8-.3 3.7-.5 5.6-.6l-.1-1.7c-.1-2.7-.7-4.6-1.8-5.7-1.1-1.1-2.9-1.6-5.4-1.5-1.3 0-2.5.2-3.8.4s-2.5.5-3.7.9c-1.2.3-2.2.7-3.2 1.1-1 .4-1.8.8-2.5 1.1l-2.2-4.7c.5-.4 1.3-1 2.5-1.6 1.2-.7 2.5-1.4 4.2-2 1.6-.7 3.4-1.2 5.4-1.8 2-.5 4-.8 6.1-.9 2.6-.1 4.8.1 6.7.6 1.8.5 3.3 1.3 4.5 2.5 1.2 1.1 2.1 2.6 2.6 4.4.6 1.8.9 3.9 1 6.3l.7 22 4.4-.1.1 4.3c-.4.1-1 .2-1.6.4s-1.4.3-2.2.5c-.8.2-1.6.3-2.6.4-.9.1-1.9.2-2.8.2h-2.2c-.6-.1-1.1-.2-1.5-.4s-.6-.6-.8-1.1c-.2-.5-.3-1.1-.3-1.9l-.1-2c-.4.6-.9 1.2-1.6 1.9-.7.7-1.5 1.3-2.5 1.9-1 .6-2.1 1.1-3.4 1.6-1.3.4-2.6.7-4.2.7-1.7.1-3.2-.1-4.7-.5s-2.8-1.1-3.9-2-2-2.1-2.7-3.5c-.6-1.5-1-3.2-1.1-5.2zm16.9 4.2c.4 0 .9-.1 1.4-.2.5-.1 1.1-.3 1.7-.5.6-.2 1.1-.5 1.7-.8.6-.3 1-.7 1.4-1.1l-.4-11.7c-2.3.1-4.2.3-5.7.8s-2.7 1.1-3.6 1.8c-.9.7-1.5 1.6-1.9 2.5-.4.9-.5 1.9-.5 2.9.1 2.1.6 3.7 1.6 4.7 1.1 1.1 2.5 1.6 4.3 1.6zM561.5 917.2l-.8-25.9-5 .2-.1-4c.2-.1.5-.2.9-.3s.8-.3 1.3-.5c.4-.2.8-.3 1.2-.5.3-.2.6-.3.7-.4.8-.7 1.6-1.8 2.4-3.5.2-.5.5-1 .7-1.7.3-.6.5-1.3.8-2 .2-.7.5-1.4.7-2.1s.4-1.3.5-1.8l6.3-.2.4 10.4 10.4-.3.2 6-10.4.3.6 19.5c.1 1.9.1 3.4.2 4.5s.3 1.9.5 2.5c.2.6.6.9 1.1 1.1.5.2 1.1.2 1.9.2.6 0 1.2-.1 1.8-.2.6-.1 1.2-.2 1.8-.4.6-.1 1.1-.3 1.6-.5s.9-.3 1.2-.4l1.8 4.1c-.7.6-1.5 1.1-2.5 1.7-1 .6-2.1 1.1-3.3 1.6-1.2.5-2.5.9-3.9 1.2-1.4.3-2.7.5-4.1.5h-.1c-1.6 0-2.9-.1-4-.5s-2-.9-2.7-1.7c-.7-.8-1.2-1.7-1.6-2.9-.3-1.2-.5-2.5-.5-4zM586.5 904.9c-.1-3.6.3-6.7 1.4-9.4 1-2.7 2.4-4.9 4.2-6.8 1.8-1.8 3.9-3.2 6.2-4.2 2.4-.9 4.9-1.5 7.5-1.5 3.1-.1 5.8.3 8.2 1.2 2.4.9 4.4 2.2 6.1 3.9 1.7 1.7 2.9 3.9 3.8 6.4.9 2.5 1.4 5.4 1.5 8.7.1 3.7-.3 6.9-1.4 9.6-1 2.7-2.4 5-4.2 6.7-1.8 1.8-3.9 3.1-6.2 4-2.4.9-4.9 1.4-7.5 1.5-3.1.1-5.8-.3-8.2-1.2-2.4-.9-4.4-2.2-6.1-3.9-1.7-1.7-3-3.9-3.9-6.4-.8-2.5-1.3-5.4-1.4-8.6zm20 15.3c1.3 0 2.4-.4 3.3-1 .9-.6 1.7-1.5 2.3-2.8s1-2.8 1.2-4.8c.2-1.9.3-4.2.2-6.9-.1-2.8-.3-5.2-.6-7.3-.3-2.1-.8-3.9-1.5-5.3-.6-1.4-1.5-2.5-2.5-3.2-1-.7-2.2-1-3.6-1-1.3 0-2.4.4-3.3 1-.9.6-1.7 1.5-2.3 2.8-.6 1.3-1 2.8-1.3 4.8s-.3 4.2-.2 6.9c.1 2.7.3 5.2.7 7.3.3 2.1.9 3.9 1.5 5.3s1.5 2.5 2.5 3.2c1 .7 2.2 1 3.6 1zM669 923c-2.2.1-4.2-.3-6.2-1-1.9-.7-3.6-1.9-5.1-3.5-1.5-1.6-2.6-3.6-3.5-6.1s-1.4-5.4-1.5-8.8c-.1-3.2.3-6.2 1.1-8.9.9-2.7 2.2-5.1 3.9-7.1 1.7-2 3.9-3.6 6.4-4.8 2.6-1.2 5.5-1.8 8.7-1.9h2.9c1 0 1.8.2 2.7.3l-.4-12-6.5-.9-.1-4 14.9-2h.2l2.2 1.6 1.7 52.7 3.9-.1.1 4.4c-1.2.3-2.5.6-4 1-1.5.3-3.1.5-4.9.6-1.4 0-2.6-.2-3.4-.8-.8-.6-1.3-1.7-1.3-3.4v-1.4c-.6.8-1.2 1.5-2 2.2-.8.7-1.7 1.4-2.7 1.9-1 .6-2.1 1-3.3 1.4-1.1.4-2.4.6-3.8.6zm4.3-6.5c1.4 0 2.7-.4 3.8-.9 1.1-.6 1.9-1.2 2.5-1.9l-.8-26.6c-.4-.4-1.1-.8-2-1.1-.9-.3-2-.4-3.3-.4-1.3 0-2.5.3-3.6.9-1.1.6-2.1 1.5-2.9 2.8s-1.4 2.9-1.9 5-.6 4.6-.6 7.6c0 2.6.3 4.9.7 6.7.4 1.9 1 3.4 1.8 4.5.8 1.2 1.7 2 2.7 2.5 1.1.7 2.3.9 3.6.9zM718.2 921.5c-3.3.1-6.2-.3-8.6-1.3-2.4-1-4.4-2.3-6-4.1-1.6-1.8-2.8-4-3.6-6.5-.8-2.5-1.3-5.3-1.4-8.4-.1-3.3.3-6.2 1.1-8.9s2.1-4.9 3.7-6.8c1.6-1.9 3.6-3.3 6-4.4 2.3-1 5-1.6 7.9-1.7 9.8-.3 15 4.3 15.7 13.8.1 1.6.1 3.1.1 4.4 0 1.3-.1 2.4-.3 3.3l-23 .7c.2 2.3.6 4.3 1.2 5.9.6 1.6 1.4 2.9 2.3 3.9.9 1 2.1 1.7 3.3 2.2 1.3.4 2.7.6 4.2.6 1.2 0 2.3-.2 3.3-.4s2-.5 2.9-.8c.9-.3 1.7-.7 2.4-1 .7-.4 1.3-.7 1.8-1.1l2 4.2c-.6.6-1.4 1.3-2.4 2s-2.2 1.4-3.5 2c-1.3.6-2.8 1.1-4.3 1.5-1.6.6-3.1.8-4.8.9zm-2.1-37.2c-.9 0-1.8.2-2.5.6-.8.4-1.4 1-2 1.9-.6.9-1 2.2-1.4 3.9-.3 1.6-.5 3.8-.5 6.3l12.7-.4v-.5-.7-.7-.5c0-1.2-.2-2.4-.4-3.6-.2-1.2-.5-2.3-1-3.3-.5-.9-1.1-1.7-1.9-2.3-.8-.5-1.8-.7-3-.7z"/></g><g class="st14"><path class="st15" d="M274.8 1010.7c-.1-1.7.2-3.3.8-4.6.6-1.4 1.4-2.6 2.5-3.6s2.3-1.9 3.8-2.7c1.5-.8 3-1.4 4.7-1.9 1.7-.5 3.5-.9 5.3-1.2 1.8-.3 3.7-.5 5.6-.6l-.1-1.7c-.1-2.7-.7-4.6-1.8-5.7-1.1-1.1-2.9-1.6-5.4-1.5-1.3 0-2.5.2-3.8.4s-2.5.5-3.7.9c-1.2.3-2.2.7-3.2 1.1-1 .4-1.8.8-2.5 1.1l-2.2-4.7c.5-.4 1.3-1 2.5-1.6 1.2-.7 2.5-1.4 4.2-2 1.6-.7 3.4-1.2 5.4-1.8 2-.5 4-.8 6.1-.9 2.6-.1 4.8.1 6.7.6 1.8.5 3.3 1.3 4.5 2.5 1.2 1.1 2.1 2.6 2.6 4.4.6 1.8.9 3.9 1 6.3l.7 22 4.4-.1.1 4.3c-.4.1-1 .2-1.6.4-.7.2-1.4.3-2.2.5-.8.2-1.6.3-2.6.4-.9.1-1.9.2-2.8.2h-2.2c-.6-.1-1.1-.2-1.5-.4-.4-.2-.6-.6-.8-1.1-.2-.5-.3-1.1-.3-1.9l-.1-2c-.4.6-.9 1.2-1.6 1.9-.7.7-1.5 1.3-2.5 1.9-1 .6-2.1 1.1-3.4 1.6-1.3.4-2.6.7-4.2.7-1.7.1-3.2-.1-4.7-.5s-2.8-1.1-3.9-2-2-2.1-2.7-3.5c-.7-1.4-1.1-3.2-1.1-5.2zm16.9 4.2c.4 0 .9-.1 1.4-.2.5-.1 1.1-.3 1.7-.5.6-.2 1.1-.5 1.7-.8.6-.3 1-.7 1.4-1.1l-.4-11.7c-2.3.1-4.2.3-5.7.8s-2.7 1.1-3.6 1.8c-.9.7-1.5 1.6-1.9 2.5-.4.9-.5 1.9-.5 2.9.1 2.1.6 3.7 1.6 4.7 1 1.2 2.4 1.7 4.3 1.6zM316.7 1033.2l5.3-1-1.4-44.7-4.8-1.3-.2-5.3 12.6-2.1h.2l1.8 1.5.1 3.7c.6-.7 1.2-1.4 2-2.1.8-.7 1.7-1.3 2.6-1.8 1-.5 2-1 3.2-1.3 1.2-.3 2.4-.5 3.8-.6 2.2-.1 4.2.2 6.1.9 1.9.7 3.6 1.8 5.1 3.3 1.5 1.5 2.6 3.6 3.5 6 .9 2.5 1.4 5.5 1.5 9.1.1 3.1-.3 6-1.2 8.8-.9 2.7-2.2 5.1-3.9 7.2-1.7 2.1-3.8 3.7-6.4 4.9-2.5 1.2-5.4 1.9-8.6 2h-1.7c-.6 0-1.1-.1-1.7-.1-.5-.1-1-.1-1.4-.2-.4-.1-.8-.1-1-.2l.4 5.8.2 6.1 7 .7.1 4.5-23.1.7-.1-4.5zm20.9-48.5c-1.4 0-2.7.3-3.7.9-1.1.5-1.9 1.1-2.5 1.8l.8 26.7c.4.4 1.1.8 2 1.1.9.3 2 .4 3.3.4s2.5-.4 3.6-.9c1.1-.6 2.1-1.5 2.9-2.8s1.4-3 1.9-5.1c.5-2.1.7-4.6.6-7.6 0-2.7-.3-4.9-.7-6.8-.4-1.8-1.1-3.3-1.8-4.5-.8-1.2-1.7-2-2.7-2.5-1.2-.5-2.4-.7-3.7-.7zM364.4 1018.6l-.1-4.7 5.1-.8-.9-27.1-4.8-1.3-.2-5.3 12-2.1h.2l1.9 1.5.1 2.9.1 5.5h.1c.3-.8.7-1.7 1.4-2.9s1.6-2.3 2.6-3.4c1.1-1.1 2.3-2.1 3.7-2.9 1.4-.8 2.9-1.2 4.6-1.3h1.7c.4 0 .7.1 1 .2l.4 12.2c-.3-.2-.9-.4-2-.6-1.1-.2-2.4-.3-3.9-.2-.8 0-1.6.1-2.5.2-.8.1-1.6.3-2.3.4-.7.2-1.3.4-1.9.6-.6.2-1 .5-1.3.7l.7 22.5 8.8.6.1 4.6-24.6.7zM417.2 1017.8c-3.3.1-6.2-.3-8.6-1.3-2.4-1-4.4-2.3-6-4.1-1.6-1.8-2.8-4-3.6-6.5-.8-2.5-1.3-5.3-1.4-8.4-.1-3.3.3-6.2 1.1-8.9s2.1-4.9 3.7-6.8c1.6-1.9 3.6-3.3 6-4.4 2.3-1 5-1.6 7.9-1.7 9.8-.3 15 4.3 15.7 13.8.1 1.6.1 3.1.1 4.4 0 1.3-.1 2.4-.3 3.3l-23 .7c.2 2.3.6 4.3 1.2 5.9.6 1.6 1.4 2.9 2.3 3.9.9 1 2.1 1.7 3.3 2.2s2.7.6 4.2.6c1.2 0 2.3-.2 3.3-.4s2-.5 2.9-.8c.9-.3 1.7-.7 2.4-1 .7-.4 1.3-.7 1.8-1.1l2 4.2c-.6.6-1.4 1.3-2.4 2s-2.2 1.4-3.5 2c-1.3.6-2.8 1.1-4.3 1.5-1.6.6-3.2.8-4.8.9zm-2.1-37.2c-.9 0-1.8.2-2.5.6-.8.4-1.5 1-2 1.9-.6.9-1 2.2-1.4 3.9-.3 1.6-.5 3.8-.5 6.4l12.7-.4v-.5-.7-.7-.5c0-1.2-.2-2.4-.4-3.6-.2-1.2-.5-2.3-1-3.3s-1.1-1.7-1.9-2.3c-.8-.6-1.8-.9-3-.8zM438.8 1016.3l-.1-4.7 4.5-.8-.9-27.1-4.8-1.3-.2-5.3 12.6-2.1h.2l1.9 1.5.1 4.2c.8-.7 1.6-1.5 2.7-2.2 1-.7 2.2-1.3 3.4-1.9 1.2-.6 2.5-1 3.9-1.4 1.4-.4 2.7-.6 4.1-.6 2.3-.1 4.2.2 5.7.7 1.5.5 2.8 1.4 3.7 2.7.9 1.3 1.6 2.9 2.1 4.9.4 2 .7 4.5.8 7.3l.6 19.5 5 .5.1 4.7-19.8.6-.1-4.7 3.8-.8-.6-19.7c-.1-1.6-.2-3-.4-4.2s-.5-2.1-1-2.9c-.5-.7-1.1-1.3-1.9-1.6-.8-.3-1.8-.5-3-.5-.8 0-1.6.1-2.4.3-.8.2-1.5.5-2.2.8-.7.3-1.3.6-1.9 1-.6.4-1.1.7-1.5 1.1l.8 26.1 4.7.6.1 4.7-20 .6zM503.6 1015c-2.2.1-4.2-.3-6.2-1-1.9-.7-3.6-1.9-5.1-3.5-1.5-1.6-2.6-3.6-3.5-6.1s-1.4-5.4-1.5-8.8c-.1-3.2.3-6.2 1.1-8.9.9-2.7 2.2-5.1 3.9-7.1 1.7-2 3.9-3.6 6.4-4.8 2.6-1.2 5.5-1.8 8.7-1.9h2.9l2.7.3-.4-12-6.5-.9-.1-4 14.9-2h.2l2.2 1.6 1.7 52.7 3.9-.1.1 4.4c-1.2.3-2.5.6-4 1-1.5.3-3.1.5-4.9.6-1.4 0-2.6-.2-3.4-.8-.8-.6-1.3-1.7-1.3-3.4v-1.4c-.6.8-1.2 1.5-2 2.2-.8.7-1.7 1.4-2.7 1.9-1 .6-2.1 1-3.3 1.4-1.2.4-2.5.6-3.8.6zm4.2-6.5c1.4 0 2.7-.4 3.8-.9 1.1-.6 1.9-1.2 2.5-1.9l-.8-26.6c-.4-.4-1.1-.8-2-1.1-.9-.3-2-.4-3.3-.4-1.3 0-2.5.3-3.6.9-1.1.6-2.1 1.5-2.9 2.8s-1.4 2.9-1.9 5c-.4 2.1-.6 4.6-.6 7.6 0 2.6.3 4.9.7 6.7.4 1.9 1 3.4 1.8 4.5.8 1.2 1.7 2 2.7 2.5 1.2.7 2.3.9 3.6.9zM534.2 1013.3l-.1-4.7 5.1-.8-.9-27.1-4.8-1.4-.2-5.3 12.9-2.1h.2l2.6 1.4 1.1 34.1 5.1.5.1 4.7-21.1.7zm7.9-47.4c-.8 0-1.6-.1-2.2-.4-.7-.3-1.2-.7-1.7-1.2s-.8-1.1-1-1.8c-.2-.7-.4-1.4-.4-2.2 0-.9.1-1.8.3-2.6.2-.8.6-1.5 1.1-2.2.5-.6 1.1-1.1 1.9-1.5.8-.4 1.6-.6 2.6-.6s1.8.1 2.5.4c.7.3 1.3.7 1.8 1.2s.9 1.1 1.1 1.8c.2.7.4 1.4.4 2.1 0 .9-.1 1.8-.3 2.6-.2.8-.6 1.5-1.1 2.2-.5.6-1.2 1.1-2 1.5-.8.5-1.8.7-3 .7zM559 1008.9l18.3-27.6 4.4-5.1-12.7.9-1.3 6.7-6.1.2-.4-12.2 31.7-1 1.8 3.3-17.8 27.8-4.3 5.1 14.8-1.3 2.6-7.7 5.8.4-.7 12.8-34.2 1.1-1.9-3.4zM600 1000.4c-.1-1.7.2-3.3.8-4.6.6-1.4 1.4-2.6 2.5-3.6s2.3-1.9 3.8-2.7c1.5-.8 3-1.4 4.7-1.9 1.7-.5 3.5-.9 5.3-1.2 1.8-.3 3.7-.5 5.6-.6l-.1-1.7c-.1-2.7-.7-4.6-1.8-5.7-1.1-1.1-2.9-1.6-5.4-1.5-1.3 0-2.5.2-3.8.4-1.3.2-2.5.5-3.7.9s-2.2.7-3.2 1.1c-1 .4-1.8.8-2.5 1.1l-2.2-4.7c.5-.4 1.3-1 2.5-1.6 1.2-.7 2.5-1.4 4.2-2 1.6-.7 3.4-1.2 5.4-1.8 2-.5 4-.8 6.1-.9 2.6-.1 4.8.1 6.7.6 1.8.5 3.3 1.3 4.5 2.5 1.2 1.1 2.1 2.6 2.6 4.4.6 1.8.9 3.9 1 6.3l.7 22 4.4-.1.1 4.3c-.4.1-1 .2-1.6.4-.7.2-1.4.3-2.2.5-.8.2-1.6.3-2.6.4-.9.1-1.9.2-2.8.2h-2.2c-.6-.1-1.1-.2-1.5-.4-.4-.2-.6-.6-.8-1.1-.2-.5-.3-1.1-.3-1.9l-.1-2c-.4.6-.9 1.2-1.6 1.9-.7.7-1.5 1.3-2.5 1.9-1 .6-2.1 1.1-3.4 1.6s-2.6.7-4.2.7c-1.7.1-3.2-.1-4.7-.5s-2.8-1.1-3.9-2c-1.1-.9-2-2.1-2.7-3.5-.6-1.4-1-3.2-1.1-5.2zm16.9 4.2c.4 0 .9-.1 1.4-.2.5-.1 1.1-.3 1.7-.5.6-.2 1.1-.5 1.7-.8.6-.3 1-.7 1.4-1.1l-.4-11.7c-2.3.1-4.2.3-5.7.8s-2.7 1.1-3.6 1.8-1.5 1.6-1.9 2.5-.5 1.9-.5 2.9c.1 2.1.6 3.7 1.6 4.7s2.5 1.7 4.3 1.6zM659.8 995.5c-2 .1-3.7 0-5.4-.3-.4.4-.7.9-.9 1.4-.2.5-.4 1.2-.3 1.9 0 .8.2 1.5.5 2s.8.8 1.5 1.1c.7.2 1.5.4 2.5.5 1 .1 2.3.1 3.7 0l7-.2c5.1-.2 8.9.6 11.4 2.2s3.9 4.4 4 8.3c.1 2.4-.5 4.5-1.6 6.5-1.2 2-2.8 3.7-4.8 5.1-2 1.4-4.4 2.5-7.2 3.4-2.7.8-5.6 1.3-8.6 1.4-3.3.1-6.2-.1-8.5-.6-2.4-.5-4.3-1.3-5.9-2.2-1.5-1-2.7-2.2-3.5-3.6-.8-1.4-1.2-3-1.2-4.7 0-1.1.1-2.1.5-3.1s.9-1.9 1.5-2.7c.6-.8 1.4-1.5 2.2-2.1.9-.6 1.8-1.1 2.7-1.5-1.4-.7-2.5-1.5-3.2-2.6s-1.2-2.3-1.2-3.8c-.1-1.8.4-3.3 1.3-4.6.9-1.3 2.1-2.4 3.5-3.4-2.4-1-4.2-2.5-5.5-4.4-1.2-1.9-1.8-4.3-1.9-7-.1-2.1.3-4 1.2-5.8.9-1.7 2.1-3.2 3.8-4.5 1.6-1.3 3.5-2.3 5.7-3 2.2-.7 4.5-1.1 7-1.2 5.9-.2 10.3.8 13.2 3 .3-.4.8-.8 1.3-1.3.6-.4 1.2-.8 1.9-1.2.7-.4 1.5-.7 2.4-.9s1.8-.4 2.8-.4l1.7-.1.2 7.9-6.9.2c.3.7.5 1.5.7 2.3s.3 1.7.3 2.7c.1 2.1-.3 4.1-1.1 5.9s-2 3.4-3.6 4.7-3.5 2.4-5.7 3.2c-2.4 1-4.8 1.4-7.5 1.5zm-1.4 14.3c-1.5 0-2.9 0-4.2-.2-.5.5-.9 1.2-1.3 2.1-.4.8-.6 2-.5 3.5 0 1.6.3 2.9.8 4s1.1 2 2 2.6c.8.7 1.9 1.1 3.1 1.4 1.2.3 2.6.4 4.2.3h.1c1.4 0 2.8-.3 4.2-.6 1.4-.4 2.6-.9 3.6-1.6 1-.7 1.9-1.6 2.5-2.6.6-1 .9-2.2.9-3.6 0-1-.2-1.9-.4-2.6-.2-.7-.7-1.3-1.3-1.7-.6-.4-1.4-.8-2.4-.9-1-.2-2.3-.2-3.8-.2l-7.5.1zm2.1-19.1c1.2 0 2.2-.3 3-.8.8-.5 1.4-1.2 1.8-2 .4-.8.7-1.8.8-3 .1-1.1.2-2.3.2-3.6-.1-3.1-.7-5.3-1.7-6.7-1-1.4-2.7-2-5-1.9-2.2.1-3.8.8-4.8 2.3-.9 1.4-1.4 3.6-1.3 6.5 0 1.4.2 2.7.4 3.8.2 1.2.6 2.1 1.2 3 .5.8 1.3 1.4 2.1 1.9.9.4 2 .6 3.3.5zM706.1 1008.6c-3.3.1-6.2-.3-8.6-1.3-2.4-1-4.4-2.3-6-4.1-1.6-1.8-2.8-4-3.6-6.5-.8-2.5-1.3-5.3-1.4-8.4-.1-3.3.3-6.2 1.1-8.9.8-2.6 2.1-4.9 3.7-6.8 1.6-1.9 3.6-3.3 6-4.4 2.3-1 5-1.6 7.9-1.7 9.8-.3 15 4.3 15.7 13.8.1 1.6.1 3.1.1 4.4 0 1.3-.1 2.4-.3 3.3l-23 .7c.2 2.3.6 4.3 1.2 5.9.6 1.6 1.4 2.9 2.3 3.9s2.1 1.7 3.3 2.2c1.3.4 2.7.6 4.2.6 1.2 0 2.3-.2 3.3-.4s2-.5 2.9-.8c.9-.3 1.7-.7 2.4-1 .7-.4 1.3-.7 1.8-1.1l2 4.2c-.6.6-1.4 1.3-2.4 2s-2.2 1.4-3.5 2c-1.3.6-2.8 1.1-4.3 1.5-1.6.6-3.2.9-4.8.9zm-2.1-37.2c-.9 0-1.8.2-2.5.6-.8.4-1.5 1-2 1.9s-1 2.2-1.4 3.9c-.3 1.6-.5 3.8-.5 6.3l12.7-.4v-.5-.7-.7-.5c0-1.2-.2-2.4-.4-3.6-.2-1.2-.5-2.3-1-3.3s-1.1-1.7-1.9-2.3c-.8-.4-1.8-.7-3-.7zM727.9 1007.1l-.1-4.6 4.4-1-.9-27.1-4.8-1.3-.2-5.3 12.4-2.1h.2l1.9 1.5.1 4.2c.8-.8 1.7-1.5 2.8-2.2 1.1-.7 2.3-1.4 3.6-1.9 1.3-.6 2.6-1 4-1.4 1.4-.3 2.6-.5 3.9-.6 2.7-.1 4.9.3 6.5 1.1s2.9 2.2 3.8 4c.6-.6 1.5-1.3 2.5-1.9 1-.7 2.2-1.3 3.5-1.9 1.3-.6 2.6-1.1 4-1.5 1.4-.4 2.8-.6 4.1-.7 2.2-.1 4.1.2 5.6.7 1.5.5 2.7 1.4 3.6 2.6.9 1.2 1.6 2.9 2.1 4.9.4 2 .7 4.5.8 7.4l.6 19.6 5 .7.1 4.6-19.5.6-.1-4.6 3.7-.9-.6-19.3c-.1-1.8-.2-3.3-.4-4.6-.2-1.2-.6-2.3-1.1-3-.5-.8-1.1-1.3-2-1.6-.8-.3-1.8-.5-3-.4-.6 0-1.2.1-1.9.3s-1.4.4-2.1.7c-.7.3-1.4.6-2 .9-.6.3-1.2.6-1.7 1 .2 1 .4 2.1.5 3.2.1 1.2.2 2.4.2 3.8l.6 19.6 4.7.6.1 4.6-19.7.6-.1-4.6 4.2-.9-.6-19.7c-.1-1.6-.2-3-.4-4.2-.2-1.2-.6-2.1-1.1-2.9-.5-.7-1.1-1.3-1.9-1.6-.8-.3-1.8-.5-3-.5-.7 0-1.4.1-2.2.3-.8.2-1.5.4-2.2.7-.7.3-1.4.6-2 .9-.6.3-1.1.7-1.5 1l.8 26.3 4.8.7.1 4.6-20.1.6z"/></g><g><path class="st16" d="M888 462.9L739.2 314.1l-58.3 58.3c-17.2-14.5-37.6-24.7-59.6-29.9l-18.3-4.3-11.7 63.5-103 77.2L685 693.8l139.6-139.6c12.4-12.4 19.4-29.3 19.4-46.9 0-.1 0-.3-.1-.4l44.1-44z"/><path class="st4" d="M811.2 221.7l-70.7 70.7c-5.9 5.9-6.9 15.1-2.5 22 42 65.5 95.7 119.2 161.2 161.2 7 4.5 16.2 3.4 22-2.5l70.7-70.7c34-33.9-146.8-214.7-180.7-180.7z"/><path d="M794.7 619.2L780.8 598c-7.3 7.3-18.9 7.8-26.7 1.3-71-58.9-137.6-129.7-202-206.8-5.7-6.8 9.1-54 9.1-54l-37.1-3.2c-25.5-2.2-51 3.9-72.8 17.3L408 309.3 262.6 454.6l2.1 2.1c28.7 28.7 46.7 66 52.8 106.1 2.8 18.2 10.3 35.7 22.3 50.5 52.2 64.5 118.5 116.7 189 166.6 16.5 11.6 38.9 9.8 53.2-4.5 6.1-6.1 8.8-14.3 8.1-22.3-.3-3.4 3.8-5.3 6.2-2.9 11 11 28.8 11 39.8 0l13.8-13.8c5.3-5.3 8.1-12.3 8.2-19.3.1-4.4 5.4-6.5 8.5-3.4 11 11 28.8 11 39.8 0l13.8-13.8c5.5-5.5 8.2-12.7 8.2-19.9 0-4.2 5-6.4 7.9-3.4 11 11 28.8 11 39.8 0l13.8-13.8c11.9-11.7 13.8-29.9 4.8-43.6z" fill="#838fbc"/><path class="st16" d="M541.5 742.5c-13.2-13.2-36.2-11.6-51.4 3.6l3.3-3.3c15.2-15.2 15.1-40-.2-55.3-15.3-15.3-40-15.4-55.2-.2l11.8-11.8c15.2-15.2 15.1-40-.2-55.3-15.3-15.3-40-15.4-55.2-.2l-2.8 2.8c15.2-15.2 15.1-40-.2-55.3-15.3-15.3-40-15.4-55.2-.2l-11.5 11.5c-17.1 17.1-16.5 45.5 1.9 61.5 8.5 7.3 18.8 12.9 30.8 16.7l7.5-7.5c-15 15-15.6 39.6-.7 54.7 5.5 5.6 11.9 10.4 19.4 14.4 9 4.8 20 3.1 27.2-4.1l4-4c-7.1 7.1-8.9 18.1-4.2 27 7 13.3 17 23.7 29.9 31.2 10.1 5.9 23 4 31.3-4.3l-3.6 3.6c4.2 17.1 12.7 29.9 25.5 38.4 11.1 7.4 27.3 4.5 38.2-6.3l5.9-5.9c15.3-15.4 16.9-38.5 3.7-51.7z"/><path class="st3" d="M537.8 794c12.5-13.3 16.2-36.6 2-49.8-14.2-12.9-35.1-9.3-48 3.7l-3.5-3.5c3.7-3.5 7.2-7.2 9.6-11.7 10-18.2 2-41.9-16.7-50.6-13.5-6.6-30.8-3.8-41.3 7-2.4 2.3-5.8-1.1-3.5-3.5l11.1-11.1c18-17.2 13.8-47.1-8-58.9-12.9-7.1-30.1-5.4-41.1 4.4-1.6 1.4-3.2 3-4.7 4.5l-3.5-3.5c10.4-10.2 13.5-26.6 7.8-39.9-1.8-4.5-4.7-8.4-7.9-11.9l-.7-1.7.7 1.7c-3.3-3.5-7.2-6.4-11.7-8.5-8.9-4.2-19.6-4.7-28.9-1.3-4.7 1.7-9.2 4.4-12.9 7.8 10.6-11.8 28.5-15.8 43.3-10 5 1.9 9.7 4.8 13.6 8.5l.7 1.7-.7-1.7c16.3 15.6 16.3 43 .2 58.8-2.3 2.3-5.8-1.1-3.6-3.5l3.2-3.2c2.3-2.1 4.8-4.2 7.6-5.8 18.3-11.2 42.9-5.8 55.1 11.7 12.1 16.3 9.8 40.4-4.9 54.3l-4.8 4.8-6.3 6.3-1.8-4.3-1.8.7c4-4 8.8-7.2 14.1-9.2 36.3-13.6 69.9 24.4 51.9 58.7-2 3.7-4.7 7.1-7.6 10.1l-2.8 2.8c-2.4 2.3-5.8-1.1-3.5-3.5 13.9-14.4 40.1-19.1 54.8-3.4 14.2 15.3 9.4 39.8-5.5 53z"/><path class="st16" d="M786.6 397.4l-176.7-71.5c-33.3-13.5-71.5.8-87.7 32.9L496.6 409l-50.5 99.2c-5.5 10.8 2.4 23.7 14.5 23.7 38.3 0 71.8-25.6 82-62.5l3-10.7c7 7 14 13.6 21.3 20 64.6 56.6 165.4 35.5 201.7-42.3l18-39z"/><path class="st3" d="M522.1 358.7c-8 17.7-17 37.4-25.2 55.1-5.8 12.2-39.1 76.6-45.7 89.9-.6 1.3-2.7 5.3-3.3 6.6-1.4 3.3-1.4 7.1 0 10.4 2.1 5.4 7.7 9 13.6 8.6 26.2 0 51.8-13.6 66.7-35.1 4.7-6.7 8.4-14.1 10.9-21.8 1-3.3 3.2-11.1 4.1-14.4.5-1.8 2.9-2.5 4.2-1.1 15 14.8 30.4 29.7 49.6 38.8 18.9 9.3 40.1 13.1 61.1 12.5.6 0 1.2.3 1.6.7l33.1 31.9c9.3 8.9 23.5 22.8 32.9 31.4l.1.1-.1-.1c.4.4-.2-1-2.8.4-1.4 2.8.2 3.2-.3 2.9l.1.1-.1-.1c-4.3-4.4-11.6-11.3-16.1-15.7-10.4-10-39.1-37.2-50-47.6-1-.9-1-2.4-.1-3.3.4-.5 1-.7 1.6-.7 9.7-.1 19.5-1.4 29-3.7 9.6-2.4 18.9-5.7 27.7-10.1-8.5 5.2-17.6 9.4-27.1 12.5s-19.4 5.1-29.5 6l1.5-4c10.9 10.4 39.5 37.5 50 47.6 4.1 4 11.5 11 15.5 15l.5.5.3.3.2.2.1.2.2.2c-.5-.3 1.1.1-.3 2.9-2.6 1.4-3.2-.1-2.9.4-.3-.2-.6-.4-.9-.7-2.1-1.9-5.8-5.4-7.9-7.4-14.9-14.2-42.9-41.2-58-55.8l1.7.7c-5.4.5-10.9.4-16.3 0-27.2-1.9-53.6-12.8-74.4-30.4-8.2-7-16-14.4-23.6-22l4.2-1.1c-1.7 5.9-3.6 14-5.9 19.6-7.5 19.4-22.3 35.8-40.7 45.4-12.2 6.5-26 10-39.9 10.1-3.7.2-7.8-.8-11-2.9-7.5-4.7-10.8-14.8-7.2-23 9.2-18.3 40.1-79.2 49.3-96.8 9.5-17.3 19.8-36.3 29.5-53.2z"/><path class="st9" d="M344 209.9l67.8 67.8c7.6 7.6 8.9 19.6 3 28.6-40.8 62.6-92.5 114.3-155.1 155.1-9.1 5.9-21 4.6-28.6-3l-67.8-67.8C129.3 356.8 310.1 176 344 209.9z"/></g></svg>