<svg id="Layer_1" xmlns="http://www.w3.org/2000/svg" xmlns:xlink="http://www.w3.org/1999/xlink" viewBox="0 0 1072 1072"><style>.st0{fill:#f4f4f4}.st1{fill:#1d016a}.st2{fill:none;stroke:#ff5c00;stroke-width:1.0101;stroke-miterlimit:10}.st4{fill:#55468f}.st6{fill:#ff5c00}.st7{fill:none;stroke:#1d016a;stroke-width:1.0101;stroke-miterlimit:10}.st8{fill:#f98158}.st12{fill:#fff}.st14{fill:#a5b6d0}.st16{fill:#313537}.st17{fill:#e78059}</style><path class="st0" d="M0 0h1072v1072H0z"/><path class="st1" d="M1678.2 387l-85.5 6.2c-2 .1-3.6-1.4-3.6-3.4v-85.5c0-1.8 1.4-3.2 3.1-3.4l85.5-6.2c2-.1 3.6 1.4 3.6 3.4v85.5c0 1.8-1.4 3.3-3.1 3.4z"/><path class="st2" d="M1682.9 382.6l-85.5 6.2c-2 .1-3.6-1.4-3.6-3.4V300c0-1.8 1.4-3.2 3.1-3.4l85.5-6.2c2-.1 3.6 1.4 3.6 3.4v85.5c0 1.7-1.3 3.2-3.1 3.3z"/><path d="M1565.9 395.2l-47.5 3.5c-1.1.1-2-.8-2-1.9v-47.4c0-1 .8-1.8 1.7-1.9l47.5-3.5c1.1-.1 2 .8 2 1.9v47.4c.1 1.1-.7 1.9-1.7 1.9z" fill="#605396"/><path class="st2" d="M1569.2 392.1l-47.5 3.5c-1.1.1-2-.8-2-1.9v-47.4c0-1 .8-1.8 1.7-1.9l47.5-3.5c1.1-.1 2 .8 2 1.9v47.4c.1 1.1-.7 1.9-1.7 1.9z"/><path class="st4" d="M1753.5 381.3l-47.5 3.5c-1.1.1-2-.8-2-1.9v-47.4c0-1 .8-1.8 1.7-1.9l47.5-3.5c1.1-.1 2 .8 2 1.9v47.4c0 1-.7 1.8-1.7 1.9z"/><path class="st2" d="M1756.8 378.2l-47.5 3.5c-1.1.1-2-.8-2-1.9v-47.4c0-1 .8-1.8 1.7-1.9l47.5-3.5c1.1-.1 2 .8 2 1.9v47.4c0 1-.7 1.8-1.7 1.9z"/><path d="M2019.6 519.7l-85.5 6.2c-2 .1-3.6-1.4-3.6-3.4V437c0-1.8 1.4-3.2 3.1-3.4l85.5-6.2c2-.1 3.6 1.4 3.6 3.4v85.5c0 1.8-1.4 3.3-3.1 3.4z" fill="#303537"/><path class="st2" d="M2024.3 515.4l-85.5 6.2c-2 .1-3.6-1.4-3.6-3.4v-85.5c0-1.8 1.4-3.2 3.1-3.4l85.5-6.2c2-.1 3.6 1.4 3.6 3.4V512c0 1.8-1.3 3.2-3.1 3.4z"/><path class="st0" d="M1946.4 410.7l-85.5 6.2c-2 .1-3.6-1.4-3.6-3.4V328c0-1.8 1.4-3.2 3.1-3.4l85.5-6.2c2-.1 3.6 1.4 3.6 3.4v85.5c0 1.8-1.4 3.3-3.1 3.4z"/><path class="st2" d="M1951.1 406.3l-85.5 6.2c-2 .1-3.6-1.4-3.6-3.4v-85.5c0-1.8 1.4-3.2 3.1-3.4l85.5-6.2c2-.1 3.6 1.4 3.6 3.4V403c0 1.7-1.4 3.2-3.1 3.3z"/><path class="st6" d="M1677.8 523.7l-85.5 6.2c-2 .1-3.6-1.4-3.6-3.4V441c0-1.8 1.4-3.2 3.1-3.4l85.5-6.2c2-.1 3.6 1.4 3.6 3.4v85.5c0 1.8-1.3 3.2-3.1 3.4z"/><path class="st7" d="M1682.5 519.3l-85.5 6.2c-2 .1-3.6-1.4-3.6-3.4v-85.5c0-1.8 1.4-3.2 3.1-3.4l85.5-6.2c2-.1 3.6 1.4 3.6 3.4v85.5c0 1.8-1.3 3.3-3.1 3.4z"/><path class="st8" d="M1565.6 531.9l-47.5 3.5c-1.1.1-2-.8-2-1.9v-47.4c0-1 .8-1.8 1.7-1.9l47.5-3.5c1.1-.1 2 .8 2 1.9V530c0 1-.8 1.8-1.7 1.9z"/><path class="st7" d="M1568.8 528.8l-47.5 3.5c-1.1.1-2-.8-2-1.9V483c0-1 .8-1.8 1.7-1.9l47.5-3.5c1.1-.1 2 .8 2 1.9v47.4c.1 1-.7 1.8-1.7 1.9z"/><path d="M1753.1 518l-47.5 3.5c-1.1.1-2-.8-2-1.9v-47.4c0-1 .8-1.8 1.7-1.9l47.5-3.5c1.1-.1 2 .8 2 1.9v47.4c0 1-.7 1.8-1.7 1.9z" fill="#fa7c4e"/><path class="st7" d="M1756.4 514.9l-47.5 3.5c-1.1.1-2-.8-2-1.9V469c0-1 .8-1.8 1.7-1.9l47.5-3.5c1.1-.1 2 .8 2 1.9V513c0 1-.7 1.8-1.7 1.9z"/><path class="st6" d="M1040.6 839.6L18.2 873.3C8 873.7 0 882 0 892.1v160.5c0 10.6 8.8 19.1 19.4 18.8l1022.4-33.7c10.1-.3 18.2-8.6 18.2-18.8V858.4c0-10.6-8.8-19.1-19.4-18.8z"/><path d="M1054.6 828.2L26.4 862c-8.6.3-15.4 7.3-15.4 15.9v166.2c0 9 7.5 16.2 16.4 15.9l1028.1-33.9c8.6-.3 15.4-7.3 15.4-15.9V844.1c.1-9-7.4-16.2-16.3-15.9z" fill="none" stroke="#1d016a" stroke-width="2.169" stroke-miterlimit="10"/><path class="st12" d="M166.1 984.6l-.2-4.8 5.8-1.1-1.3-42.1-5.6-.9-.1-4.7 11.2-.4c1.1 0 2.1-.1 3-.2.9-.1 1.8-.2 2.8-.2.9-.1 2-.2 3.1-.2 1.1-.1 2.4-.1 3.9-.2 3.6-.1 6.7.2 9.2.7 2.5.6 4.5 1.5 6.1 2.8 1.6 1.3 2.7 2.9 3.5 4.8.7 1.9 1.1 4.2 1.2 6.9.1 3.1-.3 5.8-1.3 8.2-.9 2.4-2.3 4.4-4.1 6-1.8 1.6-4.1 2.9-6.7 3.8-2.7.9-5.6 1.4-9 1.5h-3.2c-.5 0-.9 0-1.2-.1-.3 0-.6 0-.7-.1l.4 14 9.9.6.2 4.8-26.9.9zm16.1-25.2c.6.1 1.3.2 2 .2h3c1.3 0 2.6-.3 3.8-.8 1.2-.5 2.2-1.3 3.1-2.4.9-1.1 1.6-2.5 2.1-4.3.5-1.8.7-4 .6-6.6-.2-7.5-3.7-11.1-10.3-10.9-1.3 0-2.3.1-3 .3l-2.1.3.8 24.2zM214.4 983l-.1-4.7 5.1-.8-.9-27.1-4.8-1.3-.2-5.3 12-2.1h.2l1.9 1.5.1 2.9.1 5.5h.1c.3-.8.7-1.7 1.4-2.9s1.6-2.3 2.6-3.4c1.1-1.1 2.3-2.1 3.7-2.9 1.4-.8 2.9-1.2 4.6-1.3h1.7c.4 0 .7.1 1 .2l.4 12.2c-.3-.2-.9-.4-2-.6-1.1-.2-2.4-.3-3.9-.2-.8 0-1.6.1-2.5.2-.8.1-1.6.3-2.3.4-.7.2-1.3.4-1.9.6s-1 .5-1.3.7l.7 22.5 8.8.6.1 4.6-24.6.7zM247.6 971.3c-.1-1.7.2-3.3.8-4.6.6-1.4 1.4-2.6 2.5-3.6s2.3-1.9 3.8-2.7c1.5-.8 3-1.4 4.7-1.9 1.7-.5 3.5-.9 5.3-1.2s3.7-.5 5.6-.6l-.1-1.7c-.1-2.7-.7-4.6-1.8-5.7-1.1-1.1-2.9-1.6-5.4-1.5-1.3 0-2.5.2-3.8.4-1.3.2-2.5.5-3.7.9-1.2.3-2.2.7-3.2 1.1-1 .4-1.8.8-2.5 1.1l-2.2-4.7c.5-.4 1.3-1 2.5-1.6 1.2-.7 2.5-1.4 4.2-2 1.6-.7 3.4-1.2 5.4-1.8 2-.5 4-.8 6.1-.9 2.6-.1 4.8.1 6.7.6 1.8.5 3.3 1.3 4.5 2.5 1.2 1.1 2.1 2.6 2.6 4.4.6 1.8.9 3.9 1 6.3l.7 22 4.4-.1.1 4.3c-.4.1-1 .2-1.6.4-.7.2-1.4.3-2.2.5-.8.2-1.6.3-2.6.4-.9.1-1.9.2-2.8.2h-2.2c-.6-.1-1.1-.2-1.5-.4-.4-.2-.6-.6-.8-1.1-.2-.5-.3-1.1-.3-1.9l-.1-2c-.4.6-.9 1.2-1.6 1.9-.7.7-1.5 1.3-2.5 1.9-1 .6-2.1 1.1-3.4 1.6-1.3.4-2.6.7-4.2.7-1.7.1-3.2-.1-4.7-.5s-2.8-1.1-3.9-2c-1.1-.9-2-2.1-2.7-3.5-.6-1.5-1-3.3-1.1-5.2zm14.6-36l-4-3.3 11.9-15.5 6.8 5.9c-.4.7-.9 1.5-1.6 2.3-.7.8-1.5 1.7-2.4 2.6-.9.9-1.8 1.7-2.8 2.6-1 .9-2 1.7-2.9 2.4-1 .7-1.9 1.4-2.7 1.9-.8.5-1.6.9-2.3 1.1zm2.3 40.1c.4 0 .9-.1 1.4-.2.5-.1 1.1-.3 1.7-.5.6-.2 1.1-.5 1.7-.8.6-.3 1-.7 1.4-1.1l-.4-11.7c-2.3.1-4.2.3-5.7.8s-2.7 1.1-3.6 1.8c-.9.7-1.5 1.6-1.9 2.5-.4.9-.5 1.9-.5 2.9.1 2.1.6 3.7 1.6 4.7s2.5 1.7 4.3 1.6zM293.6 972.1l-.8-25.9-5 .2-.1-4c.2-.1.5-.2.9-.3.4-.2.8-.3 1.3-.5.4-.2.8-.3 1.2-.5.3-.2.6-.3.7-.4.8-.7 1.6-1.8 2.4-3.5.2-.5.5-1 .7-1.7.3-.6.5-1.3.8-2 .2-.7.5-1.4.7-2.1.2-.7.4-1.3.5-1.8l6.3-.2.4 10.4 10.4-.3.2 6-10.4.3.6 19.5c.1 1.9.1 3.4.2 4.5s.3 1.9.5 2.5c.2.6.6.9 1.1 1.1.5.1 1.1.2 1.9.2.6 0 1.2-.1 1.8-.2.6-.1 1.2-.2 1.8-.4.6-.1 1.1-.3 1.6-.5s.9-.3 1.2-.4l1.8 4.1c-.7.6-1.5 1.1-2.5 1.7-1 .6-2.1 1.1-3.3 1.6-1.2.5-2.5.9-3.9 1.2-1.4.3-2.7.5-4.1.5h-.1c-1.6 0-2.9-.1-4-.5s-2-.9-2.7-1.7c-.7-.8-1.2-1.7-1.6-2.9-.2-1.2-.4-2.5-.5-4zM319.8 979.7l-.1-4.7 5.1-.8-.9-27.1-4.8-1.4-.2-5.3 12.9-2.1h.2l2.6 1.4 1.1 34.1 5.1.5.1 4.7-21.1.7zm7.9-47.3c-.8 0-1.6-.1-2.2-.4-.7-.3-1.2-.7-1.7-1.2s-.8-1.1-1-1.8c-.2-.7-.4-1.4-.4-2.2 0-.9.1-1.8.3-2.6.2-.8.6-1.5 1.1-2.2.5-.6 1.1-1.1 1.9-1.5.8-.4 1.6-.6 2.6-.6s1.8.1 2.5.4c.7.3 1.3.7 1.8 1.2s.9 1.1 1.1 1.8c.2.7.4 1.4.4 2.1 0 .9-.1 1.8-.3 2.6-.2.8-.6 1.5-1.1 2.2-.5.6-1.2 1.1-2 1.5-.8.4-1.8.6-3 .7zM344.8 959.2c-.1-3.2.3-6.1 1.2-8.8.9-2.7 2.2-5 3.9-6.9 1.7-1.9 3.8-3.5 6.3-4.6 2.5-1.1 5.3-1.7 8.4-1.8 1.6 0 3 0 4.3.1 1.3.1 2.5.3 3.5.5s1.9.4 2.7.6c.8.2 1.4.4 1.9.5v12l-6.2.2-2.2-6.1c-.5-1-1.2-1.7-2-2.3-.8-.5-1.7-.8-2.8-.8-1.1 0-2.1.3-3 .9-.9.6-1.8 1.4-2.5 2.6-.7 1.2-1.3 2.7-1.6 4.5-.4 1.8-.5 4-.5 6.6.1 2.9.4 5.4.9 7.4s1.2 3.6 2.2 4.8c.9 1.2 2 2.1 3.3 2.6 1.3.5 2.7.7 4.3.7 2.2-.1 4.1-.4 5.6-1.1 1.6-.6 2.9-1.3 3.9-2l2 4.2c-.5.6-1.2 1.2-2.1 1.8-.9.7-2 1.3-3.2 1.9-1.2.6-2.6 1.1-4 1.5-1.5.4-3 .7-4.7.7-3.3.1-6.2-.3-8.6-1.3-2.4-1-4.4-2.3-6-4.1-1.6-1.8-2.8-3.9-3.6-6.4-.9-2.3-1.3-5-1.4-7.9zM382.3 967c-.1-1.7.2-3.3.8-4.6.6-1.4 1.4-2.6 2.5-3.6s2.3-1.9 3.8-2.7c1.5-.8 3-1.4 4.7-1.9 1.7-.5 3.5-.9 5.3-1.2 1.8-.3 3.7-.5 5.6-.6l-.1-1.7c-.1-2.7-.7-4.6-1.8-5.7s-2.9-1.6-5.4-1.5c-1.3 0-2.5.2-3.8.4-1.3.2-2.5.5-3.7.9-1.2.3-2.2.7-3.2 1.1-1 .4-1.8.8-2.5 1.1l-2.2-4.7c.5-.4 1.3-1 2.5-1.6 1.2-.7 2.5-1.4 4.2-2 1.6-.7 3.4-1.2 5.4-1.8 2-.5 4-.8 6.1-.9 2.6-.1 4.8.1 6.7.6 1.8.5 3.3 1.3 4.5 2.5 1.2 1.1 2.1 2.6 2.6 4.4.6 1.8.9 3.9 1 6.3l.7 22 4.4-.1.1 4.3c-.4.1-1 .2-1.6.4-.7.2-1.4.3-2.2.5-.8.2-1.6.3-2.6.4s-1.9.2-2.8.2h-2.2c-.6-.1-1.1-.2-1.5-.4-.4-.2-.6-.6-.8-1.1-.2-.5-.3-1.1-.3-1.9l-.1-2c-.4.6-.9 1.2-1.6 1.9-.7.7-1.5 1.3-2.5 1.9-1 .6-2.1 1.1-3.4 1.6-1.3.4-2.6.7-4.2.7-1.7.1-3.2-.1-4.7-.5s-2.8-1.1-3.9-2c-1.1-.9-2-2.1-2.7-3.5-.7-1.5-1-3.2-1.1-5.2zm16.9 4.2c.4 0 .9-.1 1.4-.2.5-.1 1.1-.3 1.7-.5.6-.2 1.1-.5 1.7-.8.6-.3 1-.7 1.4-1.1l-.4-11.7c-2.3.1-4.2.3-5.7.8s-2.7 1.1-3.6 1.8c-.9.7-1.5 1.6-1.9 2.5-.4.9-.5 1.9-.5 2.9.1 2.1.6 3.7 1.6 4.7 1.1 1.1 2.5 1.6 4.3 1.6zM469.6 988l5.3-1-1.4-44.7-4.8-1.3-.2-5.3 12.6-2.1h.2l1.8 1.5.1 3.7c.6-.7 1.2-1.4 2-2.1.8-.7 1.7-1.3 2.6-1.8 1-.5 2-1 3.2-1.3 1.2-.3 2.4-.5 3.8-.6 2.2-.1 4.2.2 6.1.9 1.9.7 3.6 1.8 5.1 3.3 1.5 1.5 2.6 3.6 3.5 6 .9 2.5 1.4 5.5 1.5 9.1.1 3.1-.3 6-1.2 8.8-.9 2.7-2.2 5.1-3.9 7.2-1.7 2.1-3.8 3.7-6.4 4.9-2.5 1.2-5.4 1.9-8.6 2h-1.7c-.6 0-1.1-.1-1.7-.1s-1-.1-1.4-.2c-.4-.1-.8-.1-1-.2l.4 5.8.2 6.1 7 .7.1 4.5-23.1.7-.1-4.5zm20.9-48.5c-1.4 0-2.7.3-3.7.9-1.1.5-1.9 1.1-2.5 1.8l.8 26.7c.4.4 1.1.8 2 1.1.9.3 2 .4 3.3.4 1.3 0 2.5-.4 3.6-.9 1.1-.6 2.1-1.5 2.9-2.8.8-1.3 1.4-3 1.9-5.1.5-2.1.7-4.6.6-7.6 0-2.7-.3-4.9-.7-6.8-.4-1.8-1.1-3.3-1.8-4.5-.8-1.2-1.7-2-2.7-2.5-1.2-.5-2.4-.7-3.7-.7zM517.3 973.4l-.1-4.7 5.1-.8-.9-27.1-4.8-1.3-.2-5.3 12-2.1h.2l1.9 1.5.1 2.9.1 5.5h.1c.3-.8.7-1.7 1.4-2.9s1.6-2.3 2.6-3.4c1.1-1.1 2.3-2.1 3.7-2.9 1.4-.8 2.9-1.2 4.6-1.3h1.7c.4 0 .7.1 1 .2l.4 12.2c-.3-.2-.9-.4-2-.6-1.1-.2-2.4-.3-3.9-.2-.8 0-1.6.1-2.5.2-.8.1-1.6.3-2.3.4-.7.2-1.3.4-1.9.6-.6.2-1 .5-1.3.7l.7 22.5 8.8.6.1 4.6-24.6.7zM550.3 952.4c-.1-3.6.3-6.7 1.4-9.4s2.4-4.9 4.2-6.8c1.8-1.8 3.9-3.2 6.2-4.1 2.4-.9 4.9-1.5 7.5-1.5 3.1-.1 5.8.3 8.2 1.2 2.4.9 4.4 2.2 6.1 3.9 1.7 1.7 2.9 3.9 3.8 6.4.9 2.5 1.4 5.4 1.5 8.7.1 3.7-.3 6.9-1.4 9.6-1 2.7-2.4 5-4.2 6.7-1.8 1.8-3.9 3.1-6.2 4-2.4.9-4.9 1.4-7.5 1.5-3.1.1-5.8-.3-8.2-1.2-2.4-.9-4.4-2.2-6.1-3.9-1.7-1.7-3-3.9-3.9-6.4s-1.3-5.4-1.4-8.7zm20.1 15.3c1.3 0 2.4-.4 3.3-1 .9-.6 1.7-1.5 2.3-2.8.6-1.3 1-2.8 1.2-4.8.2-1.9.3-4.2.2-6.9-.1-2.8-.3-5.2-.6-7.3-.3-2.1-.8-3.9-1.5-5.3-.6-1.4-1.5-2.5-2.5-3.2-1-.7-2.2-1-3.6-1-1.3 0-2.4.4-3.3 1-.9.6-1.7 1.5-2.3 2.8-.6 1.3-1 2.8-1.3 4.8-.2 1.9-.3 4.2-.2 6.9.1 2.7.3 5.2.7 7.3s.9 3.9 1.5 5.3 1.5 2.5 2.5 3.2c1 .7 2.2 1 3.6 1zM594.6 971l-.1-4.7 5.6-1.1-.9-28.4-6.2.2-.1-4.2 6.1-2-.1-2c-.1-2.8.4-5.3 1.5-7.6s2.5-4.2 4.3-5.9c1.8-1.6 3.7-2.9 5.9-3.8 2.2-.9 4.4-1.4 6.6-1.5 1.2 0 2.1 0 2.7.1.6.1 1.1.2 1.4.3l.3 10.5c-.3-.3-.8-.6-1.3-.9-.6-.3-1.2-.6-1.9-.8-.7-.2-1.5-.4-2.3-.5-.8-.1-1.6-.2-2.4-.2-.6 0-1.2.1-1.7.3-.5.2-.9.4-1.3.8s-.6.9-.8 1.5c-.2.6-.3 1.4-.2 2.4l.3 6.9 9.1-.3.2 6-9.1.3.9 28.6 7.8.5.1 4.7-24.4.8zM624.8 970l-.1-4.7 5.1-.8-.9-27.1-4.8-1.4-.2-5.3 12.9-2.1h.2l2.6 1.4 1.1 34.1 5.1.5.1 4.7-21.1.7zm7.9-47.3c-.8 0-1.6-.1-2.2-.4-.7-.3-1.2-.7-1.7-1.2s-.8-1.1-1-1.8c-.2-.7-.4-1.4-.4-2.2 0-.9.1-1.8.3-2.6.2-.8.6-1.5 1.1-2.2.5-.6 1.1-1.1 1.9-1.5.8-.4 1.6-.6 2.6-.6s1.8.1 2.5.4c.7.3 1.3.7 1.8 1.2s.9 1.1 1.1 1.8c.2.7.4 1.4.4 2.1 0 .9-.1 1.8-.3 2.6-.2.8-.6 1.5-1.1 2.2s-1.2 1.1-2 1.5c-.9.5-1.9.7-3 .7zM651.7 966.9l-.3-9.9 6.5-.2 2 5.4c.2.3.6.6 1 .9.4.3 1 .5 1.6.8.6.2 1.3.4 2 .5.8.1 1.5.2 2.4.2 1.2 0 2.1-.2 2.9-.5s1.3-.7 1.7-1.1c.4-.4.7-1 .9-1.5s.2-1.1.2-1.6c0-1-.3-1.8-.8-2.5s-1.3-1.3-2.2-1.9c-.9-.6-2.1-1.1-3.4-1.6-1.3-.5-2.8-1.1-4.4-1.7-1.6-.6-3.1-1.3-4.4-2.1-1.3-.8-2.4-1.6-3.4-2.6-.9-1-1.7-2.1-2.2-3.3-.5-1.2-.8-2.6-.9-4.2-.1-1.7.2-3.2.9-4.7.6-1.4 1.6-2.7 3-3.8 1.3-1.1 3-2 5-2.6 2-.7 4.3-1 7-1.1 1.6 0 2.9 0 4.2.2 1.2.2 2.3.3 3.3.5s1.9.4 2.7.7c.8.2 1.6.4 2.4.5l.3 9.7-6.1.1-1.8-4.6c-.3-.5-1-1-1.9-1.5-.9-.5-2.1-.7-3.5-.7-1.1 0-1.9.2-2.7.4-.7.3-1.3.6-1.7 1-.4.4-.7.9-.9 1.4-.2.5-.3 1-.2 1.5 0 1.2.4 2.2 1 3 .7.8 1.5 1.4 2.5 1.9s2.1 1 3.2 1.3c1.2.4 2.3.8 3.3 1.2 1.6.6 3.1 1.3 4.5 2s2.7 1.6 3.8 2.5 2 2.1 2.7 3.4c.7 1.3 1.1 2.9 1.1 4.7.1 1.7-.2 3.3-.9 4.8s-1.6 2.8-2.9 3.9c-1.3 1.1-3 2-5 2.7-2 .7-4.4 1.1-7.1 1.1-1.9.1-3.6 0-5.1-.2s-3-.5-4.2-.8c-1.3-.3-2.4-.6-3.4-.9-1.1-.3-2-.5-2.7-.7zM689.6 965.7l-.3-9.9 6.5-.2 2 5.4c.2.3.6.6 1 .9.4.3 1 .5 1.6.8.6.2 1.3.4 2 .5s1.5.2 2.4.2c1.2 0 2.1-.2 2.9-.5.7-.3 1.3-.7 1.7-1.1.4-.4.7-1 .9-1.5.1-.6.2-1.1.2-1.6 0-1-.3-1.8-.8-2.5s-1.3-1.3-2.2-1.9c-.9-.6-2.1-1.1-3.4-1.6-1.3-.5-2.8-1.1-4.4-1.7-1.6-.6-3.1-1.3-4.4-2.1-1.3-.8-2.4-1.6-3.4-2.6-.9-1-1.7-2.1-2.2-3.3-.5-1.2-.8-2.6-.9-4.2-.1-1.7.2-3.2.9-4.7.6-1.4 1.6-2.7 3-3.8 1.3-1.1 3-2 5-2.6 2-.7 4.3-1 7-1.1 1.6 0 2.9 0 4.2.2 1.2.2 2.3.3 3.3.5s1.9.4 2.7.7c.8.2 1.6.4 2.4.5l.3 9.7-6.1.1-1.8-4.6c-.3-.5-1-1-1.9-1.5-.9-.5-2.1-.7-3.5-.7-1.1 0-1.9.2-2.7.4-.7.3-1.3.6-1.7 1s-.7.9-.9 1.4-.3 1-.2 1.5c0 1.2.4 2.2 1 3 .7.8 1.5 1.4 2.5 1.9s2.1 1 3.2 1.3c1.2.4 2.3.8 3.3 1.2 1.6.6 3.1 1.3 4.5 2s2.7 1.6 3.8 2.5c1.1 1 2 2.1 2.7 3.4.7 1.3 1.1 2.9 1.1 4.7.1 1.7-.2 3.3-.9 4.8s-1.6 2.8-2.9 3.9c-1.3 1.1-3 2-5 2.7-2 .7-4.4 1.1-7.1 1.1-1.9.1-3.6 0-5.1-.2-1.5-.2-3-.5-4.2-.8-1.3-.3-2.4-.6-3.4-.9-1.1-.3-2-.5-2.7-.7zM726.5 966.8l-.1-4.7 5.1-.8-.9-27.1-4.8-1.4-.2-5.3 12.9-2.1h.2l2.6 1.4 1.1 34.1 5.1.5.1 4.7-21.1.7zm7.9-47.3c-.8 0-1.6-.1-2.2-.4-.7-.3-1.2-.7-1.7-1.2s-.8-1.1-1-1.8c-.2-.7-.4-1.4-.4-2.2 0-.9.1-1.8.3-2.6.2-.8.6-1.5 1.1-2.2.5-.6 1.1-1.1 1.9-1.5.8-.4 1.6-.6 2.6-.6s1.8.1 2.5.4c.7.3 1.3.7 1.8 1.2s.9 1.1 1.1 1.8c.2.7.4 1.4.4 2.1 0 .9-.1 1.8-.3 2.6-.2.8-.6 1.5-1.1 2.2-.5.6-1.2 1.1-2 1.5-.9.5-1.9.7-3 .7zM751.2 946.1c-.1-3.6.3-6.7 1.4-9.4 1-2.7 2.4-4.9 4.2-6.8 1.8-1.8 3.9-3.2 6.2-4.2 2.4-.9 4.9-1.5 7.5-1.5 3.1-.1 5.8.3 8.2 1.2 2.4.9 4.4 2.2 6.1 3.9 1.7 1.7 2.9 3.9 3.8 6.4.9 2.5 1.4 5.4 1.5 8.7.1 3.7-.3 6.9-1.4 9.6-1 2.7-2.4 5-4.2 6.7s-3.9 3.1-6.2 4c-2.4.9-4.9 1.4-7.5 1.5-3.1.1-5.8-.3-8.2-1.2-2.4-.9-4.4-2.2-6.1-3.9-1.7-1.7-3-3.9-3.9-6.4-.8-2.5-1.3-5.4-1.4-8.6zm20 15.2c1.3 0 2.4-.4 3.3-1 .9-.6 1.7-1.5 2.3-2.8.6-1.3 1-2.8 1.2-4.8.2-1.9.3-4.2.2-6.9-.1-2.8-.3-5.2-.6-7.3-.3-2.1-.8-3.9-1.5-5.3-.6-1.4-1.5-2.5-2.5-3.2-1-.7-2.2-1-3.6-1-1.3 0-2.4.4-3.3 1-.9.6-1.7 1.5-2.3 2.8-.6 1.3-1 2.8-1.3 4.8-.2 1.9-.3 4.2-.2 6.9.1 2.7.3 5.2.7 7.3.3 2.1.9 3.9 1.5 5.3.7 1.4 1.5 2.5 2.5 3.2 1 .7 2.2 1.1 3.6 1zM796.3 964.6l-.1-4.7 4.5-.8-.9-27.1-4.8-1.3-.2-5.3 12.6-2.1h.2l1.9 1.5.1 4.2c.8-.7 1.6-1.5 2.7-2.2 1-.7 2.2-1.4 3.4-1.9 1.2-.6 2.5-1 3.9-1.4 1.4-.4 2.7-.6 4.1-.6 2.3-.1 4.2.2 5.7.7 1.5.5 2.8 1.4 3.7 2.7.9 1.3 1.6 2.9 2.1 4.9.4 2 .7 4.5.8 7.3l.6 19.5 5 .5.1 4.7-19.8.6-.1-4.7 3.8-.8-.6-19.7c-.1-1.6-.2-3-.4-4.2s-.5-2.1-1-2.9c-.5-.7-1.1-1.3-1.9-1.6-.8-.3-1.8-.5-3-.5-.8 0-1.6.1-2.4.3-.8.2-1.5.5-2.2.8s-1.3.6-1.9 1c-.6.4-1.1.7-1.5 1.1l.8 26.1 4.7.6.1 4.7-20 .6zM844.7 952.3c-.1-1.7.2-3.3.8-4.6.6-1.4 1.4-2.6 2.5-3.6s2.3-1.9 3.8-2.7c1.5-.8 3-1.4 4.7-1.9s3.5-.9 5.3-1.2c1.9-.3 3.7-.5 5.6-.6l-.1-1.7c-.1-2.7-.7-4.6-1.8-5.7-1.1-1.1-2.9-1.6-5.4-1.5-1.3 0-2.5.2-3.8.4-1.3.2-2.5.5-3.7.9-1.2.3-2.2.7-3.2 1.1s-1.8.8-2.5 1.1l-2.2-4.7c.5-.4 1.3-1 2.5-1.6s2.5-1.4 4.2-2 3.4-1.2 5.4-1.8 4-.8 6.1-.9c2.6-.1 4.8.1 6.7.6 1.8.5 3.3 1.3 4.5 2.5 1.2 1.1 2.1 2.6 2.6 4.4.6 1.8.9 3.9 1 6.3l.7 22 4.4-.1.1 4.3c-.4.1-1 .2-1.6.4-.7.2-1.4.3-2.2.5-.8.2-1.7.3-2.6.4-.9.1-1.9.2-2.8.2h-2.2c-.6-.1-1.1-.2-1.5-.4-.4-.2-.6-.6-.8-1.1-.2-.5-.3-1.1-.3-1.9l-.1-2c-.4.6-.9 1.2-1.6 1.9-.7.7-1.5 1.3-2.5 1.9-1 .6-2.1 1.1-3.4 1.6-1.3.4-2.6.7-4.2.7-1.7.1-3.2-.1-4.7-.5s-2.8-1.1-3.9-2c-1.1-.9-2-2.1-2.7-3.5-.6-1.4-1-3.2-1.1-5.2zm16.9 4.2c.4 0 .9-.1 1.4-.2.5-.1 1.1-.3 1.7-.5.6-.2 1.1-.5 1.7-.8.6-.3 1-.7 1.4-1.1l-.4-11.7c-2.3.1-4.2.3-5.7.8s-2.7 1.1-3.6 1.8c-.9.7-1.5 1.6-1.9 2.5-.4.9-.5 1.9-.5 2.9.1 2.1.6 3.7 1.6 4.7 1.1 1.2 2.5 1.7 4.3 1.6zM886 961.8l-.1-4.7 5.1-.9-1.5-47.1-5.3-.7-.1-4.1 13.7-2.2h.1l2.3 1.6 1.7 52.1 5.3.5.1 4.7-21.3.8z"/><path fill="none" d="M1249 344v-30"/><path class="st12" d="M969 166.9H103V750c0 9.2 7.5 16.7 16.7 16.7h832.7c9.2 0 16.7-7.5 16.7-16.7V166.9h-.1z"/><g><path class="st4" d="M941.5 99.1H128.3c-14 0-25.3 11.3-25.3 25.3v42.4h863.8v-42.4c0-13.9-11.4-25.3-25.3-25.3z"/><circle class="st6" cx="923.7" cy="133" r="10.5"/><circle class="st14" cx="884.5" cy="133" r="10.5"/><circle class="st0" cx="845.2" cy="133" r="10.5"/></g><path class="st14" d="M951.9 200.4c5.1 0 9.3 4.2 9.3 9.3v351.5c0 5.1-4.2 9.3-9.3 9.3-5.1 0-9.3-4.2-9.3-9.3V209.7c0-5.2 4.2-9.3 9.3-9.3z"/><g><defs><circle id="SVGID_1_" cx="360" cy="403.7" r="171"/></defs><clipPath id="SVGID_00000008832190428169448920000000551933866822039437_"><use xlink:href="#SVGID_1_" overflow="visible"/></clipPath><g clip-path="url(#SVGID_00000008832190428169448920000000551933866822039437_)"><circle class="st0" cx="360" cy="403.7" r="171"/><path class="st14" d="M459.3 472.9l-68.7-17.5s-15.3 9.6-33.8 7.2-39-24.9-39-24.9-28.4 10.5-46.5 23.3-12.7 10.9-12.7 10.9l8.6 10.3-13.7 110.5s61.9 27.6 81 27.6 91.7-5.9 91.7-5.9l31.5-74.1 2-53.4-.4-14"/><path class="st14" d="M404.9 437.7l-29.2 24.9-15.4 19.1 53.4 20.4s47.2-23.2 50.4-30.2c.4-1-6.2-6.5-12.7-10.9-18.2-12.4-46.5-23.3-46.5-23.3"/><path class="st16" d="M384.5 278.3c-.9.4-2 .1-2.5-.8-3.5-5.9-17.9-26.7-46.3-25-33 1.8-43.2 20.7-45 28.4-1 4.3-1.2 11.9-4.1 14s-12.4-2.6-23 9c-6.3 6.9-5.1 20.3-3.5 24.5 1.2 3.1-6.4 4.7-11.1 13.7-3.7 6.8-5.9 17.3-1.8 28.3 4.7 13.1 24.6 20.7 32.2 19.9 7.6-.7 11.1 2.9 12.3 5.2s9.4 22 33.4 20.2 26-5 47.6-5 34.4-3.1 42.7-10.2c6.9-5.9 8.1-15.7 9.8-17.5 1.3-1.4 21.7-3.8 29.7-17.8 5.2-9 6.2-24.7 1.8-31.9-4.3-7.2-11.4-11.9-17.5-14.1-3.1-1-5.4-1.7-6.8-2.1-.9-.3-1.4-1.3-1-2.1 1.7-3.3 3.9-10.9 2.6-17.9-1.7-9.4-8.8-17.8-15.8-21.6-7.1-3.8-20.4-3.1-24-1.4-2.5.9-7.2 3.2-9.7 4.2z"/><path class="st17" d="M387.7 429.9l-4.2-32.7-49.3 3.8-.5 28.3-9.8 5.5s4.3 16.8 18.5 23c14.9 6.7 32.9 5.2 40.2 1 4.1-2.4 13.2-11.1 15.2-16.8 2-5.6 1.8-7.1 1.8-7.1l-11.9-5z"/><path d="M359.9 467.8c-22.2 0-40.7-11.8-45.2-30.5-.3-.9.3-2 1.2-2.2l7.3-3c1-.4 2.4.1 2.6 1.3 3.7 13 17.9 22.9 34 22.9 16.9 0 31.3-10.1 34.4-23.8.3-1 1.3-1.7 2.4-1.4l7.6 1.7c1 .3 1.7 1.3 1.6 2.4-3.8 19-23.2 32.6-45.9 32.6z" fill="#95a4bb"/><path class="st1" d="M385 407.7l-50.7 3.3-.4-13.9 49.6-.7z"/><path class="st17" d="M368.1 404.6l-13.7 1.4c-26.4 2.7-50.3-16.6-52.9-43.1l-4.7-50c-.1-1.4.9-2.7 2.4-2.9l104.6-10.7c1.4-.1 2.7.9 2.9 2.4l4.7 50c2.4 26.5-17 50.3-43.3 52.9z"/><path class="st17" d="M300.6 343.7l-15.1.8c-7.9.9-13.5 8.2-12.6 16.1.9 7.9 8.2 13.5 16.1 12.6l15.1-.8M409.1 336.3l15.1-1.8c7.9-.4 14.8 5.6 15.2 13.5.4 7.9-5.6 14.8-13.5 15.2l-15.1 1.8"/><path class="st16" d="M317.2 314.7c-1.2 0-2.1 1.2-1.6 2.4 2 4.8-.9 21.6-7.1 28.5-8.1 9-23.8 0-25.3-5.2-1.4-5.2-3-34.6 5.1-38.3 8.1-3.8 34.2-11.4 43.2-12.3s49.3-2.4 60.2 0c10.9 2.4 24.2 9.4 24.6 16.1.4 5 1.6 21.2 0 29.7-.5 2.6-5.2 8.1-9.7 8.2-6.4.4-14.7-6.3-17.8-9.3-4.7-4.6-6.7-15.2-13.2-17.5s-12.8.5-18.1 3.4c-5.2 2.9-16.2 2.9-21.9-.9-5.6-4-14.1-4.8-18.4-4.8z"/><circle class="st1" cx="334.3" cy="353.4" r="3.7"/><circle class="st1" cx="379.6" cy="349.1" r="3.7"/><path fill="none" stroke="#1d016a" stroke-width="2" stroke-linecap="round" stroke-linejoin="round" stroke-miterlimit="10" d="M357 341.6l3.5 23.5"/><path class="st12" d="M339.6 375.3l40.2-5.6c.8-.1 1.3.7 1 1.3-.7 2-2.1 5.4-4.7 9-6 8.6-18.2 9.8-27.2 5.2-3.8-2-7.9-6.2-9.8-8.4-.7-.5-.3-1.4.5-1.5z"/><path class="st16" d="M294.9 342.8l6.7 18.2 2.5-22.1zM401.9 334.1l7.2 21.3 2.2-21.3z"/><path class="st14" d="M511.4 576.4c2.5 8.2 5.5 21.9 3.9 22.6l-15.1-1.4-67.3-9s1.6-12 2.4-14.5c.7-2.1 7.1-4.1 9.3-4.6.3-.1.4-.5.1-.7l-2-2.1c-.3-.3 0-.7.3-.7l33.1 2.6-31.3-2.6s-6.2-19.4-7.6-24.1c-1.4-4.6-11.9-30.5-11.9-30.5l25.9-30 5.2-4.7 3.9-2.9s3.1-2 4.2-1.4c.9.5 18.8 24.5 25 41.1 6.3 16.6 19.4 54.7 21.9 62.9z" id="XMLID_00000023968369030913912150000002111537332282199444_"/><path class="st14" d="M260.9 473.8l34.6 37.7s-10.3 25.4-11.8 30-8 24.3-8 24.3l-4.7 7.1-1.3 2.9s-46.7 16.4-53 18.5-11.5 6.9-11.5 6.9c-1.6-.8 2-16.6 4.4-24.9s15.7-46.3 21.9-63c6.2-16.6 24.1-40.6 25-41.1.7-.2 4.4 1.6 4.4 1.6z" id="XMLID_00000129169526300607012620000003251052210181848210_"/></g></g><path class="st16" d="M574.1 269.7h299.8V359H574.1z"/><path class="st14" d="M574.1 414.2h299.8V444H574.1zM574.1 466.8h299.8v29.8H574.1zM574.1 519.3h299.8v29.8H574.1zM574.1 571.9h299.8v29.8H574.1zM574.1 624.5h299.8v29.8H574.1zM574.1 677.1h299.8v29.8H574.1z"/><path class="st4" d="M325.4 692h-123c-7.4 0-13.4-6-13.4-13.4v-40.7c0-7.4 6-13.4 13.4-13.4h123c7.4 0 13.4 6 13.4 13.4v40.7c-.1 7.4-6.1 13.4-13.4 13.4z"/><path class="st6" d="M517.6 692h-123c-7.4 0-13.4-6-13.4-13.4v-40.7c0-7.4 6-13.4 13.4-13.4h123c7.4 0 13.4 6 13.4 13.4v40.7c-.1 7.4-6.1 13.4-13.4 13.4z"/><g><path class="st8" d="M767.8 778.4l84.9-43-57-57-43 84.9c5.2-8.7 10.2-3.6 15.1 15.1z"/><path class="st1" d="M744.5 790.2l23.3-11.8c-4.9-18.7-9.9-23.8-15.2-15.2l-11.8 23.3c-1.2 2.4 1.3 4.9 3.7 3.7z"/><path transform="rotate(-45.001 922.39 608.68)" class="st1" d="M782.9 568.4h278.9V649H782.9z"/><path class="st8" d="M1044.6 514.9l-28.5-28.5-23.6-4.8 4.8 23.6 28.5 28.5 23.7 4.9z"/><path class="st1" d="M847.4 712.1l-28.5-28.5-23.6-4.8 4.9 23.6 28.4 28.5 23.7 4.8zM1013.2 501c1.4-1.4 6.4 1.2 11 5.8s7.2 9.6 5.8 11c-1.4 1.4-6.4-1.2-11-5.8s-7.2-9.5-5.8-11z"/><path transform="rotate(-45.001 912.944 618.02)" class="st4" d="M773.5 597.9h278.9v40.3H773.5z"/></g></svg>