<svg id="Layer_1" xmlns="http://www.w3.org/2000/svg" viewBox="0 0 1072 1072"><style>.st0{fill:#f4f4f4}.st2{fill:none;stroke:#ff5c00;stroke-width:1.0101;stroke-miterlimit:10}.st4{fill:#55468f}.st6{fill:#ff5c00}.st7{fill:none;stroke:#1d016a;stroke-width:1.0101;stroke-miterlimit:10}.st12{fill:#fff}.st14{fill:#a5b6d0}</style><path class="st0" d="M0 0h1072v1072H0z"/><path d="M1678.2 387l-85.5 6.2c-2 .1-3.6-1.4-3.6-3.4v-85.5c0-1.8 1.4-3.2 3.1-3.4l85.5-6.2c2-.1 3.6 1.4 3.6 3.4v85.5c0 1.8-1.4 3.3-3.1 3.4z" fill="#1d016a"/><path class="st2" d="M1682.9 382.6l-85.5 6.2c-2 .1-3.6-1.4-3.6-3.4V300c0-1.8 1.4-3.2 3.1-3.4l85.5-6.2c2-.1 3.6 1.4 3.6 3.4v85.5c0 1.7-1.3 3.2-3.1 3.3z"/><path d="M1565.9 395.2l-47.5 3.5c-1.1.1-2-.8-2-1.9v-47.4c0-1 .8-1.8 1.7-1.9l47.5-3.5c1.1-.1 2 .8 2 1.9v47.4c.1 1.1-.7 1.9-1.7 1.9z" fill="#605396"/><path class="st2" d="M1569.2 392.1l-47.5 3.5c-1.1.1-2-.8-2-1.9v-47.4c0-1 .8-1.8 1.7-1.9l47.5-3.5c1.1-.1 2 .8 2 1.9v47.4c.1 1.1-.7 1.9-1.7 1.9z"/><path class="st4" d="M1753.5 381.3l-47.5 3.5c-1.1.1-2-.8-2-1.9v-47.4c0-1 .8-1.8 1.7-1.9l47.5-3.5c1.1-.1 2 .8 2 1.9v47.4c0 1-.7 1.8-1.7 1.9z"/><path class="st2" d="M1756.8 378.2l-47.5 3.5c-1.1.1-2-.8-2-1.9v-47.4c0-1 .8-1.8 1.7-1.9l47.5-3.5c1.1-.1 2 .8 2 1.9v47.4c0 1-.7 1.8-1.7 1.9z"/><path d="M2019.6 519.7l-85.5 6.2c-2 .1-3.6-1.4-3.6-3.4V437c0-1.8 1.4-3.2 3.1-3.4l85.5-6.2c2-.1 3.6 1.4 3.6 3.4v85.5c0 1.8-1.4 3.3-3.1 3.4z" fill="#303537"/><path class="st2" d="M2024.3 515.4l-85.5 6.2c-2 .1-3.6-1.4-3.6-3.4v-85.5c0-1.8 1.4-3.2 3.1-3.4l85.5-6.2c2-.1 3.6 1.4 3.6 3.4V512c0 1.8-1.3 3.2-3.1 3.4z"/><path class="st0" d="M1946.4 410.7l-85.5 6.2c-2 .1-3.6-1.4-3.6-3.4V328c0-1.8 1.4-3.2 3.1-3.4l85.5-6.2c2-.1 3.6 1.4 3.6 3.4v85.5c0 1.8-1.4 3.3-3.1 3.4z"/><path class="st2" d="M1951.1 406.3l-85.5 6.2c-2 .1-3.6-1.4-3.6-3.4v-85.5c0-1.8 1.4-3.2 3.1-3.4l85.5-6.2c2-.1 3.6 1.4 3.6 3.4V403c0 1.7-1.4 3.2-3.1 3.3z"/><path class="st6" d="M1677.8 523.7l-85.5 6.2c-2 .1-3.6-1.4-3.6-3.4V441c0-1.8 1.4-3.2 3.1-3.4l85.5-6.2c2-.1 3.6 1.4 3.6 3.4v85.5c0 1.8-1.3 3.2-3.1 3.4z"/><path class="st7" d="M1682.5 519.3l-85.5 6.2c-2 .1-3.6-1.4-3.6-3.4v-85.5c0-1.8 1.4-3.2 3.1-3.4l85.5-6.2c2-.1 3.6 1.4 3.6 3.4v85.5c0 1.8-1.3 3.3-3.1 3.4z"/><path d="M1565.6 531.9l-47.5 3.5c-1.1.1-2-.8-2-1.9v-47.4c0-1 .8-1.8 1.7-1.9l47.5-3.5c1.1-.1 2 .8 2 1.9V530c0 1-.8 1.8-1.7 1.9z" fill="#f98158"/><path class="st7" d="M1568.8 528.8l-47.5 3.5c-1.1.1-2-.8-2-1.9V483c0-1 .8-1.8 1.7-1.9l47.5-3.5c1.1-.1 2 .8 2 1.9v47.4c.1 1-.7 1.8-1.7 1.9z"/><path d="M1753.1 518l-47.5 3.5c-1.1.1-2-.8-2-1.9v-47.4c0-1 .8-1.8 1.7-1.9l47.5-3.5c1.1-.1 2 .8 2 1.9v47.4c0 1-.7 1.8-1.7 1.9z" fill="#fa7c4e"/><path class="st7" d="M1756.4 514.9l-47.5 3.5c-1.1.1-2-.8-2-1.9V469c0-1 .8-1.8 1.7-1.9l47.5-3.5c1.1-.1 2 .8 2 1.9V513c0 1-.7 1.8-1.7 1.9z"/><path class="st6" d="M1040.6 839.6L18.2 873.3C8 873.7 0 882 0 892.1v160.5c0 10.6 8.8 19.1 19.4 18.8l1022.4-33.7c10.1-.3 18.2-8.6 18.2-18.8V858.4c0-10.6-8.8-19.1-19.4-18.8z"/><path d="M1054.6 828.2L26.4 862c-8.6.3-15.4 7.3-15.4 15.9v166.2c0 9 7.5 16.2 16.4 15.9l1028.1-33.9c8.6-.3 15.4-7.3 15.4-15.9V844.1c.1-9-7.4-16.2-16.3-15.9z" fill="none" stroke="#1d016a" stroke-width="2.169" stroke-miterlimit="10"/><path class="st12" d="M488.5 977.3c-4.2.1-7.8-.4-11-1.6-3.2-1.2-5.9-3-8.1-5.4-2.2-2.3-3.9-5.2-5.1-8.5-1.2-3.3-1.9-7-2-11.1-.1-4.2.5-8 1.8-11.4 1.3-3.4 3.2-6.4 5.6-8.9 2.4-2.5 5.3-4.5 8.6-5.9 3.3-1.4 7-2.2 10.9-2.3 1.7-.1 3.3 0 4.8.1 1.5.2 3 .3 4.3.5s2.6.4 3.7.6 2.1.4 2.9.5l-.4 14.1-7.2.2-2.4-9.2c-.2-.3-.6-.5-.9-.8-.4-.3-.8-.5-1.4-.6-.5-.2-1.2-.3-1.9-.4-.8-.1-1.7-.1-2.7-.1-2 .1-3.9.6-5.5 1.5-1.7.9-3.1 2.3-4.2 4.1s-2 4.1-2.6 6.8c-.6 2.7-.8 5.8-.7 9.4.1 3.1.5 6.1 1.1 8.9.6 2.9 1.5 5.4 2.7 7.5 1.2 2.2 2.7 3.9 4.4 5.1s3.8 1.9 6.2 1.8c1.2 0 2.2-.1 3-.3.8-.2 1.6-.3 2.2-.6.6-.2 1.1-.5 1.5-.8s.7-.6 1-.9l3-7.9 6.2.2-.5 12c-1 .1-2 .3-3 .6s-2.2.7-3.5 1c-1.3.4-2.8.7-4.5 1-1.9.5-3.9.7-6.3.8zM512 975.7l-.2-4.8 5.8-1.1-1.3-42.1-5.7-.9-.1-4.7 11.2-.4c1.2 0 2.2-.1 3.2-.2s1.9-.2 2.7-.2c.9-.1 1.7-.2 2.6-.2.9-.1 1.8-.1 2.7-.2 6.7-.2 11.7.6 14.9 2.5 3.2 1.9 4.9 4.9 5 9.1.1 2-.2 3.7-.7 5.3-.5 1.6-1.3 2.9-2.3 4.1-1 1.2-2.2 2.1-3.5 2.9-1.4.7-2.9 1.3-4.5 1.6 2.1 0 4.1.2 6 .7 1.9.5 3.5 1.3 4.9 2.3 1.4 1 2.5 2.3 3.4 3.8.8 1.5 1.3 3.2 1.3 5.1.1 2.1-.2 4.2-.8 6.2-.6 2-1.7 3.8-3.4 5.4-1.6 1.6-3.8 2.9-6.7 3.9-2.8 1-6.4 1.6-10.7 1.7h-2.7c-.9 0-1.8 0-2.8-.1h-3.2c-1.2 0-2.5 0-4 .1l-11.1.2zm15.4-49.5l.6 18.5c.3 0 .8.1 1.3.1h4.8c1.5 0 2.7-.3 3.7-.8s1.8-1.1 2.4-2c.6-.9 1-1.9 1.3-3.2.2-1.3.3-2.7.3-4.4 0-1.5-.2-2.9-.6-4-.4-1.1-.9-2.1-1.7-2.8-.8-.7-1.7-1.2-2.9-1.6-1.2-.3-2.7-.5-4.4-.4-1 0-2 .1-2.9.2-.9.2-1.6.3-1.9.4zm.7 23.7l.6 20.2c.2.1.5.2 1 .3.4.1.9.1 1.4.2.5 0 1 0 1.6.1h1.6c2.1-.1 3.9-.4 5.4-.9s2.7-1.3 3.6-2.2c.9-.9 1.6-2.1 2-3.4.4-1.3.6-2.8.5-4.5-.1-1.9-.3-3.5-.8-4.8-.5-1.3-1.1-2.4-2-3.1-.9-.8-2.1-1.4-3.4-1.7-1.4-.3-3-.5-4.9-.4h-1.6c-.6 0-1.3 0-1.9.1-.6 0-1.2.1-1.8.1-.6-.1-1 0-1.3 0zM585.8 974.2c-4.1.2-7.7-.3-10.7-1.5s-5.6-2.9-7.7-5.2c-2-2.3-3.6-5.1-4.7-8.4-1.1-3.3-1.7-7-1.8-11.2-.1-4.3.3-8.1 1.4-11.6 1.1-3.5 2.7-6.5 4.8-9 2.1-2.5 4.7-4.5 7.7-5.9 3-1.4 6.4-2.2 10.2-2.3 4.1-.1 7.7.4 10.8 1.5s5.6 2.9 7.6 5.2c2 2.3 3.5 5.1 4.6 8.4 1 3.3 1.6 7 1.7 11.1.1 4.3-.3 8.1-1.4 11.6-1.1 3.5-2.7 6.5-4.8 9-2.1 2.5-4.6 4.5-7.6 5.9-3 1.5-6.3 2.2-10.1 2.4zm-1.1-50.3c-1.9.1-3.6.6-5 1.6-1.5 1-2.7 2.5-3.7 4.4-1 2-1.8 4.4-2.2 7.3s-.7 6.3-.5 10.2c.1 3.9.5 7.3 1.2 10.1s1.5 5.1 2.7 6.8c1.1 1.8 2.4 3 4 3.8 1.5.8 3.2 1.1 5.2 1.1 1.9-.1 3.6-.6 5-1.6 1.5-1 2.7-2.5 3.7-4.5s1.8-4.4 2.2-7.3c.5-2.9.7-6.3.5-10.2-.1-3.9-.5-7.2-1.2-10s-1.5-5.1-2.6-6.8-2.4-3.1-4-3.9c-1.7-.7-3.4-1.1-5.3-1z"/><path fill="none" d="M1249 344v-30"/><path class="st4" d="M658.9 139.5H330.1c-12.2 0-22.2 9.9-22.2 22.2v603.8c0 12.2 9.9 22.2 22.2 22.2h449.2c12.2 0 22.2-9.9 22.2-22.2V285.6L658.9 139.5z"/><path class="st12" d="M645.2 125.8H316.4c-12.2 0-22.2 9.9-22.2 22.2v603.8c0 12.2 9.9 22.2 22.2 22.2h449.2c12.2 0 22.2-9.9 22.2-22.2V271.9L645.2 125.8z"/><path class="st4" d="M645.2 125.8l24.2 154.4c2 12.5 13 19.7 24.4 16.7l93.9-25-142.5-146.1z"/><path class="st14" d="M645.2 125.8v123.9c0 12.2 9.9 22.2 22.2 22.2h120.4L645.2 125.8zM253.7 484.9h404.6v209.8H253.7z"/><path class="st4" d="M363.3 643.8c-8 0-15-1.3-21.1-3.8s-11.2-6.1-15.3-10.8c-4.1-4.6-7.2-10.2-9.3-16.6-2.1-6.4-3.1-13.6-3.1-21.4 0-8 1.4-15.2 4.1-21.7s6.5-12.1 11.2-16.7c4.8-4.6 10.4-8.2 16.9-10.8s13.5-3.8 21-3.8c3.2 0 6.3.2 9.3.6 2.9.4 5.7.8 8.2 1.3s4.9.9 7 1.4 3.9.8 5.5 1l-1.6 26.9h-13.9l-4.1-17.8c-.5-.5-1-1.1-1.7-1.6s-1.6-1-2.6-1.3c-1-.4-2.2-.7-3.7-.9-1.4-.2-3.2-.3-5.1-.3-3.9 0-7.4.8-10.7 2.5-3.2 1.7-6 4.2-8.4 7.6-2.3 3.4-4.1 7.7-5.4 12.8s-1.9 11.2-1.9 18.1c0 6 .5 11.7 1.6 17.2 1 5.5 2.6 10.4 4.8 14.6 2.1 4.2 4.9 7.6 8.2 10.1 3.3 2.5 7.2 3.8 11.7 3.8 2.3 0 4.2-.1 5.8-.4 1.6-.2 3-.6 4.2-1s2.1-.9 2.9-1.5 1.4-1.1 2-1.7l6.2-14.9 11.9.7-1.6 23c-1.9.1-3.9.5-5.9 1-2 .6-4.2 1.2-6.7 1.8s-5.4 1.2-8.6 1.7c-3.4.6-7.2.9-11.8.9zM408.4 642.2V633l11.1-1.8v-80.7l-11-2.1v-9.1H430c2.3 0 4.3 0 6.2-.1 1.8-.1 3.6-.2 5.3-.3 1.7-.1 3.3-.2 5-.3 1.6-.1 3.4-.1 5.2-.1 12.9 0 22.4 1.9 28.5 5.6 6 3.7 9.1 9.6 9.1 17.7 0 3.8-.6 7.2-1.7 10.1-1.1 3-2.6 5.5-4.6 7.7-1.9 2.2-4.3 3.9-6.9 5.3-2.7 1.4-5.6 2.3-8.8 2.8 4.1 0 7.9.6 11.4 1.7 3.6 1.1 6.7 2.7 9.3 4.7 2.6 2.1 4.7 4.5 6.2 7.4s2.3 6.2 2.3 9.8c0 4.1-.7 8.1-2 11.9s-3.6 7.2-6.8 10.1c-3.2 3-7.6 5.3-13 7.1s-12.3 2.6-20.5 2.6c-1.8 0-3.6 0-5.2-.1-1.7-.1-3.5-.2-5.4-.3s-3.9-.2-6.2-.3c-2.2-.1-4.8-.1-7.7-.1h-21.3zm32.5-94v35.6c.6.1 1.5.2 2.5.2 1 .1 2.1.1 3.2.1h6.1c2.8 0 5.2-.4 7.1-1.3 2-.8 3.6-2.1 4.8-3.7 1.2-1.6 2.1-3.6 2.6-6.1.5-2.4.8-5.2.8-8.4 0-2.9-.3-5.5-.9-7.7s-1.6-4-3-5.4-3.2-2.5-5.5-3.2-5.1-1-8.4-1c-1.9 0-3.8.1-5.5.3-1.9.4-3.1.5-3.8.6zm0 45.5v38.8c.4.2 1 .4 1.8.6.8.2 1.7.3 2.7.4 1 .1 2 .2 3.1.2s2.1.1 3 .1c4.1 0 7.5-.5 10.3-1.4s5.2-2.3 7-4 3.1-3.9 4-6.4c.8-2.5 1.3-5.4 1.3-8.6 0-3.6-.4-6.7-1.2-9.2-.8-2.5-2-4.6-3.7-6.2-1.7-1.6-3.9-2.7-6.5-3.5-2.6-.7-5.8-1.1-9.4-1.1h-6.6c-1.2 0-2.3.1-3.4.1-1.2.1-1.9.2-2.4.2zM550 643.8c-7.8.1-14.7-1.1-20.5-3.5s-10.6-5.9-14.4-10.4c-3.8-4.5-6.6-10-8.5-16.4s-2.8-13.6-2.8-21.5c0-8.2 1.1-15.6 3.4-22.2s5.6-12.3 9.8-17 9.3-8.3 15.2-10.9c5.9-2.5 12.5-3.8 19.7-3.8 7.9 0 14.8 1.2 20.5 3.6 5.7 2.4 10.5 5.9 14.2 10.4s6.5 10 8.3 16.3c1.8 6.4 2.7 13.5 2.7 21.5 0 8.2-1.1 15.6-3.4 22.2s-5.5 12.3-9.7 17-9.2 8.3-15 10.9c-5.9 2.4-12.3 3.7-19.5 3.8zm.8-96.5c-3.6 0-6.9.9-9.8 2.7s-5.4 4.6-7.4 8.3c-2.1 3.7-3.6 8.3-4.7 13.9s-1.7 12.1-1.7 19.6.5 14 1.6 19.4 2.6 9.8 4.7 13.3c2 3.4 4.5 6 7.4 7.6s6.2 2.4 9.8 2.4 6.9-.9 9.7-2.8c2.9-1.8 5.4-4.6 7.4-8.3 2.1-3.7 3.6-8.3 4.7-13.9s1.7-12.1 1.7-19.6c0-7.4-.5-13.9-1.6-19.2-1.1-5.4-2.6-9.8-4.6-13.3-2-3.4-4.5-6-7.3-7.6-2.9-1.7-6.2-2.5-9.9-2.5zM350.3 198.9h247.3V272H350.3z"/><path class="st14" d="M350.3 317.1h247.3v29.8H350.3zM350.3 369.7h247.3v29.8H350.3z"/></svg>