<svg id="Layer_1" xmlns="http://www.w3.org/2000/svg" viewBox="0 0 447.7 399.9"><style>.st0,.st1{fill:none;stroke:#fff;stroke-width:5;stroke-linecap:round;stroke-linejoin:round;stroke-miterlimit:10}.st1{stroke:#ff5637;stroke-width:6;stroke-dasharray:12}.st2{opacity:.2;fill:#fff}</style><path class="st0" d="M237.2 206c-3.8 2.6-8.4 4.1-13.3 4.1h-10.1c-13.1 0-23.8-10.6-23.8-23.8v-31c0-13.1 10.6-23.8 23.8-23.8h10.1c13.1 0 23.8 10.6 23.8 23.8v31c0 5-1.6 9.7-4.2 13.6M92.6 155.7h14.2c6.8 0 12.5-4.6 14.2-10.9.1-.5.8-.5.9 0 1.6 6.3 7.4 10.9 14.2 10.9h14.2v20.4c0 13.1-10.6 23.8-23.8 23.8h-10.1c-13.1 0-23.8-10.6-23.8-23.8v-20.4z"/><path class="st0" d="M190 168.3c4.6-2.5 9-5.4 13.1-8.8 2.3 9.2 15.6 13.6 44.6 11.3M234.4 207.8v18.1c0 8.6-7 15.5-15.5 15.5-8.6 0-15.5-7-15.5-15.5v-18.1M137 198.2v18.1c0 8.6-7 15.5-15.5 15.5-8.6 0-15.5-7-15.5-15.5v-18.1M251 169.3h-3.3v16.2h3.3c4.5 0 8.1-3.6 8.1-8.1 0-4.4-3.6-8.1-8.1-8.1zM186.7 169.3h3.3v16.2h-3.3c-4.5 0-8.1-3.6-8.1-8.1 0-4.4 3.7-8.1 8.1-8.1z"/><path class="st0" d="M287.5 257v-4.7c0-17-13.8-30.7-30.7-30.7h-22.5M203.2 221.5H181c-17 0-30.7 13.8-30.7 30.7v32.5h137.2v-16.5M182.7 284.8v-21.2M255 284.8v-21.2M321.7 122c13.1 0 23.8 10.6 23.8 23.8v31c0 13.1-10.6 23.8-23.8 23.8h-10.1c-13.1 0-23.8-10.6-23.8-23.8v-31c0-13.1 10.6-23.8 23.8-23.8"/><path class="st0" d="M332.2 198.3v18.1c0 8.6-7 15.5-15.5 15.5-8.6 0-15.5-7-15.5-15.5v-18.1M348.8 159.8h-3.3V176h3.3c4.5 0 8.1-3.6 8.1-8.1 0-4.4-3.7-8.1-8.1-8.1zM284.5 159.8h3.3V176h-3.3c-4.5 0-8.1-3.6-8.1-8.1 0-4.4 3.6-8.1 8.1-8.1z"/><path class="st0" d="M287.9 275.3h97.4v-32.5c0-17-13.8-30.7-30.7-30.7h-22.5M300.6 211.5h-22.2c-8.5 0-16.2 3.4-21.7 9M352.5 274.8v-21.2M65.5 229.4c-2 4.2-3.2 8.9-3.2 13.9v32h88M105.9 211.2H94.4c-9.8 0-18.7 4.4-24.6 11.4M172.8 222.6c-5.9-7-14.7-11.4-24.6-11.4H137M83.7 275.3v-21.1M82 187v26.7"/><path class="st0" d="M160.6 213.7v-64.3c0-19.3-15.6-34.9-34.9-34.9h-8.9c-19.3 0-34.9 15.6-34.9 34.9v28.1M287.9 149.3c.7.1 1.4.1 2.1.1 5.4 0 10.1-2 12.5-4.9 1.3 4.4 7.1 7.7 14.1 7.7s12.8-3.3 14.1-7.7c2.4 2.9 7.1 4.9 12.5 4.9.8 0 1.5 0 2.2-.1"/><g><path class="st1" d="M330.9 111.3C304.6 77.9 263.8 56.4 218 56.4c-41.9 0-79.6 18-105.9 46.6M107.5 291.6c26.3 31.7 66 51.9 110.5 51.9 44.4 0 84.1-20.2 110.5-51.9"/></g><path class="st2" d="M345.5 149.3c-.7.1-1.5.1-2.2.1-5.4 0-10.1-2-12.5-4.9-1.3 4.4-7.1 7.7-14.1 7.7s-12.7-3.3-14.1-7.7c-2.4 2.9-7.1 4.9-12.5 4.9-.7 0-1.4 0-2.1-.1v-3.9c0-12.9 10.5-23.4 23.4-23.4h10.8c12.9 0 23.4 10.5 23.4 23.4v3.9zM257.2 221.5h-23v4.4c0 8.6-7 15.5-15.5 15.5-8.6 0-15.5-7-15.5-15.5v-4.4h-22.7c-16.7 0-30.2 13.5-30.2 30.2v33h137.2v-33c0-16.6-13.6-30.2-30.3-30.2zM82 213.7v-64.3c0-19.3 15.6-34.9 34.9-34.9h8.9c19.3 0 34.9 15.6 34.9 34.9v64.3c-2.9-1.2-6.3-2.1-10.4-2.5H137v-13.9c8.1-3.7 13.3-11.8 13.3-20.7v-20.9h-14.5c-8 0-14.4-6.4-14.4-14.4 0 8-6.4 14.4-14.4 14.4H92.6v20.9c0 8.9 5.2 17 13.3 20.7v13.9H94.4c-4.8.1-8.9 1-12.4 2.5z"/></svg>