<svg id="Layer_1" xmlns="http://www.w3.org/2000/svg" viewBox="0 0 1728 1072"><style>.st0{fill:#1d016a}.st1{fill:none;stroke:#ff5c00;stroke-width:1.0101;stroke-miterlimit:10}.st2{fill:#605396}.st5{fill:#f4f4f4}.st6{fill:#ff5c00}.st7{fill:none;stroke:#1d016a;stroke-width:1.0101;stroke-miterlimit:10}.st8{fill:#f98158}.st12,.st13{fill:none;stroke:#1d016a;stroke-width:2.9825;stroke-miterlimit:10}.st13{stroke:#ff5c00}.st14{enable-background:new}.st15{opacity:.2}.st16,.st19{fill:none;stroke:#1d016a;stroke-width:5;stroke-linecap:round;stroke-linejoin:round;stroke-miterlimit:10}.st19{stroke:#fff}.st20{opacity:.2;fill:#fff;enable-background:new}.st21,.st22{fill:#fff;stroke:#fff;stroke-width:5;stroke-linecap:round;stroke-linejoin:round;stroke-miterlimit:10}.st22{opacity:.2;fill:none;enable-background:new}.st23{fill:#fff}</style><path class="st0" d="M2006.2 387l-85.5 6.2c-2 .1-3.6-1.4-3.6-3.4v-85.5c0-1.8 1.4-3.2 3.1-3.4l85.5-6.2c2-.1 3.6 1.4 3.6 3.4v85.5c0 1.8-1.4 3.3-3.1 3.4z"/><path class="st1" d="M2010.9 382.6l-85.5 6.2c-2 .1-3.6-1.4-3.6-3.4V300c0-1.8 1.4-3.2 3.1-3.4l85.5-6.2c2-.1 3.6 1.4 3.6 3.4v85.5c0 1.7-1.3 3.2-3.1 3.3z"/><path class="st2" d="M1893.9 395.2l-47.5 3.5c-1.1.1-2-.8-2-1.9v-47.4c0-1 .8-1.8 1.7-1.9l47.5-3.5c1.1-.1 2 .8 2 1.9v47.4c.1 1.1-.7 1.9-1.7 1.9z"/><path class="st1" d="M1897.2 392.1l-47.5 3.5c-1.1.1-2-.8-2-1.9v-47.4c0-1 .8-1.8 1.7-1.9l47.5-3.5c1.1-.1 2 .8 2 1.9v47.4c.1 1.1-.7 1.9-1.7 1.9z"/><path d="M2081.5 381.3l-47.5 3.5c-1.1.1-2-.8-2-1.9v-47.4c0-1 .8-1.8 1.7-1.9l47.5-3.5c1.1-.1 2 .8 2 1.9v47.4c0 1-.7 1.8-1.7 1.9z" fill="#55468f"/><path class="st1" d="M2084.8 378.2l-47.5 3.5c-1.1.1-2-.8-2-1.9v-47.4c0-1 .8-1.8 1.7-1.9l47.5-3.5c1.1-.1 2 .8 2 1.9v47.4c0 1-.7 1.8-1.7 1.9z"/><path d="M2347.6 519.7l-85.5 6.2c-2 .1-3.6-1.4-3.6-3.4V437c0-1.8 1.4-3.2 3.1-3.4l85.5-6.2c2-.1 3.6 1.4 3.6 3.4v85.5c0 1.8-1.4 3.3-3.1 3.4z" fill="#303537"/><path class="st1" d="M2352.3 515.4l-85.5 6.2c-2 .1-3.6-1.4-3.6-3.4v-85.5c0-1.8 1.4-3.2 3.1-3.4l85.5-6.2c2-.1 3.6 1.4 3.6 3.4V512c0 1.8-1.3 3.2-3.1 3.4z"/><path class="st5" d="M2274.4 410.7l-85.5 6.2c-2 .1-3.6-1.4-3.6-3.4V328c0-1.8 1.4-3.2 3.1-3.4l85.5-6.2c2-.1 3.6 1.4 3.6 3.4v85.5c0 1.8-1.4 3.3-3.1 3.4z"/><path class="st1" d="M2279.1 406.3l-85.5 6.2c-2 .1-3.6-1.4-3.6-3.4v-85.5c0-1.8 1.4-3.2 3.1-3.4l85.5-6.2c2-.1 3.6 1.4 3.6 3.4V403c0 1.7-1.4 3.2-3.1 3.3z"/><path class="st6" d="M2005.8 523.7l-85.5 6.2c-2 .1-3.6-1.4-3.6-3.4V441c0-1.8 1.4-3.2 3.1-3.4l85.5-6.2c2-.1 3.6 1.4 3.6 3.4v85.5c0 1.8-1.3 3.2-3.1 3.4z"/><path class="st7" d="M2010.5 519.3l-85.5 6.2c-2 .1-3.6-1.4-3.6-3.4v-85.5c0-1.8 1.4-3.2 3.1-3.4l85.5-6.2c2-.1 3.6 1.4 3.6 3.4v85.5c0 1.8-1.3 3.3-3.1 3.4z"/><path class="st8" d="M1893.6 531.9l-47.5 3.5c-1.1.1-2-.8-2-1.9v-47.4c0-1 .8-1.8 1.7-1.9l47.5-3.5c1.1-.1 2 .8 2 1.9V530c0 1-.8 1.8-1.7 1.9z"/><path class="st7" d="M1896.8 528.8l-47.5 3.5c-1.1.1-2-.8-2-1.9V483c0-1 .8-1.8 1.7-1.9l47.5-3.5c1.1-.1 2 .8 2 1.9v47.4c.1 1-.7 1.8-1.7 1.9z"/><path d="M2081.1 518l-47.5 3.5c-1.1.1-2-.8-2-1.9v-47.4c0-1 .8-1.8 1.7-1.9l47.5-3.5c1.1-.1 2 .8 2 1.9v47.4c0 1-.7 1.8-1.7 1.9z" fill="#fa7c4e"/><path class="st7" d="M2084.4 514.9l-47.5 3.5c-1.1.1-2-.8-2-1.9V469c0-1 .8-1.8 1.7-1.9l47.5-3.5c1.1-.1 2 .8 2 1.9V513c0 1-.7 1.8-1.7 1.9z"/><path class="st0" d="M114.4 280.3l-6.6-17.3h2l6 15.7h-.7l5.9-15.6 1.9-.1-6.6 17.3h-1.9zM130.8 280.7c-2 0-3.5-.6-4.5-1.8-1-1.2-1.5-2.9-1.5-5 0-2.2.5-3.9 1.5-5s2.5-1.7 4.4-1.7c1.4 0 2.5.3 3.4.8.9.6 1.5 1.3 1.9 2.4s.6 2.2.6 3.5c0 2.1-.5 3.8-1.5 5-1 1.2-2.4 1.8-4.3 1.8zm-.1-1.7c1.1 0 1.9-.2 2.5-.7s1-1.1 1.3-1.8c.2-.8.4-1.6.4-2.6s-.1-1.9-.4-2.7-.7-1.3-1.3-1.7-1.4-.6-2.4-.6-1.8.2-2.4.7c-.6.4-1 1-1.3 1.8s-.4 1.6-.4 2.5c0 1.5.3 2.7.9 3.7.6.9 1.6 1.4 3.1 1.4zM145.6 280.5c-.7 0-1.4-.1-2.1-.3-.7-.2-1.4-.5-2-1s-1.1-1.2-1.4-2c-.4-.9-.5-2-.5-3.4s.2-2.5.5-3.4c.4-.9.8-1.5 1.4-2 .6-.5 1.3-.8 2-1s1.4-.3 2.1-.3c.7 0 1.3.1 2 .2.6.1 1.3.3 1.9.5v1.8c-.6-.2-1.2-.4-1.8-.5s-1.2-.2-1.9-.2c-1.5 0-2.7.4-3.4 1.2-.7.8-1 2-1 3.7s.3 3 1 3.7c.7.8 1.8 1.2 3.4 1.2.6 0 1.3-.1 1.9-.2s1.2-.3 1.8-.5v1.8c-.6.2-1.2.4-1.9.5s-1.3.2-2 .2zM158.3 280.7c-1.2 0-2.3-.3-3.2-.8s-1.6-1.3-2.1-2.3-.7-2.3-.7-3.8c0-2.2.5-3.9 1.5-5s2.4-1.7 4.2-1.7c1.4 0 2.5.3 3.3.9s1.4 1.5 1.8 2.5.5 2.2.5 3.6h-10.4l.1-1.7h9l-.7.3c-.1-1.3-.4-2.3-1-2.9s-1.5-1-2.7-1c-.8 0-1.5.2-2.1.5s-1 .9-1.3 1.6c-.3.8-.4 1.8-.4 3.2 0 1.6.4 2.8 1.1 3.6.7.8 1.8 1.2 3.1 1.2.6 0 1.2 0 1.8-.1.5-.1 1-.2 1.5-.4l1.2-.6v1.9c-.6.3-1.3.5-2.1.7s-1.5.3-2.4.3zm-3-15l2.1-3.1h1.6l2.1 3.1h-1.2l-1.7-1.8-1.7 1.8h-1.2zM85 311.7c-1.2 0-2.3-.3-3.2-.8-.9-.5-1.6-1.3-2.1-2.3s-.7-2.3-.7-3.8c0-2.2.5-3.9 1.5-5s2.4-1.7 4.2-1.7c1.4 0 2.5.3 3.3.9s1.4 1.5 1.8 2.5.5 2.2.5 3.6H80l.1-1.7h9l-.7.3c-.1-1.3-.4-2.3-1-2.9s-1.5-1-2.7-1c-.8 0-1.5.2-2.1.5s-1 .9-1.3 1.6c-.3.8-.4 1.8-.4 3.2 0 1.6.4 2.8 1.1 3.6.7.8 1.8 1.2 3.1 1.2.6 0 1.2 0 1.8-.1.5-.1 1-.2 1.5-.4l1.2-.6v1.9c-.6.3-1.3.5-2.1.7s-1.6.3-2.5.3zM97.5 311.7c-.9 0-1.7-.1-2.3-.3-.6-.2-1.3-.5-2-.8v-2c.5.3 1 .5 1.4.8s.8.4 1.3.5c.4.1.9.1 1.5.1.9 0 1.6-.2 2.1-.6s.8-.9.8-1.5c0-.5-.1-.9-.4-1.1-.3-.3-.6-.5-1-.6-.4-.2-.8-.4-1.3-.5s-1-.3-1.5-.5-1-.4-1.4-.6c-.4-.3-.8-.6-1-1-.3-.4-.4-1-.4-1.6 0-.7.1-1.2.4-1.7s.6-.8 1-1.2.9-.5 1.4-.7c.5-.1 1.1-.2 1.6-.2.8 0 1.4.1 2 .3s1.1.4 1.7.7v1.9c-.7-.3-1.2-.6-1.8-.8s-1.1-.3-1.8-.3-1.3.1-1.9.4-.8.7-.8 1.3c0 .5.1.9.4 1.2s.7.5 1.1.7c.5.2 1 .3 1.5.5.4.1.9.3 1.3.5.5.2.9.4 1.3.6s.7.6 1 1c.2.4.4 1 .4 1.7 0 .9-.2 1.7-.7 2.3-.5.6-1.1 1-1.8 1.3-.6.1-1.4.2-2.1.2zM109.7 311.6c-.9 0-1.7-.3-2.3-.8-.6-.6-.9-1.4-.9-2.5v-8.1h-2.3v-1.7h2.3v-3.6h1.9v3.6h3.3v1.7h-3.3v7.5c0 .7.1 1.3.3 1.6.2.4.7.5 1.4.5.3 0 .6 0 .9-.1s.5-.1.7-.2v1.8c-.2.1-.5.2-.9.2s-.8.1-1.1.1zM119.5 311.7c-.6 0-1.1-.1-1.7-.2s-1.1-.3-1.6-.6-.9-.7-1.2-1.2c-.3-.5-.5-1.2-.5-1.9 0-1.1.2-1.9.6-2.6.4-.6 1-1.1 1.7-1.4s1.5-.4 2.5-.4c.7 0 1.3 0 1.8.1s1 .2 1.4.4c.4.2.8.3 1.1.6l.4 1.7c-.4-.3-1-.5-1.7-.8s-1.6-.3-2.5-.3c-1.1 0-1.9.2-2.5.6s-.9 1-.9 1.8c0 .6.2 1.1.5 1.5.4.4.8.6 1.3.8s1.1.2 1.7.2c1.1 0 2-.1 2.5-.2.6-.2.9-.5.9-1.1v-5.9c0-1-.3-1.7-.9-2.2s-1.4-.7-2.5-.7c-.7 0-1.4.1-2.2.3-.8.2-1.4.5-2 .9v-1.9c.5-.3 1.3-.6 2.1-.8.9-.2 1.8-.3 2.6-.3.6 0 1.1.1 1.6.2s.9.3 1.3.5.7.5 1 .8.5.7.6 1.2.2.9.2 1.5v6.3c0 .9-.3 1.6-.8 2s-1.3.7-2.1.9c-.8.2-1.7.2-2.7.2zm.3-14.9l1.5-3h1.9l-2.1 3h-1.3zM141.3 311.7c-.6 0-1.1-.1-1.7-.2-.6-.1-1.1-.3-1.6-.6s-.9-.7-1.2-1.2-.5-1.2-.5-1.9c0-1.1.2-1.9.6-2.6.4-.6 1-1.1 1.7-1.4s1.5-.4 2.5-.4c.7 0 1.3 0 1.8.1s1 .2 1.4.4c.4.2.8.3 1.1.6l.4 1.7c-.4-.3-1-.5-1.7-.8s-1.6-.3-2.5-.3c-1.1 0-1.9.2-2.5.6s-.9 1-.9 1.8c0 .6.2 1.1.5 1.5.4.4.8.6 1.3.8s1.1.2 1.7.2c1.1 0 2-.1 2.5-.2.6-.2.9-.5.9-1.1v-5.9c0-1-.3-1.7-.9-2.2s-1.4-.7-2.5-.7c-.7 0-1.4.1-2.2.3-.8.2-1.4.5-2 .9v-1.9c.5-.3 1.3-.6 2.1-.8.9-.2 1.8-.3 2.6-.3.6 0 1.1.1 1.6.2s.9.3 1.3.5.7.5 1 .8.5.7.6 1.2.2.9.2 1.5v6.3c0 .9-.3 1.6-.8 2s-1.3.7-2.1.9c-.7.2-1.7.2-2.7.2zM157.1 298.2c.8 0 1.5.1 2.3.3.7.2 1.3.5 1.7.9s.7 1.1.7 1.9V317h-1.9v-7l.6.6c-.3.2-.7.3-1.2.5s-.9.3-1.4.4-.9.2-1.3.2c-2 0-3.5-.6-4.6-1.8s-1.6-2.8-1.6-4.7c0-1.5.2-2.7.6-3.6.4-.9.9-1.6 1.6-2.1s1.4-.8 2.1-1 1.7-.3 2.4-.3zm-.1 1.7c-1.2 0-2.2.2-2.8.7s-1.1 1.1-1.3 2c-.2.8-.3 1.7-.3 2.6s.2 1.8.5 2.5.8 1.3 1.4 1.7c.6.4 1.4.6 2.3.6.6 0 1.1-.1 1.6-.2s1.1-.4 1.6-.7v-7.8c0-.3-.2-.6-.5-.8-.3-.2-.7-.3-1.2-.4-.5-.1-.9-.2-1.3-.2zM171.4 311.7c-1.1 0-2.1-.2-2.9-.6-.8-.4-1.4-1-1.9-1.7-.4-.8-.6-1.7-.6-2.8v-8.2h1.9v7.8c0 1.3.3 2.3.9 2.9.6.6 1.5.9 2.7.9s2.1-.3 2.7-.9c.6-.6.9-1.6.9-2.9v-7.8h1.9v8.2c0 1.6-.5 2.9-1.4 3.8-1.2.9-2.5 1.3-4.2 1.3zM180.9 296.1v-2h2.1v2h-2.1zm.1 15.2v-12.9h1.9v12.9H181zM188.9 311.3v-2.1h2.1v2.1h-2.1zm.3-4.3l-.2-12.9h1.9l-.2 12.9h-1.5z"/><g><ellipse cx="136.1" cy="210.6" rx="60.3" ry="19.5" fill="#dddfe3"/><path d="M136.1 54.2c-33.3 0-60.3 27-60.3 60.3 0 37.7 37.7 78 53.5 93.3 3.8 3.7 9.9 3.7 13.7 0 15.8-15.2 53.5-55.6 53.5-93.3 0-33.3-27-60.3-60.4-60.3zm0 95.1c-19.9 0-36.1-16.1-36.1-36.1 0-19.9 16.1-36.1 36.1-36.1s36.1 16.1 36.1 36.1c0 19.9-16.1 36.1-36.1 36.1z" fill="#ea682b"/></g><g><path class="st12" d="M561.1 153.1l356.6-30.8v570.9"/><path class="st12" d="M560.3 134.1l366.1-31.7c2.7-.2 5.3.7 7.2 2.5 2 1.8 3.1 4.3 3.1 7v579.9"/><path class="st12" d="M829 471.9l57.8-5c2.7-.2 5.3.7 7.2 2.5 2 1.8 3.1 4.3 3.1 7v217.8"/><path class="st12" d="M829 491l49.1-4.3v208.9"/><path class="st5" d="M1074.5 965.5l-252.4 18.4c-5.8.4-10.7-4.1-10.7-9.9V721.6c0-5.2 4-9.5 9.2-9.9l252.4-18.4c5.8-.4 10.7 4.1 10.7 9.9v252.4c.1 5.2-4 9.5-9.2 9.9z"/><path class="st13" d="M1088.5 952.5L836 971c-5.8.4-10.7-4.1-10.7-9.9V708.7c0-5.2 4-9.5 9.2-9.9l252.4-18.4c5.8-.4 10.7 4.1 10.7 9.9v252.4c.1 5.1-3.9 9.5-9.1 9.8z"/><path class="st6" d="M805.8 629.2l-252.4 18.4c-5.8.4-10.7-4.1-10.7-9.9V385.3c0-5.2 4-9.5 9.2-9.9L804.4 357c5.8-.4 10.7 4.1 10.7 9.9v252.4c-.1 5.2-4.1 9.5-9.3 9.9z"/><path class="st12" d="M829 486.7v119.6c0 5.2-4 9.5-9.2 9.9l-252.4 18.4c-5.8.4-10.7-4.1-10.7-9.9V372.4c0-5.2 4-9.5 9.2-9.9l252.4-18.4c5.8-.4 10.7 4.1 10.7 9.9v123.4"/><path class="st8" d="M537.1 293l-252.4 18.4c-5.8.4-10.7-4.1-10.7-9.9V49.1c0-5.2 4-9.5 9.2-9.9l252.4-18.4c5.8-.4 10.7 4.1 10.7 9.9V283c0 5.2-4 9.6-9.2 10z"/><path class="st12" d="M560.3 149.8v120.3c0 5.2-4 9.5-9.2 9.9l-252.4 18.4c-5.8.4-10.7-4.1-10.7-9.9V36.2c0-5.2 4-9.5 9.2-9.9L549.6 7.8c5.8-.4 10.7 4.1 10.7 9.9v119.5"/><path class="st0" d="M1343.3 629.2l-252.4 18.4c-5.8.4-10.7-4.1-10.7-9.9V385.3c0-5.2 4-9.5 9.2-9.9l252.4-18.4c5.8-.4 10.7 4.1 10.7 9.9v252.4c0 5.2-4.1 9.5-9.2 9.9z"/><path class="st13" d="M1094.1 503.5V372.4c0-5.2 4-9.5 9.2-9.9l252.4-18.4c5.8-.4 10.7 4.1 10.7 9.9v252.4c0 5.2-4 9.5-9.2 9.9l-252.4 18.4c-5.8.4-10.7-4.1-10.7-9.9v-109"/><path class="st2" d="M1612 293l-252.4 18.4c-5.8.4-10.7-4.1-10.7-9.9V49.1c0-5.2 4-9.5 9.2-9.9l252.4-18.4c5.8-.4 10.7 4.1 10.7 9.9V283c0 5.2-4 9.6-9.2 10z"/><path class="st13" d="M1362.8 156.6V36.2c0-5.2 4-9.5 9.2-9.9l252.4-18.4c5.8-.4 10.7 4.1 10.7 9.9v252.4c0 5.2-4 9.5-9.2 9.9l-252.4 18.4c-5.8.4-10.7-4.1-10.7-9.9v-120M1026.1 684.8V513.5c0-5 3.8-9.1 8.8-9.5l59.1-4.3"/><path class="st13" d="M1094.1 518.8l-49 3.6v161"/><path class="st13" d="M1362.8 171.8l-353.5 25.9V686"/><path class="st13" d="M990.3 687.4V188.8c0-5 3.8-9.1 8.8-9.5l363.7-26.5"/><g class="st14"><path class="st0" d="M324.5 368.9v-2.7l3.2-.5v-23.3l-3.2-.6v-2.6H346l.4 6.8h-3.3l-1.4-3.8-7.8-.4v10.6l5.1-.1.6-3.3h3.4v9.6h-3.4l-.6-3.3-5.1-.1v10.7l9.4-.4 2.4-5.2 3.3.8-1.1 7.9h-23.4zM349.8 368.9v-2.7l3.4-.5 3-23.3-3.9-.6v-2.6h12.3l5.2 18.8.7 3.6.6-3.6 4.8-18.8h12.4v2.6l-4.2.6 3.4 23.3 3.4.5v2.7H378v-2.7l3.2-.5-1.8-17.1-.8-7.3-1.2 5.8-5.8 22.1h-4.1l-6.4-20.9-1.8-6.9-.4 7.2-1.6 17.1 3.9.5v2.7h-11.4zM392.4 368.9v-2.7l3.2-.5v-23.3l-3.1-.6v-2.6h7.9c.5 0 1-.1 1.5-.1s1.1-.1 1.7-.1h2.1c2 0 3.7.2 5.1.6 1.4.4 2.5.9 3.3 1.6.8.7 1.5 1.6 1.8 2.7s.6 2.4.6 3.8c0 1.7-.3 3.2-.8 4.5-.6 1.3-1.4 2.4-2.4 3.3-1 .9-2.3 1.5-3.8 2s-3.2.7-5 .7H402.8c-.2 0-.5 0-.7-.1h-.4v7.8l5.5.5v2.7h-14.8zm9.4-13.7c.3.1.7.1 1.1.1h1.7c.7 0 1.4-.1 2.1-.4.7-.3 1.3-.7 1.8-1.3.5-.6.9-1.4 1.2-2.4s.5-2.2.5-3.7c0-4.2-1.8-6.2-5.5-6.2-.7 0-1.3 0-1.7.1s-.8.1-1.2.1v13.7zM419.1 368.9v-2.7l3.2-.5v-23.3l-3.1-.6v-2.6h7.8c.5 0 1-.1 1.5-.1s1-.1 1.6-.1h1.9c2 0 3.7.2 5.1.5 1.4.3 2.5.8 3.3 1.5.9.7 1.5 1.5 1.8 2.4s.6 2.1.6 3.4c0 .8-.1 1.7-.3 2.5-.2.9-.6 1.7-1.1 2.4-.5.8-1.1 1.4-1.8 2s-1.6 1-2.6 1.2c.7.3 1.3.7 1.8 1.4.6.6 1.1 1.3 1.5 2.1.5.8.9 1.6 1.3 2.4.4.8.8 1.6 1.1 2.3s.7 1.3 1 1.8c.3.5.7.8 1 .9l1.6.5v2.7h-7.2c-.3 0-.6-.3-1-.8-.3-.6-.7-1.3-1.1-2.1s-.8-1.8-1.2-2.8l-1.2-3c-.4-1-.9-1.8-1.3-2.6-.5-.8-.9-1.3-1.4-1.6h-3.7v9.8l3.5.5v2.7h-12.6zm9.3-15.6c.1 0 .4.1.6.1H431.6c1.5 0 2.7-.5 3.6-1.6.9-1 1.3-2.7 1.3-4.9 0-.9-.1-1.6-.3-2.3-.2-.7-.5-1.2-1-1.7-.4-.5-1-.8-1.7-1.1s-1.5-.4-2.5-.4h-1.7c-.2 0-.4 0-.5.1s-.3 0-.4.1v11.7zM447.7 368.9v-2.7l3.2-.5v-23.3l-3.2-.6v-2.6h21.5l.4 6.8h-3.3l-1.4-3.8-7.8-.4v10.6l5.1-.1.6-3.3h3.4v9.6h-3.4l-.6-3.3-5.1-.1v10.7l9.4-.4 2.4-5.2 3.3.8-1.1 7.9h-23.4zM484.8 369.3c-1.2 0-2.3-.1-3.3-.3-1-.2-1.9-.4-2.8-.6s-1.5-.4-2.1-.6-1-.3-1.4-.3l.3-7.4h3.5l.9 4.8c.3.4.9.7 1.7 1.1.8.3 1.8.5 2.9.5.9 0 1.7-.1 2.3-.3.6-.2 1.2-.5 1.6-.9.4-.4.7-.8.9-1.3s.3-1.1.3-1.7c0-.7-.1-1.3-.4-1.9-.3-.6-.7-1.1-1.3-1.6-.6-.5-1.2-1-2.1-1.4-.8-.4-1.7-.9-2.7-1.4-.8-.4-1.6-.8-2.5-1.3s-1.7-1.2-2.4-1.9-1.4-1.6-1.9-2.7c-.5-1-.7-2.2-.7-3.5 0-1.1.2-2.1.7-3 .4-1 1.1-1.8 1.9-2.5s1.9-1.3 3.2-1.7c1.3-.4 2.8-.6 4.4-.6.9 0 1.8.1 2.6.2s1.7.3 2.4.4 1.4.3 2 .5 1 .3 1.3.3l-.3 6.7h-3.4l-.8-4.4c-.1-.1-.3-.2-.5-.4-.2-.1-.5-.2-.8-.3-.3-.1-.7-.2-1-.3-.4-.1-.8-.1-1.2-.1-.8 0-1.5.1-2.1.3-.6.2-1 .4-1.4.8-.4.3-.6.7-.8 1.2-.2.4-.3.9-.3 1.5 0 .8.2 1.4.5 2 .3.6.8 1.1 1.4 1.6s1.3 1 2.2 1.4c.8.4 1.7.9 2.7 1.4.9.4 1.7.9 2.6 1.5s1.7 1.2 2.5 1.9 1.3 1.5 1.8 2.4.7 1.9.7 3.1c0 1-.2 2.1-.6 3.1-.4 1.1-1 2-1.9 2.9-.9.9-2 1.6-3.4 2.1s-3.2.7-5.2.7zM496.2 368.9v-2.7l2.5-.5 9.4-26.6h6.3l9.4 26.6 2.7.5v2.7h-12.7v-2.7l3.2-.5-1.5-4.8h-10.6l-1.4 4.8 3.2.5v2.7h-10.5zm13.2-23.6l-3.6 12.6h8.8l-3.8-12.6-.7-2.9-.7 2.9z"/></g><g class="st14"><path class="st0" d="M589.7 705.8v-2.7l3.1-.5v-23.3l-3.2-.6v-2.6h22.2l.4 7.4h-3.9l-1.5-4.4-7.7-.3v10.8l5.2-.1.8-3.2h3.3v9.8H605l-.8-3.4-5.2-.1v10l5.8.5v2.7h-15.1zM612.1 705.8v-2.7l2.5-.5L624 676h6.3l9.4 26.6 2.7.5v2.7h-12.7v-2.7l3.2-.5-1.5-4.8h-10.6l-1.4 4.8 3.2.5v2.7h-10.5zm13.3-23.6l-3.6 12.6h8.8l-3.8-12.6-.7-2.9-.7 2.9z"/><path class="st0" d="M641.3 705.8v-2.7l3.4-.5 3-23.3-3.9-.6v-2.6h12.3l5.2 18.8.7 3.6.6-3.6 4.8-18.8h12.4v2.6l-4.2.6 3.4 23.3 3.4.5v2.7h-12.9v-2.7l3.2-.5-1.8-17.1-.8-7.3-1.2 5.8-5.8 22.1H659l-6.4-20.9-1.8-6.9-.4 7.2-1.6 17.1 3.9.5v2.7h-11.4zM684 705.8v-2.7l3.4-.5v-23.3l-3.4-.6v-2.6h13v2.6l-3.4.6v23.3l3.4.6v2.6h-13zm6-31.3l-2.3-1.7 6.2-6.3 3.8 2.8c-.3.5-.8 1.1-1.5 1.7-.7.6-1.4 1.1-2.2 1.6-.8.5-1.5.9-2.3 1.3-.7.2-1.3.5-1.7.6zM700.4 705.8v-2.7l3.2-.5v-23.3l-3.2-.6v-2.6h13.3v2.6l-3.9.6v23.2l8.2-.4 2.5-7.3 3.8.5-1.2 10.5h-22.7zM726.8 705.8v-2.7l3.4-.5v-23.3l-3.4-.6v-2.6h13v2.6l-3.4.6v23.3l3.4.6v2.6h-13zM740.6 705.8v-2.7l2.5-.5 9.4-26.6h6.3l9.4 26.6 2.7.5v2.7h-12.7v-2.7l3.2-.5-1.5-4.8h-10.6l-1.4 4.8 3.2.5v2.7h-10.5zm13.3-23.6l-3.6 12.6h8.8l-3.8-12.6-.7-2.9-.7 2.9z"/></g><g class="st14"><path class="st0" d="M1455.9 369.3c-1.2 0-2.3-.1-3.3-.3-1-.2-1.9-.4-2.8-.6s-1.5-.4-2.1-.6-1-.3-1.4-.3l.3-7.4h3.5l.9 4.8c.3.4.9.7 1.7 1.1.8.3 1.8.5 2.9.5.9 0 1.7-.1 2.3-.3.6-.2 1.2-.5 1.6-.9.4-.4.7-.8.9-1.3s.3-1.1.3-1.7c0-.7-.2-1.3-.4-1.9-.3-.6-.7-1.1-1.3-1.6-.6-.5-1.2-1-2.1-1.4-.8-.4-1.7-.9-2.7-1.4-.8-.4-1.6-.8-2.5-1.3s-1.7-1.2-2.4-1.9-1.4-1.6-1.9-2.7c-.5-1-.7-2.2-.7-3.5 0-1.1.2-2.1.7-3 .4-1 1.1-1.8 1.9-2.5s1.9-1.3 3.2-1.7c1.3-.4 2.8-.6 4.4-.6.9 0 1.8.1 2.6.2s1.7.3 2.4.4 1.4.3 2 .5 1 .3 1.3.3l-.3 6.7h-3.4l-.8-4.4c-.1-.1-.3-.2-.5-.4-.2-.1-.5-.2-.8-.3-.3-.1-.7-.2-1-.3-.4-.1-.8-.1-1.2-.1-.8 0-1.5.1-2.1.3-.6.2-1 .4-1.4.8-.4.3-.6.7-.8 1.2-.2.4-.3.9-.3 1.5 0 .8.2 1.4.5 2 .3.6.8 1.1 1.4 1.6s1.3 1 2.2 1.4c.8.4 1.7.9 2.7 1.4.9.4 1.7.9 2.6 1.5s1.7 1.2 2.5 1.9 1.3 1.5 1.8 2.4.7 1.9.7 3.1c0 1-.2 2.1-.6 3.1-.4 1.1-1 2-1.9 2.9-.9.9-2 1.6-3.4 2.1s-3.2.7-5.2.7zM1469.9 368.9v-2.7l3.2-.5v-23.3l-3.2-.6v-2.6h21.5l.4 6.8h-3.3l-1.4-3.8-7.8-.4v10.6l5.1-.1.6-3.3h3.4v9.6h-3.4l-.6-3.3-5.1-.1v10.7l9.4-.4 2.4-5.2 3.3.8-1.1 7.9h-23.4zM1496.2 368.9v-2.7l3.6-.5v-23.3l-3.6-.6v-2.6h9.3l12.3 17.4 2.1 4.1v-18.3l-3.8-.6v-2.6h10.9v2.6l-3.5.6v26.5h-4.5l-13-18.7-2.6-5v20.4l4 .5v2.7h-11.2zM1526.4 368.9v-2.7l2.5-.5 9.4-26.6h6.3l9.4 26.6 2.7.5v2.7H1544v-2.7l3.2-.5-1.5-4.8h-10.6l-1.4 4.8 3.2.5v2.7h-10.5zm13.2-23.6l-3.6 12.6h8.8l-3.8-12.6-.7-2.9-.7 2.9zM1570.7 369.3c-2.3 0-4.3-.4-6.1-1.1-1.8-.7-3.2-1.8-4.4-3.1s-2.1-2.9-2.7-4.8-.9-3.9-.9-6.2c0-2.3.4-4.4 1.2-6.3.8-1.9 1.9-3.5 3.2-4.8 1.4-1.3 3-2.4 4.9-3.1s3.9-1.1 6.1-1.1c.9 0 1.8.1 2.7.2.8.1 1.6.2 2.4.4.7.1 1.4.3 2 .4.6.1 1.1.2 1.6.3l-.4 7.8h-4l-1.2-5.1c-.1-.2-.3-.3-.5-.5-.2-.1-.4-.3-.7-.4s-.6-.2-1.1-.3c-.4-.1-.9-.1-1.5-.1-1.1 0-2.1.2-3.1.7s-1.7 1.2-2.4 2.2c-.7 1-1.2 2.2-1.6 3.7s-.6 3.2-.6 5.2c0 1.7.1 3.4.4 5 .3 1.6.8 3 1.4 4.2.6 1.2 1.4 2.2 2.4 2.9 1 .7 2.1 1.1 3.4 1.1.7 0 1.2 0 1.7-.1s.9-.2 1.2-.3c.3-.1.6-.3.8-.4.2-.2.4-.3.6-.5l1.8-4.3 3.4.2-.5 6.6c-.6 0-1.1.1-1.7.3-.6.2-1.2.3-1.9.5s-1.5.3-2.5.5c-.9.3-2.1.3-3.4.3z"/></g><g class="st14"><path class="st0" d="M1151.7 705.8v-2.7l3.2-.5v-23.3l-3.2-.6v-2.6h21.5l.4 6.8h-3.3l-1.4-3.8-7.8-.4v10.6l5.1-.1.6-3.3h3.4v9.6h-3.4l-.6-3.3-5.1-.1v10.7l9.4-.4 2.4-5.2 3.3.8-1.1 7.9h-23.4zM1188.9 706.3c-1.2 0-2.3-.1-3.3-.3s-1.9-.4-2.8-.6-1.5-.4-2.1-.6-1-.3-1.4-.3l.3-7.4h3.5l.9 4.8c.3.4.9.7 1.7 1.1s1.8.5 2.9.5c.9 0 1.7-.1 2.3-.3s1.2-.5 1.6-.9.7-.8.9-1.3.3-1.1.3-1.7c0-.7-.1-1.3-.4-1.9s-.7-1.1-1.3-1.6-1.2-1-2.1-1.4-1.7-.9-2.7-1.4c-.8-.4-1.6-.8-2.5-1.3s-1.7-1.2-2.4-1.9-1.4-1.6-1.9-2.7-.7-2.2-.7-3.5c0-1.1.2-2.1.7-3s1.1-1.8 1.9-2.5 1.9-1.3 3.2-1.7 2.8-.6 4.4-.6c.9 0 1.8.1 2.6.2s1.7.3 2.4.4 1.4.3 2 .5 1 .3 1.3.3l-.3 6.7h-3.4l-.8-4.4c-.1-.1-.3-.2-.5-.4s-.5-.2-.8-.3-.7-.2-1-.3-.8-.1-1.2-.1c-.8 0-1.5.1-2.1.3s-1 .4-1.4.8-.6.7-.8 1.2-.3.9-.3 1.5c0 .8.2 1.4.5 2s.8 1.1 1.4 1.6 1.3 1 2.2 1.4 1.7.9 2.7 1.4c.9.4 1.7.9 2.6 1.5s1.7 1.2 2.5 1.9 1.3 1.5 1.8 2.4.7 1.9.7 3.1c0 1-.2 2.1-.6 3.1s-1 2-1.9 2.9-2 1.6-3.4 2.1-3.2.7-5.2.7zM1216.4 706.3c-2.3 0-4.3-.4-6.1-1.1s-3.2-1.8-4.4-3.1-2.1-2.9-2.7-4.8-.9-3.9-.9-6.2c0-2.3.4-4.4 1.2-6.3s1.9-3.5 3.2-4.8 3-2.4 4.9-3.1 3.9-1.1 6.1-1.1c.9 0 1.8.1 2.7.2s1.6.2 2.4.4 1.4.3 2 .4 1.1.2 1.6.3l-.4 7.8h-4l-1.2-5.1c-.1-.2-.3-.3-.5-.5s-.4-.3-.7-.4-.6-.2-1.1-.3-.9-.1-1.5-.1c-1.1 0-2.1.2-3.1.7s-1.7 1.2-2.4 2.2-1.2 2.2-1.6 3.7-.6 3.2-.6 5.2c0 1.7.1 3.4.4 5s.8 3 1.4 4.2 1.4 2.2 2.4 2.9 2.1 1.1 3.4 1.1c.7 0 1.2 0 1.7-.1s.9-.2 1.2-.3.6-.3.8-.4.4-.3.6-.5l1.8-4.3 3.4.2-.5 6.6c-.6 0-1.1.1-1.7.3s-1.2.3-1.9.5-1.5.3-2.5.5-2.1.3-3.4.3zM1242.2 706.3c-2.3 0-4.2-.3-5.9-1s-3.1-1.7-4.2-3-1.9-2.9-2.5-4.7-.8-3.9-.8-6.2c0-2.4.3-4.5 1-6.4s1.6-3.6 2.8-4.9 2.7-2.4 4.4-3.1 3.6-1.1 5.7-1.1c2.3 0 4.3.3 5.9 1s3 1.7 4.1 3 1.9 2.9 2.4 4.7.8 3.9.8 6.2c0 2.4-.3 4.5-1 6.4s-1.6 3.5-2.8 4.9-2.6 2.4-4.3 3.1-3.6 1.1-5.6 1.1zm.2-27.9c-1 0-2 .3-2.8.8s-1.6 1.3-2.1 2.4-1 2.4-1.4 4-.5 3.5-.5 5.7.2 4 .5 5.6.8 2.8 1.3 3.8 1.3 1.7 2.1 2.2 1.8.7 2.8.7c1 0 2-.3 2.8-.8s1.5-1.3 2.1-2.4 1-2.4 1.4-4 .5-3.5.5-5.7c0-2.1-.2-4-.5-5.6s-.8-2.8-1.3-3.8-1.3-1.7-2.1-2.2-1.7-.7-2.8-.7zM1258.7 705.8v-2.7l3.2-.5v-23.3l-3.2-.6v-2.6h13.3v2.6l-3.9.6v23.2l8.2-.4 2.5-7.3 3.8.5-1.2 10.5h-22.7zM1282.4 705.8v-2.7l2.5-.5 9.4-26.6h6.3l9.4 26.6 2.7.5v2.7H1300v-2.7l3.2-.5-1.5-4.8h-10.6l-1.4 4.8 3.2.5v2.7h-10.5zm13.2-23.6l-3.6 12.6h8.8l-3.8-12.6-.7-2.9-.7 2.9z"/></g><g class="st14"><path class="st0" d="M1132.7 753.8v-2.7l3.2-.5v-23.3l-3.1-.6v-2.6h7.8c.5 0 1-.1 1.5-.1s1-.1 1.6-.1h1.9c2 0 3.7.2 5.1.5s2.5.8 3.3 1.5 1.5 1.5 1.8 2.4.6 2.1.6 3.4c0 .8-.1 1.7-.3 2.5s-.6 1.7-1.1 2.4-1.1 1.4-1.8 2-1.6 1-2.6 1.2c.7.3 1.3.7 1.8 1.4s1.1 1.3 1.5 2.1.9 1.6 1.3 2.4.8 1.6 1.1 2.3.7 1.3 1 1.8.7.8 1 .9l1.6.5v2.7h-7.2c-.3 0-.6-.3-1-.8s-.7-1.3-1.1-2.1-.8-1.8-1.2-2.8l-1.2-3c-.4-1-.9-1.8-1.3-2.6s-.9-1.3-1.4-1.6h-3.7v9.8l3.5.5v2.7h-12.6zm9.3-15.6c.1 0 .4.1.6.1H1145.2c1.5 0 2.7-.5 3.6-1.6s1.3-2.7 1.3-4.9c0-.9-.1-1.6-.3-2.3s-.5-1.2-1-1.7-1-.8-1.7-1.1-1.5-.4-2.5-.4h-1.7c-.2 0-.4 0-.5.1s-.3 0-.4.1v11.7zM1161.3 753.8v-2.7l3.2-.5v-23.3l-3.2-.6v-2.6h21.5l.4 6.8h-3.3l-1.4-3.8-7.8-.4v10.6l5.1-.1.6-3.3h3.4v9.6h-3.4l-.6-3.3-5.1-.1v10.7l9.4-.4 2.4-5.2 3.3.8-1.1 7.9h-23.4zM1202.6 754.3c-2.3 0-4.4-.4-6.2-1.1s-3.3-1.8-4.5-3.1-2.2-2.9-2.8-4.7-1-3.8-1-6c0-2.4.4-4.6 1.2-6.6s1.9-3.6 3.3-4.9 3.1-2.4 5-3.1 4-1.1 6.3-1.1c1.1 0 2.1 0 3.2.1s2 .2 2.9.4 1.7.3 2.4.4 1.2.3 1.6.3l-.4 7.5h-4.2l-1.2-4.9c-.1-.1-.3-.3-.5-.4s-.5-.3-.8-.4-.8-.2-1.3-.3-1.1-.1-1.9-.1c-1.3 0-2.4.2-3.5.7s-1.9 1.2-2.7 2.2-1.3 2.2-1.7 3.7-.6 3.3-.6 5.3c0 1.7.2 3.4.5 5s.8 3 1.5 4.2 1.5 2.2 2.5 2.9 2.2 1.1 3.6 1.1c1.1 0 2.1-.1 2.9-.4s1.5-.6 1.9-1v-8l-3.8-.4v-3.2h12.1v3.2l-2.1.4v10.3c-.5 0-1.2.1-2 .4s-1.6.4-2.6.7-2.1.5-3.2.7-2.6.2-3.9.2zM1232.3 754.1c-4.1 0-7.1-1-9.1-3s-3-5.2-3-9.5v-14.3l-2.7-.6v-2.6h12.5v2.6l-3.3.6v15c0 1.5.1 2.9.4 4s.7 2.1 1.2 2.9 1.2 1.3 1.9 1.7 1.6.6 2.5.6c1.2 0 2.2-.2 3.1-.7s1.6-1.1 2.1-1.9 1-1.8 1.2-2.9.4-2.3.4-3.6v-14.9l-3.3-.6v-2.6h10v2.6l-2.7.6v14.8c0 2.1-.3 3.9-.8 5.4s-1.3 2.8-2.3 3.7-2.2 1.7-3.5 2.2-3 .5-4.6.5zM1248.3 753.8v-2.7l3.2-.5v-23.3l-3.2-.6v-2.6h13.3v2.6l-3.9.6v23.2l8.2-.4 2.5-7.3 3.8.5-1.2 10.5h-22.7zM1272 753.8v-2.7l2.5-.5 9.4-26.6h6.3l9.4 26.6 2.7.5v2.7h-12.7v-2.7l3.2-.5-1.5-4.8h-10.6l-1.4 4.8 3.2.5v2.7H1272zm13.3-23.6l-3.6 12.6h8.8l-3.8-12.6-.7-2.9-.7 2.9zM1302.8 753.8v-2.7l3.2-.5v-23.3l-3.1-.6v-2.6h7.8c.5 0 1-.1 1.5-.1s1-.1 1.6-.1h1.9c2 0 3.7.2 5.1.5s2.5.8 3.3 1.5 1.5 1.5 1.8 2.4.6 2.1.6 3.4c0 .8-.1 1.7-.3 2.5s-.6 1.7-1.1 2.4-1.1 1.4-1.8 2-1.6 1-2.6 1.2c.7.3 1.3.7 1.8 1.4s1.1 1.3 1.5 2.1.9 1.6 1.3 2.4.8 1.6 1.1 2.3.7 1.3 1 1.8.7.8 1 .9l1.6.5v2.7h-7.2c-.3 0-.6-.3-1-.8s-.7-1.3-1.1-2.1-.8-1.8-1.2-2.8l-1.2-3c-.4-1-.9-1.8-1.3-2.6s-.9-1.3-1.4-1.6h-3.7v9.8l3.5.5v2.7h-12.6zm9.3-15.6c.1 0 .4.1.6.1H1315.3c1.5 0 2.7-.5 3.6-1.6s1.3-2.7 1.3-4.9c0-.9-.1-1.6-.3-2.3s-.5-1.2-1-1.7-1-.8-1.7-1.1-1.5-.4-2.5-.4h-1.7c-.2 0-.4 0-.5.1s-.3 0-.4.1v11.7z"/></g><g class="st14"><path class="st0" d="M852.5 1041.7v-2.7l2.5-.5 9.4-26.6h6.3l9.4 26.6 2.7.5v2.7h-12.7v-2.7l3.2-.5-1.5-4.8h-10.6l-1.4 4.8 3.2.5v2.7h-10.5zm13.2-23.7l-3.6 12.6h8.8L867 1018l-.7-2.9-.6 2.9zM883.3 1041.7v-2.7l3.2-.5v-23.3l-3.1-.6v-2.6h7.9c.5 0 1-.1 1.5-.1s1.1-.1 1.7-.1h2.1c2 0 3.7.2 5.1.6s2.5.9 3.3 1.6 1.5 1.6 1.8 2.7.6 2.4.6 3.8c0 1.7-.3 3.2-.8 4.5s-1.4 2.4-2.4 3.3-2.3 1.5-3.8 2-3.2.7-5 .7H893.7c-.2 0-.5 0-.7-.1s-.3 0-.4 0v7.8l5.5.5v2.7h-14.8zm9.3-13.7c.3.1.7.1 1.1.1h1.7c.7 0 1.4-.1 2.1-.4s1.3-.7 1.8-1.3.9-1.4 1.2-2.4.5-2.2.5-3.7c0-4.2-1.8-6.2-5.5-6.2-.7 0-1.3 0-1.7.1s-.8.1-1.2.1v13.7zM909.9 1041.7v-2.7l3.2-.5v-23.3l-3.1-.6v-2.6h7.8c.5 0 1-.1 1.5-.1s1-.1 1.6-.1h1.9c2 0 3.7.2 5.1.5s2.5.8 3.3 1.5 1.5 1.5 1.8 2.4.6 2.1.6 3.4c0 .8-.1 1.7-.3 2.5s-.6 1.7-1.1 2.4-1.1 1.4-1.8 2-1.6 1-2.6 1.2c.7.3 1.3.7 1.8 1.4s1.1 1.3 1.5 2.1.9 1.6 1.3 2.4.8 1.6 1.1 2.3.7 1.3 1 1.8.7.8 1 .9l1.6.5v2.7h-7.2c-.3 0-.6-.3-1-.8s-.7-1.3-1.1-2.1-.8-1.8-1.2-2.8l-1.2-3c-.4-1-.9-1.8-1.3-2.6s-.9-1.3-1.4-1.6H919v9.8l3.5.5v2.7h-12.6zm9.3-15.7c.1 0 .4.1.6.1H922.4c1.5 0 2.7-.5 3.6-1.6s1.3-2.7 1.3-4.9c0-.9-.1-1.6-.3-2.3s-.5-1.2-1-1.7-1-.8-1.7-1.1-1.5-.4-2.5-.4h-1.7c-.2 0-.4 0-.5.1s-.3 0-.4.1v11.7zM938.5 1041.7v-2.7l3.2-.5v-23.3l-3.2-.6v-2.6H960l.4 6.8h-3.3l-1.4-3.8-7.8-.4v10.6l5.1-.1.6-3.3h3.4v9.6h-3.4l-.6-3.3-5.1-.1v10.7l9.4-.4 2.4-5.2 3.3.8-1.1 7.9h-23.4zM964.9 1041.7v-2.7l3.6-.5v-23.3l-3.6-.6v-2.6h9.3l12.3 17.4 2.1 4.1v-18.3l-3.8-.6v-2.6h10.9v2.6l-3.5.6v26.5h-4.5l-13-18.7-2.6-5v20.4l4 .5v2.7h-11.2zM997.7 1041.7v-2.7l3.2-.5v-23.3l-3.1-.6v-2.6h8.1c.6 0 1.2-.1 1.7-.1s1.2-.1 1.8-.1h2.2c2.5 0 4.6.3 6.4.9s3.3 1.5 4.4 2.7 2 2.7 2.6 4.4.8 3.7.8 5.9c0 2.4-.4 4.7-1.1 6.7s-1.7 3.7-3 5.2-2.9 2.5-4.7 3.3-3.9 1.1-6.1 1.1c-.5 0-1 0-1.6-.1s-1.2-.1-1.8-.1-1.2-.1-1.8-.1h-8zm9.4-27.1v24.3c.5.2 1.1.3 1.7.3h2c1.2 0 2.4-.3 3.4-.8s1.9-1.3 2.7-2.3 1.3-2.3 1.7-3.9.6-3.4.6-5.4c0-2-.2-3.7-.5-5.3s-.9-2.8-1.7-3.9-1.7-1.9-2.8-2.4-2.5-.8-4.1-.8c-.7 0-1.4 0-1.9.1s-.8 0-1.1.1zM1028.8 1041.7v-2.7l3.4-.5v-23.3l-3.4-.6v-2.6h13v2.6l-3.4.6v23.3l3.4.6v2.6h-13zM1045.9 1041.7l-1.3-2.3 14.9-22.3 2.2-2.6-9.8.5-2.2 5.4-3.4-.5 1-8h20.5l1.1 2.3-14.6 22.3-2.5 2.5 11.6-.8 2.4-6 3.3.7-1.1 8.8h-22.1z"/></g><g class="st15"><path class="st0" d="M906.7 750.3c-17.6 0-31.9 14.3-31.9 31.9V798c5.1-2.8 10-6 14.5-9.8 2.5 10.1 17.3 15 49.3 12.5v-18.5c0-17.6-14.3-31.9-31.9-31.9z"/></g><path class="st16" d="M918.5 835.1V849c0 6.5-5.3 11.8-11.8 11.8-6.5 0-11.8-5.3-11.8-11.8v-13.8M935.5 800.9v10.4c0 5-1.6 9.7-4.2 13.6"/><path class="st16" d="M925 831.1c-3.8 2.6-8.4 4.1-13.3 4.1h-10.1c-13.1 0-23.8-10.6-23.8-23.8v-15.5M938.8 799.3c-1.8 0-3.3 1.5-3.3 3.3v12.9h3.3c4.5 0 8.1-3.6 8.1-8.1s-3.6-8.1-8.1-8.1z"/><path class="st16" d="M874.6 799.3h3.3v16.2h-3.3c-4.5 0-8.1-3.6-8.1-8.1-.1-4.5 3.6-8.1 8.1-8.1z"/><g><path d="M906.7 750.3c-17.6 0-31.9 14.3-31.9 31.9V798c5.1-2.8 10-6 14.5-9.8 2.5 10.1 17.3 15 49.3 12.5v-18.5c0-17.6-14.3-31.9-31.9-31.9z" fill="none" stroke="#1d016a" stroke-width="5.536" stroke-linecap="round" stroke-linejoin="round" stroke-miterlimit="10"/></g><path class="st16" d="M935.2 853.7l-16.7-5.8v1c0 6.5-5.3 11.8-11.8 11.8-6.5 0-11.8-5.3-11.8-11.8v-1l-15.8 5.6c-12.2 4.3-20.3 15.9-20.3 28.8V901c32.4 7 64.7 7 97.1 0v-18.4c-.1-13-8.3-24.6-20.7-28.9z"/><g><path class="st16" d="M879.7 904.2v-22M934.9 904.2v-22"/></g><g><path class="st16" d="M1027 833.5v13.8c0 6.5-5.3 11.8-11.8 11.8-6.5 0-11.8-5.3-11.8-11.8v-13.8M1039.7 823.3c2.7-3.8 4.2-8.5 4.2-13.6v-24h-10.7l-6.1-13.4-6.5 13.4h-34.4v24c0 13.1 10.6 23.8 23.8 23.8h10.1c4.9 0 9.5-1.5 13.3-4.1"/><path class="st16" d="M1043.7 852.1l-16.7-5.8v1c0 6.5-5.3 11.8-11.8 11.8-6.5 0-11.8-5.3-11.8-11.8v-1l-15.8 5.6c-12.2 4.3-20.3 15.9-20.3 28.8v18.7c32.4 7 64.7 7 97.1 0V881c-.1-13.1-8.4-24.7-20.7-28.9zM988.1 902.5v-21.9M1043.3 902.5v-21.9"/><path class="st16" d="M1050.9 856.1l7.5-62c3.1-25.9-17.1-48.8-43.3-48.8-26.1 0-46.4 22.9-43.3 48.8l7.5 62"/><path d="M979.3 856.1l-7.5-62c-3.1-25.9 17.1-48.8 43.3-48.8 26.1 0 46.4 22.9 43.3 48.8l-7.5 62-5.7-3.4-18.3-6.3v-13.8c11.8-4 16.3-12.3 17-22.8v-24h-10.7l-6.3-13-6.3 13h-34.4v23.1c-.1 11.3 6.2 20 17 23.7v14.8l-17 5.1-6.9 3.6z" opacity=".2" fill="#1d016a"/></g><g><path class="st19" d="M743.7 431.9c11 0 19.9 8.9 19.9 19.9v25.9c0 11-8.9 19.9-19.9 19.9h-8.5c-11 0-19.9-8.9-19.9-19.9v-25.9c0-11 8.9-19.9 19.9-19.9"/><path class="st19" d="M752.4 495.6v15.1c0 7.2-5.8 13-13 13s-13-5.8-13-13v-15.1M766.3 463.5h-2.8V477h2.8c3.7 0 6.8-3 6.8-6.8 0-3.7-3.1-6.7-6.8-6.7zM712.6 463.5h2.8V477h-2.8c-3.7 0-6.8-3-6.8-6.8 0-3.7 3.1-6.7 6.8-6.7z"/><path class="st19" d="M715.5 559.9h81.4v-27.2c0-14.2-11.5-25.7-25.7-25.7h-18.8M726.1 506.6h-14.2M769.4 559.5v-17.7M715.5 454.6c.6.1 1.2.1 1.8.1 4.5 0 8.4-1.7 10.5-4.1 1.1 3.7 5.9 6.4 11.7 6.4s10.7-2.8 11.7-6.4c2 2.4 6 4.1 10.5 4.1.6 0 1.3 0 1.9-.1"/><path class="st20" d="M763.5 454.6c-.6.1-1.2.1-1.9.1-4.5 0-8.4-1.7-10.5-4.1-1.1 3.7-5.9 6.4-11.7 6.4s-10.7-2.8-11.7-6.4c-2 2.4-6 4.1-10.5 4.1-.6 0-1.2 0-1.8-.1v-3.2c0-10.8 8.7-19.5 19.5-19.5h9c10.8 0 19.5 8.7 19.5 19.5v3.2h.1z"/><g><path class="st19" d="M598.6 460h11.9c5.7 0 10.5-3.9 11.8-9.1.1-.4.7-.4.8 0 1.4 5.3 6.2 9.1 11.8 9.1h11.9v17c0 11-8.9 19.9-19.9 19.9h-8.5c-11 0-19.9-8.9-19.9-19.9v-17h.1z"/><path class="st19" d="M635.6 495.5v15.1c0 7.2-5.8 13-13 13s-13-5.8-13-13v-15.1M575.9 521.6c-1.7 3.5-2.7 7.5-2.7 11.7V560h83.5"/><path class="st19" d="M609.7 506.4h-9.6c-8.2 0-15.6 3.7-20.5 9.5M657.6 509.5c-3.7-2-8-3.1-12.5-3.1h-9.4M591.1 559.9v-17.6M589.7 486.1v22.4"/><path class="st19" d="M655.4 508.5v-53.8c0-16.1-13-29.1-29.1-29.1h-7.4c-16.1 0-29.1 13-29.1 29.1v23.5"/><path class="st20" d="M589.7 508.5v-53.8c0-16.1 13-29.1 29.1-29.1h7.4c16.1 0 29.1 13 29.1 29.1v53.8c-2.4-1-5.3-1.8-8.7-2.1h-11.1v-11.6c6.8-3.1 11.1-9.9 11.1-17.3V460h-12.1c-6.6 0-12-5.4-12-12 0 6.6-5.4 12-12 12h-12v17.5c0 7.5 4.3 14.2 11.1 17.3v11.6H600c-3.9.1-7.4.8-10.3 2.1z"/></g><g><path class="st19" d="M692.1 538.8v8.6c0 4.1-3.3 7.4-7.4 7.4-4.1 0-7.4-3.3-7.4-7.4v-8.6M700 532.4c1.7-2.4 2.6-5.3 2.6-8.5V509H696l-3.8-8.4-4 8.4h-21.5v15c0 8.2 6.6 14.8 14.8 14.8h6.3c3.1 0 5.9-.9 8.3-2.5"/><path class="st19" d="M702.5 550.4l-10.4-3.6v.6c0 4.1-3.3 7.4-7.4 7.4-4.1 0-7.4-3.3-7.4-7.4v-.6l-9.8 3.5c-7.6 2.7-12.6 9.9-12.6 17.9v11.6c20.2 4.4 40.3 4.4 60.5 0v-11.5c0-8-5.2-15.3-12.9-17.9zM667.9 581.8v-13.7M702.3 581.8v-13.7"/><path class="st19" d="M707 552.9l4.7-38.6c2-16.2-10.7-30.4-27-30.4s-28.9 14.2-27 30.4l4.7 38.6"/><path class="st20" d="M662.4 552.9l-4.7-38.6c-2-16.2 10.7-30.4 27-30.4s28.9 14.2 27 30.4l-4.7 38.6-3.5-2.1-11.4-3.9v-8.6c7.3-2.5 10.2-7.6 10.6-14.2V509H696l-3.9-8.1-3.9 8.1h-21.5v14.4c-.1 7.1 3.9 12.5 10.6 14.7v9.2l-10.6 3.2-4.3 2.4z"/></g></g><g><path class="st19" d="M468.8 171v16.9c0 3.6-1.1 7-3 9.7M461.3 202c-2.7 1.8-6 2.9-9.5 2.9h-7.3c-9.4 0-17-7.6-17-17V171M357.7 166h10.2c4.9 0 9-3.3 10.2-7.8.1-.4.6-.4.7 0 1.2 4.5 5.3 7.8 10.2 7.8h10v14.6c0 9.4-7.6 17-17 17h-7.3c-9.4 0-17-7.6-17-17V166z"/><path class="st19" d="M459.3 203.3v13c0 6.1-5 11.1-11.1 11.1s-11.1-5-11.1-11.1v-13M389.5 196.4v13c0 6.1-5 11.1-11.1 11.1s-11.1-5-11.1-11.1v-13M471.2 175.7h-2.4v11.6h2.4c3.2 0 5.8-2.6 5.8-5.8 0-3.2-2.6-5.8-5.8-5.8zM425.1 175.7h2.4v11.6h-2.4c-3.2 0-5.8-2.6-5.8-5.8 0-3.2 2.6-5.8 5.8-5.8z"/><path class="st19" d="M497.4 238.5v-3.4c0-12.2-9.9-22-22-22h-16.1M437 213.1h-16c-12.2 0-22 9.9-22 22v23.3h98.3v-11.8M422.2 258.5v-15.2M474.1 258.5v-15.2M338.2 218.8c-1.5 3-2.3 6.4-2.3 10v22.9H399M367.2 205.8H359c-7.1 0-13.4 3.2-17.6 8.2"/><path class="st19" d="M415.2 213.9c-4.2-5-10.5-8.2-17.6-8.2h-8.1M351.3 251.7v-15.2M350.1 188.4v19.1"/><path class="st19" d="M406.5 207.5v-46.1c0-13.8-11.2-25-25-25h-6.4c-13.8 0-25 11.2-25 25v20.1"/><path class="st20" d="M475.7 213.1h-16.5v3.1c0 6.1-5 11.1-11.1 11.1s-11.1-5-11.1-11.1v-3.1h-16.3c-12 0-21.7 9.7-21.7 21.7v23.7h98.3v-23.7c.1-12-9.6-21.7-21.6-21.7zM350.1 207.5v-46.1c0-13.8 11.2-25 25-25h6.4c13.8 0 25 11.2 25 25v46.1c-2.1-.9-4.5-1.5-7.4-1.8h-9.5v-10c5.8-2.7 9.5-8.5 9.5-14.9v-15h-10.4c-5.7 0-10.3-4.6-10.3-10.3 0 5.7-4.6 10.3-10.3 10.3h-10.3v15c0 6.4 3.7 12.2 9.5 14.9v10H359c-3.5.1-6.4.7-8.9 1.8z"/><g><path class="st19" d="M370.1 242.2l1.4-.3c1.2-.2 2-1.4 1.7-2.6l-2.3-11.8c-.9-4.5-5.3-7.5-9.8-6.6-4.5.9-7.5 5.3-6.6 9.8l2.3 11.8c.2 1.2 1.4 2 2.6 1.7l1.4-.3M360.9 245l-.4-2M370.3 243.2l-.4-2"/></g><path class="st19" d="M361.1 221c-3.3-11.8-3.3-17.1 5.7-17.7M391.6 230.1c5.4-12.8 6.9-26.2-2.1-26.8"/><circle class="st19" cx="389.5" cy="234.4" r="4.6"/><path class="st19" d="M438.6 142.3c-8 2.9-13.7 10.5-13.7 19.5v9.3h46.5v-9.3c0-9.1-5.9-16.9-14.2-19.6M418.1 171h60.2M448.2 227.4v31.1M457.3 242.2h8.1"/><path class="st19" d="M457.4 138.1h-19.1l2.1 32.9H456z"/><g><path class="st19" d="M449.5 126.1V58.5H321.8v167.3h6.4"/><g class="st15"><path class="st21" d="M340.9 85.4h36.3V98h-36.3zM394.1 85.4h36.3V98h-36.3z"/></g><g class="st15"><path class="st21" d="M340.9 109.5h36.3v12.6h-36.3zM394.1 109.5h36.3v12.6h-36.3z"/></g><g class="st15"><path class="st21" d="M355.3 146.2h-14.4v-12.6h36.3v2.8M394.1 139.9v-6.3h36.3v12.6h-28.2"/></g><g class="st15"><path class="st21" d="M340.9 157.7h9.2v12.6h-9.2zM406.5 157.7H425v12.6h-18.5z"/></g><g class="st15"><path class="st21" d="M350.1 194.4h-9.2v-12.6h9.2M428.8 194.4h-22.3v-12.6h12.8"/></g></g><path class="st19" d="M461.3 112.2h58.6v139.5h-14.2"/><path class="st22" d="M457.4 138.1h48.3v4h-48.3zM471.4 154.6h34.3v4h-34.3zM468.8 171h36.9v4h-36.9zM468.8 187.5h36.9v4h-36.9zM459.3 203.9h46.4v4h-46.4zM491.9 220.4h13.8v4h-10.9z"/></g><g><path class="st23" d="M1555.3 107.8c-10-6.9-22-12.3-35.2-15.5-3.3-.8-6.5-1.5-9.9-2h-.4c-4.8 3.6-9.3 7.5-13.3 11.7 4.4-.6 8.9-1.1 13.6-1.2 16.1-.7 31.4 1.9 45.2 7zM1492.4 140c6.3-4.6 13.1-8.8 20.5-12.3 18.2-8.6 37.3-12.2 55.3-11.4-15.5-6.8-33.3-10.5-52.1-9.8-9.3.3-18.2 1.7-26.7 3.9-4.2 5.7-7.7 11.8-10.4 18.2 4.1 4.1 8.6 7.9 13.4 11.4zM1473.1 157.9c4.9-5.8 10.6-11.2 16.9-16.1-4.3-3.1-8.4-6.5-12.2-10-3 8.3-4.6 17-4.7 26.1zM1477.8 124.3c2.1-4.3 4.4-8.5 6.9-12.5-5.3 1.6-10.5 3.6-15.4 5.9 2.3 3 4.8 5.8 7.5 8.6.3-.6.6-1.3 1-2zM1583.1 195.6h-.7c-9.3 0-16-5.9-16-14.1v-.2c0-7.8 6.7-13.9 15.3-13.9h1.3V158h-1.2c-16.8 0-29.5 10.1-29.5 23.5v.2c0 13.1 12.9 23.3 29.3 23.3h1.4l.1-9.4zM1413.1 175.9c-9.9-2.1-11.3-3.1-11.3-6.3v-.1c0-2.3 2.5-4.2 7.4-4.2 2.5 0 5.7.7 7.9 1.5v-10c-2.1-.4-5.3-.8-7.8-.8-11.7 0-20.1 5.7-20.1 14.4v.1c0 9.5 7.5 12.1 19 14.6 9.6 2 10.5 3.4 10.5 6.1v.1c0 2.8-3.1 4.5-8.3 4.5-6.6 0-10.9-2.2-16.1-5.8l-7.5 7.4c6.9 5.1 14.6 7.6 23.3 7.6 12.4 0 21.1-5.3 21.1-14.8v-.1c.1-8.2-6.4-11.7-18.1-14.2"/><path class="st23" d="M1442 180.1c1-5 4.4-8.3 9.6-8.3 5.3 0 8.6 3.4 9.3 8.3H1442zm9.6-17.2c-12.9 0-21.9 9.2-21.9 20.4v.1c0 12 9.8 20.2 23.1 20.2.4 0 1.6 0 2-.1v-8.9c-.3 0-1.5.1-1.8.1-5.6 0-9.6-2.6-10.8-7.7h30.5c.1-1 .2-1.7.2-2.8v-.1c0-11.1-6.5-21.2-21.3-21.2"/><path class="st23" d="M1512.7 182.2c0-10.6-6.5-18.8-20.2-18.8s-20.2 8.3-20.2 18.8v20.7h12.7v-21.5c.2-3.9 1.8-8.5 7.5-8.5s7.4 4.6 7.6 8.5v21.5h12.6v-20.7z"/><path class="st23" d="M1533.3 163.1h-3v9.5c2.4 0 5.8.4 7.3 1.2 2.2 1.2 3.3 3.1 3.4 5.7-3-.3-6.4-.6-9.3-.7-12-.3-17.9 3.7-19.1 10 0 .1 0 .2-.1.4v.1c-.1.6-.1 1.2-.1 1.9v.1c0 7.7 6.9 12 15.2 12 6.1 0 10.3-2 13.4-5v4.5h12.1v-23c-.1-10.4-6.1-16.7-19.8-16.7zm7.7 25.9c-1.1 5.7-7 6.6-8.3 6.6-9.5.5-9.9-6-6.7-8 4.3-2.7 15-1.2 15-1.2 0 .4.1 1.4 0 2.6z"/></g><g><path class="st19" d="M1231.9 425.4c-2.2 1.5-4.9 2.4-7.8 2.4h-6c-7.7 0-14-6.2-14-14v-18.2c0-7.7 6.2-14 14-14h6c7.7 0 14 6.2 14 14v18.2c0 3-.9 5.7-2.5 8"/><path class="st19" d="M1204.2 403.3c2.7-1.5 5.3-3.2 7.7-5.2 1.3 5.4 9.2 8 26.2 6.6M1230.2 426.5v10.6c0 5-4.1 9.1-9.1 9.1s-9.1-4.1-9.1-9.1v-10.6"/><path class="st19" d="M1240 403.9h-1.9v9.5h1.9c2.6 0 4.8-2.1 4.8-4.8-.1-2.6-2.2-4.7-4.8-4.7zM1202.2 403.9h1.9v9.5h-1.9c-2.6 0-4.8-2.1-4.8-4.8.1-2.6 2.2-4.7 4.8-4.7zM1261.4 455.4v-2.8c0-10-8.1-18-18-18h-13.2M1211.9 434.5h-13c-10 0-18 8.1-18 18v19.1h80.6V462"/><g><path class="st19" d="M1199.9 471.7v-12.4M1242.4 471.7v-12.4"/></g><path class="st20" d="M1243.6 434.5h-13.5v2.6c0 5-4.1 9.1-9.1 9.1s-9.1-4.1-9.1-9.1v-2.6h-13.3c-9.8 0-17.7 7.9-17.7 17.7v19.4h80.6v-19.4c-.1-9.7-8.1-17.7-17.9-17.7z"/></g><g><path class="st19" d="M1160.4 563.7c-2.2 1.5-4.9 2.4-7.8 2.4h-6c-7.7 0-14-6.2-14-14v-18.2c0-7.7 6.2-14 14-14h6c7.7 0 14 6.2 14 14v18.2c0 3-.9 5.7-2.5 8"/><path class="st19" d="M1132.7 541.6c2.7-1.5 5.3-3.2 7.7-5.2 1.3 5.4 9.2 8 26.2 6.6M1158.8 564.7v10.6c0 5-4.1 9.1-9.1 9.1s-9.1-4.1-9.1-9.1v-10.6"/><path class="st19" d="M1168.5 542.2h-1.9v9.5h1.9c2.6 0 4.8-2.1 4.8-4.8 0-2.6-2.1-4.7-4.8-4.7zM1130.8 542.2h1.9v9.5h-1.9c-2.6 0-4.8-2.1-4.8-4.8 0-2.6 2.2-4.7 4.8-4.7zM1189.9 593.6v-2.8c0-10-8.1-18-18-18h-13.2M1140.5 572.8h-13c-10 0-18 8.1-18 18V610h80.6v-9.7"/><g><path class="st19" d="M1128.4 610v-12.5M1170.9 610v-12.5"/></g><path class="st20" d="M1172.2 572.8h-13.5v2.6c0 5-4.1 9.1-9.1 9.1s-9.1-4.1-9.1-9.1v-2.6h-13.3c-9.8 0-17.7 7.9-17.7 17.7V610h80.6v-19.4c-.2-9.8-8.1-17.8-17.9-17.8z"/></g><g><path class="st19" d="M1311.9 553.5c-2.2 1.5-4.9 2.4-7.8 2.4h-6c-7.7 0-14-6.2-14-14v-18.2c0-7.7 6.2-14 14-14h6c7.7 0 14 6.2 14 14V542c0 3-.9 5.7-2.5 8"/><path class="st19" d="M1284.2 531.4c2.7-1.5 5.3-3.2 7.7-5.2 1.3 5.4 9.2 8 26.2 6.6M1310.2 554.6v10.6c0 5-4.1 9.1-9.1 9.1s-9.1-4.1-9.1-9.1v-10.6"/><path class="st19" d="M1320 532h-1.9v9.5h1.9c2.6 0 4.8-2.1 4.8-4.8 0-2.6-2.2-4.7-4.8-4.7zM1282.3 532h1.9v9.5h-1.9c-2.6 0-4.8-2.1-4.8-4.8 0-2.6 2.1-4.7 4.8-4.7zM1341.4 583.5v-2.8c0-10-8.1-18-18-18h-13.2M1291.9 562.6h-13c-10 0-18 8.1-18 18v19.1h80.6V590"/><g><path class="st19" d="M1279.9 599.8v-12.4M1322.4 599.8v-12.4"/></g><path class="st20" d="M1323.7 562.6h-13.5v2.6c0 5-4.1 9.1-9.1 9.1s-9.1-4.1-9.1-9.1v-2.6h-13.3c-9.8 0-17.7 7.9-17.7 17.7v19.4h80.6v-19.4c-.2-9.7-8.1-17.7-17.9-17.7z"/></g><circle class="st19" cx="1221.1" cy="526.2" r="28.7"/><path class="st19" d="M1221.1 471.7v25.8M1200.8 546.5l-25.6 25.6M1241.4 546.5l20.8 20.8M1205.1 526.2l11.3 11.4 20.8-20.8"/></g></svg>