<svg id="Layer_1" xmlns="http://www.w3.org/2000/svg" xmlns:xlink="http://www.w3.org/1999/xlink" viewBox="0 0 1072 1072"><style>.st0{fill:#f4f4f4}.st1{fill:#1d016a}.st2{fill:none;stroke:#ff5c00;stroke-width:1.0101;stroke-miterlimit:10}.st4{fill:#55468f}.st6{fill:#ff5c00}.st7{fill:none;stroke:#1d016a;stroke-width:1.0101;stroke-miterlimit:10}.st12{fill:#838fbc}.st13{fill:#dddfe3}.st14{fill:#a5b6d0}.st15{fill:#e88159}.st16{fill:#313537}.st17{fill:#4f5459}.st19{fill:#52488a}.st21{fill:#e78762}.st22{fill:#a6b7d1}.st25{fill:#fff}</style><path class="st0" d="M0 0h1072v887.2H0z"/><path class="st1" d="M1678.2 387l-85.5 6.2c-2 .1-3.6-1.4-3.6-3.4v-85.5c0-1.8 1.4-3.2 3.1-3.4l85.5-6.2c2-.1 3.6 1.4 3.6 3.4v85.5c0 1.8-1.4 3.3-3.1 3.4z"/><path class="st2" d="M1682.9 382.6l-85.5 6.2c-2 .1-3.6-1.4-3.6-3.4V300c0-1.8 1.4-3.2 3.1-3.4l85.5-6.2c2-.1 3.6 1.4 3.6 3.4v85.5c0 1.7-1.3 3.2-3.1 3.3z"/><path d="M1565.9 395.2l-47.5 3.5c-1.1.1-2-.8-2-1.9v-47.4c0-1 .8-1.8 1.7-1.9l47.5-3.5c1.1-.1 2 .8 2 1.9v47.4c.1 1.1-.7 1.9-1.7 1.9z" fill="#605396"/><path class="st2" d="M1569.2 392.1l-47.5 3.5c-1.1.1-2-.8-2-1.9v-47.4c0-1 .8-1.8 1.7-1.9l47.5-3.5c1.1-.1 2 .8 2 1.9v47.4c.1 1.1-.7 1.9-1.7 1.9z"/><path class="st4" d="M1753.5 381.3l-47.5 3.5c-1.1.1-2-.8-2-1.9v-47.4c0-1 .8-1.8 1.7-1.9l47.5-3.5c1.1-.1 2 .8 2 1.9v47.4c0 1-.7 1.8-1.7 1.9z"/><path class="st2" d="M1756.8 378.2l-47.5 3.5c-1.1.1-2-.8-2-1.9v-47.4c0-1 .8-1.8 1.7-1.9l47.5-3.5c1.1-.1 2 .8 2 1.9v47.4c0 1-.7 1.8-1.7 1.9z"/><path d="M2019.6 519.7l-85.5 6.2c-2 .1-3.6-1.4-3.6-3.4V437c0-1.8 1.4-3.2 3.1-3.4l85.5-6.2c2-.1 3.6 1.4 3.6 3.4v85.5c0 1.8-1.4 3.3-3.1 3.4z" fill="#303537"/><path class="st2" d="M2024.3 515.4l-85.5 6.2c-2 .1-3.6-1.4-3.6-3.4v-85.5c0-1.8 1.4-3.2 3.1-3.4l85.5-6.2c2-.1 3.6 1.4 3.6 3.4V512c0 1.8-1.3 3.2-3.1 3.4z"/><path class="st0" d="M1946.4 410.7l-85.5 6.2c-2 .1-3.6-1.4-3.6-3.4V328c0-1.8 1.4-3.2 3.1-3.4l85.5-6.2c2-.1 3.6 1.4 3.6 3.4v85.5c0 1.8-1.4 3.3-3.1 3.4z"/><path class="st2" d="M1951.1 406.3l-85.5 6.2c-2 .1-3.6-1.4-3.6-3.4v-85.5c0-1.8 1.4-3.2 3.1-3.4l85.5-6.2c2-.1 3.6 1.4 3.6 3.4V403c0 1.7-1.4 3.2-3.1 3.3z"/><path class="st6" d="M1677.8 523.7l-85.5 6.2c-2 .1-3.6-1.4-3.6-3.4V441c0-1.8 1.4-3.2 3.1-3.4l85.5-6.2c2-.1 3.6 1.4 3.6 3.4v85.5c0 1.8-1.3 3.2-3.1 3.4z"/><path class="st7" d="M1682.5 519.3l-85.5 6.2c-2 .1-3.6-1.4-3.6-3.4v-85.5c0-1.8 1.4-3.2 3.1-3.4l85.5-6.2c2-.1 3.6 1.4 3.6 3.4v85.5c0 1.8-1.3 3.3-3.1 3.4z"/><path d="M1565.6 531.9l-47.5 3.5c-1.1.1-2-.8-2-1.9v-47.4c0-1 .8-1.8 1.7-1.9l47.5-3.5c1.1-.1 2 .8 2 1.9V530c0 1-.8 1.8-1.7 1.9z" fill="#f98158"/><path class="st7" d="M1568.8 528.8l-47.5 3.5c-1.1.1-2-.8-2-1.9V483c0-1 .8-1.8 1.7-1.9l47.5-3.5c1.1-.1 2 .8 2 1.9v47.4c.1 1-.7 1.8-1.7 1.9z"/><path d="M1753.1 518l-47.5 3.5c-1.1.1-2-.8-2-1.9v-47.4c0-1 .8-1.8 1.7-1.9l47.5-3.5c1.1-.1 2 .8 2 1.9v47.4c0 1-.7 1.8-1.7 1.9z" fill="#fa7c4e"/><path class="st7" d="M1756.4 514.9l-47.5 3.5c-1.1.1-2-.8-2-1.9V469c0-1 .8-1.8 1.7-1.9l47.5-3.5c1.1-.1 2 .8 2 1.9V513c0 1-.7 1.8-1.7 1.9z"/><path fill="none" stroke="#514b80" stroke-miterlimit="10" d="M-1425.5 199.1l-73.5-36.8"/><defs><path id="SVGID_1_" d="M0-4.1h1072v891.3H0z"/></defs><clipPath id="SVGID_00000074400930632489758060000013041040383165628600_"><use xlink:href="#SVGID_1_" overflow="visible"/></clipPath><g clip-path="url(#SVGID_00000074400930632489758060000013041040383165628600_)"><path class="st12" d="M749.4 437.4l9.7-47.8h-22.9c-16.3 0-33.5-7.7-43.5-12.6s-26.3-22-32.1-31.5c-4.5-7.5-8.5-18.4-9.9-22.6-.3-1 0-2.1.9-2.6 2.9-1.8 9.4-6.1 14-10.7 3.6-3.6 7.1-9 8.9-11.9.4-.7-.3-1.6-1.1-1.3L645 307.2c-1 .4-2.1-.5-1.8-1.6l5.6-24.1c.2-.7-.4-1.5-1.1-1.5-5.2-.2-22.1 2.3-24-.8-1.1-1.8 2-24.3 3.4-33.8 1.4-9.4 12-46.4 16.6-60.1 2.8-8.4 13.4-21.8 21.2-31 0 0 13.1-14.8 15.7-15.4 2.6-.6 138.9 1.4 150.6 11.7s38.7 34.1 44.9 63.3 12.3 53.8 12 79.9 4.9 44.7 4.6 56.1-.8 46.1 0 57.5 10.7 36.1 10.7 36.1-43.9 3.1-80 4.6c-36.1 1.4-64.1-1.8-64.1-1.8l-9.9-8.9z"/><path class="st13" d="M601.7 616.1c-7.2-9.2-25-35.4-27.3-36.6-1.3-.6-2.5-1.6-3.3-2.3-.6-.6-.8-1.5-.5-2.3 1.2-2.5 4.4-8.5 9.6-14.1 6.9-7.4 26.6-23.5 39.7-32.1s36.5-17.2 48.5-25.2c12-7.9 88-20.4 88-20.4s181.3 3.3 196.3 4.2c15 .9 54.1 14.7 54.1 14.7s34.2 19.6 51.4 31.8 45.5 48.8 45.5 48.8c11.8 22.5 21.8 46.2 25.9 73.5 15.1 109.1 18.3 195.1 0 239.1l-624.9.2c-8.7-68.2 5-150.9 27.4-239.1 0 0 7.2-20.5 11.2-28.5s23.5-48.7 25.5-49 8.5 2.1 8.5 2.1"/><path class="st1" d="M658.4 133.1c-1.4-14.6-.4-45.2 3.7-53.3 2.4-4.7 43.8-13.1 57.8-14.3 34.4-2.9 103.4 1.1 132.3 2.9 28.9 1.7 64.1 7.7 74.2 14.6 10 6.9 8 14.3 9.7 24.3s3.1 29.5 4.3 48.4c1.1 18.9.6 59.6 0 75.9s-2.3 32.1-4.3 42.9c-2 10.9-14.3 35.2-22 50.4S899.8 361 898.9 367c-.9 6-1.4 19.5-1.4 20.9s-1.4 2.6-3.1 2.6-11.5-.6-18.6-2-36.1-.4-48.1-11.8-25.1-42.6-28.9-51.7-11.5-30.2-11.5-30.2 30.3-7.2 33.4-8.9c3.1-1.7-1.1-19-1.1-19l-6.3-11.2s-10.9-4.5-20.6-3.4c-9.9 1.1-14.6 5.2-16.9 6.9s-25.5 0-26.3-.6c-.9-.6-10.6-19.2-10.6-27.8s-3.4-24-7.4-37.5-19.5-26.1-28.1-30.9c-8.6-4.9-29.5-18-29.5-18l-12.7 14.5-2.8-25.8z"/><path class="st12" d="M803.9 301.9l-45.2 6.8c-16 2.4-31-8.7-33.4-24.7l-1.6-10.5c-2.4-16 8.7-31 24.7-33.4l45.2-6.8c18.9-2.8 36.7 10.3 39.5 29.2 2.8 18.8-10.3 36.6-29.2 39.4z"/><path class="st14" d="M674.8 500.5s8.4-9.8 16.2-15.6c7.7-5.7 40.9-36.9 46.7-41.5 5.7-4.6 11.7-6.3 11.7-6.3h162.9s7.7 1.4 10.6 3.4 25.2 20.3 34.4 27.8c9.2 7.4 34.6 33.8 34.6 33.8l-24.2-1.5c-2-.1-4-.2-6-.2H723.8l-49 .1z"/><ellipse class="st1" cx="656.2" cy="224.4" rx="5.9" ry="8.5"/><path class="st1" d="M732.8 389.5l32.7-25.9-6.4 26z"/><path class="st14" d="M575.8 580.4c3.2 1.7 6.3 3.8 9.2 5.9 2.3 2.1 5.5 5.4 7.8 7.7 9.4 9.9 17.7 20.9 24.4 32.7 2.4 4.6 5.4 9.8 6.8 14.9.6 2.6 1.2 5.5 1.7 8.1-.9-1.6-1.7-3.2-2.6-4.8l-1.2-2.4-1.4-2.3c-4.1-9.7-9.8-19.2-16-27.7-4.2-5.7-8.8-11.2-13.8-16.4-2.2-2.2-5.4-5.5-7.6-7.5-2.5-2.8-4.9-5.5-7.3-8.2zM656.2 895.4c-1.2-6.9-2.3-13.8-3.3-20.8-1.1-13.2-4.2-49-5.3-62.7-1.2-13.8-4.2-49.3-5.3-62.7-.1-7-.3-14-.3-21 1.2 6.9 2.2 13.8 3.3 20.8 1.1 13.2 4.2 49 5.3 62.7 1.2 13.8 4.2 49.3 5.3 62.7.2 7 .3 14 .3 21z"/><path class="st15" d="M728.1 487.6l-20-1c-14.3-.7-28.6 2.3-41.4 8.8l-62.1 31.2c-4.7 2.4-7.4 7.5-6.6 12.7l.7 5 11.4-8.8c21.6-14.6 40.2-17.6 56-9.3 8.5 4.4 14.7 12.3 17.4 21.5l22.6 78.2c6.9 12.2 92.7-36.2 85.8-48.4L777 526.2c-6.3-21.9-26-37.5-48.9-38.6zM940.8 576.1l81.7 33.4c10-26.8 21.4-52.1 35-74.8 2.2-3.7 1.2-8.5-2.4-11-20.9-14.2-42.9-25.9-66-35-9.1-3.6-19.5.8-23.2 9.9-12 29.4-21.5 56.2-25.1 77.5z"/><path class="st6" d="M988.4 587.1c-75.6-25.7-144.4-25.3-229.1-1.4-32.5 9.2-57.2 35.4-64.8 68.3-20 87.4-25.5 201-21.4 332 1.1 34.2 23.5 64.1 56 74.8 90.6 30.1 179.2 31.3 265.6-.5 28.7-10.6 49.1-36.3 52.7-66.6 14.1-117.6 16.3-228.8 2.6-331.4-4.4-34.7-28.4-63.9-61.6-75.2z"/><path class="st16" d="M1035.9 676.1l-.3-4.4c-.4-5.9-4.5-10.9-10.2-12.2-48.4-11.5-227.3-12.9-276.8-2-6.4 1.4-10.4 8-8.7 14.3l1.1 4.3c14.4 63.9 13.3 147.6 8.9 235.6 0 3.7 12.2 3.7 12.2 0 2.6-91.7 3.2-178.5-8.9-235.6l-1.1-5.4c45.9-10.2 221.3-10.3 270.7-.4l.6 5.8c6.2 79.5 6.2 158.9 0 238.4 0 4.5 12.5 4.5 12.5 0 3.9-79.5 3.9-159 0-238.4zM695.8 666.3c1.7-7.5 8.8-38.9 19.1-34.9 1 .5 1.5 1.6 1.9 2.4 1.3 3 2.1 6.1 3 9.2 3.1 12.3 4.6 24.9 6.3 37.5 13.1 105.3 12.3 212 10.4 318 0 5.1-.4 10.7-2.8 15.4-4.6 9.6-14.7 16.2-25.2 16.2-10.3.1-20.7-6.3-23.8-16.2 3.6 9.5 13.9 15.2 23.8 14.7 13.8-.6 24.7-12.8 24.9-26.3 1.9-107.1 2.9-214.9-10.3-321.3-2.1-14.9-4-30-7.7-44.5-.3-1.1-.8-2.3-1.4-3.1l-.3-.1c-.1 0-.2-.1-.3-.1-.6 0-1.2-.1-1.7.2-7.4 3.8-13.4 24.7-15.9 32.9z"/><ellipse class="st13" cx="890.4" cy="735.7" rx="59.3" ry="29"/><path class="st4" d="M953.8 952.6c-39.3 15-78.6 15-117.9 0-14.5-5.5-24.3-19.1-25.4-34.6l-7-102.4h182.8l-7 102.4c-1.2 15.4-11.1 29-25.5 34.6z"/><path class="st17" d="M827 626.2l-18-5.8-11.6-17.4 11.7-5.1z"/><path class="st17" d="M794.9 631.5c-8.3 0-14.2-2-18-5.8l32-5.4 18 5.8-32 5.4zM920.5 626.2l18-5.8 11.6-17.4-11.7-5.1z"/><path class="st17" d="M952.6 631.5c8.3 0 14.2-2 18-5.8l-32-5.4-18 5.8 32 5.4z"/><path class="st16" d="M946.6 590.1c-48.8-12.4-97.5-12.4-146.3 0-3.7.9-6.1 4.7-5.2 8.4.4 1.4 1.1 2.9 2.3 4.5 27.6-2.8 55 6.7 81.9 6.5 23.8-.2 57.1-9.3 70.4-6.5 1.2-1.8 1.9-3.4 2.2-5 .7-3.6-1.8-7.1-5.3-7.9z"/><g><path class="st1" d="M987.8 815.8c-61.8 7.6-124.3 7.6-186.1 0-1.4-.2-2.4-1.5-2.3-2.8.3-2.8.7-5.5 1-8.3.2-1.4 1.5-2.4 2.9-2.2a746.2 746.2 0 0 0 182.9 0c1.4-.2 2.7.8 2.9 2.2.3 2.8.7 5.5 1 8.3.2 1.3-.8 2.6-2.3 2.8z"/></g></g><g><defs><path id="SVGID_00000152956789947159111880000000320949538623016602_" d="M0-4.1h1072v891.3H0z"/></defs><clipPath id="SVGID_00000090295663683085842650000015233459863926685317_"><use xlink:href="#SVGID_00000152956789947159111880000000320949538623016602_" overflow="visible"/></clipPath><g clip-path="url(#SVGID_00000090295663683085842650000015233459863926685317_)"><path class="st19" d="M400.8 1010c-1.6 15.9-2.6 31.9-3.2 47.9-.6 15.9-.7 31.9-.3 47.8.2 9 .6 18 1.2 27 0 .6 1 .6 1 0-1-16-1.4-32-1.4-48 0-15.9.5-31.9 1.6-47.8.6-9 1.3-17.9 2.2-26.9 0-.6-1-.6-1.1 0z"/></g></g><g><defs><path id="SVGID_00000183936400650773916840000002025005083274696348_" d="M0-4.1h1072v891.3H0z"/></defs><clipPath id="SVGID_00000018919199905013699980000017156705697371655608_"><use xlink:href="#SVGID_00000183936400650773916840000002025005083274696348_" overflow="visible"/></clipPath><g clip-path="url(#SVGID_00000018919199905013699980000017156705697371655608_)"><path class="st17" d="M-5.7 624.9c-7.2-9.2-25-35.4-27.3-36.6-1.3-.6-2.5-1.6-3.3-2.3-.6-.6-.8-1.5-.5-2.3 1.2-2.5 4.4-8.5 9.6-14.1 6.9-7.4 26.6-23.5 39.7-32.1S49 520.3 61 512.3c12-7.9 88-20.4 88-20.4s181.3 3.3 196.3 4.2c15 .9 54.1 14.7 54.1 14.7s34.2 19.6 51.4 31.8c17.2 12.2 45.5 48.8 45.5 48.8 11.8 22.5 21.8 46.2 25.9 73.5 15.1 109.1 18.3 195.1 0 239.1l-624.9.2c-8.7-68.2 5-150.9 27.4-239.1 0 0 7.2-20.5 11.2-28.5s23.5-48.7 25.5-49 8.5 2.1 8.5 2.1"/><path class="st21" d="M305.5 446.2l-9.7-47.8s4.3-9.5 20.6-9.5c9.6 0 28.3.4 42 .7 10.2.2 19.6-5.3 24.3-14.3 4.1-7.7 8.8-16.4 11.6-21 4.5-7.5 8.5-18.4 9.9-22.6.3-1 0-2.1-.9-2.6-2.9-1.8-9.4-6.1-14-10.7-3.6-3.6-7.1-9-8.9-11.9-.4-.7.3-1.6 1.1-1.3l28.4 10.8c1 .4 2.1-.5 1.8-1.6l.1-23.4c-.2-.7.4-1.5 1.1-1.5 3.1-.1 8.8-2.5 13.1-4.4 2.9-1.3 4.3-4.7 3.1-7.7-3.8-9.3-11.5-28.6-12.5-35.7-1.4-9.4-.7-33.9-5.3-47.6-2.8-8.4-6.6-21.2-14.4-30.4 0 0-19.9-15.4-22.5-16s-138.9 1.4-150.6 11.7-38.7 34.1-44.9 63.3-12.3 53.8-12 79.9-4.9 44.7-4.6 56.1.8 46.1 0 57.5-10.7 36.1-10.7 36.1 43.9 3.1 80 4.6c36.1 1.4 64.1-1.8 64.1-1.8l9.8-8.9z"/><path class="st21" d="M251 310.7l45.2 6.8c16 2.4 31-8.7 33.4-24.7l1.6-10.5c2.4-16-8.7-31-24.7-33.4l-45.2-6.8c-18.9-2.8-36.7 10.3-39.5 29.2-2.8 18.8 10.3 36.6 29.2 39.4z"/><path class="st14" d="M67.4 509.3s8.4-9.8 16.2-15.6c7.7-5.7 40.9-36.9 46.7-41.5 5.7-4.6 11.7-6.3 11.7-6.3h162.9s7.7 1.4 10.6 3.4 25.2 20.3 34.4 27.8c9.2 7.4 34.6 33.8 34.6 33.8l-24.2-1.5c-2-.1-4-.2-6-.2H116.4l-49 .1z"/><ellipse class="st1" cx="398.7" cy="233.2" rx="5.9" ry="8.5"/><path class="st1" d="M322.1 398.3l-32.7-25.9 6.4 26z"/><path class="st16" d="M-31.6 589.2c3.2 1.7 6.3 3.8 9.2 5.9 2.3 2.1 5.5 5.4 7.8 7.7 9.4 9.9 17.7 20.9 24.4 32.7 2.4 4.6 5.4 9.8 6.8 14.9.6 2.6 1.2 5.5 1.7 8.1-.9-1.6-1.7-3.2-2.6-4.8l-1.2-2.4-1.4-2.3c-4.1-9.7-9.8-19.2-16-27.7-4.2-5.7-8.8-11.2-13.8-16.4-2.2-2.2-5.4-5.5-7.6-7.5-2.5-2.8-4.9-5.5-7.3-8.2zM477.1 589.2c1 10.9 2.1 28.5 2.7 39.6.1 9.9.1 29.8 0 39.7-.9 66.1-6.8 132.4-17.3 197.7l-4 19.5c-1.4 6.5-2.9 12.9-4.4 19.4.9-6.6 1.8-13.1 2.8-19.6l2.6-19.7c10.5-65.1 16.4-131.3 17.3-197.2.1-9.8.1-29.8 0-39.6.2-11.1.3-28.8.3-39.8zM48.8 904.2c-1.2-6.9-2.3-13.8-3.3-20.8-1.1-13.2-4.2-49-5.3-62.7-1.2-13.8-4.2-49.3-5.3-62.7-.1-7-.3-14-.3-21 1.2 6.9 2.2 13.8 3.3 20.8 1.1 13.2 4.2 49 5.3 62.7 1.2 13.8 4.2 49.3 5.3 62.7.2 7 .3 14 .3 21z"/><path class="st22" d="M120.7 496.4l-20-1c-14.3-.7-28.6 2.3-41.4 8.8l-62.1 31.2c-4.7 2.4-7.4 7.5-6.6 12.7l.7 5 11.4-8.8c21.6-14.6 40.2-17.6 56-9.3 8.5 4.4 14.7 12.3 17.4 21.5l22.6 78.2c6.9 12.2 92.7-36.2 85.8-48.4L169.6 535c-6.3-21.9-26-37.5-48.9-38.6zM333.4 584.9l81.7 33.4c10-26.8 21.4-52.1 35-74.8 2.2-3.7 1.2-8.5-2.4-11-20.9-14.2-42.9-25.9-66-35-9.1-3.6-19.5.8-23.2 9.9-12 29.4-21.5 56.2-25.1 77.5z"/><path d="M381 595.9c-75.6-25.7-144.4-25.3-229.1-1.4-32.5 9.2-57.2 35.4-64.8 68.3-20 87.4-25.5 201-21.4 332 1.1 34.2 23.5 64.1 56 74.8 90.6 30.1 179.2 31.3 265.6-.5 28.7-10.6 49.1-36.3 52.7-66.6 14.1-117.6 16.3-228.8 2.6-331.4-4.4-34.7-28.4-63.9-61.6-75.2z" fill="#f0f2f6"/><path class="st16" d="M428.5 684.8l-.3-4.4c-.4-5.9-4.5-10.9-10.2-12.2-48.4-11.5-227.3-12.9-276.8-2-6.4 1.4-10.4 8-8.7 14.3l1.1 4.3c14.4 63.9 13.3 147.6 8.9 235.6 0 3.7 12.2 3.7 12.2 0 2.6-91.7 3.2-178.5-8.9-235.6l-1.1-5.4c45.9-10.2 221.3-10.3 270.7-.4l.6 5.8c6.2 79.5 6.2 158.9 0 238.4 0 4.5 12.5 4.5 12.5 0 3.9-79.4 3.9-158.9 0-238.4zM88.4 675.1c1.7-7.5 8.8-38.9 19.1-34.9 1 .5 1.5 1.6 1.9 2.4 1.3 3 2.1 6.1 3 9.2 3.1 12.3 4.6 24.9 6.3 37.5 13.1 105.3 12.3 212 10.4 318 0 5.1-.4 10.7-2.8 15.4-4.6 9.6-14.7 16.2-25.2 16.2-10.3.1-20.7-6.3-23.8-16.2 3.6 9.5 13.9 15.2 23.8 14.7 13.8-.6 24.7-12.8 24.9-26.3 1.9-107.1 2.9-214.9-10.3-321.3-2.1-14.9-4-30-7.7-44.5-.3-1.1-.8-2.3-1.4-3.1l-.3-.1c-.1 0-.2-.1-.3-.1-.6 0-1.2-.1-1.7.2-7.4 3.8-13.4 24.7-15.9 32.9z"/><ellipse class="st22" cx="283" cy="744.5" rx="59.3" ry="29"/><path class="st22" d="M346.4 961.4c-39.3 15-78.6 15-117.9 0-14.5-5.5-24.3-19.1-25.4-34.6l-7-102.4h182.8l-7 102.4c-1.2 15.4-11.1 29-25.5 34.6z"/><path class="st17" d="M219.6 635l-18-5.8-11.6-17.4 11.7-5.1z"/><path class="st17" d="M187.5 640.3c-8.3 0-14.2-2-18-5.8l32-5.4 18 5.8-32 5.4zM313.1 635l18-5.8 11.6-17.4-11.7-5.1z"/><path class="st17" d="M345.2 640.3c8.3 0 14.2-2 18-5.8l-32-5.4-18 5.8 32 5.4z"/><path class="st16" d="M339.2 598.9c-48.8-12.4-97.5-12.4-146.3 0-3.7.9-6.1 4.7-5.2 8.4.4 1.4 1.1 2.9 2.3 4.5 27.6-2.8 55 6.7 81.9 6.5 23.8-.2 57.1-9.3 70.4-6.5 1.2-1.8 1.9-3.4 2.2-5 .7-3.6-1.8-7.1-5.3-7.9z"/><g><path class="st16" d="M380.4 824.6c-61.8 7.6-124.3 7.6-186.1 0-1.4-.2-2.4-1.5-2.3-2.8.3-2.8.7-5.5 1-8.3.2-1.4 1.5-2.4 2.9-2.2a746.2 746.2 0 0 0 182.9 0c1.4-.2 2.7.8 2.9 2.2.3 2.8.7 5.5 1 8.3.2 1.3-.8 2.6-2.3 2.8z"/></g><g><path class="st19" d="M357.5 202.1c1.9-15.9 15.6-29.7 31.6-31.6 3.3-.4 6.7-.4 9.6-1.9 5.5-2.8 7.6-11.9 9.2-17.4 2.1-7.4 3.1-15.1 3.1-22.8-.2-15.1-4.5-30.2-13-42.8-12.7-18.8-33.4-31.3-55.3-37.6s-44.9-6.9-67.7-5.9c-33 1.4-65.9 6.2-97.5 15.6-31.7 9.4-63.2 24.1-77.6 55.6C69 181.5 86.8 264.5 54 331.6c-14.4 29.3-35.1 55.1-52 83-14.9 24.8-25.2 55.5-14.9 82.5 4.2 11 12.1 21 23.1 25.3 11.2 4.4 24.5 2.5 34.9 8.7 14.3 8.5 16.5 27.8 19.8 44.1 7.5 37.5 30 73 63.7 91.2 18.7 10.1 39.9 14.6 61.1 16.8 65.5 6.6 134.3-9.8 185.9-50.8 14.5-11.5 27.9-25.5 33.7-43.1 6.9-20.8 2.1-43.4-.6-65.1-.2-1.3-.3-2.8.6-3.7 1.2-1.2 3.2-.8 4.9-.6 6.5.7 12.4-4.9 13.9-11.2 1.6-6.3-.2-13-2.7-19-15.5-36.8-54.7-57.1-81.9-84.1-28.8-28.6-54.8-62.2-70.4-99.8-6.7-16.2-11.7-34.7-5-50.8 1.2-2.8 2.8-5.6 5.2-7.4 3.7-2.9 8.9-3.3 13.6-3.2 10 .3 19.7 4.4 29.4 4.1 9.1-.3 18.7-2.6 26.5-7.5 15.7-9.9 12.8-22.8 14.7-38.9z"/></g></g></g><path class="st6" d="M1040.6 839.6L18.2 873.3C8 873.7 0 882 0 892.1v160.5c0 10.6 8.8 19.1 19.4 18.8l1022.4-33.7c10.1-.3 18.2-8.6 18.2-18.8V858.4c0-10.6-8.8-19.1-19.4-18.8z"/><path d="M1054.6 828.2L26.4 862c-8.6.3-15.4 7.3-15.4 15.9v166.2c0 9 7.5 16.2 16.4 15.9l1028.1-33.9c8.6-.3 15.4-7.3 15.4-15.9V844.1c.1-9-7.4-16.2-16.3-15.9z" fill="none" stroke="#1d016a" stroke-width="2.169" stroke-miterlimit="10"/><g><path class="st25" d="M314.3 924.6l15.2-.6 21.1 55.8 4.7.7.2 5.6-26.6 1-.2-5.6 6-1.1-3.3-10-20.2.8-2.5 10.3 6.6.5.2 5.6-22.5.9-.3-5.6 4.9-1.1 16.7-57.2zm6.9 14.5l-1.5-5.9-1.1 6-5.9 25.4 16.7-.6-8.2-24.9zM402.1 972.2c-1.8 4-4.5 7.3-8.2 9.8-3.7 2.5-8.2 3.9-13.6 4.1-.9 0-1.9 0-2.9-.1s-1.9-.3-2.4-.5l.5 6.8.3 7.2 7.3.8.2 5.2-25.9 1-.2-5.2 5.1-1.3-2-52.2-5.2-1.3-.3-6.6 15-2.4h.2l2.3 1.7.2 4.6c1.2-1.8 3-3.4 5.3-4.7s4.8-2.1 7.6-2.2c5.4-.2 9.9 1.5 13.4 5.2 3.6 3.7 5.5 9.4 5.8 17.2.1 4.6-.7 8.9-2.5 12.9zm-25.6-26.4c-1.3.6-2.2 1.4-2.8 2.3l1.2 30.9c.4.5 1.1.9 2.1 1.2 1 .3 2.1.4 3.3.4 3.2-.1 5.6-1.7 7.4-4.9 1.8-3.1 2.5-8.1 2.3-14.9-.2-5.5-1.2-9.6-2.8-12.2-1.7-2.6-3.8-3.9-6.5-3.8-1.5 0-2.9.3-4.2 1zM411.8 978.4l5.1-1-1.2-31.7-5-1.3-.3-6.6 13.9-2.4h.3l2.4 1.7.1 2v7h.3c.3-1.3 1.2-2.8 2.5-4.6 1.3-1.8 3.1-3.3 5.2-4.7 2.1-1.4 4.4-2.1 7-2.2 1.5-.1 2.6.1 3.4.5l.6 14.7c-.9-.6-1.9-1.1-3-1.5-1.1-.4-2.4-.5-4-.4-2 .1-3.8.4-5.5 1-1.6.6-2.9 1.3-3.8 2l1 26.1 9.3.5.2 5.5-28.3 1.1-.2-5.7zM456.9 976.6c-3.9-4.2-6-10.1-6.3-17.6-.2-5.1.6-9.6 2.4-13.4 1.8-3.8 4.3-6.7 7.7-8.8 3.4-2.1 7.4-3.2 12.1-3.4 5.9-.2 10.5 1.1 13.7 3.9 3.2 2.9 5 7 5.3 12.5.1 3.6 0 6.5-.4 8.7l-26.4 1c.5 4.8 1.8 8.4 3.9 10.8 2.2 2.4 5.1 3.6 8.8 3.4 2.1-.1 4.3-.5 6.5-1.3 2.3-.8 4.1-1.7 5.4-2.6l2.6 5.1c-1.4 1.7-3.8 3.3-7.3 4.9-3.5 1.6-7 2.5-10.7 2.6-7.6.3-13.4-1.6-17.3-5.8zm21.7-23.2l-.1-3.5c-.1-3.5-.7-6.2-1.8-8.1-1-1.8-2.7-2.7-5-2.6-2.4.1-4.2 1.2-5.4 3.3-1.2 2.1-1.8 5.9-1.7 11.4l14-.5zM502.5 942.3l-5-1.3-.3-6.6 15.3-2.5h.3l2.3 1.7.1 3.1v1.9c1.9-1.9 4.3-3.6 7.3-5s6.1-2.2 9.5-2.3c3.4-.1 6.1.4 8.1 1.5s3.5 3 4.4 5.6c1 2.6 1.6 6.2 1.7 10.8l.9 23.1 4.8.5.2 5.7-23 .9-.2-5.6 4.1-.9-.9-23.1c-.1-2.7-.4-4.8-.8-6.3s-1.1-2.5-2-3.2c-.9-.6-2.2-.9-3.9-.9-2.6.1-5.5 1.4-8.6 4l1.2 30 4.7.6.2 5.6-23.4.9-.2-5.6 4.6-.9-1.4-31.7zM561.7 973.2c-3.5-3.8-5.4-9.5-5.7-17.3-.2-4.7.6-9 2.4-13 1.8-4 4.5-7.2 8.2-9.7 3.7-2.5 8.3-3.8 13.7-4 1.6-.1 3.3.1 5.1.4l-.5-13.4-8.2-.9-.2-5.4 18.6-2.4h.4l2.6 1.9 2.4 61.6 4.4-.2.2 5.4c-4.3 1-7.9 1.6-10.8 1.7-2 .1-3.4-.2-4.3-.8s-1.4-1.8-1.5-3.7l-.1-2.1c-1.3 2-3.2 3.7-5.6 5.1-2.5 1.4-5.1 2.1-7.8 2.2-5.3.1-9.8-1.6-13.3-5.4zm22.3-3.6c1.2-.7 2.1-1.5 2.8-2.4l-1.2-30.6c-.4-.5-1.1-.9-2.2-1.2-1.1-.3-2.2-.4-3.4-.4-3.2.1-5.6 1.7-7.3 4.8s-2.5 8-2.2 14.8c.2 5.6 1.2 9.7 2.8 12.3 1.7 2.6 3.8 3.9 6.5 3.8 1.6 0 3-.4 4.2-1.1zM614.4 937.9l-5.7-1.4-.2-6.3 16.8-2.7h.2l2.7 1.7 1.5 39.9 5.1.6.2 5.6-24.3.9-.2-5.6 5.2-1-1.3-31.7zm-.9-18c-1.4-1.2-2.1-2.9-2.2-4.9-.1-2.4.6-4.3 2-5.9 1.4-1.6 3.4-2.4 5.9-2.5 2.5-.1 4.5.5 5.9 1.7 1.4 1.2 2.1 2.9 2.2 4.9.1 2.4-.6 4.4-2.1 6-1.5 1.6-3.6 2.4-6.3 2.5h-.1c-2.1 0-3.9-.6-5.3-1.8zM649.2 934.2l-2 8.4-6.7.3-.6-14.9 38.1-1.5 2.4 4.8-19.8 30.7-5.8 6.7 16.7-1.6 3.9-10 6.4.5-.7 15.8-39.9 1.5-2.6-5.1 20.6-29.9 6.1-7.2-16.1 1.5zM692.5 967.4c-3.9-4.2-6-10.1-6.3-17.6-.2-5.1.6-9.6 2.4-13.4 1.8-3.8 4.3-6.7 7.7-8.8s7.4-3.2 12.1-3.4c5.9-.2 10.5 1.1 13.7 3.9 3.2 2.9 5 7 5.3 12.5.1 3.6 0 6.5-.4 8.7l-26.4 1c.5 4.8 1.8 8.4 3.9 10.8 2.2 2.4 5.1 3.6 8.8 3.4 2.1-.1 4.2-.5 6.5-1.3s4.1-1.7 5.4-2.6l2.6 5.1c-1.4 1.7-3.8 3.3-7.3 4.9-3.5 1.6-7 2.5-10.7 2.6-7.6.4-13.4-1.6-17.3-5.8zm21.7-23.1l-.1-3.5c-.1-3.5-.7-6.2-1.8-8.1-1-1.8-2.7-2.7-5-2.6-2.4.1-4.2 1.2-5.4 3.3-1.2 2.1-1.8 5.9-1.7 11.4l14-.5zM745.2 964c.4.6 1.4 1.1 2.8 1.6 1.5.5 2.9.6 4.4.6 2.3-.1 4-.7 5.2-1.7 1.2-1 1.7-2.3 1.7-3.9-.1-1.7-.9-3.1-2.5-4.1-1.6-1-4.3-2.3-7.9-3.7l-3.3-1.3c-3.7-1.5-6.5-3.4-8.5-5.6-1.9-2.3-3-5.2-3.1-8.8-.1-2.6.6-4.9 2-7.1 1.4-2.1 3.6-3.8 6.4-5.1 2.8-1.3 6.2-2 10.1-2.2 2.7-.1 5 0 7 .2 2 .3 4 .6 6 1 1.4.3 2.4.5 3.1.6l.4 11.5-7.5.3-2.4-6.4c-.3-.5-1-.9-2.1-1.3s-2.3-.5-3.7-.5c-2.1.1-3.8.6-5 1.6-1.2 1-1.8 2.3-1.7 3.8.1 1.8.8 3.2 2.3 4.2 1.4 1 3.7 2.1 6.9 3.4l1.8.7c4.6 1.7 8.3 3.7 11 5.8 2.7 2.1 4.1 5.1 4.2 9 .2 4.2-1.4 7.7-4.6 10.5-3.2 2.8-8.1 4.3-14.5 4.6-3 .1-5.6 0-8-.4-2.3-.4-4.9-.9-7.7-1.6l-2.8-.7-.4-11.2 8-.3 2.4 6.5z"/></g></svg>