<svg id="Layer_1" xmlns="http://www.w3.org/2000/svg" xmlns:xlink="http://www.w3.org/1999/xlink" viewBox="0 0 1072 1072"><style>.st0{fill:#f4f4f4}.st1{fill:#1d016a}.st2{fill:none;stroke:#ff5c00;stroke-width:1.0101;stroke-miterlimit:10}.st6{fill:#ff5c00}.st7{fill:none;stroke:#1d016a;stroke-width:1.0101;stroke-miterlimit:10}.st12{fill:#fff}.st15{fill:#a5b6d0}.st16{fill:#4f5459}.st18{fill:#313537}.st19{fill:#e78059}</style><path class="st0" d="M0 0h1072v1072H0z"/><path class="st1" d="M1678.2 387l-85.5 6.2c-2 .1-3.6-1.4-3.6-3.4v-85.5c0-1.8 1.4-3.2 3.1-3.4l85.5-6.2c2-.1 3.6 1.4 3.6 3.4v85.5c0 1.8-1.4 3.3-3.1 3.4z"/><path class="st2" d="M1682.9 382.6l-85.5 6.2c-2 .1-3.6-1.4-3.6-3.4V300c0-1.8 1.4-3.2 3.1-3.4l85.5-6.2c2-.1 3.6 1.4 3.6 3.4v85.5c0 1.7-1.3 3.2-3.1 3.3z"/><path d="M1565.9 395.2l-47.5 3.5c-1.1.1-2-.8-2-1.9v-47.4c0-1 .8-1.8 1.7-1.9l47.5-3.5c1.1-.1 2 .8 2 1.9v47.4c.1 1.1-.7 1.9-1.7 1.9z" fill="#605396"/><path class="st2" d="M1569.2 392.1l-47.5 3.5c-1.1.1-2-.8-2-1.9v-47.4c0-1 .8-1.8 1.7-1.9l47.5-3.5c1.1-.1 2 .8 2 1.9v47.4c.1 1.1-.7 1.9-1.7 1.9z"/><path d="M1753.5 381.3l-47.5 3.5c-1.1.1-2-.8-2-1.9v-47.4c0-1 .8-1.8 1.7-1.9l47.5-3.5c1.1-.1 2 .8 2 1.9v47.4c0 1-.7 1.8-1.7 1.9z" fill="#55468f"/><path class="st2" d="M1756.8 378.2l-47.5 3.5c-1.1.1-2-.8-2-1.9v-47.4c0-1 .8-1.8 1.7-1.9l47.5-3.5c1.1-.1 2 .8 2 1.9v47.4c0 1-.7 1.8-1.7 1.9z"/><path d="M2019.6 519.7l-85.5 6.2c-2 .1-3.6-1.4-3.6-3.4V437c0-1.8 1.4-3.2 3.1-3.4l85.5-6.2c2-.1 3.6 1.4 3.6 3.4v85.5c0 1.8-1.4 3.3-3.1 3.4z" fill="#303537"/><path class="st2" d="M2024.3 515.4l-85.5 6.2c-2 .1-3.6-1.4-3.6-3.4v-85.5c0-1.8 1.4-3.2 3.1-3.4l85.5-6.2c2-.1 3.6 1.4 3.6 3.4V512c0 1.8-1.3 3.2-3.1 3.4z"/><path class="st0" d="M1946.4 410.7l-85.5 6.2c-2 .1-3.6-1.4-3.6-3.4V328c0-1.8 1.4-3.2 3.1-3.4l85.5-6.2c2-.1 3.6 1.4 3.6 3.4v85.5c0 1.8-1.4 3.3-3.1 3.4z"/><path class="st2" d="M1951.1 406.3l-85.5 6.2c-2 .1-3.6-1.4-3.6-3.4v-85.5c0-1.8 1.4-3.2 3.1-3.4l85.5-6.2c2-.1 3.6 1.4 3.6 3.4V403c0 1.7-1.4 3.2-3.1 3.3z"/><path class="st6" d="M1677.8 523.7l-85.5 6.2c-2 .1-3.6-1.4-3.6-3.4V441c0-1.8 1.4-3.2 3.1-3.4l85.5-6.2c2-.1 3.6 1.4 3.6 3.4v85.5c0 1.8-1.3 3.2-3.1 3.4z"/><path class="st7" d="M1682.5 519.3l-85.5 6.2c-2 .1-3.6-1.4-3.6-3.4v-85.5c0-1.8 1.4-3.2 3.1-3.4l85.5-6.2c2-.1 3.6 1.4 3.6 3.4v85.5c0 1.8-1.3 3.3-3.1 3.4z"/><path d="M1565.6 531.9l-47.5 3.5c-1.1.1-2-.8-2-1.9v-47.4c0-1 .8-1.8 1.7-1.9l47.5-3.5c1.1-.1 2 .8 2 1.9V530c0 1-.8 1.8-1.7 1.9z" fill="#f98158"/><path class="st7" d="M1568.8 528.8l-47.5 3.5c-1.1.1-2-.8-2-1.9V483c0-1 .8-1.8 1.7-1.9l47.5-3.5c1.1-.1 2 .8 2 1.9v47.4c.1 1-.7 1.8-1.7 1.9z"/><path d="M1753.1 518l-47.5 3.5c-1.1.1-2-.8-2-1.9v-47.4c0-1 .8-1.8 1.7-1.9l47.5-3.5c1.1-.1 2 .8 2 1.9v47.4c0 1-.7 1.8-1.7 1.9z" fill="#fa7c4e"/><path class="st7" d="M1756.4 514.9l-47.5 3.5c-1.1.1-2-.8-2-1.9V469c0-1 .8-1.8 1.7-1.9l47.5-3.5c1.1-.1 2 .8 2 1.9V513c0 1-.7 1.8-1.7 1.9z"/><path class="st6" d="M1040.6 839.6L18.2 873.3C8 873.7 0 882 0 892.1v160.5c0 10.6 8.8 19.1 19.4 18.8l1022.4-33.7c10.1-.3 18.2-8.6 18.2-18.8V858.4c0-10.6-8.8-19.1-19.4-18.8z"/><path d="M1054.6 828.2L26.4 862c-8.6.3-15.4 7.3-15.4 15.9v166.2c0 9 7.5 16.2 16.4 15.9l1028.1-33.9c8.6-.3 15.4-7.3 15.4-15.9V844.1c.1-9-7.4-16.2-16.3-15.9z" fill="none" stroke="#1d016a" stroke-width="2.169" stroke-miterlimit="10"/><path class="st12" d="M388.9 978.5c-4.1.2-7.7-.3-10.7-1.5-3.1-1.2-5.6-2.9-7.7-5.2-2-2.3-3.6-5.1-4.7-8.4-1.1-3.3-1.7-7-1.8-11.2-.1-4.3.3-8.1 1.4-11.6 1.1-3.5 2.7-6.5 4.8-9 2.1-2.5 4.7-4.5 7.7-5.9 3-1.4 6.4-2.2 10.2-2.3 4.1-.1 7.7.4 10.8 1.5 3 1.2 5.6 2.9 7.6 5.2 2 2.3 3.5 5.1 4.6 8.4s1.6 7 1.7 11.1c.1 4.3-.3 8.1-1.4 11.6-1.1 3.5-2.7 6.5-4.8 9-2.1 2.5-4.6 4.5-7.6 5.9-3.1 1.4-6.4 2.2-10.1 2.4zm-1.2-50.4c-1.9.1-3.6.6-5 1.6-1.5 1-2.7 2.5-3.7 4.4-1 2-1.8 4.4-2.2 7.3-.5 2.9-.7 6.3-.5 10.2.1 3.9.5 7.3 1.2 10.1s1.5 5.1 2.7 6.8c1.1 1.8 2.4 3 4 3.8 1.5.8 3.2 1.1 5.2 1.1 1.9-.1 3.6-.6 5-1.6 1.5-1 2.7-2.5 3.7-4.5s1.8-4.4 2.2-7.3.7-6.3.5-10.2c-.1-3.9-.5-7.2-1.2-10s-1.5-5.1-2.6-6.8c-1.1-1.8-2.4-3.1-4-3.9-1.7-.6-3.4-1-5.3-1zM417.5 957c-.1-3.2.3-6.1 1.2-8.8.9-2.7 2.2-5 3.9-6.9 1.7-1.9 3.8-3.5 6.3-4.6 2.5-1.1 5.3-1.7 8.4-1.8 1.6 0 3 0 4.3.1 1.3.1 2.5.3 3.5.5s1.9.4 2.7.6c.8.2 1.4.4 1.9.5v12l-6.2.2-2.2-6.1c-.5-1-1.2-1.7-2-2.3-.8-.5-1.7-.8-2.8-.8-1.1 0-2.1.3-3 .9-.9.6-1.8 1.4-2.5 2.6-.7 1.2-1.3 2.7-1.6 4.5-.4 1.8-.5 4-.5 6.6.1 2.9.4 5.4.9 7.4s1.2 3.6 2.2 4.8c.9 1.2 2 2.1 3.3 2.6 1.3.5 2.7.7 4.3.7 2.2-.1 4.1-.4 5.6-1.1 1.6-.6 2.9-1.3 3.9-2l2 4.2c-.5.6-1.2 1.2-2.1 1.8-.9.7-2 1.3-3.2 1.9-1.2.6-2.6 1.1-4 1.5-1.5.4-3 .7-4.7.7-3.3.1-6.2-.3-8.6-1.3-2.4-1-4.4-2.3-6-4.1-1.6-1.8-2.8-3.9-3.6-6.4-.8-2.2-1.3-4.9-1.4-7.9zM489.6 975.3c-1.7.1-3-.3-3.8-1-.8-.7-1.3-1.8-1.3-3.3v-1.3c-.6.7-1.3 1.4-2.2 2.2-.9.7-1.8 1.4-2.9 1.9-1 .6-2.2 1.1-3.3 1.4-1.2.4-2.4.6-3.6.6-2.3.1-4.3-.1-6-.6-1.7-.5-3.1-1.3-4.2-2.5s-1.9-2.7-2.5-4.7c-.6-1.9-.9-4.3-1-7.1l-.6-20.1-3.6-1.2-.1-4.1 12.7-1.4 1.7.9.8 25.8c0 1.6.2 2.9.4 3.9.2 1.1.6 1.9 1.1 2.6.5.7 1.1 1.1 1.9 1.4.8.3 1.8.4 2.9.4.9 0 1.7-.1 2.5-.4.7-.2 1.4-.5 2-.7s1.1-.6 1.5-.9c.4-.3.8-.6 1.1-.8l-.8-26.3-4.9-1.2-.1-4.2 13.6-1.3h.1l2 .9 1.1 35.3 3.9-.1.1 4.4c-.9.2-2.1.5-3.5.9-1.5.3-3.1.5-5 .6zM503.1 987.1l5.3-1-1.4-44.7-4.8-1.3-.2-5.3 12.6-2.1h.2l1.8 1.5.1 3.7c.6-.7 1.2-1.4 2-2.1.8-.7 1.7-1.3 2.6-1.8 1-.5 2-1 3.2-1.3 1.2-.3 2.4-.5 3.8-.6 2.2-.1 4.2.2 6.1.9 1.9.7 3.6 1.8 5.1 3.3 1.5 1.5 2.6 3.6 3.5 6 .9 2.5 1.4 5.5 1.5 9.1.1 3.1-.3 6-1.2 8.8-.9 2.7-2.2 5.1-3.9 7.2-1.7 2.1-3.8 3.7-6.4 4.9-2.5 1.2-5.4 1.9-8.6 2h-1.7c-.6 0-1.1-.1-1.7-.1s-1-.1-1.4-.2c-.4-.1-.8-.1-1-.2l.4 5.8.2 6.1 7 .7.1 4.5-23.1.7-.1-4.5zm20.9-48.5c-1.4 0-2.7.3-3.7.9-1.1.5-1.9 1.1-2.5 1.8l.8 26.7c.4.4 1.1.8 2 1.1.9.3 2 .4 3.3.4 1.3 0 2.5-.4 3.6-.9 1.1-.6 2.1-1.5 2.9-2.8.8-1.3 1.4-3 1.9-5.1.5-2.1.7-4.6.6-7.6 0-2.7-.3-4.9-.7-6.8-.4-1.8-1.1-3.3-1.8-4.5-.8-1.2-1.7-2-2.7-2.5-1.2-.5-2.4-.8-3.7-.7zM549.5 961.8c-.1-1.7.2-3.3.8-4.6.6-1.4 1.4-2.6 2.5-3.6s2.3-1.9 3.8-2.7c1.5-.8 3-1.4 4.7-1.9 1.7-.5 3.5-.9 5.3-1.2 1.8-.3 3.7-.5 5.6-.6l-.1-1.7c-.1-2.7-.7-4.6-1.8-5.7s-2.9-1.6-5.4-1.5c-1.3 0-2.5.2-3.8.4-1.3.2-2.5.5-3.7.9-1.2.3-2.2.7-3.2 1.1-1 .4-1.8.8-2.5 1.1l-2.2-4.7c.5-.4 1.3-1 2.5-1.6 1.2-.7 2.5-1.4 4.2-2 1.6-.7 3.4-1.2 5.4-1.8 2-.5 4-.8 6.1-.9 2.6-.1 4.8.1 6.7.6s3.3 1.3 4.5 2.5c1.2 1.1 2.1 2.6 2.6 4.4.6 1.8.9 3.9 1 6.3l.7 22 4.4-.1.1 4.3c-.4.1-1 .2-1.6.4s-1.4.3-2.2.5c-.8.2-1.6.3-2.6.4-.9.1-1.9.2-2.8.2h-2.2c-.6 0-1.1-.2-1.5-.4-.4-.2-.6-.6-.8-1.1-.2-.5-.3-1.1-.3-1.9l-.1-2c-.4.6-.9 1.2-1.6 1.9-.7.7-1.5 1.3-2.5 1.9-1 .6-2.1 1.1-3.4 1.6-1.3.4-2.6.7-4.2.7-1.7.1-3.2-.1-4.7-.5s-2.8-1.1-3.9-2-2-2.1-2.7-3.5c-.6-1.5-1-3.2-1.1-5.2zm16.9 4.2c.4 0 .9-.1 1.4-.2.5-.1 1.1-.3 1.7-.5.6-.2 1.1-.5 1.7-.8.6-.3 1-.7 1.4-1.1l-.4-11.7c-2.3.1-4.2.3-5.7.8s-2.7 1.1-3.6 1.8c-.9.7-1.5 1.6-1.9 2.5-.4.9-.5 1.9-.5 2.9.1 2.1.6 3.7 1.6 4.7 1.1 1.2 2.5 1.7 4.3 1.6zM590.8 951.5c-.1-3.2.3-6.1 1.2-8.8.9-2.7 2.2-5 3.9-6.9 1.7-1.9 3.8-3.5 6.3-4.6 2.5-1.1 5.3-1.7 8.4-1.8 1.6 0 3 0 4.3.1 1.3.1 2.5.3 3.5.5s1.9.4 2.7.6 1.4.4 1.9.5v12l-6.2.2-2.2-6.1c-.5-1-1.2-1.7-2-2.3-.8-.5-1.7-.8-2.8-.8-1.1 0-2.1.3-3 .9-.9.6-1.8 1.4-2.5 2.6-.7 1.2-1.3 2.7-1.6 4.5-.4 1.8-.5 4-.5 6.6.1 2.9.4 5.4.9 7.4s1.2 3.6 2.2 4.8c.9 1.2 2 2.1 3.3 2.6s2.7.7 4.3.7c2.2-.1 4.1-.4 5.6-1.1 1.6-.6 2.9-1.3 3.9-2l2 4.2c-.4.5-1 1-1.7 1.6-.7.6-1.6 1.1-2.6 1.7-1 .5-2 1-3.2 1.5-1.2.4-2.4.8-3.8 1 .4.5.9 1.1 1.4 1.8.5.7 1 1.5 1.5 2.4.5.9.8 1.8 1.1 2.8s.4 2 .4 3c0 1.5-.3 2.8-.7 3.8-.5 1-1.1 1.8-2 2.5-.9.6-1.9 1.1-3.1 1.4-1.2.3-2.6.5-4.2.5-.8 0-1.7 0-2.7-.2-1-.2-1.8-.4-2.4-.6l-.2-6.6c.5.1 1 .2 1.6.3s1 .1 1.3.1c.8 0 1.5-.1 2.1-.2.6-.1 1.1-.3 1.5-.7.4-.3.7-.8.9-1.5.2-.7.2-1.5.2-2.7 0-.5-.1-1-.2-1.5s-.3-1-.4-1.5c-.2-.5-.4-1-.6-1.4-.2-.5-.4-.9-.6-1.2-2.9-.2-5.4-.8-7.5-1.8-2.1-1.1-3.9-2.5-5.3-4.2-1.4-1.8-2.5-3.8-3.2-6.2-.8-2.6-1.2-5.1-1.2-7.9zM628.3 959.3c-.1-1.7.2-3.3.8-4.6.6-1.4 1.4-2.6 2.5-3.6s2.3-1.9 3.8-2.7c1.5-.8 3-1.4 4.7-1.9 1.7-.5 3.5-.9 5.3-1.2 1.9-.3 3.7-.5 5.6-.6l-.1-1.7c-.1-2.7-.7-4.6-1.8-5.7-1.1-1.1-2.9-1.6-5.4-1.5-1.3 0-2.5.2-3.8.4-1.3.2-2.5.5-3.7.9-1.2.3-2.2.7-3.2 1.1s-1.8.8-2.5 1.1l-2.2-4.7c.5-.4 1.3-1 2.5-1.6 1.2-.7 2.5-1.4 4.2-2 1.6-.7 3.4-1.2 5.4-1.8 2-.5 4-.8 6.1-.9 2.6-.1 4.8.1 6.7.6 1.8.5 3.3 1.3 4.5 2.5 1.2 1.1 2.1 2.6 2.6 4.4.6 1.8.9 3.9 1 6.3l.7 22 4.4-.1.1 4.3c-.4.1-1 .2-1.6.4-.7.2-1.4.3-2.2.5-.8.2-1.6.3-2.6.4-.9.1-1.9.2-2.8.2h-2.2c-.6-.1-1.1-.2-1.5-.4-.4-.2-.6-.6-.8-1.1-.2-.5-.3-1.1-.3-1.9l-.1-2c-.4.6-.9 1.2-1.6 1.9-.7.7-1.5 1.3-2.5 1.9-1 .6-2.1 1.1-3.4 1.6-1.3.4-2.6.7-4.2.7-1.7.1-3.2-.1-4.7-.5s-2.8-1.1-3.9-2c-1.1-.9-2-2.1-2.7-3.5-.7-1.4-1.1-3.2-1.1-5.2zm4.1-38.3l-3.8-3c.3-.8.7-1.6 1.3-2.5.6-.9 1.3-1.7 2.2-2.5s1.9-1.4 3.1-2c1.2-.6 2.5-.9 4-.9 1 0 1.9.1 2.8.4.8.3 1.6.6 2.3 1 .7.4 1.4.9 2 1.4.6.5 1.2 1 1.8 1.4.6.4 1.2.8 1.8 1 .6.3 1.3.4 1.9.4.8 0 1.5-.2 2-.5s1-.6 1.4-1c.4-.4.7-.8 1-1.3.3-.4.5-.8.7-1.2l3.8 3c-.4.9-.9 1.9-1.5 2.8-.6.9-1.3 1.8-2.1 2.5s-1.7 1.4-2.8 1.8c-1 .5-2.2.7-3.5.8-1 0-1.9-.1-2.7-.4-.8-.3-1.6-.6-2.4-1-.7-.4-1.4-.9-2.1-1.4-.7-.5-1.3-1-2-1.4-.6-.4-1.3-.8-2-1-.7-.3-1.4-.4-2.1-.4-.8 0-1.4.2-2 .5-.6.3-1.1.7-1.5 1.1-.4.4-.8.9-1.1 1.3 0 .5-.3.8-.5 1.1zm12.8 42.5c.4 0 .9-.1 1.4-.2.5-.1 1.1-.3 1.7-.5.6-.2 1.1-.5 1.7-.8.6-.3 1-.7 1.4-1.1l-.4-11.7c-2.3.1-4.2.3-5.7.8s-2.7 1.1-3.6 1.8c-.9.7-1.5 1.6-1.9 2.5-.4.9-.5 1.9-.5 2.9.1 2.1.6 3.7 1.6 4.7 1 1.2 2.4 1.7 4.3 1.6zM669.2 948.8c-.1-3.6.3-6.7 1.4-9.4 1-2.7 2.4-4.9 4.2-6.8 1.8-1.8 3.9-3.2 6.2-4.2 2.4-.9 4.9-1.5 7.5-1.5 3.1-.1 5.8.3 8.2 1.2 2.4.9 4.4 2.2 6.1 3.9 1.7 1.7 2.9 3.9 3.8 6.4.9 2.5 1.4 5.4 1.5 8.7.1 3.7-.3 6.9-1.4 9.6-1 2.7-2.4 5-4.2 6.7-1.8 1.8-3.9 3.1-6.2 4s-4.9 1.4-7.5 1.5c-3.1.1-5.8-.3-8.2-1.2-2.4-.9-4.4-2.2-6.1-3.9s-3-3.9-3.9-6.4c-.8-2.5-1.3-5.4-1.4-8.6zm20 15.3c1.3 0 2.4-.4 3.3-1 .9-.6 1.7-1.5 2.3-2.8.6-1.3 1-2.8 1.2-4.8.2-1.9.3-4.2.2-6.9-.1-2.8-.3-5.2-.6-7.3s-.8-3.9-1.5-5.3c-.6-1.4-1.5-2.5-2.5-3.2-1-.7-2.2-1-3.6-1-1.3 0-2.4.4-3.3 1s-1.7 1.5-2.3 2.8c-.6 1.3-1 2.8-1.3 4.8-.2 1.9-.3 4.2-.2 6.9.1 2.7.3 5.2.7 7.3s.9 3.9 1.5 5.3c.7 1.4 1.5 2.5 2.5 3.2 1 .7 2.2 1 3.6 1z"/><path fill="none" d="M1249 344v-30"/><g><path class="st1" d="M698.2 88.3L297 168.7l-70.2 105.4 109.6 547.3 489.1-98z"/><path fill="#dddfe3" d="M708.1 73.4l-401.3 80.4-70.2 105.4 109.7 547.3 489.1-98z"/><path class="st1" d="M318.9 262l-82.3-2.8 70.2-105.4z"/><path class="st15" d="M324.4 241.6l-87.8 17.6 70.2-105.4z"/><path class="st1" d="M676.1 495.3l-264.9 53.1c-4.8 1-9.5-2.2-10.4-6.9l-4.1-20.5c-1-4.8 2.2-9.5 6.9-10.4l264.9-53.1c4.8-1 9.5 2.2 10.4 6.9l4.1 20.5c1 4.8-2.1 9.5-6.9 10.4z"/><path class="st16" d="M688.1 544.9l-207 41.5c-3.7.7-7.2-1.7-8-5.3l-.1-.5c-.7-3.7 1.7-7.2 5.3-8l207-41.5c3.7-.7 7.2 1.7 8 5.3l.1.5c.8 3.6-1.6 7.2-5.3 8zM696.5 586.6l-269 53.9c-3.7.7-7.2-1.7-8-5.3l-.1-.5c-.7-3.7 1.7-7.2 5.3-8l268.9-53.9c3.7-.7 7.2 1.7 8 5.3l.1.5c.8 3.7-1.6 7.3-5.2 8zM704.9 628.4l-269 53.9c-3.7.7-7.2-1.7-8-5.3l-.1-.5c-.7-3.7 1.7-7.2 5.3-8L702 614.6c3.7-.7 7.2 1.7 8 5.3l.1.5c.8 3.7-1.6 7.3-5.2 8zM610.8 690.7l-166.6 33.4c-3.7.7-7.2-1.7-8-5.3l-.1-.5c-.7-3.7 1.7-7.2 5.3-8L608 676.9c3.7-.7 7.2 1.7 8 5.3l.1.5c.8 3.8-1.6 7.3-5.3 8z"/></g><g><path class="st12" d="M560.3 182.7l-162.8 32.6c-13.5 2.7-22.4 15.9-19.7 29.5l34.3 170.9c2.7 13.5 15.9 22.4 29.5 19.7l162.8-32.6c13.5-2.7 22.4-15.9 19.7-29.5l-34.3-171c-2.7-13.5-15.9-22.3-29.5-19.6z"/><defs><path id="SVGID_1_" d="M561.2 182.6l-164.5 33c-13.1 2.6-21.6 15.4-19 28.5l34.6 172.6c2.6 13.1 15.4 21.6 28.5 19l164.5-33c13.1-2.6 21.6-15.4 19-28.5l-34.6-172.6c-2.6-13.2-15.4-21.7-28.5-19z"/></defs><clipPath id="SVGID_00000172409846279884007480000014591276437453056909_"><use xlink:href="#SVGID_1_" overflow="visible"/></clipPath><g clip-path="url(#SVGID_00000172409846279884007480000014591276437453056909_)"><path class="st15" d="M579.1 345.7l-48.8-2.5s-9.1 8.5-21.9 9.4c-12.8.9-29.7-11.5-29.7-11.5s-17.8 10.9-28.3 22.1c-10.5 11.1-7.1 9.1-7.1 9.1l7.2 5.8 5.7 76.6s45.6 10.3 58.5 7.7C527.6 459.8 576 446 576 446l11.3-54.4-5.9-36.4-2.3-9.5"/><path class="st15" d="M537.5 329.3l-16.4 20.8-7.9 15 38.9 6.6s28.8-22.1 30-27.3c.1-.8-5-3.6-10.1-5.6-13.9-6-34.5-9.5-34.5-9.5"/><path class="st18" d="M502.1 224.3c-.6.4-1.3.4-1.8-.2-3.2-3.5-15.7-15.6-34.7-10.6-22.1 5.7-26.4 19.8-26.6 25.3-.1 3.1.8 8.2-.8 10s-8.8-.1-14.4 9.2c-3.3 5.5-.7 14.4.9 17 1.2 2-3.7 4.1-5.7 10.8-1.6 5.1-1.6 12.5 2.6 19.4 5 8.2 19.4 10.7 24.5 9.1 5-1.5 7.9.4 9 1.9s9.4 13.6 25.3 9.1c16-4.5 16.9-6.9 31.5-9.8s22.9-6.8 27.5-12.7c3.9-4.9 3.4-11.7 4.3-13.2.7-1.2 14.2-5.5 17.7-16.1 2.3-6.8.8-17.6-3.1-21.8-3.9-4.3-9.3-6.5-13.8-7.2-2.3-.3-3.9-.4-4.9-.5-.7-.1-1.2-.7-1-1.3.7-2.4 1.2-7.9-.7-12.5-2.4-6.1-8.3-10.8-13.6-12.5-5.3-1.6-14.2.6-16.4 2.3-1.4 1.1-4.3 3.2-5.8 4.3z"/><path class="st19" d="M524.8 326.3l-7.3-21.6-32.9 9.3 3.5 19.2-5.9 5s5.2 10.7 15.6 13.1c11 2.5 22.9-.9 27.3-4.7 2.4-2.1 7.4-9.3 8-13.4s.3-5 .3-5l-8.6-1.9z"/><path d="M511.1 355.8c-15 3-29.1-2.4-34.7-14.5-.3-.6-.1-1.4.5-1.7l4.5-3c.7-.4 1.6-.2 1.9.5 4.2 8.3 15.2 13.1 26.1 10.9 11.4-2.3 19.8-11.1 20.1-20.8 0-.7.7-1.3 1.4-1.3l5.4.1c.7 0 1.3.7 1.4 1.4.1 13.4-11.2 25.3-26.6 28.4z" fill="#95a4bb"/><path class="st1" d="M520 311.7l-33.8 9.1-2.2-9.3 33.4-7.3z"/><path class="st19" d="M508.1 311.9l-9.1 2.8c-17.5 5.4-36.2-4.4-41.6-22l-10-33.2c-.3-1 .2-2 1.2-2.3l69.3-21.4c1-.3 2 .2 2.3 1.2l10 33.2c5.2 17.6-4.6 36.4-22.1 41.7z"/><path class="st19" d="M454.2 279.9l-10.1 2.6c-5.2 1.7-8 7.4-6.3 12.6 1.7 5.2 7.4 8 12.6 6.3l10.1-2.6M526.6 260.1l9.9-3.3c5.3-1.3 10.8 1.8 12.1 7.1 1.3 5.3-1.8 10.8-7.1 12.1l-9.9 3.3"/><path class="st18" d="M461.5 258c-.8.2-1.3 1.1-.7 1.8 2 3 2.3 14.7-.9 20.3-4.3 7.2-16.1 3.2-17.8-.1s-6.7-23-1.7-26.6c5-3.7 21.6-12.3 27.5-14.2s33.1-8.3 40.7-8.2c7.7.1 17.7 3.1 18.8 7.6.9 3.3 3.9 14.1 4 20.1 0 1.8-2.4 6.2-5.4 6.9-4.3 1.1-10.8-2.3-13.3-3.9-3.8-2.5-6.6-9.4-11.3-10.1-4.7-.7-8.6 2.1-11.8 4.7-3.2 2.7-10.6 4.1-14.9 2.3-4.4-1.8-10.3-1.2-13.2-.6z"/><ellipse class="st1" cx="478.3" cy="281.9" rx="2.5" ry="2.5"/><ellipse class="st1" cx="508.4" cy="272.8" rx="2.5" ry="2.5"/><path fill="none" stroke="#1d016a" stroke-width="2" stroke-linecap="round" stroke-linejoin="round" stroke-miterlimit="10" d="M492.1 270.8l5.5 15.4"/><path class="st12" d="M484.8 295.9l26.4-9.3c.5-.2 1 .3.9.7-.2 1.4-.7 3.9-2 6.7-2.9 6.7-11 9.1-17.7 7.2-2.8-.8-6.1-3.1-7.8-4.3-.4-.1-.3-.8.2-1z"/><path class="st18" d="M450.3 280l6.9 11.4-1.3-15.3zM521.4 259.6l7.8 13.5-1.4-14.8z"/><path class="st15" d="M628.3 408.7c2.8 5.2 6.7 14 5.7 14.8l-10.4 1.1-46.7 3s-.6-8.4-.4-10.1c.2-1.5 4.2-3.7 5.7-4.4.2-.1.2-.4 0-.5l-1.6-1.2c-.2-.1-.1-.4.1-.5l22.7-2.7-21.5 2.5s-6.8-12.3-8.4-15.3c-1.6-2.9-12.2-19-12.2-19l13.5-23.8 2.9-3.9 2.3-2.5s1.9-1.8 2.6-1.5c.7.2 16.1 14 22.5 24.4 6.4 10.4 20.4 34.4 23.2 39.6z" id="XMLID_00000023968369030913912150000002111537332282199444_"/><path class="st15" d="M445 373.2l28.5 20.8s-3.6 18.6-3.9 21.9c-.4 3.3-2.1 17.5-2.1 17.5l-2.2 5.4-.5 2.1s-29.4 17.4-33.3 19.7c-4 2.3-6.8 6.3-6.8 6.3-1.2-.3-.9-11.5-.4-17.4.6-5.9 4.3-33.5 6.2-45.5 1.9-12.1 10.8-30.7 11.3-31.2.5-.3 3.2.4 3.2.4z" id="XMLID_00000129169526300607012620000003251052210181848210_"/></g></g></svg>