<svg id="Layer_1" xmlns="http://www.w3.org/2000/svg" viewBox="0 0 447.7 227.8"><style>.st1{fill:none;stroke:#1d006a;stroke-width:4;stroke-linecap:round;stroke-linejoin:round;stroke-miterlimit:10}</style><path d="M237.6 209.4c0 10.2-28.8 10.2-28.8 0" fill="#1d006a" stroke="#1d006a" stroke-width="4" stroke-linecap="round" stroke-linejoin="round" stroke-miterlimit="10"/><path class="st1" d="M196.7 165.2c1.1 3.9 1.7 8 1.7 12.2v.2c0 4 3.3 7.3 7.3 7.3h34.9c3.9 0 7.1-3.2 7.1-7.1v-.3c0-12.5 5.4-24.2 14.6-32.7 11.4-10.5 18.5-25.6 18.5-42.3 0-24.1-14.8-44.9-35.9-53.4M218.2 45c-30 2.5-53 27.6-52.8 58.1.2 16.5 7.3 31.4 18.6 41.8 1.8 1.7 3.5 3.5 5 5.4"/><path d="M236 132.5l-.3 5.2c-7.8-3.6-15.8-3.6-23.6 0l-.3-5.2 3.4 52.3h17.4l3.4-52.3z" fill="#fff" stroke="#1d006a" stroke-width="4" stroke-linecap="round" stroke-linejoin="round" stroke-miterlimit="10"/><path class="st1" d="M214.1 168.3c0-8.4 19.5-8.4 19.5 0"/><path d="M243.4 204.2c0 8-40.2 8-40.2 0v-19.3h40.2v19.3z" fill="#3b2e7d" stroke="#1d006a" stroke-width="4" stroke-linecap="round" stroke-linejoin="round" stroke-miterlimit="10"/><path class="st1" d="M204.3 187.5l37.9 4.9M204.3 195.1l37.9 4.9M204.3 202.6l35 4.5M199.3 8.1l6.9 25.6M248.4 8.1l-6.9 25.6M290.8 32.6l-18.7 18.7M315.4 75l-25.7 6.9M315.4 124.1l-25.7-6.9M290.8 166.6l-18.7-18.8M156.9 166.6l18.3-19.2M132.3 124.1l25.7-6.9M132.3 75l25.7 6.9M156.9 32.6l18.7 18.7"/></svg>