<svg id="Layer_1" xmlns="http://www.w3.org/2000/svg" viewBox="0 0 447.7 173.9"><style>.st0{fill:#fff;stroke:#1d006a;stroke-width:4;stroke-linecap:round;stroke-linejoin:round;stroke-miterlimit:10}</style><circle class="st0" cx="263.5" cy="155.3" r="7.3"/><circle class="st0" cx="279.3" cy="164.7" r="3.7"/><path class="st0" d="M305.6 60.3c.4-1.5.5-3.1.5-4.7 0-10.8-7.7-19.7-18-21.7.7-1.7 1.1-3.4 1.1-5.3 0-7.5-6.1-13.6-13.6-13.6-3.7 0-7 1.5-9.5 3.8-4-4.4-9.8-7.3-16.3-7.3-4.7 0-9 1.4-12.5 3.9-2.5-2.4-5.8-3.9-9.5-3.9-3.8 0-7.3 1.6-9.8 4.1-3.3-6-9.7-10-17.1-10-9.7 0-17.7 7.1-19.3 16.4-2.1-.5-4.3-.7-6.6-.7-12.4 0-23 7.3-28 17.7-.9-.2-2-.4-3-.4-7.5 0-13.6 6.1-13.6 13.6 0 2.9.9 5.6 2.5 7.9-1.6 2.8-2.5 6.1-2.5 9.5 0 6.5 3.2 12.2 8 15.8 0 .4-.1.8-.1 1.2 0 17.1 13.9 31 31 31 2.9 0 5.7-.4 8.3-1.1 3.8 3 8.6 4.8 13.8 4.8.9 0 1.9-.1 2.8-.2 4.9 10.7 15.7 18.1 28.2 18.1 3.3 0 6.5-.5 9.5-1.5 1.5 5.9 6.9 10.3 13.2 10.3 6.7 0 12.4-4.9 13.4-11.3 5.7-1.6 9.9-6.9 9.9-13.1v-.6c5-1.2 9.3-4.1 12.4-8 1.7.3 3.3.4 5.1.4 17.1 0 31-13.9 31-31 .1-9.8-4.3-18.5-11.3-24.1z"/></svg>