<svg id="Layer_1" xmlns="http://www.w3.org/2000/svg" viewBox="0 0 1728 1072"><style>.st0{fill:none;stroke:#190865;stroke-miterlimit:10}.st1{fill:#1d016a}.st2{fill:none;stroke:#ff5c00;stroke-width:1.0101;stroke-miterlimit:10}.st3{fill:#605396}.st4{fill:#55468f}.st7{fill:#ff5c00}.st8{fill:none;stroke:#1d016a;stroke-width:1.0101;stroke-miterlimit:10}.st9{fill:#f98158}.st10{fill:#fa7c4e}.st11{fill:#e68662}.st12{fill:#190865}.st13{fill:#eff1f5}.st14{fill:#8393c6}.st15{fill:none;stroke:#190865;stroke-width:3.0031;stroke-miterlimit:10}</style><path class="st0" d="M974.5 725.6zM935 837.4c0 .1.1 0 .2-.1-.2 0-.3 0-.2.1z"/><path class="st1" d="M2006.2 387l-85.5 6.2c-2 .1-3.6-1.4-3.6-3.4v-85.5c0-1.8 1.4-3.2 3.1-3.4l85.5-6.2c2-.1 3.6 1.4 3.6 3.4v85.5c0 1.8-1.4 3.3-3.1 3.4z"/><path class="st2" d="M2010.9 382.6l-85.5 6.2c-2 .1-3.6-1.4-3.6-3.4V300c0-1.8 1.4-3.2 3.1-3.4l85.5-6.2c2-.1 3.6 1.4 3.6 3.4v85.5c0 1.7-1.3 3.2-3.1 3.3z"/><path class="st3" d="M1893.9 395.2l-47.5 3.5c-1.1.1-2-.8-2-1.9v-47.4c0-1 .8-1.8 1.7-1.9l47.5-3.5c1.1-.1 2 .8 2 1.9v47.4c.1 1.1-.7 1.9-1.7 1.9z"/><path class="st2" d="M1897.2 392.1l-47.5 3.5c-1.1.1-2-.8-2-1.9v-47.4c0-1 .8-1.8 1.7-1.9l47.5-3.5c1.1-.1 2 .8 2 1.9v47.4c.1 1.1-.7 1.9-1.7 1.9z"/><path class="st4" d="M2081.5 381.3l-47.5 3.5c-1.1.1-2-.8-2-1.9v-47.4c0-1 .8-1.8 1.7-1.9l47.5-3.5c1.1-.1 2 .8 2 1.9v47.4c0 1-.7 1.8-1.7 1.9z"/><path class="st2" d="M2084.8 378.2l-47.5 3.5c-1.1.1-2-.8-2-1.9v-47.4c0-1 .8-1.8 1.7-1.9l47.5-3.5c1.1-.1 2 .8 2 1.9v47.4c0 1-.7 1.8-1.7 1.9z"/><path d="M2347.6 519.7l-85.5 6.2c-2 .1-3.6-1.4-3.6-3.4V437c0-1.8 1.4-3.2 3.1-3.4l85.5-6.2c2-.1 3.6 1.4 3.6 3.4v85.5c0 1.8-1.4 3.3-3.1 3.4z" fill="#303537"/><path class="st2" d="M2352.3 515.4l-85.5 6.2c-2 .1-3.6-1.4-3.6-3.4v-85.5c0-1.8 1.4-3.2 3.1-3.4l85.5-6.2c2-.1 3.6 1.4 3.6 3.4V512c0 1.8-1.3 3.2-3.1 3.4z"/><path d="M2274.4 410.7l-85.5 6.2c-2 .1-3.6-1.4-3.6-3.4V328c0-1.8 1.4-3.2 3.1-3.4l85.5-6.2c2-.1 3.6 1.4 3.6 3.4v85.5c0 1.8-1.4 3.3-3.1 3.4z" fill="#f4f4f4"/><path class="st2" d="M2279.1 406.3l-85.5 6.2c-2 .1-3.6-1.4-3.6-3.4v-85.5c0-1.8 1.4-3.2 3.1-3.4l85.5-6.2c2-.1 3.6 1.4 3.6 3.4V403c0 1.7-1.4 3.2-3.1 3.3z"/><path class="st7" d="M2005.8 523.7l-85.5 6.2c-2 .1-3.6-1.4-3.6-3.4V441c0-1.8 1.4-3.2 3.1-3.4l85.5-6.2c2-.1 3.6 1.4 3.6 3.4v85.5c0 1.8-1.3 3.2-3.1 3.4z"/><path class="st8" d="M2010.5 519.3l-85.5 6.2c-2 .1-3.6-1.4-3.6-3.4v-85.5c0-1.8 1.4-3.2 3.1-3.4l85.5-6.2c2-.1 3.6 1.4 3.6 3.4v85.5c0 1.8-1.3 3.3-3.1 3.4z"/><path class="st9" d="M1893.6 531.9l-47.5 3.5c-1.1.1-2-.8-2-1.9v-47.4c0-1 .8-1.8 1.7-1.9l47.5-3.5c1.1-.1 2 .8 2 1.9V530c0 1-.8 1.8-1.7 1.9z"/><path class="st8" d="M1896.8 528.8l-47.5 3.5c-1.1.1-2-.8-2-1.9V483c0-1 .8-1.8 1.7-1.9l47.5-3.5c1.1-.1 2 .8 2 1.9v47.4c.1 1-.7 1.8-1.7 1.9z"/><path class="st10" d="M2081.1 518l-47.5 3.5c-1.1.1-2-.8-2-1.9v-47.4c0-1 .8-1.8 1.7-1.9l47.5-3.5c1.1-.1 2 .8 2 1.9v47.4c0 1-.7 1.8-1.7 1.9z"/><path class="st8" d="M2084.4 514.9l-47.5 3.5c-1.1.1-2-.8-2-1.9V469c0-1 .8-1.8 1.7-1.9l47.5-3.5c1.1-.1 2 .8 2 1.9V513c0 1-.7 1.8-1.7 1.9z"/><path class="st11" d="M448.3 429.9l-10.4 33.3 135.2 74.4-112 93.2-14.2 3.5c-8.7 2.1-17.3 4.9-25.6 8.3l-11.9 4.8 2.3 30.1c3.8 38.2 23.3 63.1 57.9 75.3 2.4-17 11.7-34.9 28.7-54l144-136.1c17.8-16.8 12.4-46.3-10.1-55.7l-183.9-77.1z"/><path class="st11" d="M466.1 437.7c-18.8-10-37-24.4-53.8-37.5-3.1-2.4-6.2-4.8-9.8-6.4-7.6-3.2-16.3-2-24.2.4-9.7 2.9-44.7 18-43.9 31.6.2 2.8 2.2 5.1 4.2 7.1 15.5 15.9 33 32.4 55 35.3 10.9 1.4 22.3-.3 33.3-.4 9.4-.1 19.7 1.1 28.3 5 7.2 3.3 14.5 6.5 22.9 10.4 3.6 1.7 6.2.6 9.1-2.1 3.3-3 3.4-8.1 3-12.5-.6-6.8-1.9-15.5-6.8-20.7-4.3-4.6-11.9-7.3-17.3-10.2z"/><path class="st12" d="M228.8 689.6c34 29.5 84.3 9.3 123.2 6.1 12-1 24.2-.6 36.1-2.2 48.2-6.3 79.1-42 93.7-86 3.7-11.2 5-25.5-4.1-33.1-6.7-5.6-16.9-5.1-24.7-1.2s-13.7 10.7-19.5 17.2c1.7-20.2 6-40.3 12.8-59.4 2.5-7 5.4-14.2 4.8-21.6-.6-7.4-5.9-15.1-13.3-15.4 6.5-12.2 11.8-24.9 15.8-38.1 1.6-5.2 3-10.9 1.6-16.1-3.3-11.6-17.7-14.9-29.6-16.3 10.6-11.3 19.2-22.4 19.7-38.3.5-15.6-9.9-35.8-27-37.6-20.1-2.1-48.5 13-65.9 21.7 3-4.7-.1-11.5-5.1-13.8-5.1-2.3-11.2-.8-15.8 2.3-4.6 3.1-8.1 7.5-11.7 11.8-13.2 16-28.2 30.6-44.5 43.3-8.9-2.5-18.5-2.5-27.4 0-4 1.1-8.3 3.1-10 6.9-3.2 6.9 3.7 14.1 9.8 18.6-10.9-.4-21.2 9.5-21.2 20.4s10.1 20.8 21.1 20.5c-5.6 2.4-8.7 8.5-10.1 14.5-7.4 29.9 12.8 56.4 19.5 84.3 3.7 15.4-3.5 17.8-13.8 27.4-10.9 10.2-20.6 23-25 37.4-5 16.2-2.1 35.6 10.6 46.7z"/><path class="st13" d="M253.3 751.9l22.5 118.8c.6 113.7-52.8 159-37.4 240.1 15 78.8 196.8 86.3 235.1 21.9 38.6-65 16.7-138.1-11.1-234l-7.7-129.9-201.4-16.9z"/><path class="st12" d="M461.1 929.3L272.4 921c-4.2 27-11.1 53.3-19.9 79.1l6.5 4.1c7.8 5 17.9 4.2 24.9-1.8 12.5-10.8 26-27.2 41-53.6l16.2 5c5.1 1.6 10.4-1.2 12.1-6.3 53.5 2.7 111.7-3.1 107.9-18.2z"/><path class="st14" d="M469.2 826.9l13.3 50c4.4 16.6 1 34.3-9.2 48.1-3.4 4.6-8.4 7.8-14 8.9-52.2 10-106.9 7.2-162.9-3l-21.1-8.6c-13.2-5.3-20-20-15.7-33.5l11-34.3c-39-63.8-54.1-122.7-56.2-177.1l147.4-34.7 78.8 30.9 36 97.4c3.9 10.6 4.1 22.1.5 32.8l-7.9 23.1z"/><path class="st11" d="M296.4 656.4l-37.2.1c-17.6.1-34.4 6.8-47.3 18.7l-21.5 20.1S91.2 788 31.4 843.8c-19.5 18.2-13.3 50.6 11.5 60.4 67 26.3 169.3 66.5 199.4 78.3 15.6 7.8 34.5-30.3 18.9-38.1l-142.9-84L286 714.6l10.4-58.2zM283.5 923.3l26-14.6c3.1-1.7 6.6-2.8 10.1-3l43.8-2.9c2-.1 3.7 1.4 3.7 3.4 0 4.5-3.2 8.4-7.7 9.1l-36.5 6.4-11 6.5-35 28.6M327.1 896.1l-12.4-3.3c-3.8-1-7.8-.6-11.3 1.1l-3.3 1.7c-.1 4.7 26.9 5.2 27 .5z"/><path class="st11" d="M345.4 904l-62.2 40.4 26-15c2.8-1.6 6.1-2.1 9.3-1.2l38.6 10.2c2.3.6 3.6 3.1 2.8 5.3-1 2.7-3.8 4.4-6.7 4l-32.3-4.6c-13.6 21-29.1 39-46.3 54.2-7.7 6.8-19.3 6.6-26.9-.4-8.7-8.1-17.5-19.6-28.8-24.6-22.3-13.1-.4-52.4 22-39.3l20 10.6 2.1-3.3c7.7-13.5 18.3-29.1 27.9-39.4 3.2-3.4 7.6-5.4 12.3-5.4H321c6.2 0 12.3 1.6 17.7 4.7l6.7 3.8M392.4 588.5c3.3-55.3-61.9-88.1-65-37.7l-14.5 88s-35.3 16.6-57.9 29.1c5.9 66.5 211.9 60.1 206-6.5-20.1-6.9-71.1-19.3-71.1-19.3l2.5-53.6z"/><path class="st14" d="M409.4 647.3l10.3 15.2c6.1 9 6.5 20.7 1.1 30.2l-8.5 14.6 60.7 54.5c-2.7-21.1 5.7-39.2 22.1-59.4l80-76.3 5.9.8c4.3.6 8.4-2.2 9.5-6.5l.9-3.5 3.8-.6c3.5-.6 6.4-3.2 7.2-6.7l-.2-5.4 9.6-10.6c7.3-5.7-44.4-56.5-52.6-48l-7.9 7.5-7.8-.7c-2.5-.3-4.7 1.6-4.8 4.1l-.1 4.3-6.1 2.3c-4.2 1.5-7.4 4.9-8.7 9.1l-1.5 4.8-69 43-8.9 2.9c-10.2 3.3-19.5 9-27.1 16.6l-7.9 7.8zM287 651.3v23c0 7.8 3.1 15.3 8.5 20.8l14.8 15.1c24.4 19.2-44.7 107-69.1 87.7-21.6-7.4-44.3 1.3-67.9 22.1l-19.1 17.8.9 6.3c.3 2.3-1.4 4.4-3.8 4.4h-2.1c0 2.6-2.5 4.4-4.9 3.7l-1.3-.4-3.3 4c-9.2 11.7-78.2-42.7-69-54.4l7.7-7.7-.4-3c-.4-3.3 2.2-6.3 5.6-6.3H95l1.6-4.6c1.4-4 4.3-7.2 8.1-9.1l6.5-3.2 52.8-52.6c5.6-5.6 10.5-12 14.3-19 7.9-14.5 20.7-25.8 36.1-31.9l6.1-2.4c14.4-5.7 25.8-6 41.3-6l25.2-4.3z"/><path class="st12" d="M413.9 642.8l10.1 15.1c7 10.6 7.8 24.2 2 35.5l-7.5 14.7c-34.6 53.6-69.1 43.8-116.1 4.5L290 699.7c-6.7-7-10.2-16.4-9.7-26.1l1.1-21.8c1.4-1.3 3.3-1.5 5.7-.5v22.8c0 3.5.6 7 1.8 10.2 2.1 5.8 6.5 10.5 12 13.3 41.4 20.6 79.8 24.2 113.2-.4 10.1-7.5 13.5-21.4 7-32.2-.2-.4-.4-.7-.7-1l-11-16.7c.5-2.8 2.3-4 4.5-4.5zM283.5 923.3c2.8-2 5.7-4 8.5-5.9 1.1-.7 4.2-2.3 5.4-3l7.2-4.1c2.2-1.2 5.1-3 7.5-3.9 2.7-1 5.6-1.6 8.4-1.7 4.1-.3 12.4-.8 16.5-1.1.5 0 1.5-.2 2.1-.1 2 .2 4.3.3 6.3.6-2 .5-4.2 1-6.1 1.4-.6.1-1.5.1-2.1.1-4.1.3-12.4.8-16.5 1.1-4.1.2-7.9 1.2-11.4 3.3l-3.6 2c-3.3 1.9-9.4 5.3-12.7 7.1-3.1 1.4-6.3 2.8-9.5 4.2zM321 895.6c-2.6 1-5.2 1.1-7.9 1h-7.9c-2.5-.1-5.1.1-7.5 1-2.4 1-4.5 2.2-6.9 3.4 2.4-5.3 9-6.5 14.3-6.4h7.9c2.8-.2 5.5 0 8 1zM283.3 944.4c1.6-1.4 3.2-2.7 4.8-4l5.4-3.1 10.7-6.2c1.7-.9 3.7-2.2 5.5-3.1 3-1.4 6.6-1.6 9.7-.7l3 .8c7 3 7.2 2.7-.5 1.9-1.7-.4-4.1-1.2-5.8-1.2-4-.4-7.5 2.2-10.8 4.1l-10.7 6.2-5.3 3.1c-2.1.7-4.1 1.5-6 2.2zM316.9 550.1l3.9 11.7c9.2 28 37.9 46.3 70.7 48.3l3.8-59.7-78.4-.3z"/><path class="st11" d="M354.8 408.8c-41.9 6.8-70.3 46.2-63.5 88l4.1 25.5c7.1 44 45.5 76.2 90.1 75.5.9 0 1.7 0 2.6-.1 37.8-1.8 65.6-36.1 61.1-73.6l-6.3-51.8c-6.8-41.8-46.2-70.2-88.1-63.5z"/><circle class="st12" cx="381.8" cy="506" r="8.5"/><ellipse transform="rotate(-8.66 434.594 498.644)" class="st12" cx="434.8" cy="498.8" rx="5.9" ry="8.5"/><path class="st15" d="M413.6 486.9l4.2 27.8"/><g><path class="st12" d="M438.8 544.6c-1.5-1-3-1.7-4.6-2-1.3-.7-2.8-1-4.3-1-2.8-.2-6.4 2.3-8.8 3.4-3 1.6-10.8 5.6-13.7 7.1-1.7.4-3.5.8-5.3 1.1 1.2-1.3 2.5-2.5 3.8-3.7l4.6-2.4 9.2-4.7 4.6-2.4c5.2-2.7 12.9-1.7 14.5 4.6z"/></g><g><path class="st12" d="M289.7 514.1c-2.4-15-4.2-29.9-2.1-45.2 2.7-19.7 11.6-39.2 27.1-51.7 14.9-11.9 34.3-16.5 53.3-18.5 13.7-1.4 27.9-1.6 40.8 3.3 8.6 3.3 17 10.6 20.7 19.3.9 2 1.4 4.2 2.5 6.1 1.1 2 2.8 3.6 4.3 5.2 5 5.4 8.9 11.9 11.4 18.9 1.5 4.2 2.5 8.7 2 13.2-.1 1-.3 2-.9 2.8-.9 1.4-2.6 2.1-4.2 2.5-8.7 2.1-18.1-2.1-24.3-8.6-3.3-3.4-5.8-7.5-7.9-11.7-1-2.1-2-4.2-2.8-6.4-.6-1.5-1.2-3-1.6-4.6 0-.1-.1-.3-.2-.3-.1-.1-.3-.1-.4 0-.1.1-.1.2-.1.3.4 5 .2 10.3-1.3 15.2-1.8 5.7-5.6 10.3-10.3 13.7-11.1 8.1-28.9 11.4-44.2 8.2 4.9 1-1.2 15-2.5 16.7-6.1 7.9-16.8 5.2-20.6 15.9-3.4 9.5-1.6 22.3-2.1 32.3-.7 13.7-2 27.4-4 41.1-.9 6.4-2.3 13.2-7 17.5-1.3 1.2-3.1 2.2-4.9 1.9-3.2-.4-4.6-4.2-5.3-7.3-5.1-21.5-9.4-43.1-12.9-65-.9-4.9-1.7-9.9-2.5-14.8z"/></g><g><path class="st9" d="M1643.9 1099.2c0 96.3-366.1 96.3-366.1 0l17.8-176 281.6-52.3 66.7 228.3z"/><path class="st12" d="M1595.9 935c-97.6 26.7-189.2 21.9-301.6-2.5l1.3-9.2 281.6-52.3 18.7 64z"/><path class="st14" d="M1283 758.1l55.3-131.3c15-35.6 13.3-76-4.5-110.2 0 0-29.9-6.7-77 54.2-47.1 60.9-99.9 213.4-99.9 213.4-2 46.7 46.8 41 82.6 19.5 27.1-16.3 43.5-45.6 43.5-45.6z"/><path class="st4" d="M1332.7 516.6s-29.9-6.7-77 54.2c-22.6 29.2-55.2 75.3-78.7 117.1 21.6 10.8 70.2 31.8 117.7 39.9l42.5-100.9c15-35.6 13.4-76-4.5-110.3z"/><path class="st12" d="M1303.5 552.3l-45 167.1 36.3 8.4zM1229 730.6c-.3-.6-25.6 5.7-34.1 7.8-1.5.4-2.2 2-1.6 3.3 1.4 3.1 4.6 5 8 4.6l49.4-5.3 1.4 3.4-44.7 11.4c-1 .3-1.5 1.5-.8 2.3 1.9 2.4 4.8 3.6 7.9 3.3l35.3-4.5h6.5c13.8 2.5 19-25.7 5.1-28.3l-32.4 2z"/><path class="st4" d="M1590.1 811.6l12 76.5c-49.8 53.5-163.3 63.6-333.2 35.2l11.2-107.6-.8-44.2c-1-53.3 3.4-106.6 13.1-159l12.3-66.6c2.7-14.8 14.3-26.4 29-29.2l126.8-24.4 105.5 29.3c10.4 2.9 17.6 12.4 17.5 23.2l-1 166.6c-.1 33.4 2.4 67 7.6 100.2z"/><path class="st12" d="M1511.6 591.7l-45.9 127.2 17.7 18.9 23.4 14z"/><path class="st14" d="M1539.4 514.1c-10.3 93.7-38.9 186.6-60.6 271.4-59.6-5.6-126.1-7.3-184.5-22l-14 36.4c63.4 32.9 129.4 64.4 198.6 85 27 8 56-4 69.2-28.9 39.5-75.1 69.3-152.2 90.2-233.7 10.6-41.2-13.6-83.4-54.4-95.3l-44.5-12.9z"/><path class="st12" d="M1478.8 785.4l-18.9 26.9c-10.2 14.5-27.8 22-45.3 19.2l-17.6-2.7-31.9 12.7-20.8-9.7s60.4-49.8 134.5-46.4z"/><path class="st14" d="M1495.9 493.5l19.4 17c-19.3 66.3-189.3 82-163.9 7.8l43.6-18.9-6.4-81.8 106.3-1.8 1 77.7zM1414.1 755.1l41.3-22.7c5.4-3 11.9-3 17.4-.2l17.7 9.2-11.6 44-19.3 18.3c-10.7 10.2-25.4 15.1-40.1 13.5l-18.4-2M1273.6 718.3l-29.5-3.9c-3.5-.5-7.1-.1-10.5 1l-41.8 13.6c-1.9.6-2.9 2.7-2.1 4.5 1.7 4.2 6.1 6.5 10.5 5.6l36.2-7.6 12.6 1.9 43.1 13.5M1223.1 709.3l10.2-7.7c3.1-2.3 7-3.5 10.9-3.1l3.7.3c1.9 4.3-23 14.9-24.8 10.5z"/><path class="st14" d="M1209 723.5l72.7 14.3-29.2-4.2c-3.6-.5-7.4-.2-10.9.9l-38.4 12.6c-2 .6-3.1 2.7-2.6 4.7.8 3.4 4.1 5.5 7.5 5l38.1-6.2c20.5 14.4 41.5 25.4 63.2 33.1 9.7 3.4 76.7 7.5 81.1-1.8 1.4-3-58.1-29.5-58.1-29.5l-30.2-23.6-3.2-2.3c-12.1-9.6-27.8-20.2-40.6-26.2-4.2-2-9.1-2.2-13.4-.4l-16.6 6.7c-5.8 2.3-10.8 6.1-14.7 10.9l-4.7 6"/><path class="st12" d="M1273.6 718.3c-3.4 0-7-.2-10.4-.4-3.7-.4-10.6-1.4-14.4-1.9l-4.1-.5c-4-.6-7.9-.2-11.8 1.2-3.9 1.3-11.8 3.9-15.8 5.1-.5.1-1.4.5-2 .6-2 .3-4.2.7-6.2 1 1.8-1 3.8-2 5.6-2.9.5-.2 1.4-.4 2-.6 3.9-1.3 11.8-3.9 15.8-5.1 2.6-.9 5.5-1.5 8.4-1.5 2.5-.1 5.9.6 8.4.8l8.2 1.1c1.4.2 4.8.6 6.2.8 3.4.7 6.8 1.5 10.1 2.3zM1228.5 706.6c2-1.9 4.4-3 7-3.9l7.4-2.9c4.9-2.1 11.4-3.5 15.7.6-3.8-.3-7.6-1.1-11.3 0-2.5.7-8.5 3.3-11 4.2-2.6 1.1-5.1 1.9-7.8 2zM1281.7 737.8c-2.2.1-4.3.1-6.5.1l-6.4-.9-12.7-1.8-3.2-.5c-5.3-1-10.3.4-15.3 2-7.8 1.2-7.8 1.5-.6-1.9 1.9-.5 4.3-1.4 6.2-1.8 4.3-1.1 8.8-.6 13.1.2l12.7 1.8 6.4.9c2.2.6 4.2 1.2 6.3 1.9z"/><path class="st14" d="M1205.7 857.9h1.5c18.1-2.7 36.5-5.5 55-8.7 55.7-9.5 111.2-23.2 164.2-42.8l-12.2-51.2c-17.5 1.9-34.9 3.1-52.3 3.8-26.4 1.1-52.6.6-78.8-.8 0 0-98.6-9.4-126.1 26.1-14.9 34.9 10.8 73.6 48.7 73.6z"/><path class="st12" d="M1377.4 264c-6.7-3.8-10.5 6.2-11.3 10.9-.2 1.5-1.4 12.5 1.7 12.3-.9.1-1.5.9-2 1.7-3.6 6.3-2.9 14.7 1.6 20.3 5.8-9.1 10.2-19.1 13-29.5.8-2.8 1.4-5.6 1.1-8.5-.2-2.9-1.6-5.8-4.1-7.2z"/><path class="st14" d="M1397.8 452.5l-9.5-3.4c-37.6-13.3-57.5-55-44.2-92.6l18.5-52.3c15.2-42.8 62.6-65.5 105.5-50.3 42.8 15.2 65.5 62.6 50.3 105.5l-15.1 42.8c-15.2 42.8-62.6 65.4-105.5 50.3z"/><path class="st14" d="M1495 415.8l-18.8-7.8c-11.9-4.9-17.7-18.7-12.7-30.7 4.9-11.9 18.7-17.7 30.7-12.7l18.8 7.8c11.9 4.9 17.7 18.7 12.7 30.7-5 11.9-18.8 17.6-30.7 12.7z"/><g><circle class="st12" cx="1432.8" cy="350" r="10"/><ellipse transform="rotate(-69.262 1373.306 328.568)" class="st12" cx="1373.3" cy="328.6" rx="10" ry="7"/><path class="st15" d="M1400.7 320.1l-11.8 31.1"/><path class="st12" d="M1357.2 380.6c1.1-1.8 2.8-3.3 4.9-4.3 4.4-1.2 9.3-.1 12.8 2.8 3 2.5 11 9.1 14.1 11.6l4.7 3.9c1.3 1.6 2.5 3.3 3.7 5-2-.8-3.8-1.8-5.7-2.7-3-2.4-11-9.1-14.1-11.6-2.6-2-6.1-5.7-9.5-6.2-1.7-.4-3.6-.4-5.3.1-1.7 0-3.6.5-5.6 1.4z"/><path fill="none" d="M1357.2 380.6"/></g><g><path class="st12" d="M1529.8 354.5c.7-1.3 1.3-2.7 1.8-4.1 7.7-.2 14.9-5.8 17-13.2 2.1-7.4-1.2-15.9-7.7-20 5.3-2.9 10.9-6.1 13.9-11.4s2.3-13.2-3.1-16c4.9-7 6.2-16.4 3.3-24.5-2.8-8.1-9.7-14.6-18-17 1.7-6.1-.1-13.1-4.4-17.7s-11.2-6.8-17.4-5.4c-.9-4.8-4.7-8.9-9.4-10.1-4.7-1.2-10.1.6-13.1 4.4-3.6-11.9-8.2-23.3-21.6-26.8-8.9-2.3-19.4 1.4-23.5 9.5-1.7-5-9.3-5.3-13.2-1.7s-5 9.2-5.7 14.4c-2-4.8-13.8-8.1-13.3-.4-.4-5-2.5-10.1-6.4-13.2-3.9-3.1-9.8-4-14.1-1.3-4.3 2.6-6.2 8.9-3.4 13.1-5.4-5-14.3-1.8-19.8 3.1-7.3 6.7-12.1 16.4-11.5 26.3.6 9.9 7.3 19.4 16.8 22.1-6.1 2.8-5.4 12.9.3 16.4 5.7 3.5 13.4 1.5 18.5-2.8-1.1 5.2 2.8 10.4 7.7 12.5 4.9 2.1 10.4 1.6 15.6.5 9.7-2.1 17.3-6.3 25.1-12 2.9 5.5 10.1 7.4 16.2 6.1 5.6-1.3 12.4-4.9 16.1-9.4-1.3 9.1 5.5 18.7 14.5 20.4-3 10-4.3 20.5-4.1 30.9.1 2.7.3 5.6 2.1 7.7 2.1 2.5 6.3 3.4 6.9 6.6.2 1 0 2-.2 3-.2 6.8-2.5 16-4.8 22.4-1.4 3.8-6.1 11.9-.4 14.1 1.6.6 3.3 1.3 4.9 1.9.8.3 1.7.7 2.6.6 1.6-.1 2.9-1.2 4.2-2.3 2.2-1.9 4.4-3.7 7.1-4.9 2.6-1.2 5.7-1.7 8.4-.9.5.1 1 .3 1.4.1 0 0 3.8-7.7 5-10.4 1.6-3.8 3.9-7.1 5.7-10.6z"/></g><path class="st12" d="M1392.2 462.9c38.2 13 79.8-3.9 98.8-38.2l-.8 1.1c-21.3 26.9-58.3 38.7-92.4 26.7l-6.6-2.3 1 12.7zM1248 751.8c39.4 3.5 96.3 5.9 96.3 5.9l3.5 1.6c-11.1.3-23.8.3-37.5 0-18.9-.4-38.1-2.5-61.5-2.5-2.9.4-3.6-4.6-.8-5zM1483.4 737.8l7 3.6-7.9 29.8c2.1-15 4-29.6.9-33.4z"/></g><g><path class="st13" d="M1300.6 419.3h-82.4c6.6-95.5 4.1-191-7.6-286.5-2.8-22.2-20.3-41.6-38.5-43.3-162.5-13.8-325.1-13.8-487.6 0-18.2 1.6-35.7 21.1-38.5 43.3-9.3 75.9-12.8 151.9-10.5 227.8l-.3-.9-73.4 126.8c-4.1 7.1 2.7 15.5 10.5 12.9l71.1-23.4c.8 7.5 1.7 15 2.6 22.5 2.8 22.2 20.3 41.6 38.5 43.3 162.5 13.8 325.1 13.8 487.6 0 9.1-.8 18-6.1 25-14v4.4l109.3-97.5c6.3-5.3 2.4-15.4-5.8-15.4z"/></g><g><path class="st4" d="M1583.8 527l-44.3-12.9c-29.9 58.6-40.8 142-56.9 203 54.6 27.6 98.8 40 132.6 37.1 1.9-31.2 13.3-93.9 23.1-131.9 10.5-41.3-13.7-83.5-54.5-95.3z"/></g><g><path d="M935.8 386.8c.7 0 1.7-1.1.6-1.1-.7 0-1.7 1.1-.6 1.1z" fill="#7688b7"/><path class="st1" d="M892.9 314.2c0-10.6 4.9-21 14.7-31.3 9.8-10.2 25.2-20.7 46.1-31.3.2-.2 1.5-2.8 3.8-7.6s3.5-11.9 3.5-21.1c0-9-2.4-17.5-7.1-25.4-4.7-7.9-12.1-14.4-22.1-19.4-10-5-22.4-7.4-37.2-7.4-9.2 0-18 2.2-26.3 6.6l-7.9-30.8c5.1-2.8 12.4-5.2 22.1-7.3 9.7-2.1 21.1-3.1 34.2-3.1 23 0 42 3.7 57 11.2 15 7.5 26 17.4 33 29.7s10.5 25.9 10.5 40.6c0 11.8-2.3 21.7-6.9 29.9-4.6 8.2-10.1 14.7-16.4 19.7-6.3 5-14.7 10.5-25.1 16.8-7.6 4.6-13.4 8.3-17.3 11.1-3.9 2.8-7.1 5.9-9.7 9.3-1.6 3.2-2.3 6.9-2.1 11.1 0 18 1.2 32.7 3.5 44.2h-33.5c-10.7-16.9-16.3-32.1-16.8-45.5zm9.4 130.5c-6-5.4-9-12.2-9-20.2 0-9.2 3.4-16.8 10.2-22.6 6.8-5.9 14.9-8.8 24.4-8.8 9.4 0 16.9 2.8 22.5 8.5 5.5 5.6 8.3 12.4 8.3 20.2 0 9.7-3.3 17.3-9.8 22.8-6.6 5.5-15.3 8.3-26.1 8.3-7.7-.1-14.5-2.8-20.5-8.2z"/><path class="st7" d="M819.5 292.1c-1.2-6.1.5-12.7 5-19.6 4.5-7 12.3-14.7 23.2-23.1.1-.2.6-1.8 1.4-4.8.8-3 .7-7.2-.3-12.5-1-5.2-3.3-9.8-6.9-13.9-3.6-4.1-8.5-7-14.9-8.7-6.3-1.8-13.7-1.8-22.2-.2-5.3 1-10.1 3.2-14.4 6.7l-7.9-16.9c2.6-2.1 6.6-4.4 12-6.6 5.4-2.3 11.8-4.1 19.4-5.5 13.3-2.5 24.7-2.4 34.1.2 9.5 2.7 16.9 7.2 22.3 13.5 5.4 6.3 8.9 13.8 10.5 22.3 1.3 6.8 1 12.8-.7 18-1.8 5.2-4.2 9.6-7.3 13.2-3.1 3.6-7.3 7.7-12.6 12.4-3.9 3.5-6.8 6.2-8.8 8.3-2 2-3.5 4.2-4.6 6.4-.6 2-.6 4.2 0 6.6 2 10.4 4.2 18.7 6.8 25.1l-19.3 3.7c-8.2-8.8-13.1-16.9-14.8-24.6zm19.6 74.2c-4-2.5-6.5-6-7.4-10.7-1-5.3.1-10 3.4-14.2 3.3-4.1 7.6-6.7 13.1-7.7 5.4-1 10.1-.2 13.9 2.4 3.8 2.7 6.1 6.2 7 10.8 1.1 5.6 0 10.3-3.2 14.2s-7.9 6.5-14.1 7.6c-4.4.9-8.6.1-12.7-2.4z"/><path class="st10" d="M993.4 472.1c-2.5-3.8-3.2-8.1-2-12.9 1.2-5.1 4.3-9 9.1-11.7 4.8-2.6 9.8-3.3 14.9-2.1 5.3 1.3 9.1 3.9 11.3 7.8 2.2 3.9 2.8 8.1 1.7 12.5-1.3 5.5-4.3 9.5-9 11.9-4.7 2.5-9.8 3-15.5 1.7-4.5-1-8-3.4-10.5-7.2zm21.6-77.5c0-6.5.5-12.5 1.5-17.8 1.6-6.7 5.5-11.9 11.7-15.6 6.2-3.8 15-7.7 26.5-11.8 8-3 14.1-5.4 18.5-7.3 4.4-1.9 8.2-4.3 11.6-7.1.2-1 1.1-3.5 2.5-7.5s2.3-6.9 2.8-8.6c1.9-7.7 1.4-15.6-1.5-23.7-2.8-8.1-8.1-15.4-15.9-21.8-7.8-6.4-17.6-11-29.4-13.9-7.4-1.8-14.2-2.1-20.4-.9v-16.8c3.3-1 8-1.4 14.1-1.2 6.1.2 12.3 1.1 18.7 2.6 25 6 42.1 16.4 51.4 30.9 9.3 14.6 11.8 31.1 7.3 49.6-1.9 8-5.3 14.7-10.2 20.1-4.8 5.3-10.1 9.6-15.8 12.6-5.7 3.1-12.8 6.3-21.2 9.7-6.4 2.6-11.4 4.8-15.1 6.7-3.6 1.8-6.5 4-8.8 6.6-.5 1.3-1.1 3.6-1.9 6.9-3.3 13.5-5.4 24.3-6.5 32.4l-18.2-4.4c-1.1-6.7-1.7-13.2-1.7-19.7z"/><path class="st3" d="M774.4 407.7c-3.6-4.3-5-9.4-4.3-15.1.7-5.7 2.7-13.1 6-22 2.4-6.5 4.1-11.9 5-16.1.9-4.2.8-7.9-.4-11.2l-7.3-8.8c-4.1-5-9.5-8.4-16.2-10.3-6.7-1.9-14-2-21.8-.1-7.8 1.9-15.5 5.9-22.9 12-4.7 3.8-8 7.7-10 11.6l-8.7-6.4c.9-2.3 2.6-5.1 5.3-8.3 2.6-3.2 5.5-6.1 8.5-8.5 15.1-12.5 29.2-18.2 42.3-17.2 13.1 1 24.4 7.3 33.8 18.7 3.8 4.7 6.3 9.6 7.4 15 1.1 5.3 1.4 10.4.8 15.3-.6 4.8-1.7 10.8-3.2 17.8-1.2 5.5-2 9.8-2.4 12.9-.4 3.1-.3 5.9.2 8.4l.6.8c7.9 9.5 14.2 16.8 19 21.8l-9.5 7.8c-7.2-3.9-14.6-9.9-22.2-18.1zm45.7 58.8c-3-.1-5.5-1.5-7.7-4.1-2.3-2.8-3.2-6-2.7-9.8.5-3.7 2-6.6 4.6-8.8 2.9-2.4 5.8-3.4 8.6-3 2.8.4 5.3 1.8 7.3 4.3 2.4 2.9 3.3 6.2 2.9 9.8-.5 3.6-2.1 6.6-4.9 8.9-2.4 1.9-5.1 2.8-8.1 2.7z"/></g></svg>