<svg id="Layer_1" xmlns="http://www.w3.org/2000/svg" viewBox="0 0 1728 763.5"><style>.st1,.st7{fill:none;stroke:#ff5c00;stroke-width:1.0101;stroke-miterlimit:10}.st7{stroke:#1d016a}.st8{fill:#f98158}.st12{fill:#4f5459}.st13{fill:#bbbdbf}.st14{fill:#d0d2d3}.st15{fill:#fff}.st16{fill:#717ea7}.st21{fill:#465f4b}.st22{fill:#607965}.st23{opacity:.5}.st24{fill:none;stroke:#a2b99e;stroke-width:1.3566;stroke-linecap:round;stroke-linejoin:round;stroke-miterlimit:10}</style><path d="M2006.2 232.7l-85.5 6.2c-2 .1-3.6-1.4-3.6-3.4V150c0-1.8 1.4-3.2 3.1-3.4l85.5-6.2c2-.1 3.6 1.4 3.6 3.4v85.5c0 1.8-1.4 3.3-3.1 3.4z" fill="#1d016a"/><path class="st1" d="M2010.9 228.3l-85.5 6.2c-2 .1-3.6-1.4-3.6-3.4v-85.4c0-1.8 1.4-3.2 3.1-3.4l85.5-6.2c2-.1 3.6 1.4 3.6 3.4V225c0 1.7-1.3 3.2-3.1 3.3z"/><path d="M1893.9 240.9l-47.5 3.5c-1.1.1-2-.8-2-1.9v-47.4c0-1 .8-1.8 1.7-1.9l47.5-3.5c1.1-.1 2 .8 2 1.9V239c.1 1.1-.7 1.9-1.7 1.9z" fill="#605396"/><path class="st1" d="M1897.2 237.8l-47.5 3.5c-1.1.1-2-.8-2-1.9V192c0-1 .8-1.8 1.7-1.9l47.5-3.5c1.1-.1 2 .8 2 1.9v47.4c.1 1.1-.7 1.9-1.7 1.9z"/><path d="M2081.5 227l-47.5 3.5c-1.1.1-2-.8-2-1.9v-47.4c0-1 .8-1.8 1.7-1.9l47.5-3.5c1.1-.1 2 .8 2 1.9v47.4c0 1-.7 1.8-1.7 1.9z" fill="#55468f"/><path class="st1" d="M2084.8 223.9l-47.5 3.5c-1.1.1-2-.8-2-1.9v-47.4c0-1 .8-1.8 1.7-1.9l47.5-3.5c1.1-.1 2 .8 2 1.9V222c0 1-.7 1.8-1.7 1.9z"/><path d="M2347.6 365.4l-85.5 6.2c-2 .1-3.6-1.4-3.6-3.4v-85.5c0-1.8 1.4-3.2 3.1-3.4l85.5-6.2c2-.1 3.6 1.4 3.6 3.4V362c0 1.8-1.4 3.3-3.1 3.4z" fill="#303537"/><path class="st1" d="M2352.3 361.1l-85.5 6.2c-2 .1-3.6-1.4-3.6-3.4v-85.5c0-1.8 1.4-3.2 3.1-3.4l85.5-6.2c2-.1 3.6 1.4 3.6 3.4v85.5c0 1.8-1.3 3.2-3.1 3.4z"/><path d="M2274.4 256.4l-85.5 6.2c-2 .1-3.6-1.4-3.6-3.4v-85.5c0-1.8 1.4-3.2 3.1-3.4l85.5-6.2c2-.1 3.6 1.4 3.6 3.4V253c0 1.8-1.4 3.3-3.1 3.4z" fill="#f4f4f4"/><path class="st1" d="M2279.1 252l-85.5 6.2c-2 .1-3.6-1.4-3.6-3.4v-85.5c0-1.8 1.4-3.2 3.1-3.4l85.5-6.2c2-.1 3.6 1.4 3.6 3.4v85.6c0 1.7-1.4 3.2-3.1 3.3z"/><path d="M2005.8 369.4l-85.5 6.2c-2 .1-3.6-1.4-3.6-3.4v-85.5c0-1.8 1.4-3.2 3.1-3.4l85.5-6.2c2-.1 3.6 1.4 3.6 3.4V366c0 1.8-1.3 3.2-3.1 3.4z" fill="#ff5c00"/><path class="st7" d="M2010.5 365l-85.5 6.2c-2 .1-3.6-1.4-3.6-3.4v-85.5c0-1.8 1.4-3.2 3.1-3.4l85.5-6.2c2-.1 3.6 1.4 3.6 3.4v85.5c0 1.8-1.3 3.3-3.1 3.4z"/><path class="st8" d="M1893.6 377.6l-47.5 3.5c-1.1.1-2-.8-2-1.9v-47.4c0-1 .8-1.8 1.7-1.9l47.5-3.5c1.1-.1 2 .8 2 1.9v47.4c0 1-.8 1.8-1.7 1.9z"/><path class="st7" d="M1896.8 374.5l-47.5 3.5c-1.1.1-2-.8-2-1.9v-47.4c0-1 .8-1.8 1.7-1.9l47.5-3.5c1.1-.1 2 .8 2 1.9v47.4c.1 1-.7 1.8-1.7 1.9z"/><path d="M2081.1 363.7l-47.5 3.5c-1.1.1-2-.8-2-1.9v-47.4c0-1 .8-1.8 1.7-1.9l47.5-3.5c1.1-.1 2 .8 2 1.9v47.4c0 1-.7 1.8-1.7 1.9z" fill="#fa7c4e"/><path class="st7" d="M2084.4 360.6l-47.5 3.5c-1.1.1-2-.8-2-1.9v-47.5c0-1 .8-1.8 1.7-1.9l47.5-3.5c1.1-.1 2 .8 2 1.9v47.5c0 1-.7 1.8-1.7 1.9z"/><ellipse cx="859.3" cy="752.5" rx="440.4" ry="8.7" fill="#b3b9c2"/><path class="st8" d="M856.3 17L453.1 174.4c-6.7 2.6-10.1 10.2-7.4 17l212.4 543.9c2.6 6.7 10.2 10.1 17 7.4l403.2-157.5c6.7-2.6 10.1-10.2 7.4-17L873.3 24.4c-2.6-6.7-10.2-10.1-17-7.4z"/><path d="M859.4 25L456.3 182.5c-6.7 2.6-10.1 10.2-7.4 17l212.4 543.9c2.6 6.7 10.2 10.1 17 7.4l403.2-157.5c6.7-2.6 10.1-10.2 7.4-17L876.4 32.5c-2.6-6.8-10.2-10.1-17-7.5z" fill="#ffd07e"/><path class="st12" d="M769.3 107.6l-190.8 74.5c-4.1 1.6-8.6-.9-9.4-5.2l-9.4-51.9c-1.8-9.7 3.6-19.3 12.8-22.9l147.1-57.4c9.2-3.6 19.6-.2 24.9 8.2l28.2 44.6c2.3 3.6.7 8.5-3.4 10.1z"/><circle class="st12" cx="641.4" cy="61.5" r="31.2"/><path transform="rotate(-19.283 758.692 382.524)" class="st13" d="M569.7 117.5h378.1v530.2H569.7z"/><path transform="rotate(-21.33 765.708 379.828)" class="st14" d="M576.7 114.8h378.1V645H576.7z"/><path class="st15" d="M838.1 60.4L491 210.3l210.2 486.8 284.9-123 35.4-89.1z"/><path class="st13" d="M1021.5 485l-62.3 26.9 26.9 62.2z"/><path transform="rotate(-23.373 749.874 183.948)" class="st16" d="M654.2 178.6h191.3v10.8H654.2z"/><path transform="rotate(-23.373 759.943 207.246)" class="st16" d="M664.3 201.9h191.3v10.8H664.3z"/><path transform="rotate(-23.373 742.272 242.534)" class="st16" d="M676.8 237.1h130.8v10.8H676.8z"/><path transform="rotate(-23.373 612.754 270.858)" class="st16" d="M568.3 226.4h88.9v88.9h-88.9z"/><path transform="rotate(21.627 602.339 282.87)" class="st15" d="M580.6 275.1h43.6v15.6h-43.6z"/><path transform="rotate(111.629 625.1 263.917)" class="st15" d="M591.3 256.2h67.6v15.4h-67.6z"/><path transform="rotate(-23.373 797.077 293.17)" class="st16" d="M701.4 287.8h191.3v10.8H701.4z"/><path transform="rotate(-23.373 807.146 316.468)" class="st16" d="M711.5 311.1h191.3v10.8H711.5z"/><path transform="rotate(-23.373 789.474 351.754)" class="st16" d="M724 346.4h130.8v10.8H724z"/><path transform="rotate(-23.373 659.956 380.079)" class="st16" d="M615.5 335.6h88.9v88.9h-88.9z"/><path transform="rotate(21.627 649.534 392.079)" class="st15" d="M627.8 384.3h43.6v15.6h-43.6z"/><path transform="rotate(111.629 672.302 373.132)" class="st15" d="M638.5 365.5h67.6v15.4h-67.6z"/><g><path transform="rotate(-23.373 844.28 402.39)" class="st16" d="M748.6 397h191.3v10.8H748.6z"/><path transform="rotate(-23.373 854.348 425.688)" class="st16" d="M758.7 420.3H950v10.8H758.7z"/><path transform="rotate(-23.373 836.676 460.976)" class="st16" d="M771.2 455.6H902v10.8H771.2z"/><path transform="rotate(-23.373 707.159 489.3)" class="st16" d="M662.7 444.8h88.9v88.9h-88.9z"/><text transform="rotate(-23.373 1626.195 -1438.451)" class="st15" font-size="69.142" font-family="Merriweather-Black">?</text></g><g><path d="M1201.4 656.9c1.8 4 3.2 8.2 4.1 11.4 4.8 17.4 1.6 36.9-9.8 51.4-17.2 21.9-48.4 30.3-77.3 30-16.8-.2-29.1-2.6-44.3-9.4-14.4-6.4-28.2-14.9-37.3-27.4-9.8-13.5-13-31-9-46.8 4.2-16.6 30.5-18.1 45.8-20.5 20.4-3.2 41.1-3.6 61.8-3.8l24.6-.3c9.6-.1 24.8-.9 33.1 4.4 3.4 2.2 6.2 6.4 8.3 11z" fill="#cacab0"/><path d="M1047.8 657.1c-2.2.6-4.4 1.3-6.1 2.8-1.7 1.5-2.7 4.2-1.7 6.3 48.3 1.8 96.8-.3 144.8-6.3 2.4-.3 5.4-1.2 5.7-3.7.4-3.1-3.4-4.5-6.2-4.9-22.1-2.7-45.1-3.3-67.3-3.5-23.3-.2-46.7 2.9-69.2 9.3z" fill="#493d35"/><path class="st21" d="M1163.1 425.7c-2.1 12.1-4.6 24.2-9.2 35.9-1.5 3.8-3.2 7.6-3.9 11.6-1.1 6.9 1 14.7-3.6 21.1-3.9 5.3-11.6 9.4-15.9 15.1-6.1 8.2-11.9 16.5-16.4 25.2-3.3 6.3-4.1 15.8-11.5 20.4-9-21.5-1.5-55.8 10.2-76.6 10.3-18.2 20.7-46.1 50.3-52.7z"/><path class="st22" d="M1183.9 477.5c-2.8 18-6 36.1-12.1 53.6-2 5.7-4.3 11.4-5.1 17.3-1.5 10.3 1.4 21.9-4.8 31.5-5.1 7.9-15.4 14-21.1 22.6-8.1 12.2-15.7 24.6-21.7 37.6-4.3 9.4-5.5 23.6-15.2 30.4-11.9-32.1-2-83.4 13.5-114.3 13.6-27.2 27.3-68.9 66.5-78.7z"/><path class="st21" d="M1046.6 504.6c3 39.2 10 77 20.8 113 1.8-23.3 3.5-46.7 5.3-70 1.3-16.9 2.6-34 9.1-51.3 6.5-17.3 19-35 36.4-45.1-8.9 50.1-17.8 100.1-26.7 150.2 1.5-44.9 16.8-96.1 55.2-134.8 2.7-2.7 5.9-5.6 9.3-5.9 6.6-.7 6.8 7.7 4.8 13.9-10.1 31.2-34.9 61-43.8 92.2-3.6 12.6-4.5 25-6.9 37.6-3.5 18-13 43.3-35.1 52.3-22.5 9.1-30.3-8.7-34.3-23.5-10.6-38.8-8.8-83.7 5.9-128.6z"/><path class="st22" d="M1148.1 518.4c-23.8 50.5-42 102.3-54.5 154.4 18.3-27.5 36.5-55 54.7-82.6 13.2-19.9 26.6-40.1 46.2-56.7 19.5-16.6 46.3-29.4 73.4-29.5-45.1 55.4-90.2 110.8-135.2 166.1 32.9-54.4 86.2-106.6 157.5-126.6 5-1.4 10.7-2.6 14.9-.6 8 3.9 2.5 14.4-4.2 20.6-33.4 31.2-82.7 50.2-114.7 82.3-12.9 13-22.6 27.7-34.1 41.4-16.5 19.7-45.2 44.1-76.9 39.3-32.3-4.9-28.9-32.6-23.3-53.7 14.8-55.5 48.2-109.6 96.2-154.4z"/><g class="st23"><path class="st24" d="M1266 576.6c-20.8 12-41.6 24.2-60.6 38.8-12.6 9.7-24.3 20.4-36 31.1l-13.5 12.3c-11.7 10.7-22.7 22.4-32.5 34.7"/></g><g class="st23"><path class="st24" d="M1240.4 574.4c-1 5.8-3.5 11.4-7.2 16.1"/></g><g class="st23"><path class="st24" d="M1228.7 580.4c-1.3 6-2.7 12.2-6.4 17.2"/></g><g class="st23"><path class="st24" d="M1218.7 589.3c-1.3 5.8-3.6 11.4-6.7 16.5"/></g><g class="st23"><path class="st24" d="M1177.7 645c4.2-2.5 9-3.9 13.8-4.2"/></g><g class="st23"><path class="st24" d="M1188.8 635.1c4.1-1.5 8.5-2.3 12.8-2.1"/></g><g class="st23"><path class="st24" d="M1264.3 505.6c-8.6 3.1-21.7 5.6-29 10.9-27 19.4-49.5 40.6-64.1 69.7"/></g><g class="st23"><path class="st24" d="M1150.7 590.2c-1.5 6.8-1.9 13.9-1.3 20.7"/></g><g class="st23"><path class="st24" d="M1157.3 584.2c-1.5 4.5-2.4 9.3-2.6 14"/></g><g class="st23"><path class="st24" d="M1211.7 538.7c8.3-2.3 16.5-4.6 24.8-6.9"/></g><g class="st23"><path class="st24" d="M1200.5 550.9c6-2.4 12.6-3.4 19.1-3"/></g><g class="st23"><path class="st24" d="M1186.4 568.7c6-3.4 12.8-5.4 19.6-5.8"/></g><g class="st23"><path class="st24" d="M1130.6 560c-7.7 11.9-14.2 24.4-20 37.2-5.6 12.4-12.9 24.5-18.5 37"/></g><g class="st23"><path class="st24" d="M1087.6 642.8c-8.3 17.4-15.2 35.4-20.6 53.7"/></g><g class="st23"><path class="st24" d="M1168 592.1c-6.5 10.4-15.1 19.5-24.1 28.1-8 7.7-16.5 15-23.8 23.3-7.3 8.3-13.5 17.8-16.3 28.2"/></g><g class="st23"><path class="st24" d="M1077.4 609.2c10.4-18.2 21.5-38.1 35.1-54.2 3.4-4 6.8-7.9 10.5-11.6 4.3-4.3 9-8.1 13.5-12.2 7-6.3 3.9-4 9.9-11.2"/></g><g class="st23"><path class="st24" d="M1117.7 451.2c-14 38.2-16.1 50.8-15.1 91.3"/></g><g class="st23"><path class="st24" d="M1044 535.3c-11.1 27.2-2.1 63.6 1 92.2"/></g><path class="st14" d="M1030.6 660.1c2.9 1.6 6 2.7 9.3 3.4-.2.9-.3 1.9.1 2.7 48.3 1.8 96.8-.3 144.8-6.3 2.2-.3 4.9-1.1 5.5-3.3 3.2-1.1 5.9-2.7 8.1-4.8 1 1.6 2 3.2 2.8 4.9 1.8 4 3.2 8.2 4.1 11.4 4.8 17.4 1.6 36.9-9.8 51.4-17.2 21.9-48.4 30.3-77.3 30-16.8-.2-29.1-2.6-44.3-9.4-14.4-6.4-28.2-14.9-37.3-27.4-9.8-13.5-13-31-9-46.8.7-2.1 1.7-4 3-5.8z"/></g></svg>