<svg id="Layer_1" xmlns="http://www.w3.org/2000/svg" viewBox="0 0 1728 1072"><style>.st0{fill:#313537}.st1{fill:#8393c6}.st2{fill:#4f5459}.st3{fill:#1d016a}.st4{fill:#e68662}.st5{fill:#190865}.st6{fill:#524889}.st13,.st7{fill:none;stroke:#ff5c00;stroke-width:1.0101;stroke-miterlimit:10}.st13{stroke:#1d016a}.st16{fill:#c84e1b}.st17{fill:#d56f48}.st18{fill:#ffd07e}.st19{fill:none;stroke:#55468f;stroke-width:1.7407;stroke-miterlimit:10}.st20{fill:#fff}.st21{fill:#eff1f5}.st23,.st26{fill:none;stroke:#190865;stroke-width:2;stroke-miterlimit:10}.st26{stroke:#f97c4e;stroke-width:2.7508}</style><ellipse class="st0" cx="1516.5" cy="542.5" rx="96.1" ry="90.8"/><path class="st1" d="M1525.9 670c0 28-49.9 28-49.9 0l9.9-83.9 33-5.7 7 89.6z"/><path class="st2" d="M1437.9 837.8l-12.5 33.5c-17.4 46.7-27.4 95.8-29.6 145.5l-5.3 121.8 55.4-18.6 41-178.3c16.2-5.1 31-20.1 43.7-36.2l-32.2-112.7-60.5 45z"/><path class="st2" d="M1560.5 830.1l9.1 20.4c21.9 48.8 36.6 100.6 43.8 153.6l18.2 134.5-62.6 7.4-86.6-260.8 31.1-99.8 47 44.7z"/><path class="st3" d="M1437.9 837.8l110.1-28.3 31.5 64.2c-13.4 0-34-25.6-34-25.6l-13.7 2.9c-1.3.3-2.7-.4-3.3-1.6l-1.2-2.4 22.8-7.5s-12.5-6.4-18-5.3c-26.6 5.2-46.1 7.6-60.7 8.1-16.2.4-26.4-1.5-33.5-4.5z"/><path class="st4" d="M1053.7 549.5h53.8v89.6h-53.8z"/><path class="st3" d="M1112.9 548.3c-4.4 25.4-28.7 42.5-54.1 38.1l-5.2-.9v-15.9l59.3-21.3z"/><path class="st5" d="M815.9 895c-5.8-6.3-9.8-17.7-11.4-78.4l3.6-6.6 5.9 3.5c6 27.4 6.1 76.3 1.9 81.5z"/><path class="st6" d="M817 677.2c0 .2.1.4.1.5 1.4 9.2-.9 17.6-1.1 26.6-.1 6.5.5 11.9-.5 18.6-.2 1.2-3 9.4-3.1 9.1-7-20.1-26.1-34.3-46.7-39.9-13-3.5-26.5-4-39.9-3.5-34.7 1.2-69 8.8-103.7 8.3-7.7-.1-15.6-.7-22.4-4.2-7.7-4-9.7-9.7-12-17.4-2.4-8-5.2-15.3-6-23.7-.5-5.9-.4-12 2-17.3 6.1-13.2 23.4-16.6 33.7-26.8 9-8.9 11.9-22.5 10.6-35.1-2-20-16.3-36.6-17.7-56.5-1.2-18 15.3-36.8 34-29.3 5.8 2.3 10.6 6.6 16.6 8.4 10.9 3.3 22.3-2.5 33.6-2.6 10-.1 19.8 4.2 27.6 10.5 7.8 6.3 13.9 14.5 19.3 22.9 6.1 9.5 11.5 19.6 13.2 30.7 1.3 8.4.4 17-1.2 25.3-1.8 9.5-4 20.4 2.3 27.7 5.1 6 14.9 7.8 17.7 15.2 1.6 4.2.3 9.1 1.8 13.4 1.7 4.8 6.4 7.8 11.2 9.5s9.9 2.5 14.4 4.7c9 4.7 14.5 14.8 16.2 24.9z"/><path class="st4" d="M717.1 680.1c0 28-56 28-56 0l11.1-83.9 37-5.7 7.9 89.6z"/><path class="st3" d="M266.7 605.4l26.3.9c19.3-7.6 20.3-47.8 12.8-66.7-7.5-24.9-14.2-43.5-19-54.4-2.4-5.5-8.3-8.6-14.3-7.8-25.2 3.5-47.3 12.5-66.5 26.6-4.1 3-6.2 8.1-5.3 13.1 2.1 12.2 6.9 26.9 12 39.4 3.3 8.2 7.8 15.9 13.4 22.7 4.7 5.7 9 10.4 13.4 14.7 7.2 7 16.9 11.2 27.2 11.5z"/><path class="st1" d="M1339.5 588.4c3.2 12.8-5 34-19.5 20.6-9-8.3-14.1-9.8-14.9-33.2-.1-3.1 6-7.9 8.8-9.4 2.8-1.4 6.2-.2 9 1.3 7.9 4.6 14.4 11.9 16.6 20.7z"/><path class="st4" d="M936.6 327.9c7.8 13.2 5.6 39.6-14.9 29.4-12.8-6.3-19-6.3-27.6-32.1-1.2-3.5 4-10.8 6.7-13.3s6.9-2.3 10.5-1.5c10.2 2.3 19.9 8.4 25.3 17.5z"/><path class="st1" d="M188.4 334.2c.2 13.2-12.7 31.9-23.7 15.6-6.9-10.2-11.5-12.7-6.9-35.7.6-3.1 7.6-6.4 10.7-7.1 3.1-.8 6.1 1.2 8.4 3.3 6.7 6.2 11.3 14.8 11.5 23.9z"/><path class="st4" d="M601.9 767.2l46.3-8.4-18.1-99.4-14.7 2.7c-17.5 3.2-29.1 19.9-25.9 37.4l12.4 67.7z"/><path class="st3" d="M2006.2 387l-85.5 6.2c-2 .1-3.6-1.4-3.6-3.4v-85.5c0-1.8 1.4-3.2 3.1-3.4l85.5-6.2c2-.1 3.6 1.4 3.6 3.4v85.5c0 1.8-1.4 3.3-3.1 3.4z"/><path class="st7" d="M2010.9 382.6l-85.5 6.2c-2 .1-3.6-1.4-3.6-3.4V300c0-1.8 1.4-3.2 3.1-3.4l85.5-6.2c2-.1 3.6 1.4 3.6 3.4v85.5c0 1.7-1.3 3.2-3.1 3.3z"/><path d="M1893.9 395.2l-47.5 3.5c-1.1.1-2-.8-2-1.9v-47.4c0-1 .8-1.8 1.7-1.9l47.5-3.5c1.1-.1 2 .8 2 1.9v47.4c.1 1.1-.7 1.9-1.7 1.9z" fill="#605396"/><path class="st7" d="M1897.2 392.1l-47.5 3.5c-1.1.1-2-.8-2-1.9v-47.4c0-1 .8-1.8 1.7-1.9l47.5-3.5c1.1-.1 2 .8 2 1.9v47.4c.1 1.1-.7 1.9-1.7 1.9z"/><path d="M2081.5 381.3l-47.5 3.5c-1.1.1-2-.8-2-1.9v-47.4c0-1 .8-1.8 1.7-1.9l47.5-3.5c1.1-.1 2 .8 2 1.9v47.4c0 1-.7 1.8-1.7 1.9z" fill="#55468f"/><path class="st7" d="M2084.8 378.2l-47.5 3.5c-1.1.1-2-.8-2-1.9v-47.4c0-1 .8-1.8 1.7-1.9l47.5-3.5c1.1-.1 2 .8 2 1.9v47.4c0 1-.7 1.8-1.7 1.9z"/><path d="M2347.6 519.7l-85.5 6.2c-2 .1-3.6-1.4-3.6-3.4V437c0-1.8 1.4-3.2 3.1-3.4l85.5-6.2c2-.1 3.6 1.4 3.6 3.4v85.5c0 1.8-1.4 3.3-3.1 3.4z" fill="#303537"/><path class="st7" d="M2352.3 515.4l-85.5 6.2c-2 .1-3.6-1.4-3.6-3.4v-85.5c0-1.8 1.4-3.2 3.1-3.4l85.5-6.2c2-.1 3.6 1.4 3.6 3.4V512c0 1.8-1.3 3.2-3.1 3.4z"/><path d="M2274.4 410.7l-85.5 6.2c-2 .1-3.6-1.4-3.6-3.4V328c0-1.8 1.4-3.2 3.1-3.4l85.5-6.2c2-.1 3.6 1.4 3.6 3.4v85.5c0 1.8-1.4 3.3-3.1 3.4z" fill="#f4f4f4"/><path class="st7" d="M2279.1 406.3l-85.5 6.2c-2 .1-3.6-1.4-3.6-3.4v-85.5c0-1.8 1.4-3.2 3.1-3.4l85.5-6.2c2-.1 3.6 1.4 3.6 3.4V403c0 1.7-1.4 3.2-3.1 3.3z"/><path d="M2005.8 523.7l-85.5 6.2c-2 .1-3.6-1.4-3.6-3.4V441c0-1.8 1.4-3.2 3.1-3.4l85.5-6.2c2-.1 3.6 1.4 3.6 3.4v85.5c0 1.8-1.3 3.2-3.1 3.4z" fill="#ff5c00"/><path class="st13" d="M2010.5 519.3l-85.5 6.2c-2 .1-3.6-1.4-3.6-3.4v-85.5c0-1.8 1.4-3.2 3.1-3.4l85.5-6.2c2-.1 3.6 1.4 3.6 3.4v85.5c0 1.8-1.3 3.3-3.1 3.4z"/><path d="M1893.6 531.9l-47.5 3.5c-1.1.1-2-.8-2-1.9v-47.4c0-1 .8-1.8 1.7-1.9l47.5-3.5c1.1-.1 2 .8 2 1.9V530c0 1-.8 1.8-1.7 1.9z" fill="#f98158"/><path class="st13" d="M1896.8 528.8l-47.5 3.5c-1.1.1-2-.8-2-1.9V483c0-1 .8-1.8 1.7-1.9l47.5-3.5c1.1-.1 2 .8 2 1.9v47.4c.1 1-.7 1.8-1.7 1.9z"/><path d="M2081.1 518l-47.5 3.5c-1.1.1-2-.8-2-1.9v-47.4c0-1 .8-1.8 1.7-1.9l47.5-3.5c1.1-.1 2 .8 2 1.9v47.4c0 1-.7 1.8-1.7 1.9z" fill="#fa7c4e"/><path class="st13" d="M2084.4 514.9l-47.5 3.5c-1.1.1-2-.8-2-1.9V469c0-1 .8-1.8 1.7-1.9l47.5-3.5c1.1-.1 2 .8 2 1.9V513c0 1-.7 1.8-1.7 1.9z"/><path class="st1" d="M285.8 609l4.8-1.4c18.8-5.6 29.7-25.6 24.1-44.4l-10.5-35.4c-6.4-21.5-29.1-33.8-50.6-27.5-21.5 6.4-33.8 29.1-27.5 50.6l9.1 30.6c6.4 21.5 29.1 33.9 50.6 27.5z"/><path class="st3" d="M717.3 586.2c1 25.7-19.2 47.6-44.9 48.6l-5.3.2 1.4-10.7 48.8-38.1z"/><path class="st4" d="M678.2 627.6l-5.3.2c-22.8.9-42.2-17.1-43.1-39.9l-1-26.8c-1-25.7 19.2-47.6 44.9-48.6s47.6 19.2 48.6 44.9l.8 21.5c1 25.8-19.2 47.7-44.9 48.7z"/><path class="st3" d="M1485.9 586.2l-5.8 49.4c16.7 1.5 32.2-6 41.7-18.5l-2.9-36.6-33 5.7z"/><path class="st1" d="M1487 628.8l-5.2-.5c-22.7-2.4-39.3-22.9-37-45.6l2.8-26.6c2.7-25.6 25.8-44.3 51.4-41.6 25.6 2.7 44.3 25.8 41.6 51.4l-2.3 21.4c-2.6 25.4-25.7 44.2-51.3 41.5z"/><path transform="rotate(-180 269.753 617.1)" class="st1" d="M246.3 576.4h46.8v81.4h-46.8z"/><path class="st4" d="M1062.1 577.9l-5.5-1.6c-21.7-6.4-34.1-29.4-27.7-51l12-40.6c7.3-24.7 33.5-38.9 58.1-31.6 24.7 7.3 38.9 33.5 31.6 58.1l-10.4 35.2c-7.2 24.6-33.4 38.8-58.1 31.5z"/><path class="st1" d="M214.1 802.7c38.5 24.6 77.3 24.2 115-.1 2.1-1.3 3.7-3.3 4.5-5.6 20.1-53.1 35.6-110.7 43.8-172.7 1.1-8.5-7.2-15.1-15.2-12.2-32 11.4-61.1 24.1-83.3 40.3-4.2 3.1-9.9 2.8-14-.5-23.4-19-52.6-31.7-84.9-41.3-8-2.4-15.7 4.4-14.5 12.6 7.4 53.2 22.7 112.1 43.9 173.5.9 2.5 2.5 4.6 4.7 6z"/><path class="st1" d="M203.7 779.8c0-48.1 136.3-48.1 136.3 0-4.6 22 1.4 56.6 5.1 93.5 0 26.5-146.6 31.7-146.6 5.2l5.2-98.7z"/><path class="st1" d="M201.2 826l85.6 37-145.4 436.4-48.3-14.6z"/><path class="st1" d="M335.6 826L247 864.3l148.4 435.1 48.3-14.6zM199.1 320.2c-5.6 33.4-12 67-17.9 100.2-5.3 31.5-11.4 62.2-5.9 93.6 1.9 10.9 5.2 22.4 8.9 33 17.8 49.2 43.5 101 64.8 149.3l-58.6 23.6c-10.1-28.8-24.4-67.6-34.2-96-14.4-42.3-30.5-87.2-27.5-132.9 3.4-44.3 17.7-85.7 28.4-128 4.4-16.3 8.6-32.6 12.8-49l29.2 6.2zM405.6 315.6c6 45.4 15.3 95.9 16.9 141.7.7 22.8-1.2 45.9-5.6 68.3-14.3 68.3-39.5 132.8-60.8 198.7L297 701.7c20-46.8 40.6-93.2 58.9-140.4 12.4-32.2 22.6-64.1 24.9-98.5.4-5.5.7-12.5.8-18 .5-39.1-3.6-86.7-5.7-126.2-.1 0 29.7-3 29.7-3z"/><path class="st4" d="M950.6 316.7c4.3 42.5 6.5 85.5 11.8 127.7.8 5.6 1.8 12.5 2.8 18.1 2.4 13.4 5.9 26.9 10.3 39.7 18.1 50.1 47.8 95.8 75.4 141.6 8.9 14.5 18 29 27.1 43.5l-66.8 35.6c-15-31.2-30-62.4-44.2-94.1-15-33.6-29.4-67.4-38.8-103.5-5.4-21.1-8.6-43.1-9.5-64.8-.6-13.2-.7-26.8-.5-39.9.6-34.6 2-68.7 2.4-103.2.1.1 30-.7 30-.7zM750.2 796.7c-12.6 41.7-113.9 41.7-121.6 0l-26-113.4c-1.7-9.6 4.5-18.9 14.1-20.9l73.9-15.5 71.3 15.7c8.8 1.9 14.9 10.1 14.1 19.1-4.7 57-13.8 73.8-25.8 115z"/><path class="st4" d="M768.1 845.6c.3 40.2-118.2 55.2-118.5 15l-22.4-83.1c0-46.5 126.7-46.5 126.7 0-7.9 29.5.6 50.2 14.2 68.1z"/><path class="st16" d="M737.1 802.6l31 43c27.6 41.8 42.3 114.8 8 277-15.2 45.9-57.4 60.8-68.4-9-11-69.8-24.6-253-24.6-253s-21.8-58 54-58z"/><path class="st16" d="M626.1 785.9l12 79c-18 60.8-60.1 178.6-67.7 260-3.8 31.3 50.2 42 61.2 13.7 23.2-55.3 71.5-137.4 81.9-231.5 0 0 4.8-72.9-25.2-109-30-36.1-66.7-44.8-62.2-12.2z"/><path class="st4" d="M761.8 662.6c-31.7-6.3-52 28.6-30.3 43.5 40.6 37.7 73.2 58.1 89.8 83.3-7.3 18.9-22.4 34.6-41.7 51.1-12.2 7.8-6.7 38.6 4.2 31.6 28.6-18.4 62.6-39.7 82.5-62 7.9-8.8 8.6-21.9 1.7-31.6-51.3-72.4-80.9-108.1-106.2-115.9z"/><path class="st5" d="M536.9 821.4c-.7-1.3-1-2.7-1-4.2-.2-2.9-.2-5.7-.2-8.6l.1-2.1c.2-.7.3-1.4.6-2.1.2.7.3 1.4.4 2.2l-.1 2.1c-.1 2.8-.1 5.7.2 8.5.1 1.4.2 2.8 0 4.2z"/><path class="st4" d="M1145.3 768.7c-15.4 43.9-113.7 61.4-128.5 14.8l-42-154.2c-3.7-15.2 8.7-29.5 24.3-27.9l84.7-.1 82.5 20.3c13.2 1.8 21.9 14.7 18.7 27.7l-39.7 119.4z"/><path class="st4" d="M1182.5 632.9c26 42.9 48 89 63.9 136.4 15.8 46.7 26 94.6 34.9 142.7l-29.1 7.8c-15.8-44.3-32.8-88.5-54.5-129.8-21.3-40.7-47.1-78.2-76.8-113.1l61.6-44z"/><path class="st4" d="M1318.6 972.2c-2.6-1.6-5.2-3.1-7.5-5-1.1-.8-5.5-4-5.1-5.4.2-.6.7-1 1.2-1.4 4.8-4 7.7-9.9 11.5-14.8 1.6-2.1 4.6 0 6.8.6 2.8.8 5.6 1.5 8.5 2 5.8 1 12.2 1.6 17.9.2 1.6-.4 3.3-2.2 3.1-3.8-.4-2.5-2.2-2.4-3.9-2.5-10.4-.2-14.9-2.4-17.4-3.2-14.7-4.4-27.7-11.1-40-19.3-6.7-4.5-10.9-11-19.8-14.6-2.7-1.1-4.6-3.7-7.3-4.7s-6-1.1-8.4.5c-2.7 1.8-3.9 5.1-4.9 8.2-2.2 7.1-3.4 14.4-3.7 21.8-.3 6.7-1.4 14.8-.6 21.4.6 5.2 2.8 9.4 2.3 14.6-.5 5.6-1.7 11-4.3 16.1-.4.9-.9 1.7-1.1 2.7-.4 2.6 2.2 5 4.8 5.2s5.2-1.1 7.2-2.8c3.7-3 6.3-7.2 8.1-11.6.9-2.1 1.9-4.6 2.2-6.9.9-6.9 3.5-11.2 10-5.6 8.3 7.2 17.8 13.1 28 17.3 5.1 2.1 10.2 4.3 15.5 5.7 4.2 1.1 8.1 1.2 11.9 1 2.9-.2 7.7-2.5 4.9-6.1-1-1.3-3.1-1.7-4.7-2.2-5.4-1.6-10.2-4.3-15.2-7.4zM1300.3 958c15 10 33.5 14.8 51.5 13.4"/><path class="st4" d="M1309.4 950c13.5 8.2 30 13.6 46 14.9.7.1 1.4.1 1.9.6.8.9.3 2.4-.5 3.3-2.2 2.6-5.7 3.3-8.9 3.5-8.4.6-16.7-1.1-24.8-3.3-8.1-2.3-16.2-5.2-22.6-10.9"/><path class="st4" d="M1316.3 941.7c12.1 6 26.6 9.4 40.2 9.4.6 0 1.2 0 1.7.4.8.7.4 2-.2 2.9-1.7 2.3-4.6 3.2-7.3 3.6-7.1 1.1-14.3.3-21.4-1.1-7-1.3-14.2-3.3-20-7.6"/><path class="st1" d="M1241.1 1124.9h-67.8L1086 927.6l-32.3 197.3h-63.6l26.7-332.7c-7.4-74.2 121-97.7 128.5-23.5l95.8 356.2z"/><path class="st17" d="M1565.6 662.5l-64.7-9.4-69.4 22.9c-3.5 1.2-5.4 4.9-4.5 8.4l8.2 114.6c.7 2.7-1.5 5.3-4.3 5.1-5.8-.4-10.8 3.8-11.4 9.5l-.5 4.7c-.8 7.1 3.4 13.8 10.1 16.1l8.9 3.2c27.4 1.6 54-1.3 78.6-16.3 6.7-4.1 15.1-4.6 22.3-1.3l21.8 9.9c6.1-3.8 8.8-11.3 6.6-18.1-1.7-5.4-5.9-9.7-11.2-11.6l-9-3.3c.5-1.8-.7-3.6-2.6-3.9h-.2l28.5-120.1c1.1-4.8-2.2-9.7-7.2-10.4z"/><path class="st1" d="M1562.9 662.1c-27.9-1.1-29.1 24-20.1 45.9 32.6 28.6 64.3 34 82.8 64.1-7.5 16.6-28 49.8-49.2 75.7-9.8 7.8 6.2 27.9 16 20.1 22.7-23 49.4-48.8 72.9-73.3 9-9.3 10.1-23.6 2.5-34.1-24.8-34.2-53.4-65-84.3-90-6.1-4.8-12.7-8.1-20.6-8.4zM1430.5 676.4c-22.8 6.4-54.1 46.3-65.3 44.1-7.6-23.8-21-61.9-18.7-113.2l-20.6-.5c-15.9 66.2-2.4 100.8 1.5 145.5 1.4 16.1 17.2 27 32.8 22.4 30.6-9 82.5-38.3 82.5-38.3s10.6-66.4-12.2-60z"/><path class="st18" d="M218.6 343.5l37 79.1c4.7 10.1 18.2 12.4 25.9 4.3l60.5-63 86.7-10.7c11.1-1.4 17.4-13.5 12.1-23.3l-41.3-77 16.6-85.8c2.1-11-7.4-20.7-18.5-18.7l-86 15.5-76.4-42.3c-9.8-5.4-22 .7-23.5 11.8l-11.9 86.5-63.8 59.6c-8.2 7.6-6.1 21.1 3.9 26l78.7 38zM1049.5 266.6l-11.2 86.6c-1.4 11.1-13.6 17.3-23.4 12l-76.7-41.7-85.8 16.1c-11 2.1-20.6-7.6-18.6-18.6l15.9-85.9-41.9-76.7c-5.4-9.8.8-22 11.9-23.4l86.6-11.4 60-63.5c7.7-8.1 21.1-6 26 4.1l37.6 78.8 78.9 37.4c10.1 4.8 12.3 18.2 4.1 25.9l-63.4 60.3zM1393.5 548.1l-1 46.1c-.1 5.9-6.1 9.8-11.6 7.6l-42.6-17.5-44.1 13.3c-5.7 1.7-11.3-2.8-10.8-8.7l3.5-45.9-26.3-37.9c-3.4-4.8-.8-11.6 4.9-13l44.8-10.8 27.9-36.7c3.6-4.7 10.8-4.3 13.8.7l24.2 39.2 43.5 15.2c5.6 1.9 7.5 8.9 3.6 13.4l-29.8 35z"/><path class="st1" d="M366.6 366.1c5.5 2 10 6 15.4 8.1 5.1 2 9.8 1.4 14.6 4.3 4.8 2.8 16.3 3.7 17.9-3.8 1.7-7.7 12.8-21.8 2.5-28.2-2.9-1.8-6.5-2-10-1.8-7.9.6-15.6.4-23.5.6-7.8.2-13 6-20.1 6.3-10.7.5-30 1.8-26.8 17.9.1.4.2.7.5.9.5.3 1.1 0 1.5-.3 8.9-5.9 17.9-7.7 28-4zM214.5 343c-4.3 4.4-8.5 5.8-13.9 8.3-5.3 2.5-7 6.3-8.7 9.7-1.7 3.5-7.5-3.7-8.4-4.8-3.3-4.1-7.4-9.5-5.3-15 .8-2 .1-5.4 1.2-7.3 1.8-3.2 2.1-6.1 11.4-9.9 5.1-2 12.2 2 17.6 2 3.7 0 8.7-5.8 12-7.4 3.7-1.7 8.3-2.1 12.7-1.1 2.8.6 5.6 1.8 7.5 3.7 2 2 2.6 4.6 1 7.1-3.4-.4-6.9-.8-10.3-1.1-1.7-.2-2.1-.2-3.2.7-1.1.8-1.9 1.7-3.2 2.2-.5.2-1.1.4-1.7.6-1.9.9-3.3 3.7-4.3 5.4-1.4 2.5-2.5 5-4.4 6.9z"/><path class="st4" d="M961.4 326.8c-.6 7.2-3.4 11.5-6.4 17.8-3 6.1-1.7 10.8-.7 15.2 1 4.4-9.4 2.2-11.1 1.8-6-1.3-13.6-3.1-15.9-9.6-.8-2.4-3.9-5-4.4-7.5-.7-4.2-2.6-7 3.1-17.3 3.1-5.6 12.5-7.1 17.4-11.1 3.3-2.7 3.5-11.7 5.4-15.5 2.1-4.2 6-8 10.6-10.4 3-1.5 6.4-2.5 9.5-2.2 3.2.3 5.8 2.3 6.1 5.7-3.4 2.2-6.8 4.4-10.1 6.6-1.6 1.1-2 1.4-2.4 3-.3 1.5-.4 2.9-1.3 4.4-.3.6-.7 1.1-1 1.8-1 2.1-.3 5.7.1 8 .5 3.1 1.3 6.1 1.1 9.3z"/><path class="st1" d="M1360.6 593.2c.9-6.2-2.2-12.8.5-18.8.2-.4.4-.8.5-1.3.2-.6.2-1.2.3-1.9.8-4.4 5.3-7.7 7.7-11.2.1-.1.2-.2.2-.4s-.1-.3-.3-.4c-1.5-1.3-3.6-1.5-5.5-1.3-5.3.7-9.2 4.4-11.7 9-1.9 3.5-2.3 9-5.7 11.5-3.5 2.6-8.5 2.1-12 5.1-1.8 1.6-3 3.8-3.8 6.1-2.5 6.9-2.7 16.1.9 22.7 1.2 2.1 11.9 9.1 12.6 4.8.6-3.8 1.1-8 5.4-11.9 4.5-3.9 8.1-6.5 10.9-12M242.8 581.9c-7.5 2.2-15.4-2.1-17.6-9.6-2.2-7.5 2.1-15.4 9.6-17.6 7.4-2.2 15.5 25 8 27.2z"/><path class="st3" d="M237.2 561.4l2.2 3.2c1.4 2.1 4.7 1 4.6-1.5l-.7-13.8c-.1-1.6-.6-3.1-1.6-4.4l-3.9-5.1c-1.2-1.6-1-3.9.6-5.3 24.4-20.7 41.4-30.5 57.1-22.1l-8.8-22.8-62.3 16.1-8.7 33.6 9 24.5 1.6-2.2c2.6-3.5 7.8-3.8 10.5-.5.2 0 .3.1.4.3z"/><path class="st19" d="M292.9 537.7l6 14.3"/><path class="st20" d="M308.1 560.2l-25.6 8.4c-.9.3-1.2 1.5-.5 2.1 1.6 1.5 4 3.9 5.1 4.8 8.3 7 22.4 1.5 22.9-9.4 0-1-.2-3.3-.3-4.9 0-.7-.8-1.2-1.6-1z"/><ellipse transform="rotate(-16.504 275.993 546.512)" class="st3" cx="275.9" cy="546.4" rx="4.3" ry="6"/><ellipse transform="rotate(-16.504 300.578 539.225)" class="st3" cx="300.5" cy="539.1" rx="2.4" ry="5"/><path class="st3" d="M246.3 599.6c8.6 12 23.1 19.3 38.8 17.8l5.2-.5c1-.1 1.9-.2 2.8-.4v-9.9c-.8.3-1.7.6-2.6.9l-4.8 1.4c-14.2 4.4-29.1.3-39.4-9.3z"/><path class="st21" d="M246.3 638.5s27.4 41.8 35.3 40.9 13.8-37.9 13.8-37.9c4.4-2.8 14-8.1 19.4-10.1l7.5 215.9c-9.3 4.1-28.7 6.8-43.7 5.1l-1.1 6.5c-17.9-.4-37.5-4.5-57.8-10.5l4.9-221.2c6.1 2.6 15.4 7.4 21.7 11.3zM370.4 399.6l-2.5-12c16.1-1.5 32-1.6 47.1-11.7l3.4 13.6c-8.5 9.7-26.3 9.6-48 10.1z"/><path class="st5" d="M281.7 679.4c1.7 29.1.8 71.1 1 100.5v1.1c0 .9.7 1.6 1.6 1.6h3c3-.2 4.9 3.5 3 5.8-.3.4-1.1 1.3-1.5 1.7-2.9 3.5-7 7.8-9.7 11.3-3.6 5.1-4.4 11.9-2.3 17.7 1 2.6 2.7 7.2 3.7 9.8.7 1.9 1.5 4 1.6 6 .2 3.7-1.3 8.4-2 12.1-.8 3.9-1.7 7.8-2.6 11.7.5-4 1-7.9 1.6-11.9l.8-6c.5-2.9.5-5.7-.3-8.5-.5-1.8-2.4-6.5-3.1-8.4-.4-1-1.2-3.3-1.6-4.2-2.4-6.4-1.5-13.9 2.5-19.5 2.2-2.9 5.5-6.4 7.8-9.2.6-.7 2.3-2.7 3-3.4.3-.3.5-.6.7-.9.4-.9-.3-2.2-1.3-2.2h-1c-1 0-2.3.1-3.3-.1-1.7-.4-2.8-2.2-2.6-3.9v-.8c.2-29.3-.8-71.1 1-100.3zM364.1 398.8c5.9 32.1 10.3 63.2 8.9 90.6-3.6 28.9-22.8 80.9-43 134.1l-15.2 7.7 6.3 183.2c32.7-58.7 80.6-184.8 103.8-319 1.8-43.4.4-82.9-7-115-17 14.6-35 19.6-53.8 18.4z"/><path class="st5" d="M300.5 638.5l29.6-14.9 15.3 74.1 9.6 79.5 38.3 100.7c-25.5 17.9-57.6 32.4-95.9 36.7l3.1-276.1z"/><path class="st20" d="M293.2 643l2.1-.8c-2 11.1-5.1 22.6-10.7 35.3l3.6-5.8c1.2-2 4.1-2 5.4 0l8.6 14c1-11.3 8-29.8 8-38.4l-8.8-11.6c-1.2-1.5-3-2.4-4.9-2.4h-3.3v9.7z"/><path class="st5" d="M300.5 804.7c-.6-.9 21.8-82.7 21.8-82.7L308 711l27.2-31.7-24.1-46.1"/><path class="st1" d="M300.5 804.7c.3-3.5 1.3-7.1 2-10.5 2-9.8 5-21.5 7.7-31.2l11.2-41.3.4 1.1-14.4-10.9-.8-.6.7-.8 27.2-31.7-.1 1.1c-3.6-6.7-8.5-16.4-12.1-23-3.8-7.8-7.5-15.7-11.1-23.5 4.4 7.5 8.7 15 12.9 22.6 3.6 6.9 8.7 16.7 12.3 23.7l-.4.5-27.2 31.7-.2-1.4 14.4 10.9.5.4-.2.7-11.2 41.3c-1.7 6-3.8 14.8-5.6 20.6-1 3.1-3.7 12.3-4.6 15.4-.4 1-1.2 3.6-1.4 4.9z"/><path fill="none" stroke="#8393c6" stroke-width="1.85901859" stroke-miterlimit="10" d="M319.207 832.54l40.365-11.961 3.069 10.355-40.366 11.96z"/><path class="st21" d="M190.1 382.9l3.8-11.7c-15.8-3.4-31.6-5.2-45.5-17l-5 13.1c7.5 10.7 25.2 12.6 46.7 15.6z"/><path class="st5" d="M196.4 382.8c-9.5 31.2-17.4 61.6-19.2 89 .2 22.5 8.1 59.7 18.1 100.9 3 12.1 17.5 35.8 17.5 35.8l6 10.8-27.2 181.3c-25.7-62.1-59-192.8-66.7-328.8 3.1-43.3 9-82.4 20.1-113.4 15.3 16.4 32.7 23.5 51.4 24.4z"/><path class="st5" d="M242 632.3l-38.4-20.6-15.3 79.1-9.6 84.8L140.4 883c25.5 19.1 57.6 34.5 95.9 39.1l5.7-289.8z"/><path class="st5" d="M233.2 792.8c.6-.9-21.8-82.7-21.8-82.7l14.4-10.9-27.2-31.7 24.1-46.1"/><path class="st1" d="M233.2 792.8c-.2-1.5-1-3.7-1.4-5.2-.9-3.1-3.6-12.1-4.6-15.4-1.8-5.8-3.9-14.6-5.6-20.6l-11.2-41.3-.2-.7.5-.4 14.4-10.9-.2 1.4-27.2-31.7-.4-.5c3.7-6.9 8.7-16.8 12.3-23.7 4.3-7.6 8.6-15.1 12.9-22.6-3.7 7.9-7.4 15.7-11.1 23.5-3.5 6.5-8.5 16.4-12.1 23l-.1-1.1 27.2 31.7.7.8-.8.6-14.3 11.2.4-1.1 11.2 41.3c2.7 9.6 5.7 21.4 7.7 31.2.6 3.4 1.6 7 1.9 10.5z"/><path class="st20" d="M246.3 632.5c-3.2-.6-6.3 0-9.2 1.8l-3.1 10.4c-1.6 5.9-.5 12.2 2.9 17.2l18.7 27.2 5.1-11.3c1.5-3.3 5.3-4.9 8.7-3.5l7.7 3.1c-8.3-8.1-17.3-18-30.8-38.8v-6.1z"/><path class="st6" d="M628.3 566.3c1.3-19 6.4-34.5 19.7-25.1 2.2 1.5 4.9 1.9 7.4 1 11-4.3 19.7-7.4 30.3.8 6.9 5.3 11.4 13.2 14.9 21.2s6.3 16.3 10.8 23.8c2.4 4 5.4 7.8 9.8 9.4 1.4.5 3.7-26.7 3.6-29.2-.2-9.7-1.9-19.5-5.5-28.5-7.4-18.3-23.4-29.5-43.3-28.6-41.6 1.8-49.7 34-47.7 55.2z"/><path class="st6" d="M678.1 526c-5.4-1-11.8.2-17.1 1.2-4.8.9-13.6 4.1-12.1 11 .5 2.1 2.6 3.5 4.7 3.7 2.1.2 3.9-.5 5.9-1.4 4.9-2.1 10.8-3.7 15.8-1.9 4 1.4 6.1 3.9 7.8 7.7 3.7 8 5.2 16.1 6.3 24.8 1.9 14.9 6.4 29.6 13.2 43 3.1 6.2 7.4 12.6 14 14.6 4.5 1.3 9.5.3 13.6-1.9 2.5-1.3 4.9-3.3 5.6-6.1.5-1.9.1-3.8-.3-5.7-5.2-25-11-51.2-28.2-70.2-4.9-5.4-10.6-10.1-16.9-13.8-3.8-2.3-7.9-4.2-12.3-5z"/><path class="st19" d="M642.2 566.8l.6 15.4"/><path class="st20" d="M636.6 593.2l26.9-1.3c1 0 1.6.9 1.2 1.8-.9 2-2.4 5.1-3.1 6.4-5.3 9.5-20.4 9.4-24.7-.5-.4-.9-1-3.2-1.5-4.7-.2-.9.3-1.6 1.2-1.7z"/><ellipse transform="rotate(-2.219 662.52 570.006) scale(.99995)" class="st3" cx="662.5" cy="570.1" rx="4.3" ry="6"/><ellipse transform="rotate(-2.219 636.11 570.207) scale(.99995)" class="st3" cx="636.1" cy="570.3" rx="2.4" ry="5"/><path class="st5" d="M691.7 971c-.3-2.6-.6-5.2-1.1-7.8-9.1-3.3-18.4-6-27.9-8.3 27.2 5.5 29.3 5.5 40.3 4.7-1.2 0-3.1 1.3-4.3 1.7-1.3.5-2.7 1-4.1 1.4 5.6 42 9.5 84.3 11.5 126.6.3 6.4.7 12.8 1.1 19.1-2.4-9.8-2.8-20.1-3.9-30.1-1.2-10.6-2.3-21.2-3.5-31.8-2.3-21.2-4.6-42.4-6.9-63.5l-1.2-12z"/><path class="st1" d="M730.7 653.5l35.7 9.1c25.5 11.1 63 57.2 100.1 110.2 10.3 14.7 10.3 34.3.1 49.1L815.9 895c.2-26.7-.4-52.5-3.3-76.2-.5-4-5.6-5.5-8.2-2.3l-.2-1.2c-.2-1.1.1-2.3.8-3.2l13.4-18.8-.9-.7c-1.2-.9-1.1-2.7.1-3.6l.8-.5c-14.8-18.4-31.5-33.9-50.4-45.8l-11 31.7 5.1 8.2c2.4 3.8 1.6 8.8-1.9 11.7l-3.9 3.2 38.3 81.7c-63.6 15.2-125.3 21.2-184.7 15.7 15.4-46.5 9.4-100.8-11.7-160.7l-8.9-30.4c-5.2-17.6 5.5-35.9 23.4-40.1l38.2-9c.3 45.6 8.6 74.9 24.9 87.9 18.4-16.4 36.7-43.4 54.9-89.1z"/><path class="st5" d="M648.7 652.7c-.6-1.7 12.5-6.1 13.1-4.4-5.5 39.9 1.2 65.5 12.1 84.3 1 1.7 3.3 1.8 4.5.4 19.3-22.9 35.4-49.4 39.9-86.1.6-1.7 16.7 4.2 16.1 5.9-6.9 33.2-22.5 63.8-49.9 91.1-5.8 5.8-15.4 4.5-19.7-2.5-14.9-23.8-18.9-54.2-16.1-88.7z"/><path class="st18" d="M681.2 882.6l-65.4 45.7c-8.4 5.9-20 1.5-22.5-8.5l-19-77.5-63.6-48.1c-8.2-6.2-7.6-18.6 1.1-24l67.8-42 26.1-75.4c3.3-9.7 15.3-13 23.1-6.4l60.9 51.5 79.8 1.5c10.2.2 17.1 10.6 13.2 20l-30.2 73.9 23.2 76.3c3 9.8-4.8 19.5-15 18.7l-79.5-5.7z"/><path class="st4" d="M553.1 829.3c-.7-7.9-.7-14.7 2.5-19.8 0 0 6.3-10 7.7-9.8 3.2.4 1.5 7.1.8 8.7-1.1 2.6-2.8 5-3.2 7.8-.2 1.1-.1 2.2 0 3.2.2 3.9 1.3 7 4.1 9.8 2.7 2.6 4.9 5.9 7 9 3.4 4.9.6 5-4.9 8.6-1.5 1-4.7 1.8-6.4 1.6-2.1-.2-3.8-1.3-5.8-1.7-1.6-.3-3.6.1-5.2 0-2.6-.1-3.4-.9-5.2-2.5-1.2-1.1-4-4.4-5.9-4.1-.6.1-1.2.5-1.9.5-.8 0-1.3-.7-1.8-1.2-1.5-1.8-1.2-3.7-2.6-5.5-1.2-1.5-2.1-2.3-3.7-3.3-1.8-1.1-2.3-3.5-2.5-5.6-1-7.8-2.1-15.6-3-23.4-.2-1.5-.4-3.1-.3-4.6.1-1.6.5-3.2.9-4.7 1.1-4.3 2.3-8.6 3.4-12.8.1-.5.3-1.1.7-1.5.8-.9 2.3-.7 3.1 0 .9.8 1.3 1.9 1.5 3.1 1.1 4.8.7 10.1-.8 14.7-.2.7-.5 1.5-.6 2.3 0 .7 2.4 8.6 3.8 15.4l18.3 15.8z"/><path class="st4" d="M536.9 821.4c-1-5.6-.8-11.4-.6-17.1.1-2.5.2-5.1.8-7.6.5-2 1.5-4 2.4-5.8 2.4-4.6 5.2-8.9 8.4-13 .9-1.2 3.4-5.4 5.1-5.4 2.1.1 2.9 4.1 2.9 5.5-.1 2.6-1.3 4.9-2.5 7.2-2.2 4.3-4.9 8.3-6.7 12.8-2.3 5.5-.9 21.8.6 30.8"/><path class="st4" d="M558.4 833.6l-4.8-25.8c.2-6.3 1.4-10 3.1-16.1 1.1-4.1 2.2-9.1-.7-12.3-.6-.7-1.4-1.2-2.3-1.3-2.9-.2-5.9 12.9-6.8 15.6-.9 2.4-1.8 4.9-2.1 7.5-.3 2.5-.2 4.9 0 7.4.5 6.8 1.4 13.5 2.7 20.2"/><path class="st5" d="M555.9 779.4c-1.2-1-2.7-1.7-3.6.1-2.3 4.1-3.4 8.8-4.7 13.3-.7 2.1-1.4 4-1.9 6-1.1 4-.6 8.3-.3 12.5.4 4.2.4 8.5.7 12.7-.7-4.1-1.4-8.5-1.7-12.7-.3-4.2-.9-8.6.3-12.8.5-2.1 1.3-4.1 2-6.1 1.2-4.1 2.2-8.3 4.1-12.2 1.2-2.4 3.1-3.4 5.1-.8zM553.1 829.3c-1.3-5.4-1.2-11.1.4-16.5.9-2.7 2.6-4.9 4.1-7.3 1.4-2 2.7-4.1 4.7-5.5.3-.2.6-.4 1-.4-.6.2-1 .9-1.4 1.4-6.5 9.4-9.3 11.8-8.6 24.1 0 .1-.2 4.2-.2 4.2zM561.1 821.4c.6.8 1.2 1.7 1.5 2.6 1 2.8 1.9 5.6 2.5 8.6.1.6-.8.8-1 .2l-.4-2c-.2-1.1 2.2-.6 2.6-.1.5.5.8 1.2.8 1.9-.4-.6-.8-1-1.3-1.2-.5-.2-1-.4-1.5-.3l.4-.6.4 2-1 .2c-.4-1.9-.9-3.8-1.5-5.6-.4-1.2-.8-2.3-1.2-3.5-.1-.7-.2-1.4-.3-2.2z"/><path class="st4" d="M768.4 826.1l-13.9-11.4c-1.7-1.4-3.6-2.3-5.7-2.9l-25.7-6.4c-1.2-.3-2.3.5-2.5 1.7-.5 2.7 1 5.3 3.6 6.2l21 7.7 5.9 5 17.8 20.7M745.4 805.3l7.7-.7c2.3-.2 4.7.5 6.6 1.9l1.8 1.3c-.5 2.9-16.6.3-16.1-2.5z"/><path class="st4" d="M733.6 808.1l32.7 30.6-13.9-11.7c-1.5-1.3-3.4-1.9-5.4-1.7l-24 2c-1.4.1-2.5 1.5-2.2 2.9.3 1.7 1.8 3 3.6 3.1l19.7.7c5.9 13.9 13.1 26.3 21.8 37.2a12 12 0 0 0 16 2.6c6-3.9 32.2-25.4 32.2-25.4s-6.7-17.3-21.4-11.9l-13 4.2-.9-2.2c-3.1-8.8-7.8-19.2-12.4-26.4-1.5-2.4-4-4-6.7-4.5l-10.6-1.9c-3.7-.7-7.5-.4-11 .9l-4.5 1.5"/><path class="st5" d="M768.4 826.1c-4-2.6-8.2-6.1-11.9-9.1-2.5-2.1-5.1-4.2-8.4-4.8-2.4-.6-7.3-1.8-9.7-2.4-1.6-.3-3.2-1.1-4.7-1.7 1.6.2 3.4.3 5 .7l4.9 1.2c2.9.8 7.1 1.4 9.6 3.1 2.3 1.5 5.7 4.6 7.9 6.3 2.5 2 5 4.4 7.3 6.7zM749 805.6c.8-.1 1.6-.1 2.4-.1l2.4.4c4.3.9 10.9 1 12.6 6-1.8-1.5-3.5-3.1-5.8-3.7-1.5-.5-5.4-1-7-1.3l-2.4-.4c-.7-.2-1.4-.5-2.2-.9zM766.3 838.7c-1.1-.6-2.1-1.3-3.2-2l-2.9-2.4-5.7-4.8c-2.2-2-4.6-4.1-7.8-3.6l-1.9.1c-1.3-.1-2.5-.1-3.8-.2 1.2-.3 2.5-.5 3.7-.8l1.9-.1c3.4-.5 6.2 1.7 8.6 3.9l5.7 4.8 2.9 2.4c.8.8 1.7 1.7 2.5 2.7z"/><path class="st23" d="M795.7 864.7c.7 8.2.1 13.9-1.7 14.3-2.6.5-6.6-10.1-9.1-23.6-2.5-13.5-2.4-24.8.2-25.3.9-.2 1.9 1 3 3.1"/><path class="st23" d="M799.9 862c3.2 7.8 4.4 13.7 2.8 14.6-2.3 1.2-9.3-7.7-15.7-19.8s-9.6-23-7.3-24.2c1-.5 2.9.9 5.2 3.6"/><path fill="none" stroke="#55468f" stroke-width="1.962" stroke-miterlimit="10" d="M1053.2 503.8l-6.8 16"/><path class="st20" d="M1035.9 529l28.8 9.7c1 .3 1.3 1.6.5 2.4-1.8 1.7-4.6 4.4-5.8 5.4-9.4 7.8-25.3 1.5-25.7-10.8 0-1.2.2-3.8.4-5.5 0-.9.9-1.5 1.8-1.2z"/><ellipse transform="rotate(-73.046 1072.407 513.776)" class="st3" cx="1072.3" cy="513.8" rx="6.7" ry="4.9"/><ellipse transform="rotate(-73.046 1044.763 505.35)" class="st3" cx="1044.7" cy="505.3" rx="5.6" ry="2.7"/><path class="st0" d="M1108 566.4c13.6-14.5 33.4-52.9 33.8-59.8.1-.8 2.3-20.4-3-16.5 2.5-1.8 2.8-5.5 1.7-8.4-1.1-2.9-3.1-5.3-4.8-7.9-3.5-5.7-4.9-12.4-8.5-18.1-3.6-5.6-10.9-9.9-16.8-6.8 2.4-1.3-9.4-9.3-11-9.9-7.7-2.7-16.1-4.3-24.1-6.2-1.5-.3-3-.7-4.5-.5-5 .5-7.9 5.8-9.8 10.4-4.2-1.3-9.6.7-13.1 3.1-1.1.8-8 8.5-6.7 9.3-3.2-2-8-3.8-10.3-.8-1.9 2.3-.6 5.8 1 8.3 6.5 10.1 17.5 16.6 29.1 19.4 11.6 2.8 23.8 2.2 35.6.3 1.4 7.2 4.2 15 8.7 20.8-2.3 7-4.5 14-6.8 21-.9 2.7-1.7 5.6-.7 8.3 1 2.6 4.8 4.3 6.7 2.3 1.2-2.4 5.6-11.3 8.9-11.3 4-.1 2.9 10 2.9 12.8-.2 6-.3 7.4-1.7 13.2-1.3 4.9-6.6 17-6.6 17z"/><path class="st4" d="M1104.6 547.2c7 3.5 15.5.7 19-6.3s.7-15.5-6.3-19c-6.9-3.6-19.6 21.8-12.7 25.3z"/><g><path class="st0" d="M1047.7 597.9l-15-2.7c-1.8-.3-3.6-.7-5.2-1.5-2.1-1.1-5.3-4.8-5.3-4.8l-26.9-43.3c-14.5 23.7-36.1 39.7-62.3 50.9l48.3 69.7 16.3 172c46.8 22.7 108.9 31.1 183.9 27.6l-29.9-100.2 8.4-36.2 25.6 63.3 55.4-51.8c-19.2-47.5-38.9-85.3-58.8-117l-70.1-19.5c-10.4 14.7-24.8 26.5-41.1 34-.9.4-1.8.8-2.7.6-1-.2-1.7-.9-2.4-1.6-9.5-10.1-16.4-22.7-19.7-36.2l1.5-3.3z"/></g><g><path class="st20" d="M1112.1 604.5c-10.4 14.6-24.7 26.5-41 33.9-.9.4-1.8.8-2.7.6-1-.2-1.7-.9-2.4-1.6-9.5-10.1-16.3-22.7-19.6-36.1l1.4-3.3-8.6-.7-2.1 5c4.3 17.3 13 33.4 25.2 46.3.9.9 1.8 1.9 3.1 2.1 1.2.2 2.4-.3 3.5-.8 21-9.6 38.9-24.2 52.3-43l-9.1-2.4z"/></g><path class="st17" d="M1524.2 638l-45.7 1.9c-3.7.2-6.6 3.3-6.5 7l1.8 42.8c.2 3.7 3.3 6.6 7 6.5l45.7-1.9c3.7-.2 6.6-3.3 6.5-7l-1.8-42.8c-.2-3.7-3.3-6.6-7-6.5zM1430.5 676.4c-22.8 6.4-26.2 13.2-65.3 44.1-5.7-17.9-10.2-46.9-15.7-81.4-12 26.7-27.3 42.3-44.3 52 0 0 11.9 42.2 25 70.9 8.5 18.7 23.8 14.5 30 12.7 30.6-9 82.5-38.3 82.5-38.3s10.6-66.4-12.2-60z"/><g><path class="st1" d="M1566.1 830.6l-15.6-6.6c-1.9-.8-3.9-1.2-5.9-1.1l-25 1.1c-1.1 0-2 1-1.9 2.2.3 2.5 2.4 4.5 4.9 4.7l21 1.3 6.6 3 21.6 14M1539.7 818l6.8-2.7c2.1-.8 4.4-.8 6.4-.1l2 .7c.4 2.7-14.9 4.7-15.2 2.1z"/><path class="st1" d="M1529.8 823.6l37.7 19-15.7-6.9c-1.7-.7-3.6-.8-5.3-.1l-21.2 8.2c-1.3.5-1.9 2-1.2 3.2.7 1.5 2.4 2.3 4 1.8l18-4.6c9 11 18.9 20.3 29.6 27.8 4.8 3.4 11.4 2.5 15.2-1.9 4.4-5.1 10-13.2 13.6-17.7 9-10.6-1.9-27.7-13.7-18.9l-10.6 7.3-1.4-1.7c-5.2-7.1-12.2-15.3-18.3-20.6-2-1.7-4.7-2.6-7.3-2.3l-10.1 1.1c-3.5.4-6.9 1.7-9.7 3.8l-3.6 2.5"/><g><path class="st5" d="M1566.1 830.6c-3-.9-6.1-1.8-8.9-3.2-2.5-1-6.1-2.8-8.7-3.5-2.6-.8-6.6-.2-9.2-.2-.8 0-5.1.2-5.9.3-1.1-.1-2.4-.2-3.6-.4 1.1-.3 2.4-.5 3.5-.7.7 0 5.1-.2 5.9-.3 2.9 0 6.8-.6 9.6.2 2.6.8 6.3 2.6 8.8 3.6 2.9 1.1 5.8 2.7 8.5 4.2zM1543.1 817.3c.7-.3 1.4-.6 2.2-.8l2.2-.2 4.5-.5c3-.4 6.8-.1 8.5 2.7-2.4-.9-4.7-2-7.3-1.7-.7.1-4.8.5-5.6.6l-2.2.3c-.8-.2-1.6-.3-2.3-.4zM1567.5 842.6c-1.2-.3-2.3-.6-3.5-.9l-3.2-1.4-6.4-2.8c-2-.9-4.1-2.1-6.4-1.6-1 .1-2.3.7-3.2 1.1-4.1.9-4.1 1-.4-1.1 2.3-1 4.8-1.7 7.2-.8 1 .4 2.3 1 3.3 1.4l6.4 2.8 3.2 1.4c1 .5 2 1.2 3 1.9z"/></g></g><path class="st17" d="M1551.8 719.6l70 49.8-1.2 3.3 3.3 2.5-9.9 17.6c-1.4 25 3.8 45.8 11.6 64.9l44.3-67.8c5.5-8.4 5.4-19.3-.2-27.6-24.2-35.6-56.5-68.8-95.2-100.2l-29-2.5-15.7 33.7 22 26.3z"/><path class="st3" d="M1551.8 719.6l8.4 6-5.3 22.3zM1431.1 742.6c-16.1 8.6-31.6 16.2-46.4 22.8l35.3-19.5c3.4-1.9 6.1-4.9 7.6-8.5l2.8-6.5.7 11.7zM1493 917.1l-20.2-5.1h38.2l-10.1 8.5 29.7 109.8z"/><g><path class="st0" d="M1532.1 604.7c8.2 6.1 24.1 5.1 26.5-6.2 2.9-13.9 5.9-26.8 3.9-41.1-2-14.2.2-34.4-15.1-52.1-16.3-18.9-43.8-15.6-57-15.5-18.9.1-34 9.4-45.3 28.2-4.6 7.6-9.9 30.3 4.8 34.5 4.1 1.2 8.5.1 12.2-2 3.7-2.1 6.7-5.1 9.7-8.2 3.5 7.4 11 12.4 18.9 14.3 8 1.9 16.3 1 24.3-1 1.4-.4 3.1-.7 4.2.2.8.7 1 1.8 1.2 2.8 1.2 8.1.6 16.3 1.5 24.4.8 8.4 3.7 16.8 10.2 21.7z"/></g><g><circle class="st3" cx="1456.4" cy="575.1" r="2.6"/><circle class="st3" cx="1486.1" cy="575.1" r="2.6"/><path fill="none" stroke="#190865" stroke-width="1.275" stroke-miterlimit="10" d="M1469.2 577.8v11.9"/><path class="st21" d="M1486.2 597.3c0 5-5.1 12.8-11.4 12.8s-11.4-7.7-11.4-12.8h22.8z"/><ellipse class="st26" cx="1490.3" cy="573.7" rx="14.6" ry="15.8"/><ellipse class="st26" cx="1452.4" cy="573.7" rx="11.1" ry="15.8"/><path class="st26" d="M1463.4 573.7h12.9M1504.9 573.7h16.8"/></g></svg>