<svg id="Layer_1" xmlns="http://www.w3.org/2000/svg" viewBox="0 0 447.7 174.1"><style>.st0,.st5{fill:none;stroke:#1d006a;stroke-width:4;stroke-linecap:round;stroke-linejoin:round;stroke-miterlimit:10}.st5{stroke:#ec672c;stroke-width:3.5931}</style><path class="st0" d="M260.8 108.4C271.4 98.1 278 83.6 278 67.6c0-31.4-25.5-57-57-57-28.9 0-52.8 21.6-56.5 49.5-1.6 8.7-1.8 19-1.1 29.6l-8 19.3c-1.8 4.3 1.1 9 5.7 9.5l5.8.5c1.2 7.2 2.5 14.2 3.7 20.5 1.5 7.7 8.4 13.2 16.3 12.8 6.8-.3 13.1-.9 19.1-1.9l.4 13.1c0 8 62.7 8 62.7 0l-8-55.1c0 .1-.2.1-.3 0z"/><path class="st0" d="M236.9 122.3c-2.2 13.8-12.8 24.7-26.5 27.4-7.2 1.4-15 2.3-23.4 2.7"/><circle cx="250.6" cy="47.8" r="42.1" fill="#fff" stroke="#1d006a" stroke-width="3.593" stroke-linecap="round" stroke-linejoin="round" stroke-miterlimit="10"/><circle cx="250.6" cy="27.8" r="10" fill="#ec672c" stroke="#1d006a" stroke-width="4" stroke-linecap="round" stroke-linejoin="round" stroke-miterlimit="10"/><path d="M280.4 77.5c1.4-1.4 2.7-2.9 3.9-4.4L268 56.8l-30.8 30.8c14.7 5 31.5 1.6 43.2-10.1z" fill="#1d006a" stroke="#1d006a" stroke-width="4" stroke-linecap="round" stroke-linejoin="round" stroke-miterlimit="10"/><path d="M275.6 81.7l-36.1-36.1L215 70.1c1.7 2.6 3.6 5.2 5.9 7.5 14.9 14.9 38.3 16.2 54.7 4.1z" fill="#3b2e7d" stroke="#1d006a" stroke-width="4" stroke-linecap="round" stroke-linejoin="round" stroke-miterlimit="10"/><path class="st5" d="M196 47.8c0 30.2 24.5 54.7 54.7 54.7M179.4 47.8c0 39.3 31.9 71.2 71.2 71.2"/></svg>