<svg id="Layer_1" xmlns="http://www.w3.org/2000/svg" viewBox="0 0 1072 1072"><style>.st0{fill:#f4f4f4}.st2{fill:none;stroke:#ff5c00;stroke-width:1.0101;stroke-miterlimit:10}.st3{fill:#605396}.st6{fill:#ff5c00}.st7{fill:none;stroke:#1d016a;stroke-width:1.0101;stroke-miterlimit:10}.st8{fill:#f98158}.st10{fill:none;stroke:#1d016a;stroke-width:2.1693;stroke-miterlimit:10}.st12{fill:#fff}</style><path class="st0" d="M0 0h1072v1072H0z"/><path d="M1678.2 387l-85.5 6.2c-2 .1-3.6-1.4-3.6-3.4v-85.5c0-1.8 1.4-3.2 3.1-3.4l85.5-6.2c2-.1 3.6 1.4 3.6 3.4v85.5c0 1.8-1.4 3.3-3.1 3.4z" fill="#1d016a"/><path class="st2" d="M1682.9 382.6l-85.5 6.2c-2 .1-3.6-1.4-3.6-3.4V300c0-1.8 1.4-3.2 3.1-3.4l85.5-6.2c2-.1 3.6 1.4 3.6 3.4v85.5c0 1.7-1.3 3.2-3.1 3.3z"/><path class="st3" d="M1565.9 395.2l-47.5 3.5c-1.1.1-2-.8-2-1.9v-47.4c0-1 .8-1.8 1.7-1.9l47.5-3.5c1.1-.1 2 .8 2 1.9v47.4c.1 1.1-.7 1.9-1.7 1.9z"/><path class="st2" d="M1569.2 392.1l-47.5 3.5c-1.1.1-2-.8-2-1.9v-47.4c0-1 .8-1.8 1.7-1.9l47.5-3.5c1.1-.1 2 .8 2 1.9v47.4c.1 1.1-.7 1.9-1.7 1.9z"/><path d="M1753.5 381.3l-47.5 3.5c-1.1.1-2-.8-2-1.9v-47.4c0-1 .8-1.8 1.7-1.9l47.5-3.5c1.1-.1 2 .8 2 1.9v47.4c0 1-.7 1.8-1.7 1.9z" fill="#55468f"/><path class="st2" d="M1756.8 378.2l-47.5 3.5c-1.1.1-2-.8-2-1.9v-47.4c0-1 .8-1.8 1.7-1.9l47.5-3.5c1.1-.1 2 .8 2 1.9v47.4c0 1-.7 1.8-1.7 1.9z"/><path d="M2019.6 519.7l-85.5 6.2c-2 .1-3.6-1.4-3.6-3.4V437c0-1.8 1.4-3.2 3.1-3.4l85.5-6.2c2-.1 3.6 1.4 3.6 3.4v85.5c0 1.8-1.4 3.3-3.1 3.4z" fill="#303537"/><path class="st2" d="M2024.3 515.4l-85.5 6.2c-2 .1-3.6-1.4-3.6-3.4v-85.5c0-1.8 1.4-3.2 3.1-3.4l85.5-6.2c2-.1 3.6 1.4 3.6 3.4V512c0 1.8-1.3 3.2-3.1 3.4z"/><path class="st0" d="M1946.4 410.7l-85.5 6.2c-2 .1-3.6-1.4-3.6-3.4V328c0-1.8 1.4-3.2 3.1-3.4l85.5-6.2c2-.1 3.6 1.4 3.6 3.4v85.5c0 1.8-1.4 3.3-3.1 3.4z"/><path class="st2" d="M1951.1 406.3l-85.5 6.2c-2 .1-3.6-1.4-3.6-3.4v-85.5c0-1.8 1.4-3.2 3.1-3.4l85.5-6.2c2-.1 3.6 1.4 3.6 3.4V403c0 1.7-1.4 3.2-3.1 3.3z"/><path class="st6" d="M1677.8 523.7l-85.5 6.2c-2 .1-3.6-1.4-3.6-3.4V441c0-1.8 1.4-3.2 3.1-3.4l85.5-6.2c2-.1 3.6 1.4 3.6 3.4v85.5c0 1.8-1.3 3.2-3.1 3.4z"/><path class="st7" d="M1682.5 519.3l-85.5 6.2c-2 .1-3.6-1.4-3.6-3.4v-85.5c0-1.8 1.4-3.2 3.1-3.4l85.5-6.2c2-.1 3.6 1.4 3.6 3.4v85.5c0 1.8-1.3 3.3-3.1 3.4z"/><path class="st8" d="M1565.6 531.9l-47.5 3.5c-1.1.1-2-.8-2-1.9v-47.4c0-1 .8-1.8 1.7-1.9l47.5-3.5c1.1-.1 2 .8 2 1.9V530c0 1-.8 1.8-1.7 1.9z"/><path class="st7" d="M1568.8 528.8l-47.5 3.5c-1.1.1-2-.8-2-1.9V483c0-1 .8-1.8 1.7-1.9l47.5-3.5c1.1-.1 2 .8 2 1.9v47.4c.1 1-.7 1.8-1.7 1.9z"/><path d="M1753.1 518l-47.5 3.5c-1.1.1-2-.8-2-1.9v-47.4c0-1 .8-1.8 1.7-1.9l47.5-3.5c1.1-.1 2 .8 2 1.9v47.4c0 1-.7 1.8-1.7 1.9z" fill="#fa7c4e"/><path class="st7" d="M1756.4 514.9l-47.5 3.5c-1.1.1-2-.8-2-1.9V469c0-1 .8-1.8 1.7-1.9l47.5-3.5c1.1-.1 2 .8 2 1.9V513c0 1-.7 1.8-1.7 1.9z"/><path class="st6" d="M1040.6 839.6L18.2 873.3C8 873.7 0 882 0 892.1v160.5c0 10.6 8.8 19.1 19.4 18.8l1022.4-33.7c10.1-.3 18.2-8.6 18.2-18.8V858.4c0-10.6-8.8-19.1-19.4-18.8z"/><path class="st10" d="M1054.6 828.2L26.4 862c-8.6.3-15.4 7.3-15.4 15.9v166.2c0 9 7.5 16.2 16.4 15.9l1028.1-33.9c8.6-.3 15.4-7.3 15.4-15.9V844.1c.1-9-7.4-16.2-16.3-15.9z"/><path class="st12" d="M410.2 978.7l-.2-4.8 9.7-1.3-1.4-42.7-9.9.9-2.2 15.1-6.6.2.4-20.8 47.1-1.5 1.8 20.7-6.6.2-3.1-14.9-9.6-.3 1.4 42.7 10.3.6.2 4.8-31.3 1.1zM487.6 977c-1.7.1-3-.3-3.8-1-.8-.7-1.3-1.8-1.3-3.3v-1.3c-.6.7-1.3 1.4-2.2 2.2-.9.7-1.8 1.4-2.9 1.9-1 .6-2.2 1.1-3.3 1.4-1.2.4-2.4.6-3.6.6-2.3.1-4.3-.1-6-.6-1.7-.5-3.1-1.3-4.2-2.5s-1.9-2.7-2.5-4.7c-.6-1.9-.9-4.3-1-7.1l-.6-20.1-3.6-1.2-.1-4.1 12.7-1.4 1.7.9.8 25.8c0 1.6.2 2.9.4 3.9.2 1.1.6 1.9 1.1 2.6.5.7 1.1 1.1 1.9 1.4.8.3 1.8.4 2.9.4.9 0 1.7-.1 2.5-.4.7-.2 1.4-.5 2-.7.6-.3 1.1-.6 1.5-.9.4-.3.8-.6 1.1-.8l-.8-26.3-4.9-1.2-.1-4.2 13.6-1.4h.1l2 .9 1.1 35.3 3.9-.1.1 4.4c-.9.2-2.1.5-3.5.9s-3.2.7-5 .7zM505.1 967.2l-.8-25.9-5 .2-.1-4c.2-.1.5-.2.9-.3.4-.2.8-.3 1.3-.5.4-.2.8-.3 1.2-.5.3-.2.6-.3.7-.4.8-.7 1.6-1.8 2.4-3.5.2-.5.5-1 .7-1.7.3-.6.5-1.3.8-2 .2-.7.5-1.4.7-2.1.2-.7.4-1.3.5-1.8l6.3-.2.4 10.4 10.4-.3.2 6-10.4.3.6 19.5c.1 1.9.1 3.4.2 4.5s.3 1.9.5 2.5c.2.6.6.9 1.1 1.1.5.2 1.1.2 1.9.2.6 0 1.2-.1 1.8-.2.6-.1 1.2-.2 1.8-.4.6-.1 1.1-.3 1.6-.5s.9-.3 1.2-.4l1.8 4.1c-.7.6-1.5 1.1-2.5 1.7-1 .6-2.1 1.1-3.3 1.6-1.2.5-2.5.9-3.9 1.2-1.4.3-2.7.5-4.1.5h-.1c-1.6 0-2.9-.1-4-.5s-2-.9-2.7-1.7c-.7-.8-1.2-1.7-1.6-2.9-.2-1.2-.4-2.5-.5-4zM530.1 954.9c-.1-3.6.3-6.7 1.4-9.4s2.4-4.9 4.2-6.8c1.8-1.8 3.9-3.2 6.2-4.1 2.4-.9 4.9-1.5 7.5-1.5 3.1-.1 5.8.3 8.2 1.2 2.4.9 4.4 2.2 6.1 3.9 1.7 1.7 2.9 3.9 3.8 6.4s1.4 5.4 1.5 8.7c.1 3.7-.3 6.9-1.4 9.6-1 2.7-2.4 5-4.2 6.7-1.8 1.8-3.9 3.1-6.2 4-2.4.9-4.9 1.4-7.5 1.5-3.1.1-5.8-.3-8.2-1.2s-4.4-2.2-6.1-3.9c-1.7-1.7-3-3.9-3.9-6.4-.8-2.6-1.3-5.4-1.4-8.7zm20 15.3c1.3 0 2.4-.4 3.3-1s1.7-1.5 2.3-2.8c.6-1.3 1-2.8 1.2-4.8.2-1.9.3-4.2.2-6.9-.1-2.8-.3-5.2-.6-7.3-.3-2.1-.8-3.9-1.5-5.3-.6-1.4-1.5-2.5-2.5-3.2-1-.7-2.2-1-3.6-1-1.3 0-2.4.4-3.3 1-.9.6-1.7 1.5-2.3 2.8s-1 2.8-1.3 4.8c-.2 1.9-.3 4.2-.2 6.9.1 2.7.3 5.2.7 7.3s.9 3.9 1.5 5.3 1.5 2.5 2.5 3.2c1 .7 2.2 1 3.6 1zM575 973.5l-.1-4.7 5.1-.8-.9-27.1-4.8-1.3-.2-5.3 12-2.1h.2l1.9 1.5.1 2.9.1 5.5h.1c.3-.8.7-1.7 1.4-2.9s1.6-2.3 2.6-3.4c1.1-1.1 2.3-2.1 3.7-2.9 1.4-.8 2.9-1.2 4.6-1.3h1.7c.4 0 .7.1 1 .2l.4 12.2c-.3-.2-.9-.4-2-.6-1.1-.2-2.4-.3-3.9-.2-.8 0-1.6.1-2.5.2-.8.1-1.6.3-2.3.4-.7.2-1.3.4-1.9.6-.6.2-1 .5-1.3.7l.7 22.5 8.8.6.1 4.6-24.6.7zM609.3 972.4l-.1-4.7 5.1-.8-.9-27.1-4.8-1.4-.2-5.3 12.9-2.1h.2l2.6 1.4 1.1 34.1 5.1.5.1 4.7-21.1.7zm7.9-47.3c-.8 0-1.6-.1-2.2-.4-.7-.3-1.2-.7-1.7-1.2s-.8-1.1-1-1.8c-.2-.7-.4-1.4-.4-2.2 0-.9.1-1.8.3-2.6.2-.8.6-1.5 1.1-2.2.5-.6 1.1-1.1 1.9-1.5.8-.4 1.6-.6 2.6-.6s1.8.1 2.5.4c.7.3 1.3.7 1.8 1.2s.9 1.1 1.1 1.8.4 1.4.4 2.1c0 .9-.1 1.8-.3 2.6-.2.8-.6 1.5-1.1 2.2-.5.6-1.2 1.1-2 1.5-.9.4-1.9.6-3 .7zM634.1 960.9c-.1-1.7.2-3.3.8-4.6s1.4-2.6 2.5-3.6 2.3-1.9 3.8-2.7c1.5-.8 3-1.4 4.7-1.9 1.7-.5 3.5-.9 5.3-1.2 1.8-.3 3.7-.5 5.6-.6l-.1-1.7c-.1-2.7-.7-4.6-1.8-5.7-1.1-1.1-2.9-1.6-5.4-1.5-1.3 0-2.5.2-3.8.4-1.3.2-2.5.5-3.7.9-1.2.3-2.2.7-3.2 1.1-1 .4-1.8.8-2.5 1.1l-2.2-4.7c.5-.4 1.3-1 2.5-1.6 1.2-.7 2.5-1.4 4.2-2 1.6-.7 3.4-1.3 5.4-1.8 2-.5 4-.8 6.1-.9 2.6-.1 4.8.1 6.7.6 1.8.5 3.3 1.3 4.5 2.5 1.2 1.1 2.1 2.6 2.6 4.4s.9 3.9 1 6.3l.7 22 4.4-.1.1 4.3c-.4.1-1 .2-1.6.4-.7.2-1.4.3-2.2.5-.8.2-1.6.3-2.6.4-.9.1-1.9.2-2.8.2h-2.2c-.6-.1-1.1-.2-1.5-.4-.4-.2-.6-.6-.8-1.1-.2-.5-.3-1.1-.3-1.9l-.1-2c-.4.6-.9 1.2-1.6 1.9-.7.7-1.5 1.3-2.5 1.9-1 .6-2.1 1.1-3.4 1.6-1.3.4-2.6.7-4.2.7-1.7.1-3.2-.1-4.7-.5s-2.8-1.1-3.9-2c-1.1-.9-2-2.1-2.7-3.5-.6-1.5-1-3.2-1.1-5.2zm16.9 4.2c.4 0 .9-.1 1.4-.2.5-.1 1.1-.3 1.7-.5.6-.2 1.1-.5 1.7-.8s1-.7 1.4-1.1l-.4-11.7c-2.3.1-4.2.3-5.7.8s-2.7 1.1-3.6 1.8c-.9.7-1.5 1.6-1.9 2.5-.4.9-.5 1.9-.5 2.9.1 2.1.6 3.7 1.6 4.7 1.1 1.1 2.5 1.6 4.3 1.6z"/><path class="st8" d="M421.8 268.3c-158 0-286.1 92.9-286.1 207.5 0 52.7 27.1 100.8 71.7 137.4l-10.2 113.9 102.2-63.8c37.1 12.8 78.6 19.9 122.5 19.9 158 0 286.1-92.9 286.1-207.5S579.9 268.3 421.8 268.3z"/><path class="st10" d="M410 257.3c-158 0-286.1 92.9-286.1 207.5 0 52.7 27.1 100.8 71.7 137.4l-10.2 113.9 102.2-63.8c37.1 12.8 78.6 19.9 122.5 19.9 158 0 286.1-92.9 286.1-207.5S568 257.3 410 257.3z"/><path fill="none" d="M1249 344v-30"/><path class="st3" d="M946.3 324.8c0-130.9-146.4-237.1-327-237.1s-327 106.2-327 237.1 146.4 237.1 327 237.1c40.5 0 79.3-5.4 115.2-15.1l129 80.5-12.1-135.5c58.7-42.9 94.9-101.9 94.9-167z"/><path d="M962.3 324.8c0-130.9-146.4-237.1-327-237.1s-327 106.2-327 237.1 146.4 237.1 327 237.1c40.5 0 79.3-5.4 115.2-15.1l129 80.5-12.1-135.5c58.6-42.9 94.9-101.9 94.9-167z" fill="none" stroke="#ff5c00" stroke-width="2.169" stroke-miterlimit="10"/></svg>