<svg id="Layer_1" xmlns="http://www.w3.org/2000/svg" viewBox="0 0 1000 1000"><style>.st0{fill:#605395}.st4{fill:#8393c6}.st5{fill:#eff1f5}.st6{fill:#190865}.st7{fill:#a5b6d0}.st11{fill:#dddfe3}.st12{fill:#ea682b}.st13{fill:#e68662}.st15{fill:#f2ad64}.st16{fill:#ffd07e}.st17{fill:#130845}.st18{fill:#ff5c00}.st19{fill:#f97c4e}.st20{fill:#e78059}.st21{fill:#a6a9ad}.st22,.st23{fill:none;stroke:#e5e6e7;stroke-miterlimit:10}.st23{stroke:#605395}.st24{opacity:.3}.st26{fill:#313537}.st30{fill:none;stroke:#ff5c00;stroke-width:1.0101;stroke-miterlimit:10}.st32{fill:#303537}.st33{fill:none;stroke:#1d016a;stroke-width:1.0101;stroke-miterlimit:10}</style><path class="st0" d="M-9.5-4.5h1022.9v1008.9H-9.5z"/><path d="M595 241.6c-1.6-.3-3.3-.1-4.8.5-3.4 1.4-9.6 3.9-12.3 5-3.8 1.6-6.8 2.9-13 3.4l-9.9 1.8c-1.1.2-1.1 1.9-.9 2.4.7 1.6.9 2 2.8 2.9.7.3 3 .9 3 .9 1.6.2 2.5.4 3.7.2.5-.1 1-.2 1.6-.3l6.3-1.6c4.3-1.1 8.6-2.1 12.7-3.8l9.7-2.2c-.4-.6-.7-1.3-.8-2-.6-3.1 1.4-6 4.4-6.6v-.2l-1.4-.2-1.1-.2z" fill="#717ea5"/><path d="M593.9 250.8l-9.7 2.2c-4.1 1.8-8.4 2.8-12.7 3.8l-6.3 1.6c-.6.2-1.1.3-1.6.3 1 2.1 5.6 5.1 10 4.2.6-.1 1.4-.4 2.4-.8 2.5-1 6.2-2.6 9.9-4.1 6.3-2.4 13.6-4.5 13.9-4.6h-1c-2 .1-3.9-.9-4.9-2.6z" fill="#667194"/><path d="M599.9 253.4c-.4.1-7.7 2.2-14 4.6-3.7 1.4-7.4 3.1-9.9 4.1v.1s2 1.8 4.5 2.7c3.7 1.3 6.8-.4 10.6-2 1.3-.6 4.8-3.2 7.8-4.8 5.4-2.8 12.2-5.1 12.5-5.2l-11.5.5z" fill="#525b79"/><path class="st4" d="M842.7 220.4c-14.4 22.8-32.6 42.7-52.8 60.2-3.5 3-7.4 6.2-11.1 8.9-4.9 3.6-11.1 4-16.4 2.1l-1.7-.5c-2.1-.6-7.5-2.4-9.7-3.1-29.5-9.9-58.2-22-85.4-37.1l9.6-20.9c15.7 5.6 31.8 10.2 48.1 13.9 14.2 3.3 28.6 6 42.9 8.1l3 .4c.8.1 2.2.3 2.8.3l-16.5 4 1.5-1.4c18.1-16.9 34.2-36.5 46.1-58.2 0 .1 39.6 23.3 39.6 23.3z"/><path class="st5" d="M809.1 189.2l-36.9 48.9-4.4 2 .2 4.1-4.9-.3 39.2 51.2 36.9-67.6-6.6-51z"/><path class="st6" d="M765.5 247.1l25.4 33-11.4 10.1 6.1-12.3-24.4-26.6zM96.9 412.4c13.8 32.2 58.8 36.2 86.7 25.5 17.3-6.6 32.4-19.3 42.2-35.5 2.7-4.5 5.1-9.3 6-14.5 5-27.2-21.2-45.4-19.9-71.3.3-5.7 2.1-11.2 3.8-16.6 4.2-13 8.5-25.9 12.7-38.9 3.8-11.5 5.5-21.7 0-33.2-3.5-7.3-9.9-13.3-17.6-14.8-6.2-1.3-12.5.3-18.5 2.5-5.9 2.2-11.7 4.9-17.9 6.1-7.7 1.5-16.6.8-22.4 6.3-2.3 2.2-3.7 5-5.1 7.9-7.8 16.5-11.8 33.7-16.8 51.2-4.6 16.4-6.5 33.8-13.9 49.3-4.4 9.2-10.4 17.4-15 26.4-7.6 15.4-10.9 34-4.3 49.6z"/><path class="st7" d="M179 342.2c57.8 1.9 127.1-14.5 176.3-45 7.5-4.7 14.8-9.7 21.7-15.6l23.4 54.5c-36.6 5.2-74 14.7-110.3 21.7-36.2 7.2-72.7 11.7-109.1 17.2 0-.1-2-32.8-2-32.8z"/><path class="st5" d="M1013.4 1011.3H-9.5V781.4l1022.9-71.7z"/><path d="M439.5 533.8c1.3.3 2.7.2 4-.2 2.9-1 8.1-2.8 10.3-3.5 3.2-1.1 5.7-2 10.8-2.2l8.2-1.1c.9-.1 1-1.5.9-1.9-.5-1.4-.6-1.7-2.1-2.5-.6-.3-2.4-.9-2.4-.9-1.3-.3-2-.4-3-.3-.4 0-.8.1-1.3.2l-5.2 1c-3.6.7-7.2 1.3-10.6 2.6l-8.1 1.4c.3.5.5 1.1.6 1.7.3 2.6-1.4 4.9-3.9 5.2v.1l1.1.2.7.2z" fill="#dd7454"/><path d="M440.9 526.3l8.1-1.4c3.4-1.3 7-1.9 10.6-2.6l5.2-1c.5-.1.9-.2 1.3-.2-.7-1.8-4.4-4.5-8-3.9-.5.1-1.2.3-2 .6-2.1.7-5.2 1.9-8.3 2.9-5.3 1.7-11.4 3.1-11.7 3.2h.9c1.6 0 3.1 1 3.9 2.4z" fill="#d1634a"/><path d="M436 523.9c.3-.1 6.4-1.5 11.7-3.2 3.1-1 6.2-2.2 8.3-2.9v-.1s-1.5-1.6-3.6-2.4c-3-1.2-5.6 0-8.8 1.1-1.1.4-4.1 2.4-6.6 3.6-4.6 2.1-10.3 3.6-10.5 3.7l9.5.2z" fill="#c65240"/><path class="st7" d="M263.8 918.7s-5.4 8.3-7.1 16.5c-.5 2.3-1 6.7-1.3 9.6-.2 1.5 1.1 2.9 2.6 2.9l150 .1c1.8 0 3-1.7 2.5-3.4-2-6.8-6.5-21.6-9.3-24.2-3.6-3.4-137.4-1.5-137.4-1.5z"/><g id="XMLID_00000096039666684278503830000016417085777058341547_"><path class="st11" d="M408.1 937h-45.4c-.5-20.2 9.2-29.2 13.5-32.2 1.2-.8 2.6-1.1 4-.9 3.2.5 9.2 1.5 12 3.2 3.9 2.4 8.1 5.7 10.2 10.4 2 4.5 5.7 19.5 5.7 19.5z"/><path class="st4" d="M355.8 899.9c5.9 2.1 20.4 4.8 20.4 4.8-4.3 3-14 12.1-13.5 32.2l-78.2-.1c-1-23-22.4-30.2-22.4-30.2l7.7-17.8 52.5.1s27.6 9 33.5 11z"/><path class="st11" d="M286.3 936.9h-25.5c-2.2 0-3.9-1.9-3.6-4.1.5-4.5 1.3-11.4 1.5-14.6.4-5 2.3-12.2 2.3-12.2.7-1.3 2.3-1.8 3.5-1.1 5.8 3.3 20.9 13.5 21.8 32z"/></g><path class="st7" d="M-34.6 847.3s-8.9 4.4-14.5 10.5c-1.6 1.7-4.3 5.2-6 7.6-.9 1.2-.6 3 .8 3.8l128.8 76.7c1.5.9 3.4.1 3.9-1.6 1.8-6.8 5.5-21.8 4.4-25.6-1.4-4.8-117.4-71.4-117.4-71.4z"/><g id="XMLID_00000101781509232177400480000003925450894687390611_"><path class="st11" d="M80.1 936.7l-39-23.2c9.8-17.6 22.8-20.4 28.1-20.8 1.4-.1 2.8.4 3.9 1.3 2.5 2 7.1 6 8.6 8.9 2.1 4.1 4.1 9 3.5 14.1-.6 4.9-5.1 19.7-5.1 19.7z"/><path class="st4" d="M54.1 878.1c4 4.8 15.1 14.6 15.1 14.6-5.3.4-18.2 3.2-28.1 20.8l-67.2-40c10.9-20.3-3.8-37.4-3.8-37.4l15.8-11.4L31 851.5s19.1 21.8 23.1 26.6z"/><path class="st11" d="M-24.5 874.4l-22-13.1c-1.9-1.1-2.4-3.6-1-5.4 2.7-3.6 6.9-9.1 8.8-11.8 2.8-4.1 8.2-9.3 8.2-9.3 1.2-.8 2.8-.4 3.6.9 3.3 5.9 11.1 22.3 2.4 38.7z"/></g><path class="st12" d="M50.9 862.7c-4.6 9.8-79.1-25.2-74.5-35 30.7-35.5 74.1-78.2 126.5-126 5.6-62.2 19.7-143.5 36.6-229.1l66.9-.9c-1.2 28.8-6 56.2-12.6 82.9l-38.9 152.1c-10.5 39.5-30.1 44.8-104 156z"/><path class="st12" d="M335 878.8c8.8 16.4-69.2 38.8-77.4 21.8 0 0-103.1-212.1-135.3-318.8-26.1-86.4 1.3-90.7 15.6-125.9 7.7-19 28.4-29.1 48-23.4 14.6 4.2 23.9 18.5 21.8 33.5-.7 5.2-17 61.2-17 61.2s2.7 45.5 21.8 119.3c22.9 88.6 93.7 200.7 122.5 232.3z"/><path transform="rotate(9.701 178.026 318.378)" class="st13" d="M163.6 287.3h28.8v62h-28.8z"/><circle cx="426.1" cy="232.6" r="19.4" fill="none" stroke="#605395" stroke-width="1.021" stroke-miterlimit="10"/><path class="st15" d="M739.6 433.3l-153-31.9-31.9 153 144.5 30.1c4.7 1 9.4-2 10.3-6.8l30.1-144.4z"/><path class="st16" d="M762.9 278.5l-144.5-30.1-31.9 153 153 31.9 30.1-144.5c1.1-4.7-1.9-9.3-6.7-10.3z"/><path class="st15" d="M692.9 403.6c3-14.4-6.2-28.5-20.7-31.5s-28.5 6.2-31.5 20.7c-1.6 7.6.2 15 4.4 20.9-2.4 11.4 33.1 18.8 35.5 7.4 6.1-3.8 10.7-10 12.3-17.5z"/><path class="st17" d="M433.4 369.4l-153-31.9L250.2 482c-1 4.7 2 9.4 6.8 10.3l144.5 30.1 31.9-153z"/><path transform="rotate(11.783 494.014 461.843)" class="st18" d="M415.9 383.8h156.3v156.3H415.9z"/><path transform="rotate(11.783 525.92 308.845)" class="st6" d="M447.8 230.7h156.3V387H447.8z"/><path class="st18" d="M403.9 415.9c-14.4-3-28.5 6.2-31.5 20.7-3 14.4 6.2 28.5 20.7 31.5 7.6 1.6 15-.2 20.9-4.4 12.8 2.7 20.2-32.8 7.4-35.5-3.8-6.1-10-10.7-17.5-12.3z"/><path class="st6" d="M479.9 399.1c-3 14.4 6.2 28.5 20.7 31.5 14.4 3 28.5-6.2 31.5-20.7 1.6-7.6-.2-15-4.4-20.9 1.9-9.2-33.6-16.6-35.5-7.4-6 3.8-10.7 9.9-12.3 17.5z"/><path class="st18" d="M584.3 508c14.4 3 28.5-6.2 31.5-20.7 3-14.4-6.2-28.5-20.7-31.5-7.6-1.6-15 .2-20.9 4.4-9-1.9-16.4 33.6-7.4 35.5 3.8 6.1 9.9 10.7 17.5 12.3z"/><path class="st16" d="M588.8 294.8c-14.4-3-28.5 6.2-31.5 20.7-3 14.4 6.2 28.5 20.7 31.5 7.6 1.6 15-.2 20.9-4.4 10.6 2.2 18-33.3 7.4-35.5-3.8-6.1-9.9-10.8-17.5-12.3z"/><path class="st19" d="M465.3 216.4l-144.5-30.1c-4.7-1-9.4 2-10.3 6.8l-30.1 144.5 153 31.9 31.9-153.1z"/><path class="st17" d="M387 339.8c3-14.4-6.2-28.5-20.7-31.5-14.4-3-28.5 6.2-31.5 20.7-1.6 7.6.2 15 4.4 20.9-2.4 11.4 33.1 18.8 35.5 7.4 6.1-3.8 10.7-10 12.3-17.5z"/><path class="st19" d="M463.2 323c14.4 3 28.5-6.2 31.5-20.7 3-14.4-6.2-28.5-20.7-31.5-7.6-1.6-15 .2-20.9 4.4-9-1.9-16.4 33.6-7.4 35.5 3.8 6.1 9.9 10.8 17.5 12.3z"/><g id="XMLID_00000096041430651450030270000008976080821912691608_"><path class="st18" d="M634.1 760.8c-1.1 5 2.7 9.7 7.7 9.7h40.3c2.6 0 4.5-2.5 3.8-5l-2-4.9c-.4-1.4 1.4-2.3 2.2-1.2l6.2 9.7c.7.9 1.9 1.5 3.1 1.5h5.6c2.7 0 4.6-2.7 3.7-5.3l-2.2-5.3c-.5-1.3 1.2-2.3 2.1-1.3l8.2 10.7c.7.8 1.8 1.2 2.8 1.2h4.1c2.8 0 4.7-2.8 3.7-5.3l-1.9-4.3c-.5-1.3 1.2-2.4 2.2-1.3l6.6 9.7c.7.8 1.8 1.3 2.9 1.3h4.4c2.9 0 4.8-2.9 3.6-5.5l-2.3-5.4c-.6-1.3 1-2.4 2-1.5l10.2 11.5c.7.6 1.6.9 2.6.9h31.4c4.8 0 8.5-4.3 7.9-9-1.6-11.3-4.1-29.3-4.4-32-.4-4-3.1-5.2-3.1-5.2.1 1.1.1 2 0 2.2-.4 1-10 2.7-14.1 2.9-1.2.1-13.2.1-29.4.1h-98.8s0-1.1.4-2.8l-.4-.1c-1.1 1.1-1.8 2.4-2.1 3.9l-7 30.1z"/><path class="st20" d="M643.5 726.5c-.3 1.7-.4 2.8-.4 2.8h38.3c-6.7-19.5-21.9-24.3-21.9-24.3-11.8 7.2-15.1 16.8-16 21.5z"/><path class="st5" d="M700.7 703.5c-.5 1.4-1.9 2.6-3.7 3.1-1 .3-2 .4-3 .2-1.5-.3-2.8-1.2-3.2-2.5-.2-.7-.2-1.4.1-2l-2-2.9c-3.6 1.2-6.8 2.1-9.6 2.9l1 1.8c1.7.3 3 1.4 3.3 2.9.1.8 0 1.5-.4 2.2-.7 1.3-2.1 2.4-4 2.7-1 .2-2 .2-2.8-.1-1.6-.4-2.8-1.4-3-2.8-.2-.8 0-1.6.4-2.3l-1.5-2.9c-1.1.2-1.8.2-2 .2-1.6-.8-3.1-2.9-3.1-2.9-3 1.2-5.6 2.5-7.8 3.8 0 0 15.2 4.8 21.9 24.3h60.5c2.6-31.4 36.7-32.7 36.7-32.7-2.2-7-4.3-13.5-4.3-13.5l-2.7-11.6H734c-4.7 7.4-13.4 13.6-22.9 18.6l1.7 1.1c2.4-.9 4.9-.4 5.8 1.4.4.7.4 1.6.2 2.4-.3 1.4-1.4 2.7-3 3.5-.6.3-1.2.5-1.8.6-2 .4-3.9-.3-4.6-1.8-.3-.5-.4-1.1-.3-1.7l-3.8-2.7c-3.3 1.5-6.7 2.9-9.9 4.1l1.3 1.6c1.9.1 3.5 1.1 4 2.6.4 1 .3 1.7 0 2.4z"/><path class="st11" d="M667.4 701.1s1.5 2 3.1 2.9c.2.1.9 0 2-.2l-2-3.9c-1 .4-2 .8-3.1 1.2z"/><path class="st21" d="M670.5 699.9l2 3.9c1.6-.3 3.9-.8 6.9-1.5l-2.8-4.7c-1.9.7-4 1.5-6.1 2.3z"/><path class="st21" d="M672.5 703.8l1.5 2.9c.7-1.2 2.1-2.2 3.9-2.6.9-.2 1.8-.2 2.5 0l-1-1.8c-3 .8-5.3 1.3-6.9 1.5z"/><path class="st6" d="M674 706.7c-.4.7-.6 1.5-.4 2.3.3 1.4 1.5 2.4 3 2.8l-2.6-5.1z"/><path class="st21" d="M674 706.7l2.6 5.1c.9.2 1.8.3 2.8.1 1.8-.4 3.3-1.4 4-2.7l-3-5.1c-.8-.2-1.7-.2-2.5 0-1.8.3-3.2 1.3-3.9 2.6z"/><path class="st11" d="M676.6 697.6l2.8 4.7c2.8-.7 6-1.7 9.6-2.9l-3.5-5.1c-2.7 1.1-5.7 2.1-8.9 3.3z"/><path class="st6" d="M680.4 704.1l3 5.1c.4-.7.5-1.4.4-2.2-.3-1.5-1.7-2.6-3.4-2.9z"/><path class="st21" d="M685.5 694.4l3.5 5.1c2.1-.7 4.3-1.5 6.6-2.3l-3.9-5c-2 .6-4 1.4-6.2 2.2z"/><path class="st21" d="M689 699.4l2 2.9c.5-1.4 1.9-2.7 3.8-3.3.7-.2 1.5-.3 2.2-.3l-1.3-1.6c-2.4.9-4.6 1.6-6.7 2.3z"/><path class="st6" d="M691 702.3c-.2.7-.3 1.3-.1 2 .4 1.3 1.6 2.2 3.2 2.5l-3.1-4.5z"/><path class="st21" d="M691 702.3l3.1 4.5c.9.2 1.9.1 3-.2 1.8-.5 3.2-1.7 3.7-3.1l-3.8-4.8c-.7 0-1.4.1-2.2.3-2 .6-3.4 1.9-3.8 3.3z"/><path class="st11" d="M691.7 692.2l3.9 5c3.2-1.2 6.6-2.6 9.9-4.1l-5.6-3.9c-2.4.8-5.2 1.9-8.2 3z"/><path class="st6" d="M696.9 698.7l3.8 4.8c.3-.7.4-1.5.1-2.2-.4-1.5-2-2.5-3.9-2.6z"/><path class="st21" d="M699.9 689.1l5.6 3.9c2-.9 3.9-1.9 5.9-2.9l-5.6-3.5c-1.8.8-3.7 1.7-5.9 2.5z"/><path class="st21" d="M705.5 693l3.8 2.7c.1-1.6 1.3-3.3 3.1-4.2l.6-.3-1.7-1.1c-1.8 1-3.8 2-5.8 2.9z"/><path class="st11" d="M705.8 686.6l5.6 3.5c9.5-4.9 18.2-11.2 22.9-18.6h-9s-4.5 6.1-13 11.6c-2 1.3-4.1 2.4-6.5 3.5z"/><path class="st6" d="M709.4 695.7c0 .6.1 1.2.3 1.7.8 1.5 2.6 2.1 4.6 1.8l-4.9-3.5z"/><path class="st21" d="M709.4 695.7l5 3.5c.6-.1 1.2-.3 1.8-.6 1.6-.8 2.7-2.2 3-3.5l-6.1-3.8-.6.3c-1.9.8-3 2.5-3.1 4.1z"/><path class="st6" d="M713.1 691.2l6.1 3.8c.2-.8.1-1.6-.2-2.4-1-1.8-3.5-2.3-5.9-1.4z"/><path class="st20" d="M778.7 696.6s-34 1.3-36.7 32.7c16.2 0 28.1 0 29.4-.1 4.1-.2 13.7-1.8 14.1-2.9.1-.3.1-1.1 0-2.2-.2-3-1-7.9-1.4-10-.4-1.4-3-9.8-5.4-17.5z"/></g><g id="XMLID_00000031194831178669828300000006891243648559675044_"><path class="st18" d="M888.4 759.1c1.6 4.8 7.3 6.8 11.7 4.2l34.3-21.1c2.2-1.4 2.5-4.5.6-6.3l-4.3-3.1c-1.1-.9 0-2.6 1.3-2.2l10.4 5c1.1.4 2.4.3 3.4-.4l4.8-2.9c2.3-1.4 2.5-4.7.4-6.4l-4.7-3.4c-1.1-.9-.2-2.6 1.1-2.3l12.6 4.9c1 .3 2.1.1 3-.5l3.5-2.1c2.3-1.4 2.5-4.8.3-6.5l-3.8-2.7c-1.1-.9-.2-2.7 1.2-2.3l10.7 4.7c1.1.3 2.2.2 3.2-.4l3.8-2.3c2.4-1.5 2.5-5 .2-6.6l-4.8-3.4c-1.1-.8-.4-2.6.9-2.3l14.7 4.4c.9.1 1.9-.1 2.7-.5L1022 688c4.1-2.5 5-8.1 1.9-11.8-7.3-8.7-18.9-22.8-20.6-25-2.4-3.2-5.3-2.8-5.3-2.8.7.9 1.1 1.6 1.2 1.9.2 1.1-7.1 7.5-10.5 9.8-1 .7-11.2 7-24.9 15.5-15.3 9.4-35 21.6-51.6 31.8-18.3 11.3-32.6 20.1-32.6 20.1s-.5-.9-1.2-2.6l-.3.1c-.3 1.5-.3 3 .2 4.4l10.1 29.7z"/><path class="st20" d="M878.4 725c.6 1.7 1.2 2.6 1.2 2.6s14.3-8.8 32.6-20.1c-16-13.1-31.4-9.2-31.4-9.2-6.3 12.3-4.1 22.2-2.4 26.7z"/><path class="st5" d="M915.1 675.4c.3 1.4-.3 3.2-1.5 4.6-.7.8-1.6 1.4-2.4 1.7-1.5.6-3 .4-4-.5-.5-.5-.8-1.1-1-1.8L903 678c-2.4 2.9-4.7 5.4-6.7 7.5l1.8 1c1.6-.6 3.3-.4 4.4.7.5.6.8 1.3.9 2.1.1 1.5-.6 3.1-1.9 4.4-.7.7-1.6 1.2-2.4 1.4-1.5.5-3.1.2-4.1-.8-.6-.6-.8-1.4-.9-2.2l-2.8-1.7c-.9.8-1.4 1.2-1.6 1.2-1.8.2-4.1-.8-4.1-.8-1.9 2.5-3.4 5-4.7 7.4 0 0 15.5-3.9 31.4 9.2 16.5-10.2 36.3-22.3 51.6-31.8-14.2-28.1 14.1-47.1 14.1-47.1-5.6-4.8-10.7-9.2-10.7-9.2l-8.4-8.5-31.9 19.7c-.1 8.8-4.2 18.6-9.7 27.8h2c1.5-2.1 4-2.9 5.7-1.8.7.4 1.2 1.1 1.4 1.9.4 1.3.2 3.1-.7 4.6-.3.6-.8 1.1-1.2 1.5-1.5 1.4-3.4 1.8-4.9.9-.5-.3-.9-.7-1.2-1.3l-4.7-.3c-2 3.1-4.2 6-6.3 8.7l2 .7c1.7-.9 3.5-.9 4.7.1.5.7.9 1.3 1 2.1z"/><path class="st11" d="M885.5 690.8s2.3 1 4.1.8c.2 0 .8-.4 1.6-1.2l-3.8-2.3c-.6.9-1.2 1.8-1.9 2.7z"/><path class="st21" d="M887.5 688.2l3.8 2.3c1.2-1 2.9-2.7 5-4.9l-4.8-2.5c-1.3 1.5-2.6 3.3-4 5.1z"/><path class="st21" d="M891.2 690.4l2.8 1.7c-.1-1.4.6-3 2-4.3.7-.6 1.4-1.1 2.1-1.3l-1.8-1c-2.1 2.2-3.9 3.9-5.1 4.9z"/><path class="st6" d="M894 692.1c0 .8.3 1.6.9 2.2 1 1 2.5 1.3 4.1.8l-5-3z"/><path class="st21" d="M894 692.1l4.9 3c.9-.3 1.7-.7 2.4-1.4 1.4-1.3 2.1-2.9 1.9-4.4l-5.2-2.8c-.7.3-1.5.7-2.1 1.3-1.3 1.3-2 2.9-1.9 4.3z"/><path class="st11" d="M891.5 683l4.8 2.5c2-2.1 4.3-4.6 6.7-7.5l-5.6-2.5c-1.9 2.3-3.8 4.8-5.9 7.5z"/><path class="st6" d="M898.1 686.5l5.2 2.8c-.1-.8-.3-1.5-.9-2.1-1-1.1-2.7-1.3-4.3-.7z"/><path class="st21" d="M897.3 675.6l5.6 2.5c1.4-1.7 2.9-3.5 4.4-5.4l-6-2.2c-1.2 1.6-2.5 3.3-4 5.1z"/><path class="st21" d="M902.9 678.1l3.2 1.4c-.3-1.5.2-3.3 1.5-4.8.5-.6 1.1-1 1.7-1.4l-2-.7c-1.4 1.9-2.9 3.8-4.4 5.5z"/><path class="st6" d="M906.1 679.5c.1.7.5 1.3 1 1.8 1 .9 2.5 1 4 .5l-5-2.3z"/><path class="st21" d="M906.1 679.5l5 2.2c.9-.3 1.7-.9 2.4-1.7 1.2-1.4 1.8-3.1 1.5-4.6l-5.8-2.1c-.6.3-1.2.8-1.7 1.4-1.2 1.5-1.7 3.3-1.4 4.8z"/><path class="st11" d="M901.4 670.5l6 2.2c2.1-2.7 4.3-5.7 6.3-8.7l-6.8-.4c-1.7 2-3.5 4.3-5.5 6.9z"/><path class="st6" d="M909.3 673.3l5.8 2.1c-.1-.8-.5-1.4-1-2-1.3-1-3.1-1-4.8-.1z"/><path class="st21" d="M906.8 663.5l6.8.4c1.2-1.8 2.4-3.7 3.5-5.5l-6.6-.1c-1 1.6-2.3 3.4-3.7 5.2z"/><path class="st21" d="M913.6 663.9l4.7.3c-.7-1.4-.6-3.4.5-5.2.1-.2.2-.4.4-.6h-2c-1.2 1.8-2.3 3.7-3.6 5.5z"/><path class="st11" d="M910.6 658.3l6.6.1c5.5-9.2 9.6-19 9.7-27.8l-7.6 4.7s-.6 7.6-5 16.7c-1.1 2.1-2.3 4.1-3.7 6.3z"/><path class="st6" d="M918.3 664.2c.3.5.7 1 1.2 1.3 1.4.9 3.4.4 4.9-.9l-6.1-.4z"/><path class="st21" d="M918.3 664.2l6 .4c.5-.4.9-.9 1.2-1.5.9-1.5 1.1-3.3.7-4.6l-7.2-.1c-.1.2-.3.4-.4.6-.9 1.7-1 3.8-.3 5.2z"/><path class="st6" d="M919.2 658.4l7.2.1c-.3-.8-.7-1.5-1.4-1.9-1.8-1.1-4.3-.3-5.8 1.8z"/><path class="st20" d="M977.8 628.6s-28.3 19-14.1 47.1c13.8-8.5 23.9-14.8 24.9-15.5 3.4-2.3 10.7-8.7 10.5-9.8-.1-.3-.5-1-1.2-1.9-1.8-2.4-5-6.2-6.5-7.7-.9-1.2-7.5-6.9-13.6-12.2z"/></g><path class="st17" d="M905.5 654.8l-68.2-134.9L848 301.4l92.1 8.6-45 192.3 2.4 2.3-1.1 3.2 77.5 110.5c5.4 10.3-62.9 46.8-68.4 36.5z"/><path class="st6" d="M819.6 523.7l-36.9 166.1c-1.8 14.5-80 4.8-78.2-9.7l61.8-193.5 71.9-138.4-.3-40.2 101.8-6.7v27.2c0 14-4.1 27.6-11.7 39.3L819.6 523.7z"/><circle class="st22" cx="580.7" cy="630.5" r="16.4"/><path class="st16" d="M626.7 129.4l13.8-25.2 13.8 25.2 25.2 13.8-25.2 13.8-13.8 25.3-13.8-25.3-25.2-13.8zM51.9 516.1l13.8-25.2 13.8 25.2 25.2 13.8-25.2 13.8-13.8 25.2-13.8-25.2-25.3-13.8z"/><path class="st15" d="M331.1 211.5l6.5-12 6.6 12 11.9 6.5-11.9 6.6-6.6 11.9-6.5-11.9-12-6.6zM964.4 490.1l6.5-11.9 6.5 11.9 12 6.6-12 6.5-6.5 12-6.5-12-12-6.5z"/><path class="st16" d="M323.3 622.7l7-12.8 6.9 12.8 12.8 6.9-12.8 7-6.9 12.7-7-12.7-12.7-7z"/><path class="st18" d="M186.9 920.4l7-12.7 7 12.7 12.7 7-12.7 6.9-7 12.7-7-12.7-12.7-6.9zM708.9 877.7l6.9-12.7 7 12.7 12.7 7-12.7 6.9-7 12.8-6.9-12.8-12.8-6.9z"/><circle class="st22" cx="213.9" cy="79.4" r="26.9"/><circle class="st23" cx="863" cy="900.7" r="26.9"/><circle class="st22" cx="2" cy="361.7" r="26.9"/><circle class="st22" cx="894.1" cy="107.3" r="12"/><circle class="st23" cx="495.5" cy="793.4" r="12"/><path d="M848.3 194.2c1.7 7 3.5 14 5.3 21 .1.3.8-.6.7-1-1.7-7-3.5-14-5.2-21-.1-.3-.9.6-.8 1zM886.8 557s.1-.1 0-.1c0 0-.1.1 0 .1zM943.7 625.7c2.3 23-6.9 46.3-23.6 62.1-4.8 4.5-10.2 8.5-16 11.6-.4.2-1 1.6-.4 1.4 21.3-10.7 36.3-32.6 40.3-56 1.1-6.6 1.3-13.4.6-20-.1-.6-.9.5-.9.9z"/><path d="M881.3 161.4c-2.1-3.5-12-4.9-23.4-2.6-10.1 2-18.3 6.3-20.4 10 0 0 2.5 9.1 5.4 9.7s32.1-2.9 32.1-2.9l5.8-5.3.5-8.9z" fill="#b5b8bc"/><path class="st26" d="M905.8 107.8c-2 2.7-4.7 5.1-6.3 8.1-1.1 2.2-.9 4.7-3.1 6.3-3.3 2.4-7.8 1.1-9.8 5.1-1 2.1-1.2 4.7-2.8 6.5-3.3 3.8-10.2 2.6-15.7 1-2 6.2-9.1 10.3-16.5 10.2s-14.8-4-19.4-9.5c-1.7-2-3.1-4.3-5.5-5.8-4.3-2.7-10-1.7-15-2.8-7.4-1.7-12.8-8.3-14.3-14.9s.1-13.3 2.2-19.5c-10.6-8.4-15-22.5-10.4-33.7 4.6-11.2 17.9-18.6 31.7-17.7-.8-4.5 2.3-8.7 6.6-10.7s9.7-2 14.6-1c5.6 1.1 11 3.3 15.8 6.4 3.8 2.5 6.7 8.2 11 9.4 10.7 2.8 19.6-.9 28.1 8.4 7.6 8.3 3.2 17.7 9.6 25.9 8.3 10.6 6.2 18.7-.8 28.3z"/><path class="st4" d="M878.8 174c.7 3.2-17 13.2-27.5 17.1-10.6 4-13.9 1.8-12.9-1.8 2-7.2 8.2-14.5 8.2-14.5l-4.1-29.8 32.6-26.2 3.7 55.2z"/><path class="st6" d="M873.8 121.3c1.6 22.3-13.7 32.5-23 35.6l-6.3 1.9-1.8-12.9 31.1-24.6z"/><path class="st4" d="M847.6 151.3c16.9-2.5 28.6-18.3 26.1-35.2l-2.5-16.8c-2.5-16.9-18.3-28.6-35.2-26.1-16.9 2.5-28.6 18.3-26.1 35.2l2.5 16.8c2.6 16.8 18.4 28.5 35.2 26.1z"/><path class="st4" d="M875.5 120.7l8.4-1.7c5.4-1.1 8.9-6.3 7.8-11.7-1.1-5.4-6.3-8.9-11.7-7.8l-8.4 1.7c-5.4 1.1-8.9 6.3-7.8 11.7 1.1 5.4 6.3 8.9 11.7 7.8z"/><circle class="st6" cx="846.9" cy="110.3" r="2.6"/><circle class="st6" cx="821.1" cy="115.2" r="2.6"/><path fill="none" stroke="#1d016a" stroke-width="2.041" stroke-linecap="round" stroke-linejoin="round" stroke-miterlimit="10" d="M831.6 108.5l.9 13.3"/><path d="M823.8 126.3l23.1-2.5c.6-.1 1 .5.8 1-.7 1.7-1.9 4.7-2.4 6-4 8.3-16.7 9-20.9.8-.4-.8-1.1-2.7-1.5-3.9-.1-.7.3-1.3.9-1.4z" fill="#fff"/><path class="st26" d="M810.5 88.9c.5 3.1 2.5 5.8 5.3 7 3.6 1.5 7.6 1 11.4.2 2.3-.5 4.5-1.1 6.6-2 3.8-1.6 7.1-4.1 11-5.3 1-.3 2.3-.4 2.9.5.2.3.3.8.3 1.2.3 2.5 1.3 4.9 3.1 6.6 2.7 2.5 7.2 2.6 10.1.4-.6 2.3-.6 4.8.1 7.1.4 1.2 1.2 2.3 2.4 2.7 2.1.9 3.8-.6 5.3-1.9 2.9-2.4 5.1-4.6 10.1-5.5.9-.2 1.4-1.1 1-1.9l-3.7-8.3c-6.6-14.3-21.7-22.7-37.3-20.8l-14.6 1.8c-9 1-15.3 9.2-14 18.2z"/><path class="st5" d="M881.9 169.8l-7-.5c-8.7 4.5-18.5 5.2-31.4 3.7l-10.9 3.4-17.4 11.9-8.2 149.6c70.9-1.3 145.9-14.3 154.3-30.9l-54.6-135.3-24.8-1.9z"/><path class="st11" d="M835.9 177c4.3 5.2 15.6 7.4 27.9 5 10.5-2.1 17.8-6.2 21.3-11.6l-3.8-8.9c-4.3 4.1-11.4 7.6-19.7 9.3-9.6 1.9-18.5 1-24-1.9l-1.7 8.1z"/><path class="st6" d="M870.8 277.9l36.5-49.9-39.9 43.8-22.1-16.1-1.3 1.7zM814 210l-3 56.2-4.1 4.6z"/><path class="st4" d="M895.3 228c-28.9 31.4-59.6 62-93.8 87.9-34.1 25.9-71.5 47-109.4 66.1l-12.6-22.7c34.9-21.2 68.9-44 99.2-71.2 30.3-27 56.6-57.8 81.6-89.8-.1 0 35 29.7 35 29.7z"/><path class="st5" d="M904.1 171.2l-22.2-1.3-62.3 67.1 47.7 34.8 49.7-54.5c3.6-4 6-9 6.8-14.3.5-3.2.5-6.5-.1-9.7l-1.3-7.8c-.2-1.3-.7-2.5-1.5-3.6l-1.9-2.6c-3.5-4.8-9-7.8-14.9-8.1z"/><g><path class="st4" d="M680.4 359L636 372.1l4 17.8 3.9 8.9 20.2 16.3c10.7-8.2 20.7-19.5 29.9-34.2 11.5-6.4-2-28.4-13.6-21.9z"/><path class="st4" d="M652.7 376c7.8 5.7 25.9 6.4 31.2-3.4 5.5-10.3-7.2-16.6-15.6-17.4-4.5-.4-9-.1-13.4-.4-9.5-.7-18-4.9-26.7-8.2-1.9-.7-3.9.9-3.5 2.9.8 4.7 3.7 9.1 7.5 11.8 3.7 2.7 11.8 2 14.1 5.1.8 1.1 1.2 2.5 1.8 3.8 1 2.3 2.6 4.3 4.6 5.8zM641.7 370.5l-49.1 13.7c-2.7.7-4.3 3.5-3.5 6.2.7 2.5 3.2 4.1 5.8 3.6l49.2-8.8-2.4-14.7z"/><path class="st4" d="M640.1 385.4l-47.2 20.2c-2.4 1-3.5 3.8-2.5 6.2 1 2.3 3.5 3.4 5.8 2.6l47.7-15.6-3.8-13.4zM650.3 394.9l-43.5 27.3c-2.2 1.4-2.9 4.3-1.5 6.5 1.3 2.1 4 2.8 6.1 1.7l44.7-22.9-5.8-12.6z"/><path class="st4" d="M668.2 393.2l-17.1 14.9-23.4 22.8c-1.5 1.5-1.6 3.9-.1 5.4 1.3 1.4 3.5 1.6 5 .5L663 416c2.3-1.6 4.3-3.5 6-5.7l8.7-11.6-9.5-5.5z"/></g><path d="M-465.9 620.8l-85.5 6.2c-2 .1-3.6-1.4-3.6-3.4v-85.5c0-1.8 1.4-3.2 3.1-3.4l85.5-6.2c2-.1 3.6 1.4 3.6 3.4v85.5c0 1.8-1.3 3.3-3.1 3.4z" fill="#1d016a"/><path class="st30" d="M-461.2 616.4l-85.5 6.2c-2 .1-3.6-1.4-3.6-3.4v-85.5c0-1.8 1.4-3.2 3.1-3.4l85.5-6.2c2-.1 3.6 1.4 3.6 3.4V613c0 1.8-1.3 3.3-3.1 3.4z"/><path class="st0" d="M-578.1 629l-47.5 3.5c-1.1.1-2-.8-2-1.9v-47.4c0-1 .8-1.8 1.7-1.9l47.5-3.5c1.1-.1 2 .8 2 1.9v47.4c0 1-.8 1.9-1.7 1.9z"/><path class="st30" d="M-574.8 625.9l-47.5 3.5c-1.1.1-2-.8-2-1.9v-47.4c0-1 .8-1.8 1.7-1.9l47.5-3.5c1.1-.1 2 .8 2 1.9V624c0 1-.8 1.9-1.7 1.9z"/><path d="M-390.6 615.1l-47.5 3.5c-1.1.1-2-.8-2-1.9v-47.4c0-1 .8-1.8 1.7-1.9l47.5-3.5c1.1-.1 2 .8 2 1.9v47.4c.1 1-.7 1.8-1.7 1.9z" fill="#55468e"/><path class="st30" d="M-387.3 612l-47.5 3.5c-1.1.1-2-.8-2-1.9v-47.4c0-1 .8-1.8 1.7-1.9l47.5-3.5c1.1-.1 2 .8 2 1.9v47.4c0 1-.7 1.8-1.7 1.9z"/><g><path class="st32" d="M-621.5 564.7l-1.3.1-.2 1.7 1.2-.1.1 1-1.3.1-.3 2.9-1.2.1.3-2.9-1.3.1-.3 2.9-1.1.1.3-2.9-1.1.1-.1-1 1.3-.1.2-1.7-1.1.1-.1-1 1.3-.1.3-2.7 1.1-.1-.3 2.7 1.3-.1.3-2.7 1.2-.1-.3 2.7 1.2-.1-.1 1zm-2.5.2l-1.3.1-.2 1.7 1.3-.1.2-1.7zM-614.1 567c.1.8-.2 1.6-.8 2.2-.6.6-1.4.9-2.5 1-1.1.1-2 0-2.7-.3l.4-1.5c.5.2 1.1.3 1.8.3.5 0 .9-.2 1.1-.5.3-.3.4-.6.4-1-.1-1-.8-1.5-2.3-1.4-.4 0-.8.1-1.3.2l.2-5 4.8-.3.1 1.7-3.4.2v2c1.3-.2 2.3 0 3 .5.8.3 1.2 1 1.2 1.9zM-605.8 564.5c.1 1.4-.1 2.6-.7 3.4-.6 1-1.6 1.5-3 1.6-1.2.1-2.1 0-2.8-.3l-.6-8.4c.7-.4 1.6-.7 2.6-.7 1.4-.1 2.5.3 3.3 1.1.7.8 1.1 1.9 1.2 3.3zm-2.2.1c-.1-1.1-.3-2-.6-2.4-.3-.5-.8-.7-1.5-.7-.2 0-.5.1-.6.1l.5 6.4c.2 0 .4.1.6 0 .7 0 1.1-.3 1.4-.9.2-.4.3-1.3.2-2.5zM-598.3 565.8c.1.8-.2 1.6-.8 2.2-.6.6-1.4.9-2.5 1-1.1.1-2 0-2.7-.3l.4-1.5c.5.2 1.1.3 1.8.3.5 0 .9-.2 1.1-.5.3-.3.4-.6.4-1-.1-1-.8-1.5-2.3-1.4-.4 0-.8.1-1.3.2l.2-5 4.8-.3.1 1.7-3.4.2v2c1.3-.2 2.3 0 3 .5.8.4 1.2 1 1.2 1.9zM-590.7 565.3c.1.8-.2 1.6-.8 2.2-.6.6-1.4.9-2.5 1-1.1.1-2 0-2.7-.3l.4-1.5c.5.2 1.1.3 1.8.3.5 0 .9-.2 1.1-.5.3-.3.4-.6.4-1-.1-1-.8-1.5-2.3-1.4-.4 0-.8.1-1.3.2l.2-5 4.8-.3.1 1.7-3.4.2v2c1.3-.2 2.3 0 3 .5.7.4 1.1 1 1.2 1.9zM-583.3 561.8c.1 1.8-.4 3.2-1.6 4.5-.9.9-1.8 1.5-2.8 1.7l-.6-1.3c1.4-.5 2.4-1.4 2.9-2.6-.3.1-.6.2-.9.2-.8.1-1.6-.1-2.1-.5-.7-.5-1.1-1.2-1.1-2.2-.1-.9.2-1.6.7-2.2.5-.6 1.3-.9 2.2-1 1.1-.1 1.9.2 2.5.9.5.7.7 1.5.8 2.5zm-1.9 0c-.1-1.4-.6-2.1-1.4-2.1-.8.1-1.1.7-1 1.8.1 1.1.6 1.6 1.7 1.5.2 0 .5-.1.8-.2-.1-.2-.1-.6-.1-1zM-575.8 564.2c.1.9-.2 1.6-.8 2.2-.6.6-1.4.9-2.5 1-1.1.1-2 0-2.7-.3l.4-1.5c.5.2 1.1.3 1.8.3.5 0 .9-.2 1.2-.5.3-.3.4-.6.4-1-.1-1-.9-1.5-2.4-1.3l-.1-1.1c1.4-.2 2-.8 2-1.6 0-.7-.5-1-1.4-.9-.6 0-1.2.2-1.7.5l-.6-1.3c.7-.4 1.5-.6 2.5-.7.9-.1 1.7.1 2.2.5.6.4.9.9.9 1.6 0 .5-.1.9-.4 1.3-.2.3-.5.5-.9.7 1.4.2 2.1 1 2.1 2.1z"/></g><g><path class="st32" d="M-434.3 551.2l-1.3.1-.2 1.7 1.2-.1.1 1-1.3.1-.3 2.9-1.2.1.3-2.9-1.3.1-.3 2.9-1.1.1.3-2.9-1.1.1-.1-1 1.3-.1.2-1.7-1.1.1-.1-1 1.3-.1.3-2.7 1.1-.1-.3 2.7 1.3-.1.3-2.7 1.2-.1-.3 2.7 1.2-.1-.1 1zm-2.5.2l-1.3.1-.2 1.7 1.3-.1.2-1.7zM-426.8 553.5c.1.8-.2 1.6-.8 2.2-.6.6-1.4.9-2.5 1-1.1.1-2 0-2.7-.3l.4-1.5c.5.2 1.1.3 1.8.3.5 0 .9-.2 1.1-.5.3-.3.4-.6.4-1-.1-1-.8-1.5-2.3-1.4-.4 0-.8.1-1.3.2l.2-5 4.8-.3.1 1.7-3.4.2v2c1.3-.2 2.3 0 3 .5.7.3 1.1 1 1.2 1.9zM-419.3 555.7l-6.2.4 2.8-4.8c.5-.8.7-1.5.7-2-.1-.9-.6-1.3-1.6-1.2-.6 0-1.2.2-1.6.5l-.6-1.3c.7-.4 1.5-.7 2.6-.7 1.1-.1 2 .1 2.6.7.5.4.8 1 .8 1.7.1.7-.3 1.6-1 2.7l-1.7 2.5 3.1-.2.1 1.7zM-411.5 553.4h-.7l.1 1.8-2 .1-.1-1.8-3.7.3-.1-1.2 3.1-6.4 2-.1.4 6.2h.7l.3 1.1zm-3-5.3c-.1.2-.3.7-.6 1.4l-1.5 3.1 2.3-.2-.2-2.9v-1.4zM-404 552.3c.1.7-.2 1.4-.7 1.8-.6.5-1.3.8-2.2.8-.9.1-1.7-.1-2.3-.5-.6-.4-1-1-1.1-1.7 0-.5.1-1 .4-1.4.3-.4.7-.8 1.3-1.2-1.1-.6-1.7-1.3-1.7-2.1 0-.7.2-1.3.7-1.7.5-.5 1.2-.7 2-.8.8-.1 1.5.1 2.1.5.6.4.9.9.9 1.6 0 .5-.1.9-.3 1.2-.2.4-.6.7-1.1 1.1 1.2.7 1.9 1.5 2 2.4zm-2.3-4.6c0-.3-.2-.6-.4-.8-.2-.2-.5-.3-.9-.3-.3 0-.6.1-.8.4-.2.2-.3.5-.3.8 0 .3.1.6.3.8.2.2.5.4 1 .7.4-.3.7-.6.9-.8.2-.2.2-.5.2-.8zm.3 4.7c0-.3-.1-.6-.3-.9-.2-.2-.6-.5-1.1-.8-.5.3-.8.7-1 .9-.1.2-.2.5-.2.9 0 .3.2.6.4.8.3.2.6.3 1 .3s.7-.2.9-.4c.3-.1.4-.4.3-.8zM-396.5 551.8c.1.7-.2 1.4-.7 1.8-.6.5-1.3.8-2.2.8-.9.1-1.7-.1-2.3-.5-.6-.4-1-1-1.1-1.7 0-.5.1-1 .4-1.4.3-.4.7-.8 1.3-1.2-1.1-.6-1.7-1.3-1.7-2.1 0-.7.2-1.3.7-1.7.5-.5 1.2-.7 2-.8.8-.1 1.5.1 2.1.5.6.4.9.9.9 1.6 0 .5-.1.9-.3 1.2-.2.4-.6.7-1.1 1.1 1.3.7 2 1.5 2 2.4zm-2.2-4.6c0-.3-.2-.6-.4-.8-.2-.2-.5-.3-.9-.3-.3 0-.6.1-.8.4-.2.2-.3.5-.3.8 0 .3.1.6.3.8.2.2.5.4 1 .7.4-.3.7-.6.9-.8.1-.2.2-.5.2-.8zm.3 4.7c0-.3-.1-.6-.3-.9-.2-.2-.6-.5-1.1-.8-.5.3-.8.7-1 .9-.1.2-.2.5-.2.9 0 .3.2.6.4.8.3.2.6.3 1 .3s.7-.2.9-.4c.2-.2.3-.4.3-.8zM-388.4 551c.1 1.8-1 2.8-3.5 2.9-1.3.1-2.3 0-3-.3l-.6-8.4c.7-.4 1.6-.7 2.8-.7 1.2-.1 2.1.1 2.7.5.6.4.9 1 1 1.7 0 .6-.1 1-.4 1.4-.3.3-.6.6-1.1.7.5.1.9.3 1.3.7.5.4.8.9.8 1.5zm-2.6-4c-.1-.9-.6-1.3-1.5-1.3-.3 0-.6.1-.8.2l.2 2.7h.4c.7 0 1.1-.2 1.4-.4.2-.4.3-.7.3-1.2zm.5 4.1c0-.6-.2-1-.5-1.2-.3-.2-.8-.3-1.6-.3h-.4l.2 3c.2.1.5.1.8.1 1-.1 1.5-.7 1.5-1.6z"/></g><path class="st18" d="M-466.3 757.5l-85.5 6.2c-2 .1-3.6-1.4-3.6-3.4v-85.5c0-1.8 1.4-3.2 3.1-3.4l85.5-6.2c2-.1 3.6 1.4 3.6 3.4v85.5c.1 1.8-1.3 3.2-3.1 3.4z"/><path class="st33" d="M-461.6 753.1l-85.5 6.2c-2 .1-3.6-1.4-3.6-3.4v-85.5c0-1.8 1.4-3.2 3.1-3.4l85.5-6.2c2-.1 3.6 1.4 3.6 3.4v85.5c.1 1.8-1.3 3.2-3.1 3.4z"/><path d="M-578.5 765.7l-47.5 3.5c-1.1.1-2-.8-2-1.9v-47.4c0-1 .8-1.8 1.7-1.9l47.5-3.5c1.1-.1 2 .8 2 1.9v47.4c0 1-.7 1.8-1.7 1.9z" fill="#f88058"/><path class="st33" d="M-575.2 762.6l-47.5 3.5c-1.1.1-2-.8-2-1.9v-47.4c0-1 .8-1.8 1.7-1.9l47.5-3.5c1.1-.1 2 .8 2 1.9v47.4c0 1-.7 1.8-1.7 1.9z"/><path class="st19" d="M-391 751.8l-47.5 3.5c-1.1.1-2-.8-2-1.9V706c0-1 .8-1.8 1.7-1.9l47.5-3.5c1.1-.1 2 .8 2 1.9v47.4c.1 1-.7 1.8-1.7 1.9z"/><path class="st33" d="M-387.7 748.7l-47.5 3.5c-1.1.1-2-.8-2-1.9v-47.4c0-1 .8-1.8 1.7-1.9l47.5-3.5c1.1-.1 2 .8 2 1.9v47.4c.1 1-.7 1.8-1.7 1.9z"/><g><path class="st32" d="M-621.9 701.4l-1.3.1-.2 1.7 1.2-.1.1 1-1.3.1-.3 2.9-1.2.1.3-2.9-1.3.1-.3 2.9-1.1.1.3-2.9-1.1.1-.1-1 1.3-.1.2-1.7-1.1.1-.1-1 1.3-.1.3-2.7 1.1-.1-.3 2.7 1.3-.1.3-2.7 1.2-.1-.3 2.7 1.2-.1-.1 1zm-2.5.1l-1.3.1-.2 1.7 1.3-.1.2-1.7zM-615.5 706.5l-4.7.3-.7-9.2 4.7-.3.1 1.5-2.5.2.2 2.3 2.2-.2.1 1.4-2.2.2.2 2.5 2.5-.2.1 1.5zM-608.1 703.6c.1.7-.2 1.4-.8 1.8-.6.5-1.3.8-2.2.8-.9.1-1.7-.1-2.3-.5-.6-.4-1-1-1.1-1.7 0-.5.1-1 .4-1.4.3-.4.7-.8 1.3-1.2-1.1-.6-1.7-1.3-1.7-2.1 0-.7.2-1.3.7-1.7.5-.5 1.2-.7 2-.8.8-.1 1.5.1 2.1.5.6.4.9.9.9 1.6 0 .5-.1.9-.3 1.2-.2.4-.6.7-1.1 1.1 1.3.7 2 1.5 2.1 2.4zm-2.3-4.6c0-.3-.2-.6-.4-.8-.2-.2-.5-.3-.9-.3-.3 0-.6.1-.8.4-.2.2-.3.5-.3.8 0 .3.1.6.3.8.2.2.5.4 1 .7.4-.3.7-.6.9-.8.2-.2.2-.5.2-.8zm.3 4.8c0-.3-.1-.6-.3-.9-.2-.2-.6-.5-1.1-.8-.5.3-.8.7-1 .9-.1.2-.2.5-.2.9 0 .3.2.6.4.8.3.2.6.3 1 .3s.7-.2.9-.4c.3-.2.4-.5.3-.8zM-600.6 703.1c.1.7-.2 1.4-.7 1.8-.6.5-1.3.8-2.2.8-.9.1-1.7-.1-2.3-.5-.6-.4-1-1-1.1-1.7 0-.5.1-1 .4-1.4.3-.4.7-.8 1.3-1.2-1.1-.6-1.7-1.3-1.7-2.1 0-.7.2-1.3.7-1.7.5-.5 1.2-.7 2-.8.8-.1 1.5.1 2.1.5.6.4.9.9.9 1.6 0 .5-.1.9-.3 1.2-.2.4-.6.7-1.1 1.1 1.3.7 1.9 1.5 2 2.4zm-2.3-4.6c0-.3-.2-.6-.4-.8-.2-.2-.5-.3-.9-.3-.3 0-.6.1-.8.4-.2.2-.3.5-.3.8 0 .3.1.6.3.8.2.2.5.4 1 .7.4-.3.7-.6.9-.8.2-.2.3-.5.2-.8zm.4 4.7c0-.3-.1-.6-.3-.9-.2-.2-.6-.5-1.1-.8-.5.3-.8.7-1 .9-.1.2-.2.5-.2.9 0 .3.2.6.4.8.3.2.6.3 1 .3s.7-.2.9-.4c.2-.1.3-.4.3-.8zM-593 702.6c.1.7-.2 1.4-.7 1.8-.6.5-1.3.8-2.2.8-.9.1-1.7-.1-2.3-.5-.6-.4-1-1-1.1-1.7 0-.5.1-1 .4-1.4.3-.4.7-.8 1.3-1.2-1.1-.6-1.7-1.3-1.7-2.1 0-.7.2-1.3.7-1.7.5-.5 1.2-.7 2-.8.8-.1 1.5.1 2.1.5.6.4.9.9.9 1.6 0 .5-.1.9-.3 1.2-.2.4-.6.7-1.1 1.1 1.2.6 1.9 1.4 2 2.4zm-2.3-4.6c0-.3-.2-.6-.4-.8-.2-.2-.5-.3-.9-.3-.3 0-.6.1-.8.4-.2.2-.3.5-.3.8 0 .3.1.6.3.8.2.2.5.4 1 .7.4-.3.7-.6.9-.8.1-.3.2-.5.2-.8zm.3 4.7c0-.3-.1-.6-.3-.9-.2-.2-.6-.5-1.1-.8-.5.3-.8.7-1 .9-.1.2-.2.5-.2.9 0 .3.2.6.4.8.3.2.6.3 1 .3s.7-.2.9-.4c.2-.2.3-.5.3-.8zM-585.5 701.5c.1.9-.2 1.6-.7 2.2-.5.6-1.3.9-2.2 1-1.1.1-1.9-.2-2.5-.9-.5-.6-.8-1.4-.9-2.4-.1-1.8.4-3.3 1.6-4.5.9-.9 1.8-1.5 2.8-1.7l.6 1.3c-1.4.5-2.4 1.4-2.9 2.6.3-.1.6-.2.9-.2.8-.1 1.6.1 2.1.5.7.4 1.1 1.2 1.2 2.1zm-2 .1c-.1-1.1-.6-1.6-1.7-1.5-.3 0-.5.1-.7.2v1.1c.1 1.4.6 2.1 1.4 2.1.7-.2 1.1-.8 1-1.9zM-578.2 703.8l-6.2.4 2.8-4.8c.5-.8.7-1.5.7-2-.1-.9-.6-1.3-1.6-1.2-.6 0-1.2.2-1.6.5l-.6-1.3c.7-.4 1.5-.7 2.6-.7 1.1-.1 2 .1 2.6.7.5.4.8 1 .8 1.7.1.7-.3 1.6-1 2.7l-1.7 2.5 3.1-.2.1 1.7z"/></g><g><path class="st32" d="M-434.7 687.9l-1.3.1-.2 1.7 1.2-.1.1 1-1.3.1-.3 2.9-1.2.1.3-2.9-1.3.1-.3 2.9-1.1.1.3-2.9-1.1.1-.1-1 1.3-.1.2-1.7-1.1.1-.1-1 1.3-.1.3-2.7 1.1-.1-.3 2.7 1.3-.1.3-2.7 1.2-.1-.3 2.7 1.2-.1-.1 1zm-2.4.2l-1.3.1-.2 1.7 1.3-.1.2-1.7zM-428.2 693l-4.7.3-.7-9.2 4.7-.3.1 1.5-2.5.2.2 2.3 2.2-.2.1 1.4-2.2.2.2 2.5 2.5-.2.1 1.5zM-421.2 686.7c.1 1.8-.4 3.2-1.6 4.5-.9.9-1.8 1.5-2.8 1.7l-.6-1.3c1.4-.5 2.4-1.4 2.9-2.6-.3.1-.6.2-.9.2-.8.1-1.6-.1-2.1-.5-.7-.5-1.1-1.2-1.1-2.2-.1-.9.2-1.6.7-2.2.5-.6 1.3-.9 2.2-1 1.1-.1 1.9.2 2.5.9.5.7.8 1.5.8 2.5zm-1.9 0c-.1-1.4-.6-2.1-1.4-2.1-.8.1-1.1.7-1 1.8.1 1.1.6 1.6 1.7 1.5.2 0 .5-.1.8-.2-.1-.2-.1-.5-.1-1zM-413.3 689.6c.1.7-.2 1.4-.7 1.8-.6.5-1.3.8-2.2.8-.9.1-1.7-.1-2.3-.5-.6-.4-1-1-1.1-1.7 0-.5.1-1 .4-1.4.3-.4.7-.8 1.3-1.2-1.1-.6-1.7-1.3-1.7-2.1 0-.7.2-1.3.7-1.7.5-.5 1.2-.7 2-.8.8-.1 1.5.1 2.1.5.6.4.9.9.9 1.6 0 .5-.1.9-.3 1.2-.2.4-.6.7-1.1 1.1 1.2.7 1.9 1.5 2 2.4zm-2.3-4.6c0-.3-.2-.6-.4-.8-.2-.2-.5-.3-.9-.3-.3 0-.6.1-.8.4-.2.2-.3.5-.3.8 0 .3.1.6.3.8.2.2.5.4 1 .7.4-.3.7-.6.9-.8.1-.2.2-.5.2-.8zm.3 4.7c0-.3-.1-.6-.3-.9-.2-.2-.6-.5-1.1-.8-.5.3-.8.7-1 .9-.1.2-.2.5-.2.9 0 .3.2.6.4.8.3.2.6.3 1 .3s.7-.2.9-.4c.2-.1.3-.4.3-.8zM-406 691.4l-6.2.4 2.8-4.8c.5-.8.7-1.5.7-2-.1-.9-.6-1.3-1.6-1.2-.6 0-1.2.2-1.6.5l-.6-1.3c.7-.4 1.5-.7 2.6-.7 1.1-.1 2 .1 2.6.7.5.4.8 1 .8 1.7.1.7-.3 1.6-1 2.7l-1.7 2.5 3.1-.2.1 1.7zM-398.4 688.1c.1.8-.2 1.6-.8 2.2-.6.6-1.4.9-2.5 1-1.1.1-2 0-2.7-.3l.4-1.5c.5.2 1.1.3 1.8.3.5 0 .9-.2 1.1-.5.3-.3.4-.6.4-1-.1-1-.8-1.5-2.3-1.4-.4 0-.8.1-1.3.2l.2-5 4.8-.3.1 1.7-3.4.2v2c1.3-.2 2.3 0 3 .5.7.3 1.1 1 1.2 1.9zM-391 684.6c.1 1.8-.4 3.2-1.6 4.5-.9.9-1.8 1.5-2.8 1.7l-.6-1.3c1.4-.5 2.4-1.4 2.9-2.6-.3.1-.6.2-.9.2-.8.1-1.6-.1-2.1-.5-.7-.5-1.1-1.2-1.1-2.2-.1-.9.2-1.6.7-2.2.5-.6 1.3-.9 2.2-1 1.1-.1 1.9.2 2.5.9.4.7.7 1.5.8 2.5zm-1.9 0c-.1-1.4-.6-2.1-1.4-2.1-.8.1-1.1.7-1 1.8.1 1.1.6 1.6 1.7 1.5.2 0 .5-.1.8-.2-.1-.2-.1-.6-.1-1z"/></g><g id="XMLID_00000103260594129642144620000017287160859933141913_"><path class="st4" d="M611.4 253l9.8-.3S636.6 267 666 251l18.4 9.9c14.8 7.2 26.4-16.8 11.6-23.9 0 0-19.7-8.7-33.6-10.6s-48.3-.2-54.6.3c-3.9.3-11.4 1.6-17.1 3.8-4.5 1.7-24.6 9.8-32.9 13.1-1.8.7-2.2 3.2-.7 4.4 1.9 1.5 4.6 2.9 7.7 2.7 6.2-.5 9.2-1.8 13-3.4 2.7-1.1 8.9-3.6 12.3-5 1.5-.6 3.2-.8 4.8-.5l1.1.2 28.3-4.8c1.4-.2 2.7-.2 4.1 0 1.3.2 2.7.6 3.9 1.2l-34.3 3.9c-.1 0-.3 0-.4.1h-.1c-3 .6-5 3.5-4.4 6.6.1.7.4 1.4.8 2 1.1 1.6 2.9 2.7 5 2.6h1l11.5-.6z"/><path class="st6" d="M596.1 241.8l1.4.2v.2h.1c.1 0 .3 0 .4-.1l34.3-3.9c-1.2-.6-2.6-1-3.9-1.2-1.4-.2-2.7-.2-4.1 0l-28.2 4.8z"/></g><g><path class="st6" d="M170.3 285.6l.9 6.1c2.2 14.5 13 25.6 26.5 28.9l5-29.4-32.4-5.6z"/></g><g><path class="st13" d="M191.3 236c-16.4 2.5-27.7 17.8-25.2 34.2l2.6 17.2c2.5 16.4 17.8 27.7 34.2 25.2 16.4-2.5 27.7-17.8 25.2-34.2l-2.6-17.2c-2.5-16.4-17.8-27.6-34.2-25.2z"/><circle class="st6" cx="194.8" cy="271.5" r="4.1"/><ellipse transform="rotate(-8.66 220.411 267.906)" class="st6" cx="220.5" cy="268" rx="2.8" ry="4.1"/><path fill="none" stroke="#190865" stroke-width="1.265" stroke-miterlimit="10" d="M210.2 262.2l2.1 13.5"/><path class="st5" d="M222.2 279l.7 4.7c.9 5.8-3.7 11.4-10.2 12.4-6.5 1-12.6-2.9-13.5-8.8l-.7-4.7 23.7-3.6z"/></g><path class="st13" d="M170.8 272.7l-9.1 1.4c-4.7.7-7.9 5.1-7.2 9.8.7 4.7 5.1 7.9 9.8 7.2l9.1-1.4c4.7-.7 7.9-5.1 7.2-9.8-.8-4.6-5.1-7.9-9.8-7.2z"/><g><path class="st6" d="M168.1 283.5l3-.4c1.9-.3 3.4-1.8 3.8-3.7l1.5-9.3c15.8-14.1 34.9-17 49.6-11.1-3.3-16.2-18.8-26.9-35.2-24.2-16.6 2.7-27.8 18.5-25.2 35.1l2.5 13.6z"/></g><path class="st6" d="M130.7 470.3l75.7 3.1-.5 8.7c-.1-.1-41.2 5.5-75.2-11.8z"/><path class="st7" d="M189.5 326.1l-25.4-4.3c-3-.5-5.8 1.5-6.3 4.5l-5.1 30.1c-.5 3 1.5 5.8 4.5 6.3l25.4 4.3c3 .5 5.8-1.5 6.3-4.5l5.1-30.1c.5-3-1.5-5.8-4.5-6.3z"/><path class="st7" d="M189 342.1l-30.8-9.5-7.3 4.6c-5.7 3.6-9.6 10.2-10.4 17.4l-6.2 59.9-14.7 27.9c-2.6 5-2.9 11.1-.7 16 3 6.7 8.5 11.5 15.1 13 11.4 2.7 30.3 6.2 48.3 5.5 28.1-1 34.6-9 34.6-9l.4-.5c7.4-8.3 4.6-12.8-.9-21.9l.5-2.6c.2-1-.6-1.9-1.6-1.9l-2.1-.1-10.9-81.9c-.9-4.6-3.2-8.6-6.5-11.3l-6.8-5.6z"/><path class="st6" d="M193.8 554.7l-6.4-32.6 8.4.1-4.2 1.9zM128.2 596.5l26.7 110.2 5.7-22.3z"/><g><path class="st6" d="M149.2 359.5c-6.4 8.1-15.8 15-19 25.1-.8 2.4-.5 6.9-3.6 7.6-4.8 1-5.8-6.3-5.9-9.3-1.1-29.3 3.4-59.7 18.5-84.9 2-3.3 4.3-6.7 7.8-8.5 13.5-7.1 15.6 21.7 15.7 29.6.1 14.4-4.5 29-13.5 40.4z"/></g><g id="XMLID_00000070834727701069088710000017960900227262576036_"><path class="st13" d="M426.5 523.7l-8-.2s-12-12.5-36.9-.6l-14.7-9c-11.9-6.6-22.5 12.6-10.6 19.1 0 0 15.8 8.1 27.1 10.3s39.7 2.4 44.9 2.3c3.3-.1 9.4-.8 14.2-2.3 3.8-1.2 20.7-6.9 27.6-9.3 1.5-.5 2-2.5.7-3.6-1.5-1.3-3.6-2.6-6.2-2.5-5.1.2-7.7 1.1-10.8 2.2-2.2.8-7.5 2.6-10.3 3.5-1.3.4-2.7.5-4 .2l-.9-.2-23.5 2.7c-1.1.1-2.3.1-3.4-.2-1.1-.2-2.2-.6-3.1-1.2l28.4-1.7h.4c2.5-.4 4.3-2.7 3.9-5.2-.1-.6-.3-1.2-.6-1.7-.8-1.4-2.3-2.3-4-2.4h-.9l-9.3-.2z"/><path class="st6" d="M438.7 533.6l-1.1-.2v-.1h-.4l-28.4 1.7c1 .6 2.1 1 3.1 1.2 1.1.2 2.2.3 3.4.2l23.4-2.8z"/></g><path class="st7" d="M224 413.6c8.8 13.3 18.5 26.6 29.2 38.2 10.4 11.4 22.6 18.1 36 25.5 19.3 10.3 39.6 19 60.2 26.7 9.7 3.6 19.6 7 29.6 9.9.6.2 1.3.4 1.9.5l-28 59.4-7.4-5-7.3-4.9c-22.6-15.2-50.4-32.8-72.7-48.3-10.3-7.3-19.9-14-29.5-22.8-9.8-9.3-16.7-18.9-24.3-29.3-16.8-23.7-31.8-48.4-47.5-72.7-2.3-3.6-7.4-10.8-9.5-14.6-12.9-23.5 19.7-41.4 32.6-17.9.1 0 24.7 37 36.7 55.3z"/><path class="st6" d="M159 382.8l36.3 56.3c7.4 11.3 14.4 21.6 20.5 29.8-2 1.6-4.7 2.8-7.7 3.9l-40.6-74.4-6.5-3 4.3.1-6.3-12.7zM192.2 342.6l-4.5-.2 5.1-3z"/></svg>